<svg width="154" height="198" viewBox="0 0 154 198" fill="none" xmlns="http://www.w3.org/2000/svg">
<path d="M113.966 103.009C112.187 99.5754 110.576 96.4732 108.996 93.3556C106.96 89.3399 104.422 88.2984 100.144 90.7531C92.2614 95.2755 83.6831 96.9309 74.6361 95.1095C71.3301 94.4437 68.3019 93.123 65.7778 90.7753C61.3345 86.6422 52.6995 86.8954 49.2628 91.7464C44.5493 98.3996 39.6772 104.952 35.0754 111.654C31.8588 116.339 32.7388 122.951 29.6907 127.966C31.8375 130.308 33.0661 126.316 35.0754 126.379C36.7509 126.431 38.6933 127.234 39 129.361C39.938 135.868 41.5145 182.637 39.5 189C37.3068 188.756 37.0706 148.503 37.0842 147.353C37.096 146.362 37.019 145.5 37 144.5C36.5 118.193 36.5989 130.164 24.8359 134.823C20.8603 136.398 17.7324 135.088 15.8174 131.775C12.536 126.098 7.97849 121.495 4.01823 116.391C0.366526 111.684 -0.0238544 106.536 2.95738 100.986C10.648 86.6687 21.2501 75.2426 35.496 67.3674C44.2938 62.5039 48.2512 53.5353 54.0541 46.1283C55.151 44.7281 54.8318 42.909 54.7027 41.2727C54.1475 34.2371 55.2907 27.2902 56.1005 20.3786C57.6829 6.87447 71.3391 -1.5684 86.565 1.03634C95.1923 2.51217 102.459 5.93258 106.245 14.5009C106.56 15.2144 107.274 15.7517 107.902 16.487C109.09 16.1082 110.157 15.609 111.274 15.4427C114.225 15.0031 115.77 16.5045 114.417 19.1486C112.074 23.726 112.675 28.0571 114.136 32.6182C115.133 35.732 114.439 38.9043 113.675 41.9894C112.569 46.4586 113.451 50.3801 115.94 54.3143C122.102 64.0503 128.674 73.3568 136.991 81.4771C149.535 93.724 154.831 109.019 153.483 126.379C152.78 135.446 143.16 145.934 132.721 140.386C132.04 140.024 131.065 140.23 130.289 139.792C128 138.5 127 137 126.5 136.473C126 135.945 125.163 133.867 124.5 132.282C122.5 127.5 121.082 130.771 121 130.977C118.179 138.093 118.356 184.497 115.5 191.5C112.743 189.544 114.814 138.206 114.879 136.513C115.077 131.359 115.426 126.212 115.72 121.062C115.758 120.397 115.558 119.52 115.904 119.102C120.79 113.207 116.561 108.378 113.966 103.009ZM123.177 116.363C124.603 119.731 125.91 123.157 127.492 126.45C128.859 129.296 131.187 131.165 134.399 131.638C142.81 132.877 151.455 124.081 150.371 115.713C148.656 102.473 143.129 91.2241 133.329 82.163C124.413 73.9207 117.939 63.8699 111.688 53.6218C109.679 50.3279 108.891 47.0693 110.108 43.1953C111.964 37.2844 110.537 31.486 108.915 25.5174C107.027 27.5348 109.572 30.0209 107.325 32.0961C101.312 25.6335 97.0504 31.2556 92.3587 34.4303C91.9458 34.7096 91.5587 35.0288 91.1731 35.346C84.9256 40.4868 84.7019 42.1651 89.8848 48.2746C92.2156 51.0221 94.0978 54.7403 97.9312 55.3656C103.556 56.2831 105.916 58.938 104.137 64.1947C103.469 66.1677 103.741 67.6666 104.324 69.4234C108.567 82.2161 112.71 95.0324 119.468 106.825C121.017 109.529 121.777 112.685 123.177 116.363ZM38.7069 69.273C26.778 75.9992 16.5241 84.4804 9.41236 96.4519C2.65321 107.83 2.60588 108.932 10.5526 119.332C14.0754 123.942 24.9602 123.262 27.9923 118.193C28.3819 117.542 28.6793 116.498 28.4329 115.863C27.4824 113.415 29.0939 112.166 30.479 110.726C32.5527 108.57 34.9776 106.628 36.5737 104.156C49.9925 83.3742 66.1522 64.4591 78.2841 42.7976C80.0246 39.69 80.1696 37.7868 76.4905 36.2747C74.5695 35.4851 73.0842 33.7331 71.4349 32.4691C68.2463 30.0255 64.2753 26.2271 60.6246 27.5187C56.8394 28.8579 58.2129 34.1626 58.0583 37.9004C57.9287 41.034 59.4361 44.7775 57.4659 47.1922C51.5098 54.4921 47.5805 63.5293 38.7069 69.273ZM78.0003 89.0947C77.7111 87.3264 76.024 85.5465 78.0066 83.5301C81.4285 84.9346 80.5437 89.8358 84.1769 90.7539C86.2777 87.4364 88.1141 81.9977 87.2672 80.7088C85.3293 77.7598 82.0986 79.2807 79.4743 78.8402C76.5063 78.342 73.7617 74.5714 70.8168 77.0662C68.3203 79.1812 70.2255 83.1494 68.9869 86.0757C68.859 86.3779 68.7534 86.7062 68.7232 87.0304C68.4442 90.027 70.9217 90.556 72.8458 91.1162C74.6879 91.6525 77.3352 93.6576 78.0003 89.0947ZM60.2957 75.7832C58.8671 78.0862 56.5639 80.0482 57.1984 83.429C60.5162 84.178 64.0152 84.8925 65.6957 81.4395C67.2363 78.2743 67.6 74.547 65.0002 71.4062C62.5897 72.0194 61.8812 73.8565 60.2957 75.7832ZM97.7801 84.3615C95.9616 82.2907 97.9271 77.206 93.4981 77.6214C89.6257 77.9846 91.695 82.3614 90.5796 84.7667C89.7311 86.5965 88.4755 89.8276 92.5681 89.7996C95.3853 89.7804 99.0435 89.8128 97.7801 84.3615ZM70.3794 25.5179C72.2403 29.9101 75.9448 32.0645 79.96 34.5401C80.5205 32.1698 79.1057 32.155 78.5266 31.4668C73.5331 25.5316 72.0649 27.2103 78.4007 20.8704C80.4763 18.7934 83.7131 17.8498 85.5469 13.6074C78.9918 16.7487 74.0969 19.8967 70.3794 25.5179ZM145.783 130.977C142.042 132.749 138.302 134.521 134.184 136.473C139.402 139.694 144.21 138.495 146.951 133.904C147.64 132.751 148.512 131.517 145.783 130.977ZM25.7205 128.201C26.3098 127.039 27.3245 125.533 25.7609 124.754C23.0746 123.415 20.7165 125.202 18.4261 126.373C17.1671 127.016 17.2481 128.232 17.8828 129.361C18.6975 130.809 19.6092 132.424 21.483 132.282C23.4776 132.131 24.3536 130.292 25.7205 128.201ZM102.846 75.9151C102.297 75.0056 101.554 74.0247 100.638 75.297C98.8923 77.7191 100.933 82.2187 104.149 83.1839C105.326 80.7364 103.756 78.7123 102.846 75.9151ZM82.6688 21.1761C81.6967 22.3649 79.9225 23.0128 80.0351 25.3725C83.1404 23.8886 84.9517 21.4881 86.4874 18.7316C85.379 19.4093 84.2706 20.0869 82.6688 21.1761Z" fill="black"/>
<path d="M110.5 197H45.5C39.9772 197 35.5 192.523 35.5 187V156L37.4251 130.011C37.4727 129.369 37.2382 128.738 36.7829 128.283C36.037 127.537 34.8682 127.421 33.9904 128.006L32.7147 128.857C32.5718 128.952 32.4211 129.035 32.2642 129.105L32.1593 129.151C30.2032 130.021 28 128.589 28 126.448C28 126.151 28.0448 125.856 28.1329 125.572L31.9686 113.212C32.3201 112.08 32.8701 111.019 33.593 110.079L48.6753 90.4721C51.0141 87.4317 54.8859 85.9971 58.6411 86.7794L63.1429 87.7173C64.0433 87.9049 64.9136 88.2158 65.729 88.6412L73.2166 92.5478C75.0286 93.4932 77.0868 93.8607 79.1139 93.6008L93.286 91.7838C94.7441 91.5969 96.143 91.0908 97.3831 90.3016L99.3057 89.0782C100.412 88.374 101.697 88 103.008 88C105.478 88 107.758 89.3201 108.988 91.4612L118.822 108.579C119.911 110.474 120.349 112.673 120.069 114.84L118.618 126.086C118.539 126.694 118.517 127.308 118.551 127.92L120.5 163V187C120.5 192.523 116.023 197 110.5 197Z" fill="black" stroke="black"/>
</svg>
