<svg width="512" height="284" viewBox="0 0 512 284" fill="none" xmlns="http://www.w3.org/2000/svg">
<path d="M512 277.255C507.161 282.934 500.984 283.777 494.222 283.774C334.641 283.696 175.059 283.712 15.4775 283.718C9.75865 283.719 4.43834 282.789 0.340307 277.79C0 273.689 0 269.664 0 265.176C0.665957 264.706 1.62024 264.985 1.95472 264.648C7.15839 259.41 13.7785 260.736 20.0502 260.735C179.081 260.707 338.112 260.734 497.143 260.631C502.942 260.627 507.783 261.737 511.662 266.638C512 270.074 512 273.436 512 277.255Z" fill="black"/>
<path d="M320.958 148.716C291.181 161.125 261.788 173.471 232.419 185.875C202.32 198.587 172.276 211.43 142.149 224.075C119.111 233.744 96.1307 243.582 72.8404 252.612C56.2496 259.044 41.0233 247.452 36.8987 232.104C33.7428 220.361 39.7632 205.174 52.2413 199.996C67.4815 193.67 82.6379 187.143 97.8285 180.699C111.548 174.878 125.257 169.034 138.983 163.232C155.215 156.372 171.489 149.608 187.683 142.661C191.75 140.917 195.786 139.999 196.476 133.513C197.259 126.155 204.662 123.391 211.014 120.722C227.556 113.769 244.072 106.754 260.603 99.7762C278.021 92.4236 295.44 85.0725 312.869 77.7439C327.194 71.7201 341.561 65.7952 355.857 59.7045C367.109 54.9111 376.938 58.7082 381.612 69.8214C393.228 97.4386 404.871 125.044 416.474 152.666C426.835 177.33 437.156 202.01 447.498 226.682C452.113 237.689 447.644 247.766 436.421 251.725C432.804 253 429.311 254.725 425.612 255.646C417.12 257.76 410.157 254.674 406.652 246.795C399.882 231.573 393.503 216.175 386.988 200.839C380.221 184.912 373.471 168.978 366.743 153.034C364.44 147.575 362.189 142.094 359.992 136.591C359.109 134.379 357.974 132.85 355.329 133.99C343.999 138.876 332.677 143.781 320.958 148.716Z" fill="black"/>
<path d="M508.759 51.1663C509.828 68.7205 504.544 83.7926 492.275 95.7007C482.802 104.894 471.328 110.167 457.58 110.886C439.834 111.815 424.495 106.745 412.765 93.7137C397.531 76.79 393.817 56.7517 401.557 35.8009C408.643 16.6189 423.128 4.6459 442.964 1.02592C459.302 -1.9555 474.953 1.47064 488.415 12.4938C498.185 20.4936 504.364 30.4825 507.363 42.573C508.023 45.2336 508.168 48.0219 508.759 51.1663Z" fill="black"/>
</svg>
