<svg width="445" height="470" viewBox="0 0 445 470" fill="none" xmlns="http://www.w3.org/2000/svg">
<path d="M308.481 157.322L436.88 231.447L436.879 94.8287L308.48 20.7207L308.481 157.322Z" fill="white"/>
<path d="M439.402 232.908L436.884 234.408L305.969 158.824L308.485 157.322L439.402 232.908Z" fill="#FAFAFA"/>
<path d="M301.215 161.566L441.633 242.636V92.0876L301.215 11.0176V161.566ZM305.966 19.2446L436.881 94.8296L436.882 234.41L305.967 158.825L305.966 19.2446Z" fill="#F0F0F0"/>
<path d="M305.966 158.824L308.482 157.322L308.481 20.7211L305.965 19.2441L305.966 158.824Z" fill="#E0E0E0"/>
<path d="M301.215 11.0167L303.771 9.55273L444.188 90.6227L441.632 92.0867L301.215 11.0167Z" fill="#FAFAFA"/>
<path d="M444.189 90.623L441.633 92.087V242.635L444.189 241.172V90.623Z" fill="#E0E0E0"/>
<path d="M434.788 122.389V125.344L305.965 50.8711L308.481 49.3691L434.788 122.389Z" fill="#FAFAFA"/>
<path d="M375.47 59.3881L372.914 57.9121V197.5L375.47 196.037V59.3881Z" fill="#E0E0E0"/>
<path d="M368.164 55.1816L372.915 57.9116V197.5L368.165 194.749L368.164 55.1816Z" fill="#F0F0F0"/>
<path d="M305.965 50.8711V56.3491L436.93 132.244V126.766L305.965 50.8711Z" fill="#F0F0F0"/>
<path d="M372.914 89.6687L375.47 88.0977L436.879 123.594V126.766L372.914 89.6687Z" fill="#FAFAFA"/>
<path d="M180.967 469.548L9.53125 370.565L270.732 219.859L442.168 318.842L180.967 469.548Z" fill="#E0E0E0"/>
<path d="M206.301 329.294C206.58 325.62 203.671 321.426 197.194 316.455C185.243 307.272 141.808 277.069 124.937 265.885C124.921 265.751 124.803 265.728 124.803 265.728C111.879 256.401 108.979 192.517 101.951 161.948C101.886 161.661 101.405 159.318 100.419 156.306C100.374 156.165 100.325 156.034 100.28 155.895C100.142 155.485 99.9948 155.067 99.8388 154.638C99.7648 154.433 99.6958 154.211 99.6188 154.01L99.6068 154.012C98.3408 150.68 96.5268 147.001 94.0528 144.445C93.8438 144.23 92.8658 143.105 91.1488 142.036C89.6898 141.052 86.1308 139.274 85.3668 138.741C76.5808 132.484 54.2868 148.357 38.5478 155.413C28.7598 159.808 20.2708 165.28 14.4908 176.281H14.4888C11.7148 181.551 9.56979 188.107 8.18979 196.414C5.60079 212.029 6.11879 264.431 7.50079 287.449L7.48879 287.435C9.07879 325.84 14.7408 326.358 22.4778 333.384C35.7798 345.467 74.8388 370.188 87.8788 376.56C111.515 388.111 132.646 374.892 148.108 368.733C163.556 362.586 192.838 348.229 199.463 344.184C203.391 341.772 205.539 339.191 205.728 336.307C205.805 335.171 206.205 330.497 206.301 329.294Z" fill="#263238"/>
<path d="M148.664 361.663C164.117 355.506 193.403 341.15 200.022 337.105C208.971 331.637 208.694 325.29 197.198 316.458C181.227 304.188 115.676 259.752 115.676 259.752C115.676 259.752 39.472 296.473 21.412 312.512C18.682 314.936 18.57 320.069 19.524 321.261C29.418 333.628 73.485 362.18 88.438 369.484C112.082 381.034 133.211 367.82 148.664 361.663Z" fill="#455A64"/>
<path d="M91.1512 142.036C91.0722 141.991 90.9932 141.934 90.9032 141.889C89.0532 140.727 86.8872 139.983 84.3722 139.847C76.3862 139.204 63.7752 144.788 44.8922 156.993C39.5112 160.467 33.6122 164.55 28.7052 169.356C28.6032 169.446 28.5022 169.548 28.4122 169.638C26.9462 171.037 25.5582 172.571 24.2722 174.274C24.0582 174.545 23.8552 174.815 23.6522 175.097C23.5392 175.255 23.4152 175.413 23.3142 175.571C23.0542 175.943 22.7952 176.316 22.5472 176.699C22.0512 177.466 21.5662 178.267 21.0922 179.09C21.0362 179.18 20.9912 179.259 20.9452 179.35C20.7642 179.688 20.5842 180.027 20.4032 180.365L20.3582 180.342L14.4922 176.281C20.2672 165.283 29.1452 159.62 38.2822 154.014C54.0292 144.358 71.5692 131.815 82.7372 137.229C83.5822 137.637 89.6852 141.055 91.1512 142.036Z" fill="#455A64"/>
<path d="M101.949 161.948C100.932 157.921 97.3989 140.54 84.3669 139.844C76.3869 139.207 63.7689 144.794 44.8919 156.989C36.1029 162.667 25.9669 169.945 20.9439 179.35C13.5379 191.039 12.3839 223.459 12.8179 254.642C13.2519 285.826 15.2739 315.773 19.4919 321.286C26.9079 300.488 114.541 259.544 124.802 265.727C111.877 256.401 108.977 192.517 101.949 161.948Z" fill="#37474F"/>
<path d="M180.906 451.019L16.0117 355.818L276.279 205.621L441.173 300.823L180.906 451.019Z" fill="#92E3A9"/>
<path opacity="0.8" d="M180.906 451.019L16.0117 355.818L276.279 205.621L441.173 300.823L180.906 451.019Z" fill="white"/>
<path d="M16.0117 355.818V367.718L180.906 462.92V451.019L16.0117 355.818Z" fill="#92E3A9"/>
<path opacity="0.5" d="M16.0117 355.818V367.718L180.906 462.92V451.019L16.0117 355.818Z" fill="white"/>
<path d="M180.906 462.919L441.174 312.722L441.173 300.822L180.906 451.018V462.919Z" fill="#92E3A9"/>
<path opacity="0.65" d="M180.906 451.018L441.173 300.822L441.174 312.722L180.906 462.919V451.018Z" fill="white"/>
<g opacity="0.2">
<path d="M413.877 289.596C422.502 294.575 422.501 302.65 413.875 307.629C405.25 312.608 391.266 312.608 382.641 307.629C374.016 302.649 374.015 294.575 382.641 289.596C391.267 284.616 405.251 284.616 413.877 289.596Z" fill="#92E3A9"/>
</g>
<path d="M384.521 299.725C377.009 292.06 372.597 272.922 379.923 266.842H417.202C424.527 272.92 420.119 292.047 412.612 299.717C412.548 299.788 412.474 299.858 412.406 299.928C412.32 300.013 412.235 300.099 412.148 300.181C411.936 300.386 411.711 300.588 411.469 300.785C411.409 300.834 411.349 300.878 411.289 300.926C411.105 301.071 410.924 301.215 410.722 301.354C410.402 301.581 410.079 301.793 409.751 301.975C403.572 305.542 393.554 305.542 387.375 301.975H387.374C387.044 301.792 386.719 301.579 386.396 301.35C386.209 301.22 386.041 301.085 385.869 300.951C385.795 300.893 385.721 300.838 385.647 300.777C385.414 300.587 385.196 300.392 384.992 300.194C384.891 300.1 384.793 300.001 384.693 299.902C384.638 299.843 384.575 299.785 384.521 299.725Z" fill="#F0F0F0"/>
<path d="M413.967 264.394C422.473 269.305 422.473 277.267 413.967 282.178C405.46 287.088 391.67 287.089 383.165 282.178C374.659 277.267 374.659 269.305 383.165 264.394C391.671 259.483 405.462 259.483 413.967 264.394Z" fill="#FAFAFA"/>
<path d="M407.934 267.876C413.109 270.863 413.109 275.708 407.934 278.696C402.759 281.683 394.369 281.683 389.194 278.696C384.019 275.708 384.019 270.864 389.194 267.876C394.369 264.888 402.759 264.888 407.934 267.876Z" fill="#E0E0E0"/>
<path d="M389.194 273.011C394.369 270.023 402.759 270.023 407.934 273.011C409.372 273.841 410.395 274.817 411.034 275.853C410.395 276.89 409.372 277.866 407.934 278.696C402.759 281.683 394.369 281.683 389.194 278.696C387.756 277.866 386.733 276.89 386.094 275.853C386.733 274.816 387.756 273.841 389.194 273.011Z" fill="#455A64"/>
<path d="M406.791 275.853C406.791 275.853 410.439 272.377 413.569 266.842C416.699 261.307 419.375 254.272 417.757 253.357C416.139 252.442 407.455 259.458 407.455 259.458C407.455 259.458 408.425 254.94 408.148 250.01C407.871 245.08 406.67 240.601 405.259 239.696C403.848 238.791 400.688 245.012 399.333 249.519C397.978 254.026 397.436 256.826 397.436 256.826C397.436 256.826 396.245 251.638 394.741 247.359C393.098 242.68 391.608 241.622 390.452 242.085C389.296 242.547 388.534 244.73 388.196 250.963C387.959 255.327 388.474 259.882 388.474 259.882C388.474 259.882 386.152 257.329 383.573 254.851C380.742 252.132 378.741 252.135 377.932 252.655C377.123 253.173 377.688 257.026 382.073 264.958C385.943 271.957 390.351 275.854 390.351 275.854C390.351 275.854 396.421 279.767 406.791 275.853Z" fill="#92E3A9"/>
<g opacity="0.2">
<path d="M406.791 275.853C406.791 275.853 410.439 272.377 413.569 266.842C416.699 261.307 419.375 254.272 417.757 253.357C416.139 252.442 407.455 259.458 407.455 259.458C407.455 259.458 408.425 254.94 408.148 250.01C407.871 245.08 406.67 240.601 405.259 239.696C403.848 238.791 400.688 245.012 399.333 249.519C397.978 254.026 397.436 256.826 397.436 256.826C397.436 256.826 396.245 251.638 394.741 247.359C393.098 242.68 391.608 241.622 390.452 242.085C389.296 242.547 388.534 244.73 388.196 250.963C387.959 255.327 388.474 259.882 388.474 259.882C388.474 259.882 386.152 257.329 383.573 254.851C380.742 252.132 378.741 252.135 377.932 252.655C377.123 253.173 377.688 257.026 382.073 264.958C385.943 271.957 390.351 275.854 390.351 275.854C390.351 275.854 396.421 279.767 406.791 275.853Z" fill="black"/>
</g>
<path opacity="0.2" d="M399.336 249.519C397.982 254.026 397.438 256.826 397.438 256.826L398.259 260.71C398.259 260.71 399.11 252.223 400.306 246.756C399.932 247.698 399.6 248.641 399.336 249.519Z" fill="black"/>
<path opacity="0.2" d="M389.96 256.319C388.874 252.339 388.763 245.556 388.762 245.512C388.515 246.836 388.326 248.609 388.199 250.964C387.962 255.328 388.477 259.883 388.477 259.883L394.461 266.157C394.461 266.157 391.049 260.312 389.96 256.319Z" fill="black"/>
<path opacity="0.2" d="M403.684 263.143L407.459 259.458C407.46 259.454 408.428 254.938 408.152 250.01C408.039 247.997 407.766 246.075 407.393 244.424C407.477 245.048 407.997 249.348 406.951 253.486C405.82 257.961 403.684 263.143 403.684 263.143Z" fill="black"/>
<path opacity="0.2" d="M122.679 367.395C122.679 367.235 122.665 367.075 122.66 366.915C122.658 366.889 122.658 366.864 122.657 366.838C122.182 354.222 105.713 342.423 91.7453 340.077C77.5713 337.696 69.1953 347.867 69.1953 354.359C69.1953 354.359 69.2323 354.397 69.2433 354.408C68.9253 359.139 73.4073 364.651 81.9993 368.953C95.2123 375.569 111.76 377.562 118.959 373.406C121.472 371.955 122.645 369.848 122.651 367.408C122.655 367.407 122.679 367.395 122.679 367.395Z" fill="#92E3A9"/>
<path d="M121.875 364.49C121.875 364.337 121.861 364.185 121.857 364.033C121.856 364.008 121.856 363.984 121.854 363.959C121.401 351.93 105.699 340.679 92.3799 338.443C78.8649 336.173 70.8789 345.871 70.8789 352.06C70.8789 352.06 70.9139 352.096 70.9249 352.107C70.6219 356.618 74.8949 361.873 83.0879 365.976C95.6869 372.284 111.465 374.184 118.329 370.221C120.725 368.838 121.843 366.828 121.849 364.502C121.852 364.501 121.875 364.49 121.875 364.49Z" fill="#37474F"/>
<path d="M113.519 348.893C100.874 351.978 94.7213 362.876 92.8203 369.819C93.2783 369.957 93.7343 370.077 94.1913 370.204C96.0333 363.441 102.11 352.68 114.745 350.056C114.349 349.661 113.939 349.274 113.519 348.893Z" fill="#92E3A9"/>
<path d="M119.891 369.071C119.746 359.459 113.42 353.665 107.544 351.545L107.059 352.888C112.961 355.015 118.818 360.627 118.474 370.128C119.009 369.806 119.486 369.455 119.891 369.071Z" fill="#92E3A9"/>
<path opacity="0.2" d="M123.771 326.349L162.868 349.017C164.043 349.697 165.948 349.699 167.125 349.021L279.343 284.32C280.519 283.642 280.52 282.541 279.346 281.861L240.249 259.193C239.074 258.513 237.168 258.511 235.992 259.189L123.774 323.89C122.597 324.567 122.597 325.668 123.771 326.349Z" fill="#92E3A9"/>
<path d="M274.771 278.519C274.771 278.083 274.483 277.648 273.907 277.315L238.929 257.123C237.777 256.458 235.909 256.459 234.757 257.126L128.027 318.846C127.451 319.179 127.164 319.615 127.164 320.05C127.164 320.485 127.164 323.283 127.164 323.718C127.163 324.154 127.452 324.591 128.03 324.924L162.99 345.114C164.144 345.777 166.012 345.774 167.165 345.109L273.907 283.486C274.481 283.155 274.769 282.721 274.771 282.286C274.773 281.847 274.771 278.954 274.771 278.519Z" fill="#263238"/>
<path d="M162.99 341.351L128.03 321.253C126.877 320.59 126.875 319.513 128.027 318.846L234.757 257.125C235.909 256.459 237.776 256.458 238.929 257.123L273.907 277.314C275.059 277.979 275.059 279.058 273.907 279.723L167.165 341.346C166.013 342.012 164.144 342.014 162.99 341.351Z" fill="#37474F"/>
<path d="M164.943 341.847V345.597C164.236 345.581 163.53 345.42 162.983 345.116L128.035 324.927C127.457 324.59 127.168 324.156 127.168 323.723V320.045C127.168 320.479 127.458 320.912 128.035 321.25L162.983 341.358C163.53 341.662 164.237 341.831 164.943 341.847Z" fill="#263238"/>
<path d="M236.59 260.309C236.627 260.309 236.657 260.319 236.665 260.323L240.126 262.321L235.43 265.033L231.853 263.023L236.544 260.314L236.59 260.309ZM242.007 263.438C242.046 263.438 242.076 263.447 242.084 263.452L245.545 265.45L241.858 267.58L238.279 265.568L241.963 263.441L242.007 263.438ZM230.027 264.097C230.066 264.097 230.094 264.106 230.102 264.111L233.565 266.111L229.878 268.239L226.299 266.227L229.982 264.102L230.027 264.097ZM247.426 266.567C247.466 266.567 247.496 266.576 247.506 266.581L250.966 268.579L245.007 272.018L241.426 270.007L247.382 266.569L247.426 266.567ZM236.455 266.644C236.494 266.644 236.524 266.653 236.532 266.658L239.995 268.657L237.065 270.349L233.484 268.337L236.411 266.648L236.455 266.644ZM224.475 267.302C224.514 267.302 224.544 267.312 224.552 267.316L228.013 269.314L224.326 271.444L220.748 269.432L224.431 267.306L224.475 267.302ZM231.659 269.411C231.699 269.411 231.731 269.422 231.74 269.427L235.2 271.425L232.269 273.116L228.691 271.105L231.616 269.416L231.659 269.411ZM252.845 269.696C252.886 269.696 252.915 269.706 252.925 269.71L256.385 271.708L251.688 274.42L248.109 272.408L252.801 269.699L252.845 269.696ZM218.923 270.508C218.962 270.508 218.992 270.517 219 270.522L222.461 272.52L195.81 287.908L192.231 285.894L218.878 270.51L218.923 270.508ZM239.603 271.084C239.644 271.084 239.674 271.093 239.683 271.098L243.143 273.096L240.213 274.787L236.634 272.776L239.559 271.087L239.603 271.084ZM226.865 272.181C226.906 272.181 226.935 272.191 226.945 272.195L230.405 274.193L227.474 275.884L223.897 273.873L226.822 272.184L226.865 272.181ZM258.264 272.825C258.305 272.825 258.335 272.834 258.344 272.839L261.806 274.837L258.874 276.528L255.293 274.517L258.22 272.828L258.264 272.825ZM246.284 273.484C246.324 273.484 246.353 273.494 246.361 273.498L249.824 275.496L246.893 277.189L243.314 275.177L246.241 273.488L246.284 273.484ZM234.808 273.852C234.849 273.852 234.878 273.861 234.888 273.866L238.348 275.864L235.418 277.555L231.837 275.543L234.764 273.855L234.808 273.852ZM222.07 274.949C222.111 274.949 222.141 274.959 222.15 274.963L225.61 276.961L222.679 278.652L219.1 276.64L222.027 274.952L222.07 274.949ZM253.469 275.594C253.51 275.594 253.54 275.603 253.549 275.608L257.009 277.606L254.079 279.297L250.5 277.286L253.425 275.597L253.469 275.594ZM241.489 276.252C241.528 276.252 241.558 276.261 241.566 276.266L245.028 278.264L242.099 279.957L238.52 277.945L241.447 276.256L241.489 276.252ZM230.012 276.619C230.051 276.619 230.081 276.63 230.09 276.635L233.553 278.633L230.623 280.324L227.042 278.312L229.969 276.624L230.012 276.619ZM264.84 276.622C264.881 276.622 264.911 276.632 264.919 276.636L268.382 278.634L264.693 280.762L261.114 278.749L264.799 276.624L264.84 276.622ZM217.276 277.717C217.317 277.717 217.346 277.726 217.356 277.731L220.816 279.729L217.885 281.42L214.307 279.409L217.232 277.72L217.276 277.717ZM248.674 278.362C248.715 278.362 248.744 278.371 248.754 278.376L252.214 280.374L249.284 282.065L245.705 280.054L248.63 278.365L248.674 278.362ZM236.693 279.02C236.734 279.02 236.764 279.03 236.771 279.034L240.234 281.032L237.302 282.725L233.723 280.713L236.65 279.023L236.693 279.02ZM225.218 279.389C225.257 279.389 225.287 279.398 225.295 279.403L228.758 281.401L225.827 283.092L222.248 281.079L225.175 279.392L225.218 279.389ZM212.481 280.486C212.522 280.486 212.552 280.495 212.561 280.5L216.021 282.498L213.09 284.189L209.512 282.178L212.437 280.489L212.481 280.486ZM257.204 281.031C257.243 281.031 257.273 281.04 257.281 281.045L260.744 283.045L257.813 284.736L254.234 282.724L257.161 281.035L257.204 281.031ZM243.878 281.128C243.919 281.128 243.95 281.139 243.96 281.144L247.42 283.142L244.49 284.833L240.91 282.821L243.837 281.133L243.878 281.128ZM231.899 281.789C231.94 281.789 231.969 281.798 231.977 281.803L235.44 283.801L232.509 285.493L228.93 283.48L231.856 281.791L231.899 281.789ZM220.422 282.156C220.463 282.156 220.494 282.167 220.503 282.172L223.963 284.17L221.031 285.861L217.452 283.849L220.379 282.161L220.422 282.156ZM207.685 283.252C207.724 283.252 207.754 283.263 207.763 283.268L211.226 285.266L208.294 286.956L204.715 284.944L207.642 283.256L207.685 283.252ZM252.407 283.8C252.45 283.8 252.479 283.809 252.489 283.814L255.947 285.812L253.017 287.505L249.438 285.493L252.365 283.804L252.407 283.8ZM239.087 283.897C239.126 283.897 239.155 283.907 239.163 283.911L242.626 285.911L239.694 287.602L236.115 285.589L239.041 283.902L239.087 283.897ZM227.104 284.557C227.145 284.557 227.175 284.566 227.183 284.571L230.644 286.569L227.714 288.261L224.135 286.249L227.06 284.559L227.104 284.557ZM215.629 284.924C215.668 284.924 215.698 284.933 215.706 284.938L219.169 286.938L216.238 288.629L212.659 286.617L215.586 284.929L215.629 284.924ZM202.891 286.022C202.931 286.022 202.96 286.031 202.968 286.036L206.431 288.034L203.5 289.725L199.923 287.714L202.848 286.025L202.891 286.022ZM247.614 286.568C247.654 286.568 247.684 286.577 247.694 286.582L251.152 288.58L248.222 290.273L244.643 288.261L247.57 286.572L247.614 286.568ZM234.29 286.667C234.331 286.667 234.36 286.676 234.37 286.681L237.83 288.68L234.899 290.371L231.32 288.359L234.247 286.671L234.29 286.667ZM190.405 286.973C190.446 286.973 190.476 286.982 190.484 286.987L193.947 288.985L190.259 291.113L186.679 289.101L190.362 286.976L190.405 286.973ZM222.309 287.325C222.35 287.325 222.379 287.334 222.387 287.339L225.85 289.337L222.919 291.029L219.34 289.017L222.267 287.328L222.309 287.325ZM210.836 287.693C210.875 287.693 210.904 287.702 210.912 287.707L214.375 289.707L211.444 291.398L207.865 289.386L210.792 287.698L210.836 287.693ZM198.097 288.79C198.138 288.79 198.167 288.8 198.177 288.804L201.637 290.802L198.706 292.493L195.127 290.481L198.053 288.793L198.097 288.79ZM242.819 289.336C242.858 289.336 242.888 289.345 242.896 289.35L246.358 291.348L243.428 293.04L239.849 291.028L242.776 289.338L242.819 289.336ZM229.494 289.433C229.535 289.433 229.566 289.444 229.576 289.449L233.036 291.448L230.105 293.138L226.526 291.126L229.453 289.438L229.494 289.433ZM217.514 290.094C217.555 290.094 217.584 290.104 217.593 290.108L221.056 292.106L218.125 293.798L214.546 291.786L217.473 290.097L217.514 290.094ZM184.853 290.177C184.894 290.177 184.925 290.188 184.934 290.193L188.394 292.191L184.706 294.32L181.125 292.309L184.809 290.182L184.853 290.177ZM206.038 290.461C206.079 290.461 206.11 290.472 206.12 290.477L209.58 292.475L206.649 294.166L203.07 292.154L205.997 290.466L206.038 290.461ZM193.301 291.557C193.342 291.557 193.373 291.568 193.383 291.573L196.843 293.571L193.912 295.262L190.335 293.252L193.26 291.563L193.301 291.557ZM224.701 292.202C224.74 292.202 224.77 292.211 224.778 292.216L228.241 294.216L225.311 295.907L221.73 293.895L224.657 292.207L224.701 292.202ZM212.721 292.862C212.76 292.862 212.79 292.871 212.798 292.876L216.261 294.874L213.329 296.565L209.752 294.554L212.677 292.865L212.721 292.862ZM201.245 293.229C201.284 293.229 201.314 293.238 201.322 293.243L204.785 295.243L201.853 296.934L198.274 294.922L201.201 293.234L201.245 293.229ZM235.938 293.309C235.978 293.309 236.007 293.318 236.015 293.323L239.478 295.321L236.547 297.013L232.968 295.001L235.895 293.312L235.938 293.309ZM179.302 293.383C179.343 293.383 179.373 293.392 179.382 293.397L182.842 295.395L179.154 297.525L175.575 295.513L179.258 293.386L179.302 293.383ZM188.509 294.325C188.548 294.325 188.576 294.334 188.584 294.339L192.047 296.339L189.116 298.03L185.537 296.018L188.464 294.33L188.509 294.325ZM219.906 294.97C219.95 294.97 219.981 294.982 219.987 294.985L223.444 296.982L220.516 298.674L216.935 296.662L219.862 294.974L219.906 294.97ZM207.926 295.63C207.966 295.63 207.995 295.639 208.003 295.644L211.466 297.642L208.535 299.334L204.956 297.322L207.883 295.633L207.926 295.63ZM196.45 295.997C196.489 295.997 196.519 296.007 196.527 296.011L199.99 298.011L197.059 299.702L193.48 297.69L196.407 296.002L196.45 295.997ZM231.144 296.077C231.183 296.077 231.213 296.087 231.22 296.091L234.682 298.089L231.752 299.781L228.173 297.769L231.1 296.08L231.144 296.077ZM173.75 296.589C173.791 296.589 173.82 296.599 173.828 296.603L177.292 298.601L172.594 301.313L169.015 299.301L173.706 296.592L173.75 296.589ZM183.711 297.094C183.75 297.094 183.78 297.105 183.789 297.109L187.252 299.107L178.013 304.441L174.434 302.429L183.669 297.098L183.711 297.094ZM215.113 297.738C215.153 297.738 215.182 297.747 215.191 297.752L218.651 299.752L215.72 301.443L212.141 299.431L215.068 297.743L215.113 297.738ZM203.13 298.399C203.171 298.399 203.201 298.408 203.209 298.413L206.671 300.411L203.741 302.103L200.162 300.09L203.088 298.401L203.13 298.399ZM191.657 298.766C191.695 298.766 191.725 298.776 191.733 298.78L195.196 300.78L192.265 302.471L188.686 300.459L191.613 298.771L191.657 298.766ZM226.347 298.845C226.388 298.845 226.418 298.855 226.426 298.859L229.889 300.858L226.958 302.55L223.379 300.538L226.305 298.849L226.347 298.845ZM210.318 300.506C210.358 300.506 210.387 300.516 210.397 300.52L213.857 302.52L210.925 304.211L207.346 302.199L210.272 300.511L210.318 300.506ZM166.181 300.958C166.219 300.958 166.247 300.967 166.255 300.972L169.721 302.972L166.789 304.663L163.21 302.651L166.137 300.963L166.181 300.958ZM198.335 301.167C198.376 301.167 198.406 301.176 198.414 301.181L201.877 303.179L198.946 304.87L195.369 302.859L198.294 301.17L198.335 301.167ZM186.861 301.534C186.898 301.534 186.927 301.543 186.935 301.548L190.399 303.548L187.722 305.093C187.535 305.201 187.422 305.383 187.422 305.581C187.422 305.788 187.537 305.975 187.74 306.092L192.287 308.716L188.85 310.699L179.85 305.561L186.816 301.539L186.861 301.534ZM221.555 301.614C221.594 301.614 221.624 301.623 221.632 301.628L225.095 303.626L222.164 305.318L218.585 303.306L221.512 301.617L221.555 301.614ZM205.522 303.275C205.561 303.275 205.591 303.284 205.599 303.289L209.061 305.287L206.131 306.98L202.552 304.967L205.478 303.279L205.522 303.275ZM161.385 303.728C161.426 303.728 161.455 303.737 161.463 303.742L164.926 305.74L161.994 307.431L158.415 305.419L161.341 303.731L161.385 303.728ZM193.54 303.935C193.581 303.935 193.61 303.944 193.619 303.949L197.082 305.947L194.151 307.638L190.572 305.626L193.497 303.938L193.54 303.935ZM214.672 305.587C214.713 305.587 214.743 305.596 214.75 305.601L218.212 307.599L215.282 309.292L211.703 307.28L214.63 305.591L214.672 305.587ZM200.729 306.043C200.768 306.043 200.798 306.052 200.808 306.057L204.266 308.055L201.336 309.747L197.757 307.735L200.684 306.047L200.729 306.043ZM156.59 306.495C156.63 306.495 156.662 306.504 156.672 306.511L160.131 308.509L157.2 310.2L153.621 308.188L156.548 306.5L156.59 306.495ZM166.805 306.855C166.846 306.855 166.876 306.865 166.886 306.869L170.346 308.869L167.415 310.56L163.836 308.548L166.763 306.859L166.805 306.855ZM209.878 308.355C209.919 308.355 209.949 308.364 209.956 308.369L213.419 310.367L210.488 312.058L206.909 310.047L209.834 308.358L209.878 308.355ZM195.934 308.811C195.973 308.811 196.003 308.82 196.012 308.825L199.471 310.823L194.27 313.826L190.691 311.814L195.889 308.815L195.934 308.811ZM150.786 309.847C150.826 309.847 150.855 309.856 150.863 309.861L154.326 311.859L146.6 316.319L143.021 314.307L150.742 309.85L150.786 309.847ZM182.438 310.346C182.479 310.346 182.508 310.355 182.518 310.36L185.978 312.358L183.047 314.05L179.468 312.04L182.394 310.349L182.438 310.346ZM205.083 311.123C205.124 311.123 205.154 311.132 205.162 311.137L208.625 313.135L205.693 314.825L202.114 312.814L205.039 311.125L205.083 311.123ZM156.206 312.976C156.247 312.976 156.276 312.986 156.286 312.99L159.746 314.988L156.814 316.68L153.235 314.669L156.162 312.978L156.206 312.976ZM177.643 313.114C177.684 313.114 177.714 313.123 177.723 313.128L181.182 315.126L178.254 316.818L174.673 314.805L177.599 313.116L177.643 313.114ZM187.856 313.474C187.896 313.474 187.927 313.484 187.935 313.488L191.398 315.487L188.466 317.179L184.887 315.167L187.812 313.477L187.856 313.474ZM200.288 313.892C200.329 313.892 200.358 313.901 200.366 313.906L203.829 315.904L200.897 317.595L197.318 315.584L200.243 313.895L200.288 313.892ZM141.197 315.383C141.238 315.383 141.268 315.392 141.277 315.397L144.735 317.395L141.805 319.088L138.226 317.075L141.153 315.386L141.197 315.383ZM151.411 315.744C151.452 315.744 151.482 315.753 151.491 315.758L154.951 317.756L152.021 319.448L148.442 317.436L151.367 315.747L151.411 315.744ZM172.848 315.882C172.889 315.882 172.918 315.891 172.928 315.896L176.388 317.894L173.457 319.587L169.877 317.575L172.804 315.886L172.848 315.882ZM161.624 316.105C161.665 316.105 161.694 316.114 161.702 316.119L165.165 318.117L162.234 319.808L158.655 317.797L161.58 316.108L161.624 316.105ZM183.062 316.243C183.103 316.243 183.133 316.252 183.142 316.257L186.602 318.255L183.672 319.947L180.093 317.935L183.019 316.246L183.062 316.243ZM194.433 317.272C194.474 317.272 194.504 317.281 194.512 317.286L197.975 319.284L195.043 320.976L191.464 318.964L194.389 317.275L194.433 317.272ZM136.402 318.152C136.443 318.152 136.473 318.161 136.483 318.166L145.361 323.293L142.431 324.985L133.43 319.845L136.359 318.154L136.402 318.152ZM146.616 318.512C146.657 318.512 146.686 318.522 146.696 318.527L150.156 320.525L147.226 322.217L143.645 320.205L146.572 318.516L146.616 318.512ZM156.829 318.873C156.87 318.873 156.9 318.882 156.908 318.887L160.371 320.885L157.44 322.576L153.861 320.565L156.786 318.876L156.829 318.873ZM178.267 319.011C178.308 319.011 178.338 319.02 178.347 319.025L181.807 321.023L178.878 322.715L175.299 320.703L178.224 319.014L178.267 319.011ZM167.043 319.232C167.082 319.232 167.111 319.241 167.118 319.246L170.585 321.246L167.654 322.937L164.075 320.925L167 319.237L167.043 319.232ZM189.638 320.04C189.679 320.04 189.709 320.05 189.717 320.054L193.18 322.052L190.248 323.744L186.669 321.732L189.594 320.043L189.638 320.04ZM152.035 321.641C152.076 321.641 152.106 321.65 152.114 321.655L155.577 323.653L152.646 325.344L149.065 323.333L151.991 321.644L152.035 321.641ZM162.249 322C162.288 322 162.316 322.01 162.324 322.014L165.791 324.014L162.86 325.705L159.28 323.693L162.205 322.006L162.249 322ZM172.464 322.361C172.503 322.361 172.533 322.37 172.541 322.375L176.003 324.373L173.073 326.066L169.494 324.053L172.42 322.365L172.464 322.361ZM184.844 322.808C184.885 322.808 184.915 322.817 184.922 322.822L188.385 324.82L185.454 326.512L181.875 324.5L184.802 322.811L184.844 322.808ZM147.24 324.409C147.281 324.409 147.311 324.419 147.32 324.423L156.2 329.55L153.269 331.241L144.268 326.103L147.196 324.412L147.24 324.409ZM157.455 324.769C157.493 324.769 157.521 324.778 157.529 324.783L160.995 326.783L158.064 328.474L154.485 326.462L157.412 324.774L157.455 324.769ZM167.669 325.129C167.707 325.129 167.735 325.138 167.743 325.143L171.208 327.141L168.278 328.833L164.699 326.821L167.625 325.134L167.669 325.129ZM180.432 326.963C180.473 326.963 180.502 326.972 180.51 326.977L182.012 327.825L179.083 329.517L177.475 328.648L180.388 326.965L180.432 326.963ZM162.874 327.898C162.913 327.898 162.943 327.908 162.951 327.912L166.413 329.91L163.483 331.603L159.904 329.591L162.831 327.903L162.874 327.898ZM175.637 329.731C175.678 329.731 175.708 329.74 175.717 329.745L177.218 330.594L174.288 332.286L172.68 331.417L175.593 329.734L175.637 329.731ZM158.08 330.666C158.119 330.666 158.149 330.676 158.156 330.68L161.618 332.678L158.688 334.37L155.109 332.358L158.034 330.67L158.08 330.666ZM170.842 332.499C170.882 332.499 170.912 332.509 170.922 332.513L172.423 333.361L169.493 335.054L167.885 334.185L170.798 332.502L170.842 332.499ZM166.046 335.267C166.087 335.267 166.118 335.278 166.127 335.283L167.63 336.132L164.699 337.824L163.09 336.955L166.004 335.272L166.046 335.267Z" fill="#92E3A9"/>
<path opacity="0.2" d="M380.047 316.798L373.481 313.131C371.442 311.881 368.113 311.843 366.045 313.045L333.37 331.902L329.076 329.392C327.25 328.325 324.285 328.316 322.453 329.374L282.771 352.44C280.939 353.498 280.939 355.212 282.771 356.27L286.958 358.687L239.729 385.943C237.661 387.145 237.664 389.088 239.736 390.284L246.308 394.078C248.379 395.274 251.738 395.274 253.809 394.078L301.034 366.813C302.866 367.867 305.832 367.867 307.663 366.811L347.189 343.836C348.97 342.808 349.009 341.155 347.332 340.083L379.99 321.227C382.06 320.03 382.086 318.047 380.047 316.798Z" fill="#92E3A9"/>
<path d="M364.92 283.056L373.283 183.695C373.514 180.899 371.853 177.567 369.574 176.251C367.295 174.935 363.479 175.005 361.049 176.408L236.178 248.503C233.749 249.906 231.593 253.309 231.362 256.105L222.998 355.466C222.767 358.262 224.428 361.594 226.706 362.91C228.985 364.225 232.802 364.155 235.231 362.753L360.103 290.659C362.533 289.254 364.689 285.851 364.92 283.056Z" fill="#263238"/>
<path d="M364.921 283.056L373.284 183.695C373.515 180.899 371.854 177.567 369.575 176.251C367.296 174.935 363.48 175.006 361.051 176.408L236.18 248.503C234.98 249.196 233.849 250.38 232.98 251.735L248.286 260.572L247.34 355.762L360.105 290.658C362.534 289.254 364.69 285.851 364.921 283.056Z" fill="#455A64"/>
<path d="M231.25 360.23L239.614 260.869C239.845 258.074 242.001 254.671 244.43 253.268L367.77 181.989C370.199 180.587 371.215 181.652 370.984 184.447L364.919 283.056C364.688 285.852 362.532 289.254 360.103 290.657L235.231 362.753C232.802 364.155 231.02 363.026 231.25 360.23Z" fill="#37474F"/>
<path d="M299.158 272.744C299.538 268.139 302.765 262.716 306.365 260.63C309.966 258.544 312.577 260.586 312.197 265.19C311.817 269.795 308.59 275.218 304.989 277.304C301.389 279.39 298.778 277.348 299.158 272.744Z" fill="#92E3A9"/>
<path d="M298.312 311.086L325.002 295.581L320.454 292.955L293.781 308.468L298.312 311.086Z" fill="#455A64"/>
<path d="M337.381 341.083L304.889 359.848C304.307 360.184 303.546 360.34 302.807 360.318C302.18 360.296 301.531 360.139 301.038 359.87C301.015 359.87 301.015 359.848 300.993 359.848L286.684 351.585C286.661 351.562 286.639 351.562 286.617 351.54C285.564 350.913 284.758 349.458 284.758 348.226V347.465C284.758 346.233 285.609 345.718 286.684 346.345L295.328 351.316L297.254 352.435L296.828 350.24L293.782 308.467L298.315 311.092L325.009 295.588L338.904 337.767C339.128 338.978 338.456 340.478 337.381 341.083Z" fill="#37474F"/>
<path d="M285.355 346.189L296.438 339.789L298.69 354.703L285.355 346.189Z" fill="black"/>
<path d="M298.315 311.094L293.782 308.469L296.828 350.242C297.074 351.451 296.38 351.944 295.328 351.317L286.684 346.346C285.609 345.719 284.758 346.234 284.758 347.466V348.227C284.758 349.459 285.564 350.914 286.617 351.541C286.639 351.564 286.662 351.564 286.684 351.586L300.993 359.849C301.015 359.849 301.015 359.871 301.038 359.871C301.531 360.14 302.18 360.297 302.807 360.319L298.315 311.094Z" fill="#263238"/>
<path opacity="0.2" d="M153.668 394.395C162.664 389.693 177.065 389.577 185.834 394.136C194.603 398.696 194.664 406.203 185.969 410.903C177.274 415.603 162.873 415.718 153.803 411.161C144.733 406.604 144.672 399.098 153.668 394.395Z" fill="#92E3A9"/>
<path d="M154.983 362.801C163.232 359.659 176.438 359.514 184.478 362.475C192.519 365.436 192.574 370.382 184.6 373.52C176.626 376.659 163.421 376.804 155.105 373.846C146.788 370.887 146.734 365.942 154.983 362.801Z" fill="#92E3A9"/>
<g opacity="0.3">
<path d="M154.983 362.801C163.232 359.659 176.438 359.514 184.478 362.475C192.519 365.436 192.574 370.382 184.6 373.52C176.626 376.659 163.421 376.804 155.105 373.846C146.788 370.887 146.734 365.942 154.983 362.801Z" fill="black"/>
</g>
<path d="M148.273 352.837L190.761 352.414L188.093 402.507L188.053 402.508C187.872 404.333 186.189 406.151 182.959 407.579C176.072 410.623 164.661 410.749 157.472 407.86C154.099 406.505 152.317 404.726 152.09 402.905H152.048L148.273 352.837Z" fill="#FAFAFA"/>
<path d="M190.761 352.414L190.219 362.587C189.25 363.275 188.092 363.931 186.691 364.529C177.546 368.435 162.394 368.602 152.849 364.902C152.436 364.742 152.091 364.567 151.717 364.397C150.194 363.699 149.034 362.926 149.034 362.926L148.273 352.835L190.761 352.414Z" fill="#EBEBEB"/>
<path d="M145.604 354.347L145.52 346.694L150.471 346.639C151.128 346.284 151.846 345.941 152.636 345.614C162.097 341.704 177.249 341.537 186.478 345.24C187.246 345.549 187.927 345.879 188.569 346.219L193.38 346.166L193.465 353.82C193.492 356.313 191.223 358.832 186.65 360.785C177.505 364.691 162.353 364.858 152.808 361.158C148.035 359.308 145.631 356.841 145.604 354.347Z" fill="#92E3A9"/>
<g opacity="0.2">
<path d="M145.604 354.347L145.52 346.694L150.471 346.639C151.128 346.284 151.846 345.941 152.636 345.614C162.097 341.704 177.249 341.537 186.478 345.24C187.246 345.549 187.927 345.879 188.569 346.219L193.38 346.166L193.465 353.82C193.492 356.313 191.223 358.832 186.65 360.785C177.505 364.691 162.353 364.858 152.808 361.158C148.035 359.308 145.631 356.841 145.604 354.347Z" fill="black"/>
</g>
<path d="M152.571 339.727C162.033 335.818 177.184 335.65 186.413 339.353C195.642 343.056 195.711 349.225 186.565 353.132C177.42 357.038 162.268 357.205 152.723 353.506C143.178 349.805 143.11 343.637 152.571 339.727Z" fill="#92E3A9"/>
<path d="M149.898 344.806H149.88L151.343 338.479L163.496 338.345C167.438 337.81 171.671 337.763 175.582 338.212L187.379 338.082L188.988 344.375H188.968C189.756 346.659 187.966 349.081 183.548 350.892C176.007 353.982 163.517 354.12 155.65 351.2C151.04 349.489 149.134 347.108 149.898 344.806Z" fill="#92E3A9"/>
<path opacity="0.2" d="M149.898 344.806H149.88L151.343 338.479L163.496 338.345C167.438 337.81 171.671 337.763 175.582 338.212L187.379 338.082L188.988 344.375H188.968C189.756 346.659 187.966 349.081 183.548 350.892C176.007 353.982 163.517 354.12 155.65 351.2C151.04 349.489 149.134 347.108 149.898 344.806Z" fill="black"/>
<path d="M156.595 334.387C163.762 331.691 175.233 331.564 182.218 334.104C189.203 336.644 189.25 340.886 182.323 343.579C175.396 346.273 163.924 346.399 156.7 343.862C149.475 341.325 149.428 337.083 156.595 334.387Z" fill="#92E3A9"/>
<path d="M153.746 339.164C153.76 339.264 153.95 339.598 154.552 340.051C155.117 340.469 156.057 340.994 157.52 341.513C160.708 342.623 165.11 343.247 169.593 343.198C174.075 343.148 178.388 342.441 181.427 341.262C182.853 340.711 183.743 340.153 184.262 339.724C184.842 339.245 185 338.895 184.999 338.807C184.997 338.633 184.363 337.532 181.374 336.444C178.31 335.332 173.983 334.72 169.5 334.77C165.018 334.819 160.63 335.528 157.468 336.721C154.491 337.836 153.756 338.94 153.746 339.164Z" fill="#92E3A9"/>
<g opacity="0.5">
<path d="M153.746 339.164C153.76 339.264 153.95 339.598 154.552 340.051C155.117 340.469 156.057 340.994 157.52 341.513C160.708 342.623 165.11 343.247 169.593 343.198C174.075 343.148 178.388 342.441 181.427 341.262C182.853 340.711 183.743 340.153 184.262 339.724C184.842 339.245 185 338.895 184.999 338.807C184.997 338.633 184.363 337.532 181.374 336.444C178.31 335.332 173.983 334.72 169.5 334.77C165.018 334.819 160.63 335.528 157.468 336.721C154.491 337.836 153.756 338.94 153.746 339.164Z" fill="black"/>
</g>
<path d="M154.551 340.051C155.116 340.469 156.056 340.994 157.519 341.513C160.707 342.623 165.109 343.247 169.592 343.198C174.074 343.148 178.387 342.441 181.426 341.262C182.852 340.711 183.742 340.153 184.261 339.724C183.733 339.307 182.831 338.769 181.393 338.249C178.329 337.137 174.002 336.525 169.519 336.575C165.037 336.624 160.649 337.333 157.487 338.525C156.034 339.076 155.106 339.609 154.551 340.051Z" fill="#92E3A9"/>
<g opacity="0.2">
<path d="M154.551 340.051C155.116 340.469 156.056 340.994 157.519 341.513C160.707 342.623 165.109 343.247 169.592 343.198C174.074 343.148 178.387 342.441 181.426 341.262C182.852 340.711 183.742 340.153 184.261 339.724C183.733 339.307 182.831 338.769 181.393 338.249C178.329 337.137 174.002 336.525 169.519 336.575C165.037 336.624 160.649 337.333 157.487 338.525C156.034 339.076 155.106 339.609 154.551 340.051Z" fill="black"/>
</g>
<g opacity="0.5">
<path d="M161.764 340.135C160.71 339.553 159.433 339.324 158.912 339.625C158.391 339.925 158.824 340.647 159.879 341.237C160.933 341.827 162.211 342.056 162.731 341.747C163.251 341.44 162.819 340.718 161.764 340.135Z" fill="black"/>
</g>
<path d="M189.543 386.313C189.564 388.196 187.699 390.1 183.943 391.578C176.431 394.535 163.99 394.672 156.155 391.885C152.245 390.494 150.273 388.637 150.246 386.756L148.836 368.392C148.858 370.39 150.951 372.366 155.109 373.845C163.425 376.803 176.631 376.658 184.604 373.519C188.591 371.95 190.57 369.929 190.548 367.93L189.543 386.313Z" fill="#92E3A9"/>
<g opacity="0.35">
<path d="M189.543 386.313C189.564 388.196 187.699 390.1 183.943 391.578C176.431 394.535 163.99 394.672 156.155 391.885C152.245 390.494 150.273 388.637 150.246 386.756L148.836 368.392C148.858 370.39 150.951 372.366 155.109 373.845C163.425 376.803 176.631 376.658 184.604 373.519C188.591 371.95 190.57 369.929 190.548 367.93L189.543 386.313Z" fill="white"/>
</g>
<path d="M176.584 387.542C177.274 386.592 177.648 385.431 178.204 384.405C179.311 382.362 180.909 380.963 182.963 380.12C183.238 380.007 183.58 380.118 183.714 380.382C184.783 382.498 184.174 385.484 182.035 387.67C179.917 389.835 176.976 390.53 174.842 389.554C174.721 389.499 174.685 389.264 174.782 389.206C175.462 388.801 176.066 388.256 176.584 387.542Z" fill="#37474F"/>
<path d="M181.805 379.55C180.696 379.987 179.662 380.669 178.795 381.448C177.867 382.281 177.154 383.34 176.635 384.473C175.847 386.196 175.088 387.264 173.916 388.16C173.66 388.354 173.267 388.307 173.087 388.041C171.651 385.919 172.175 382.637 174.48 380.281C176.664 378.048 179.723 377.38 181.87 378.495C182.302 378.718 182.257 379.371 181.805 379.55Z" fill="#37474F"/>
<path d="M50.9894 183.504C48.2261 197.666 48.9745 253.882 49.6941 280.22C52.7153 307.422 143.822 282.379 144.685 275.039C145.549 267.699 149.435 204.228 146.412 176.595C143.994 154.488 130.724 144.644 124.392 142.485C67.3979 122.624 54.4436 165.801 50.9894 183.504Z" fill="#FAFAFA"/>
<path d="M110.67 301.038C90.2802 312.79 69.8902 324.543 49.2985 336.288C48.997 336.355 48.8971 336.43 48.7971 336.505C48.7971 336.505 48.7722 336.515 48.6132 336.501C48.2457 336.653 48.0372 336.818 47.8286 336.983C47.8286 336.983 47.8063 336.989 47.6822 337.023C47.4185 337.147 47.3295 337.273 47.2913 337.434C47.2913 337.434 47.2554 337.393 47.077 337.399C45.2571 337.309 44.7405 336.388 44.8299 334.828C45.036 331.234 45.2116 327.636 45.29 324.038C45.368 320.462 45.1229 316.87 45.3496 313.307C46.0646 302.068 46.9737 290.841 47.6974 279.602C47.7941 278.101 48.3433 277.498 49.6922 277.351C54.4497 279.696 59.2071 282.042 63.9126 284.53C63.5134 285.425 62.9618 286.148 62.8507 286.934C61.6993 295.071 59.5269 302.858 55.3964 310.229C56.267 310 57.2447 309.69 57.6816 309.025C58.5543 307.696 59.1719 306.191 59.8222 304.727C62.6119 298.444 63.8707 291.761 64.9028 285.023C67.2894 285.561 69.676 286.099 72.2911 286.86C75.2038 287.642 77.8649 288.456 80.5774 288.701C85.4983 289.145 90.4491 289.271 95.3902 289.454C95.7761 289.469 96.1839 288.897 96.5815 288.598C96.8048 288.577 97.0281 288.556 97.5602 288.69C102.429 288.337 106.991 287.847 111.544 287.283C111.906 287.238 112.203 286.677 112.53 286.355C119.002 284.045 125.584 281.998 131.908 279.336C136.433 277.432 140.61 274.704 145.126 272.244C145.519 274.498 145.99 277.197 146.484 280.098C141.61 283.17 136.728 286.064 131.815 288.905C125.578 292.512 119.317 296.075 112.727 299.563C111.982 296.619 111.576 293.77 111.17 290.92C111.004 290.949 110.837 290.979 110.67 291.008C110.67 294.351 110.67 297.694 110.67 301.038Z" fill="#99C898"/>
<path d="M27.5131 145.831C23.8336 134.316 19.8873 122.904 16.5967 111.237C15.1377 106.065 14.4513 100.385 14.3877 94.9196C14.2661 84.4746 14.6079 73.9998 15.2083 63.5731C15.627 56.3013 16.8153 49.0919 17.6095 41.847C17.7174 40.8629 17.6417 39.8069 17.4639 38.8313C16.5934 34.0544 15.0991 29.328 14.8841 24.5184C14.5883 17.8992 16.5902 11.7007 19.8031 6.21372C20.3219 5.32772 21.6114 4.88486 22.6183 4.61264C24.3835 4.13536 26.2056 3.94879 28.2805 3.78906C32.5448 4.42942 33.5197 5.43558 34.4677 10.082C34.6581 11.0149 34.7118 11.9973 34.9796 12.8947C35.3423 14.1098 35.1417 14.8691 34.2982 15.8047C32.8589 17.4011 32.2737 19.3957 33.439 21.6603C33.7113 22.1894 33.8115 22.8407 33.8364 23.4722C31.6536 24.4371 29.9856 23.5652 28.502 21.8733C30.2936 16.3716 29.6478 11.3622 27.1484 6.5979C27.1419 7.39389 27.3174 8.1579 27.4055 8.93557C27.7195 11.7078 28.1597 14.4773 28.2556 17.2619C28.3523 20.0707 27.3974 21.1102 25.3226 21.0992C23.1548 21.0876 22.229 19.892 22.0186 17.223C21.8691 15.3267 21.4756 13.457 21.1605 11.3735C20.627 14.9196 20.1181 18.0632 19.7239 21.2264C19.6745 21.6228 20.1637 22.3997 20.5198 22.5185C21.2833 22.7732 22.123 22.7131 23.0973 22.8294C24.9386 23.5526 26.614 24.2285 28.3033 25.0987C28.7426 28.3093 29.168 31.3253 29.5934 34.3414C30.2325 33.3317 30.3677 32.3512 30.6149 31.4111C30.8895 30.3663 31.2661 29.3583 31.7167 28.2507C33.6519 24.9659 35.9059 23.0148 39.3905 24.4324C39.7598 24.5826 40.2072 24.4679 40.7364 24.6016C41.7094 24.7272 42.5642 24.7272 43.419 24.7272C43.4302 24.4433 43.4414 24.1593 43.4526 23.8753C42.9741 23.752 42.475 23.6937 42.0208 23.4943C40.0053 22.6097 37.9547 21.8014 36.0221 20.7086C35.3747 20.3425 34.5238 18.6894 34.6482 18.5202C35.3204 17.6061 36.2085 16.5178 37.1373 16.3454C38.7138 16.0527 40.3795 16.3464 42.0015 16.4908C43.6234 16.6351 45.2376 16.8984 46.8551 17.1096C48.828 18.6298 49.625 20.9208 49.1047 23.7369C48.066 29.3596 44.933 33.1986 41.1514 36.4519C39.9932 37.4483 38.839 38.5361 37.5419 39.2036C35.8473 40.0757 35.4889 41.4185 35.6242 43.4045C36.3437 53.9639 36.9855 64.5306 37.6694 75.0935C38.0683 81.2548 38.8133 87.4128 38.826 93.5739C38.8404 100.549 41.2319 106.248 44.3335 111.844C47.129 116.888 49.6893 122.113 52.4583 127.575C52.0222 130.188 51.4811 132.483 50.8302 134.871C50.6458 135.37 50.5711 135.777 50.4943 136.172C50.492 136.16 50.5133 136.155 50.3854 136.208C50.0649 136.718 49.8722 137.175 49.6766 137.624C49.6737 137.615 49.6899 137.615 49.5721 137.68C49.3919 138.03 49.3295 138.314 49.265 138.59C49.2628 138.583 49.2762 138.585 49.1597 138.595C48.9825 138.765 48.922 138.923 48.8569 139.075C48.8525 139.068 48.8651 139.077 48.7558 139.099C48.5807 139.27 48.5149 139.418 48.4451 139.559C48.441 139.551 48.4554 139.559 48.3265 139.612C47.8711 140.277 47.5446 140.889 47.2119 141.494C47.2055 141.488 47.2188 141.497 47.0726 141.555C46.7421 142.137 46.5577 142.662 46.3432 143.226C46.3132 143.265 46.1834 143.412 46.0185 143.362C45.2643 143.68 44.6555 144.009 44.0892 144.42C39.3461 147.858 34.5112 150.756 28.666 148.069C28.2586 147.219 27.8859 146.525 27.5131 145.831Z" fill="#F5B397"/>
<path d="M33.9927 23.434C33.8134 22.8389 33.7131 22.1877 33.4409 21.6586C32.2756 19.394 32.8608 17.3994 34.3001 15.803C35.1435 14.8674 35.3442 14.1081 34.9815 12.893C34.7136 11.9956 34.6599 11.0132 34.4696 10.0802C33.5215 5.43386 32.5467 4.42769 28.4492 3.81445C29.8743 3.92814 31.4091 4.16333 33.1413 4.64419C34.1319 7.50996 35.0432 10.0919 35.6699 12.7658C35.9961 14.158 36.3406 14.9415 37.6786 14.7505C38.4618 14.6387 39.2661 14.7301 40.0144 14.7301C40.4851 10.6737 40.2452 9.53768 38.0559 4.87897C38.4107 5.05888 38.7655 5.23879 39.3042 5.66886C40.1588 7.83697 40.9948 9.70093 41.4644 11.6846C42.3247 15.319 42.2345 15.3484 45.7445 15.877C45.9294 14.5719 46.1143 13.2664 46.2993 11.961C46.4366 13.5838 46.5738 15.2066 46.784 16.9687C45.2394 16.8967 43.6252 16.6334 42.0034 16.489C40.3814 16.3447 38.7157 16.051 37.1392 16.3436C36.2104 16.5161 35.3223 17.6044 34.6501 18.5185C34.5256 18.6877 35.3765 20.3408 36.024 20.7069C37.9566 21.7997 40.0071 22.6079 42.0226 23.4926C42.4769 23.692 42.976 23.7503 43.4545 23.8736C43.4433 24.1576 43.4321 24.4415 43.4209 24.7255C42.5661 24.7255 41.7112 24.7255 40.6378 24.4575C38.277 23.9377 36.1349 23.6858 33.9927 23.434Z" fill="#D27D62"/>
<path d="M37.9509 4.7688C40.2433 9.53991 40.4832 10.6759 40.0125 14.7323C39.2642 14.7323 38.4599 14.6409 37.6767 14.7527C36.3387 14.9437 35.9943 14.1603 35.668 12.768C35.0413 10.0941 34.13 7.51219 33.2695 4.74423C34.7508 4.61637 36.2993 4.63639 37.9509 4.7688Z" fill="#F5B397"/>
<path d="M46.3087 11.7695C46.1138 13.2672 45.9288 14.5727 45.7439 15.8778C42.234 15.3492 42.3242 15.3198 41.4639 11.6854C40.9943 9.70172 40.1583 7.83776 39.4219 5.77137C39.6303 5.61261 39.9044 5.59901 40.1786 5.59248C44.5724 5.48781 45.1737 6.07418 46.3087 11.7695Z" fill="#F5B397"/>
<path d="M22.9336 22.7817C22.1252 22.7129 21.2856 22.773 20.5221 22.5182C20.1659 22.3994 19.6767 21.6225 19.7261 21.2262C20.1203 18.0629 20.6293 14.9194 21.1627 11.3732C21.4778 13.4567 21.8713 15.3264 22.0208 17.2227C22.2312 19.8917 23.157 21.0874 25.3248 21.0989C27.3996 21.11 28.3545 20.0704 28.2578 17.2616C28.162 14.477 27.7217 11.7076 27.4077 8.93533C27.3196 8.15765 27.1441 7.39364 27.1506 6.59766C29.6501 11.3619 30.2958 16.3713 28.3614 21.8603C25.9475 21.8215 23.7341 21.6075 21.3117 21.3732C22.0158 21.9847 22.4747 22.3832 22.9336 22.7817Z" fill="#D27D62"/>
<path d="M23.0964 22.829C22.4716 22.383 22.0127 21.9845 21.3086 21.373C23.7309 21.6073 25.9443 21.8213 28.3005 22.0481C29.9847 23.5648 31.6526 24.4367 33.8355 23.4718C36.1321 23.6871 38.2742 23.939 40.5169 24.3332C40.2062 24.4674 39.7589 24.5822 39.3896 24.4319C35.905 23.0144 33.651 24.9655 31.5882 28.1729C30.3243 27.0874 29.3064 25.9956 28.2886 24.9038C26.6131 24.228 24.9377 23.5522 23.0964 22.829Z" fill="#C47256"/>
<path d="M28.3008 25.0977C29.3048 25.995 30.3227 27.0868 31.4682 28.2559C31.2636 29.3573 30.887 30.3652 30.6123 31.4101C30.3652 32.3501 30.2299 33.3307 29.5909 34.3403C29.1654 31.3243 28.74 28.3082 28.3008 25.0977Z" fill="#D27D62"/>
<path d="M151.864 127.728C154.183 129.812 156.606 131.795 158.795 134.009C161.278 136.519 163.553 139.236 166.058 141.946C167.023 144.24 166.71 146.164 165.451 148.27C159.083 158.924 152.882 169.678 146.616 180.393C146.591 180.436 146.475 180.425 146.205 180.478C145.978 179.53 145.746 178.562 145.65 177.296C147.126 171.697 148.368 166.383 147.595 160.822C147.254 162.191 147.185 163.608 146.893 164.977C146.254 167.974 145.501 170.946 144.795 173.928C142.589 168.608 140.541 163.215 138.11 158.001C136.869 155.336 135.126 152.845 133.284 150.534C129.651 145.977 125.48 142.118 118.934 141.925C124.549 137.891 128.781 132.73 133.153 127.611C134.193 127.889 135.025 128.184 135.871 128.228C140.772 128.483 145.674 128.709 150.579 128.842C150.997 128.853 151.435 128.117 151.864 127.728Z" fill="#9AC999"/>
<path d="M151.818 127.582C151.439 128.117 151.001 128.853 150.583 128.842C145.678 128.709 140.775 128.483 135.874 128.228C135.029 128.184 134.196 127.89 133.303 127.539C133.248 127.368 133.3 127.383 133.436 127.334C133.652 127.006 133.731 126.728 133.81 126.45C133.81 126.45 133.837 126.478 133.932 126.427C134.12 126.24 134.211 126.104 134.303 125.969C134.303 125.969 134.316 126.005 134.413 125.947C134.601 125.756 134.692 125.622 134.783 125.489C134.783 125.489 134.798 125.526 134.912 125.435C135.108 125.06 135.19 124.775 135.272 124.49C136.914 122.938 138.555 121.387 140.357 119.844C143.581 121.722 146.668 123.556 149.695 125.484C150.481 125.985 151.082 126.777 151.818 127.582Z" fill="#A1CEA0"/>
<path d="M146.885 184.433C146.915 182.941 146.942 181.71 146.969 180.479C149.793 211.509 147.005 242.412 145.217 273.335C145.31 269.093 145.395 264.852 145.505 260.61C145.523 259.946 145.714 259.286 145.735 258.621C146.357 238.556 147.034 218.493 147.529 198.425C147.642 193.856 147.115 189.271 146.885 184.433Z" fill="#DAEAD3"/>
<path d="M50.3302 189.473C50.3433 187.981 50.3514 186.749 50.3594 185.518C46.6542 216.456 48.5616 247.425 49.4694 278.386C49.497 274.144 49.5334 269.901 49.5432 265.659C49.5448 264.994 49.372 264.329 49.3703 263.663C49.3193 243.589 49.2127 223.515 49.289 203.441C49.3064 198.871 49.9627 194.302 50.3302 189.473Z" fill="#DAEAD3"/>
<path d="M64.8203 284.914C63.8688 291.762 62.6101 298.444 59.8203 304.727C59.17 306.191 58.5525 307.697 57.6797 309.026C57.2429 309.691 56.2651 310 55.3945 310.229C59.5251 302.858 61.6975 295.071 62.8488 286.934C62.96 286.148 63.5115 285.425 64.0477 284.643C64.4045 284.676 64.5721 284.741 64.8203 284.914Z" fill="#5A9465"/>
<path d="M96.355 288.58C96.1825 288.896 95.7748 289.468 95.3889 289.453C90.4477 289.27 85.497 289.144 80.5761 288.7C77.8635 288.455 75.2024 287.641 72.4766 286.92C80.2548 288.389 88.1679 288.796 96.355 288.58Z" fill="#8ABF8C"/>
<path d="M144.84 174.114C145.502 170.946 146.254 167.974 146.894 164.977C147.186 163.608 147.254 162.191 147.596 160.822C148.368 166.383 147.127 171.697 145.65 177.109C145.304 176.247 145.094 175.273 144.84 174.114Z" fill="#5A9465"/>
<path d="M48.8614 130.43C46.9902 132.184 43.9399 134.571 42.0161 136.267C40.8175 137.325 39.6348 138.397 38.5135 139.531C36.2415 141.828 34.1453 144.299 31.8846 146.778C31.4934 147.207 31.1593 147.694 30.994 148.25C30.4217 150.179 30.7961 151.877 31.8942 153.714C38.2279 164.309 44.3948 175.004 50.6263 185.66V185.66C50.7452 185.864 51.0775 185.564 51.1242 185.333C51.3378 184.276 51.5868 182.58 51.5868 182.58L51.7857 181.128C51.8277 180.821 51.8981 180.519 51.9961 180.225L52.0907 179.941L52.4371 179.23C52.4371 179.23 56.6676 168.577 59.0848 163.391C60.3197 160.741 62.0533 158.263 63.8848 155.966C64.4011 155.318 64.9282 154.685 65.4717 154.074C68.651 150.501 70.6292 140.83 67.4881 137.223C66.3211 135.884 65.1727 134.525 64.0145 133.168L60.5527 130.013C60.5527 130.013 59.2263 129.018 56.8489 126.34C55.8253 125.187 54.5496 125.024 53.4287 126.082C52.1465 127.293 50.3993 128.987 48.8614 130.43Z" fill="#9AC999"/>
<path d="M112.325 286.4C112.202 286.677 111.905 287.238 111.543 287.283C106.99 287.847 102.428 288.337 97.7266 288.711C102.431 287.867 107.276 287.156 112.325 286.4Z" fill="#8ABF8C"/>
<path d="M146.434 185.325C146.447 184.805 146.464 184.439 146.481 184.074C146.613 184.081 146.744 184.088 146.875 184.095C146.826 184.705 146.776 185.316 146.727 185.926C146.677 185.917 146.595 185.922 146.583 185.897C146.525 185.762 146.484 185.619 146.434 185.325Z" fill="#DAEAD3"/>
<path d="M133.682 126.527C133.731 126.728 133.652 127.007 133.444 127.36C133.394 127.158 133.474 126.882 133.682 126.527Z" fill="#9AC999"/>
<path d="M0.472656 347.199C0.69152 347.205 0.913196 347.34 1.1236 347.615C0.900051 347.613 0.687756 347.471 0.472656 347.199Z" fill="#33444B"/>
<path d="M135.152 124.582C135.191 124.776 135.109 125.061 134.897 125.424C134.855 125.226 134.944 124.95 135.152 124.582Z" fill="#9AC999"/>
<path d="M134.178 126.004C134.21 126.104 134.119 126.24 133.912 126.425C133.883 126.329 133.968 126.184 134.178 126.004Z" fill="#9AC999"/>
<path d="M1.17578 347.848C1.28243 347.791 1.45341 347.845 1.66235 348.036C1.5469 348.102 1.39352 348.03 1.17578 347.848Z" fill="#33444B"/>
<path d="M134.648 125.506C134.69 125.622 134.599 125.755 134.395 125.936C134.359 125.831 134.438 125.677 134.648 125.506Z" fill="#9AC999"/>
<path d="M21.1094 148.859C21.1723 148.863 21.2499 148.978 21.2581 149.14C21.1888 149.187 21.124 148.971 21.1094 148.859Z" fill="#85B988"/>
<path d="M146.195 182.835C146.208 182.858 146.182 182.811 146.195 182.835Z" fill="#DAEAD3"/>
<path d="M110.814 300.992C110.668 297.694 110.668 294.351 110.668 291.008C110.835 290.979 111.001 290.949 111.168 290.92C111.574 293.77 111.98 296.619 112.561 299.581C112.144 300.112 111.552 300.529 110.814 300.992Z" fill="#5A9465"/>
<path d="M181.703 16.6679C184.281 21.6587 184.307 26.769 181.813 31.7139C180.904 33.5162 180.642 35.2049 180.697 37.1699C180.976 47.0172 181.573 56.8774 181.35 66.7116C181.129 76.4828 180.592 86.3312 179.19 95.9494C178.246 102.423 175.843 108.697 173.585 114.808C170.228 123.894 166.423 132.758 162.623 141.79C160.396 139.236 158.433 136.519 156.29 134.009C154.401 131.795 152.31 129.812 150.265 127.581C149.63 126.777 149.112 125.984 148.433 125.484C145.821 123.556 143.157 121.721 140.512 119.852C144.529 112.225 148.588 104.626 152.531 96.9479C153.403 95.2509 154.057 93.3296 154.486 91.4138C157.207 79.2831 159.9 67.1431 162.465 54.9674C163.632 49.4295 164.53 43.8126 165.427 38.205C165.538 37.5057 165.057 36.4456 164.567 35.8882C161.304 32.1807 157.9 28.6392 154.681 24.8834C153.329 23.3059 152.621 21.2427 153.484 18.6646C155.359 14.7369 157.551 11.6328 161.199 10.6843C162.222 10.4183 163.759 10.9731 164.507 11.8131C164.944 12.3037 164.649 14.5239 164.044 15.2284C162.741 16.7464 161.024 17.788 159.122 19.3071C160.755 19.3626 162.364 19.7129 163.872 19.4045C166.666 18.833 169.035 19.6444 170.821 22.0038C172.024 23.5939 172.763 25.656 173.71 27.5069C173.611 25.9417 173.298 24.4181 172.734 23.0319C172.039 21.3222 172.103 20.0695 173.804 19.4484C176.428 18.4901 179.069 17.5917 181.703 16.6679Z" fill="#F5B397"/>
<path d="M181.626 16.47C179.072 17.5913 176.431 18.4898 173.807 19.448C172.106 20.0691 172.042 21.3219 172.738 23.0315C173.301 24.4178 173.614 25.9414 173.713 27.5066C172.766 25.6556 172.027 23.5936 170.824 22.0035C169.038 19.6441 166.669 18.8327 163.875 19.4041C162.367 19.7126 160.758 19.3622 159.126 19.3068C161.027 17.7877 162.744 16.746 164.047 15.228C164.652 14.5235 164.947 12.3034 164.51 11.8127C163.762 10.9728 162.225 10.418 161.202 10.684C157.554 11.6325 155.362 14.7366 153.602 18.5244C153.452 18.2834 153.426 17.955 153.403 17.3387C153.323 16.9201 153.241 16.7895 153.159 16.6589C152.082 13.0005 151.809 9.34527 153.328 5.59411C153.464 5.49162 153.53 5.55478 153.526 5.759C152.821 9.01964 152.898 12.0248 154.017 14.9823C154.238 14.0241 154.264 13.0596 154.231 12.0978C154.198 11.1325 154.106 10.1699 154.04 9.20612C154.258 9.1586 154.475 9.11108 154.693 9.06356C154.961 9.93711 155.229 10.8107 155.467 11.5895C157.599 10.6346 159.732 9.7591 161.788 8.68677C162.169 8.48809 162.538 7.3937 162.408 6.88628C161.63 3.85242 159.354 2.12509 156.419 2.11109C156.379 2.05206 156.303 1.93137 156.303 1.93137C157.608 1.74918 158.914 1.56699 160.44 1.51734C163.672 6.14326 166.947 10.5235 165.753 16.9898C168.21 17.8443 168.921 17.4874 169.583 14.8798C171.056 9.07771 168.298 2.34962 163.599 0.28268C164.717 0.436369 165.835 0.59006 167.197 0.917355C171.036 6.2973 171.717 12.0904 169.886 18.3275C172.33 18.8666 175.317 17.0412 175.639 14.8468C176.483 9.09355 175.308 4.08183 171.461 0.0996094C172.884 0.458376 174.306 0.817144 175.801 1.31632C175.577 1.93908 174.929 2.64477 175.036 2.87076C177.087 7.20615 177.322 11.7521 176.327 16.4688C179.264 16.4927 180.536 15.4586 181.138 12.4484C181.458 10.8461 181.626 9.2028 181.863 7.578C181.757 10.4761 181.651 13.3743 181.626 16.47Z" fill="#D27D62"/>
<path d="M171.351 0C175.308 4.08221 176.484 9.09393 175.639 14.8472C175.317 17.0416 172.33 18.867 169.886 18.3279C171.718 12.0907 171.036 6.29769 167.359 0.964116C168.597 0.524596 169.919 0.212302 171.351 0Z" fill="#F5B397"/>
<path d="M163.437 0.265625C168.297 2.3509 171.055 9.079 169.582 14.8811C168.92 17.4887 168.209 17.8456 165.752 16.9911C166.946 10.5248 163.671 6.14455 160.617 1.50217C161.475 0.984551 162.375 0.615917 163.437 0.265625Z" fill="#F5B397"/>
<path d="M181.881 7.39269C181.626 9.20319 181.458 10.8465 181.137 12.4488C180.535 15.459 179.263 16.4931 176.327 16.4692C177.322 11.7525 177.086 7.20654 175.035 2.87115C174.928 2.64516 175.576 1.93947 175.972 1.33639C179.051 0.915143 180.899 2.81413 181.881 7.39269Z" fill="#F5B397"/>
<path d="M153.43 5.46456C153.592 4.99159 153.789 4.54759 154.135 4.05971C154.285 4.01582 154.37 4.1089 154.36 4.26382C154.076 4.79807 153.804 5.17739 153.531 5.55671C153.531 5.55671 153.465 5.49355 153.43 5.46456Z" fill="#D27D62"/>
<path d="M154.609 3.40283C154.828 3.13257 155.046 2.8623 155.41 2.58107C155.556 2.57011 155.621 2.6509 155.576 2.78257C155.283 3.14989 155.035 3.38553 154.743 3.566C154.699 3.51082 154.609 3.40283 154.609 3.40283Z" fill="#D27D62"/>
<path d="M155.523 2.52998C155.688 2.33672 155.884 2.18453 156.192 1.98214C156.303 1.93195 156.379 2.05264 156.35 2.23217C156.087 2.49174 155.854 2.57178 155.621 2.65183C155.621 2.65183 155.555 2.57104 155.523 2.52998Z" fill="#D27D62"/>
<path d="M154.242 3.96917C154.264 3.78198 154.347 3.65623 154.529 3.4752C154.611 3.40441 154.7 3.51239 154.703 3.678C154.625 3.98382 154.513 4.07201 154.371 4.10819C154.371 4.10819 154.285 4.01511 154.242 3.96917Z" fill="#D27D62"/>
<path d="M153.164 16.7793C153.244 16.7916 153.326 16.9222 153.389 17.1766C153.263 17.1923 153.195 17.058 153.164 16.7793Z" fill="#F5B397"/>
<path d="M154.359 4.26344C154.511 4.07233 154.623 3.98414 154.745 3.7335C155.034 3.38743 155.282 3.15178 155.575 2.78446C155.854 2.57275 156.087 2.4927 156.389 2.29216C159.354 2.12663 161.63 3.85396 162.407 6.88782C162.537 7.39524 162.168 8.48963 161.787 8.68831C159.731 9.76064 157.599 10.6362 155.467 11.591C155.228 10.8122 154.96 9.93865 154.692 9.0651C154.475 9.11262 154.257 9.16014 154.04 9.20766C154.106 10.1714 154.197 11.134 154.231 12.0993C154.264 13.0611 154.238 14.0257 154.016 14.9839C152.898 12.0263 152.821 9.02118 153.525 5.76054C153.802 5.177 154.075 4.79768 154.359 4.26344Z" fill="#F5B397"/>
<path d="M69.4993 78.2717C63.1944 90.0148 67.3936 104.305 72.5408 116.693C78.6426 131.137 79.5411 135.956 88.5394 138.584C87.8487 134.668 87.1795 130.716 86.9175 126.745C86.7893 124.801 86.5675 122.44 87.2975 120.579C88.3728 117.839 91.0297 118.492 93.3244 119.179C103.403 122.198 118.487 126.527 123.613 113.315C124.929 109.921 125.18 106.205 125.3 102.554C129.727 102.178 133.925 99.7038 136.426 95.9959C138.929 92.288 139.685 87.4187 138.433 83.0904C138.021 81.6688 137.371 80.2604 136.247 79.3105C137.218 78.1481 137.394 76.3672 136.67 75.0233C135.945 73.6794 134.368 72.8615 132.875 73.0552C133.995 70.2167 135.137 67.2444 134.859 64.1926C134.778 63.3073 134.542 62.3686 133.877 61.7846C132.794 60.8319 131.153 61.2222 129.771 61.59C122.246 63.5974 115.003 62.4687 107.32 62.1299C103.391 61.9568 99.4449 61.8295 95.5368 62.2469C87.7495 63.078 80.096 66.1963 74.4818 71.7019C72.3705 73.7711 70.7337 75.9722 69.4993 78.2717Z" fill="#37474F"/>
<path d="M73.3824 121.765C80.2526 124.17 83.0284 119.384 83.0284 119.384L73.9777 143.425C73.9777 143.425 73.4386 151.189 83.1874 159.348C92.9354 167.505 103.767 170.701 111.644 173.322C112.711 166.225 111.757 158.13 109.783 152.815L114.026 142.527C114.026 142.527 119.883 142.953 125.632 140.593C131.604 138.141 135.339 132.02 136.291 124.919C137.523 115.726 136.466 110.077 135.468 100.885C134.444 91.4425 132.548 78.7907 121.184 76.7346C116.264 75.8446 111.332 77.8323 106.71 79.7377C103.877 80.9057 100.885 82.1551 97.843 82.6361C94.9924 83.0872 91.7141 82.477 88.8129 82.3076C90.7866 88.269 91.4876 90.8427 88.1484 96.1611C87.3137 97.4901 86.3918 98.7582 86.1092 100.334C85.8369 101.858 86.1289 103.452 86.0671 104.995C85.9988 106.691 85.7919 108.382 84.1439 109.227C82.3227 110.162 80.4753 107.387 79.6125 105.625C78.1619 102.665 76.9537 100.776 73.9168 100.188C70.7957 99.5836 67.5708 100.298 65.058 104.488C61.1629 110.986 68.3953 120.019 73.3824 121.765Z" fill="#FFBDA7"/>
<path d="M85.5273 124.154C85.5273 124.154 85.8502 131.86 91.8238 138.334C96.3038 143.188 107.041 146.01 112.131 147.118L114.025 142.527C106.407 141.948 97.7871 139.298 93.2763 135.543C88.7654 131.786 85.5273 124.154 85.5273 124.154Z" fill="#F0997A"/>
<path d="M107.512 94.9914L96.097 97.6244C94.8102 95.6678 96.326 93.4915 99.4775 92.7649C102.631 92.0374 106.227 93.0348 107.512 94.9914Z" fill="#37474F"/>
<path d="M131.856 94.7222L120.13 95.7305C120.659 93.5142 123.714 91.4907 126.951 91.2122C130.188 90.9337 132.386 92.5044 131.856 94.7222Z" fill="#37474F"/>
<path d="M101.657 105.913C102.629 107.262 103.028 104.927 104.647 103.761C106.266 102.596 108.493 103.039 107.521 101.69C106.55 100.341 104.449 100.193 102.83 101.359C101.211 102.525 100.686 104.563 101.657 105.913Z" fill="#263238"/>
<path d="M123.908 102.493C123.914 104.156 125.596 102.489 127.592 102.483C129.587 102.477 131.14 104.133 131.134 102.471C131.129 100.808 129.508 99.4653 127.512 99.4713C125.517 99.4782 123.903 100.831 123.908 102.493Z" fill="#263238"/>
<path d="M114.582 97.5117L118.509 117.502L128.422 112.145L114.582 97.5117Z" fill="#F0997A"/>
<path d="M127.349 127.212C128.073 126.662 128.651 126.053 128.988 125.398C130.038 123.353 127.545 123.102 125.122 123.573C122.457 124.09 119.741 124.285 117.16 124.142C115.916 124.074 114.733 123.903 113.453 124.344C112.752 124.584 111.967 125.121 111.699 125.606C111.438 126.078 111.535 126.682 111.774 127.096C112.723 128.745 115.304 130.129 118.69 130.05C121.804 129.979 125.069 128.941 127.349 127.212Z" fill="#B16668"/>
<path d="M117.156 124.145C116.515 124.11 115.887 124.05 115.257 124.059C117.421 126.875 122.577 128.065 127.902 126.715C128.351 126.3 128.744 125.867 128.984 125.401C130.034 123.356 127.542 123.104 125.121 123.575C122.452 124.093 119.736 124.286 117.156 124.145Z" fill="#F28F8F"/>
</svg>
