<svg width="160" height="318" viewBox="0 0 160 318" fill="none" xmlns="http://www.w3.org/2000/svg">
<path d="M105.413 172.911C118.315 178.219 120.711 181.787 120.712 195.73C120.714 229.89 120.664 264.051 120.749 298.212C120.769 306.278 117.943 312.566 110.518 316.167C99.4456 321.536 86.4992 314.146 85.3437 301.902C85.172 300.083 85.2035 298.24 85.2031 296.409C85.1954 263.414 85.3756 230.419 85.0918 197.427C85.0032 187.121 86.3919 178.162 98.6132 173.352C87.9125 173.352 78.8599 173.353 69.8073 173.351C59.5199 173.35 53.2167 163.404 57.9917 154.623C60.5542 149.91 64.7675 148.079 69.9865 147.878C83.6166 147.352 97.2422 146.707 111.715 146.072C107.894 136.22 104.298 126.946 100.701 117.672C100.067 117.865 99.4337 118.057 98.8001 118.249C100.957 125.55 103.114 132.852 105.072 140.672C104.722 141.648 104.571 142.107 104.419 142.565C87.689 142.565 70.9586 142.565 54.159 142.565C55.9191 134.502 57.6345 126.643 59.3006 118.178C58.9821 117.696 58.7129 117.82 58.4438 117.944C54.989 127.08 51.5342 136.216 47.8819 145.874C51.4255 146.144 54.5202 146.381 58.0534 147.112C58.5234 147.847 58.5549 148.089 58.5864 148.33C51.9062 155.729 51.0842 161.74 55.3584 170.459C54.5502 171.184 53.9988 171.509 53.4475 171.834C45.2931 171.526 37.1375 171.25 28.9848 170.901C20.5512 170.541 14.4687 162.908 17.2138 154.986C23.3684 137.226 29.7316 119.512 36.8159 102.108C41.6932 90.1254 51.785 84.6187 64.5524 84.3152C74.3773 84.0816 84.2129 84.3425 94.0415 84.2126C107.095 84.04 117.318 90.1018 122.302 101.368C130.088 118.966 136.238 137.329 142.313 155.624C144.906 163.432 138.554 170.603 130.271 170.914C122.283 171.214 114.295 171.503 105.603 171.549C103.241 171.223 101.582 171.144 99.9229 171.066C99.9131 171.775 99.9032 172.485 99.8934 173.194C101.733 173.1 103.573 173.005 105.413 172.911Z" fill="black"/>
<path d="M53.3949 172.199C53.9975 171.509 54.5488 171.183 55.4347 170.824C56.9768 171.626 58.0767 172.898 59.4092 173.227C68.9726 175.583 74.3101 181.946 74.325 191.77C74.3796 227.567 74.382 223.365 74.3223 259.162C74.304 270.12 66.7477 277.919 56.4884 277.891C46.2383 277.863 38.7917 270.07 38.7754 259.068C38.7229 223.437 38.7373 227.806 38.766 192.175C38.7735 182.82 42.6984 177.249 51.3496 173.89C52.0765 173.608 52.6819 173.013 53.3949 172.199Z" fill="black"/>
<path d="M55.5247 9.9667C73.0027 -4.99994 96.6267 -2.83915 109.423 14.6234C121.809 31.5265 117.122 55.4678 99.2548 66.5552C83.9417 76.058 63.9574 72.5873 52.4406 58.4251C40.8989 44.2323 42.0582 24.4855 55.5247 9.9667Z" fill="black"/>
<path d="M154.843 235.688C148.389 236.235 142.29 236.649 136.184 236.901C132.705 237.046 129.216 236.928 125.338 236.928C125.338 222.678 125.338 208.682 125.338 194.291C134.186 194.291 142.813 194.024 151.412 194.396C156.27 194.606 158.857 198.125 158.986 202.811C159.219 211.292 159.338 219.799 158.877 228.262C158.743 230.73 156.483 233.082 154.843 235.688Z" fill="black"/>
<path d="M27.3719 236.924C21.2175 236.924 15.5574 236.982 9.89896 236.908C3.39375 236.823 0.236647 233.942 0.10268 227.587C-0.0691555 219.434 0.00657293 211.275 0.0993979 203.12C0.153758 198.345 2.53893 194.712 7.34145 194.463C16.2659 194.001 25.2313 194.331 34.4465 194.331C34.4465 208.638 34.4465 222.523 34.4465 236.924C32.1039 236.924 29.9854 236.924 27.3719 236.924Z" fill="black"/>
<path d="M78.8432 224.579C78.6491 215.265 78.5479 206.297 78.6397 197.331C78.7133 190.15 78.862 183.006 73.0762 176.352C77.8622 176.352 81.5324 176.352 85.5167 176.352C77.2318 190.324 82.0366 205.732 80.6834 220.52C80.5455 222.027 79.5936 223.459 78.8432 224.579Z" fill="black"/>
<path d="M119.636 176.587C119.483 173.941 119.483 173.941 123.818 174.426C123.818 176.616 123.818 178.847 123.818 182.123C122.211 179.982 121.041 178.424 119.636 176.587Z" fill="black"/>
<path d="M105.397 172.645C103.572 173.005 101.732 173.1 99.8926 173.194C99.9024 172.485 99.9123 171.775 99.9221 171.065C101.581 171.144 103.241 171.222 105.155 171.574C105.401 172.025 105.392 172.202 105.397 172.645Z" fill="black"/>
<path d="M104.74 142.574C104.569 142.107 104.721 141.648 105.075 141.048C105.206 141.465 105.134 142.024 104.74 142.574Z" fill="black"/>
<path d="M58.8909 148.228C58.5546 148.089 58.5231 147.847 58.459 147.242C58.9775 146.997 59.5286 147.116 60.0796 147.234C59.785 147.532 59.4903 147.829 58.8909 148.228Z" fill="black"/>
<path d="M58.6855 117.887C58.7127 117.821 58.9818 117.697 59.3331 117.75C59.4152 117.928 58.9276 117.83 58.6855 117.887Z" fill="black"/>
<path d="M23.84 252.466C23.0589 251.685 21.7926 251.685 21.0116 252.466L8.28365 265.194C7.5026 265.975 7.5026 267.241 8.28365 268.022C9.0647 268.803 10.331 268.803 11.1121 268.022L22.4258 256.708L33.7395 268.022C34.5205 268.803 35.7869 268.803 36.5679 268.022C37.349 267.241 37.349 265.975 36.5679 265.194L23.84 252.466ZM24.4258 302.88L24.4258 253.88L20.4258 253.88L20.4258 302.88L24.4258 302.88Z" fill="black"/>
</svg>
