<svg width="357" height="635" viewBox="0 0 357 635" fill="none" xmlns="http://www.w3.org/2000/svg">
<path d="M144.432 143.217C175.489 128.739 207.679 141.357 221.912 169.125C226.318 177.722 228.131 186.981 228.121 196.649C228.081 235.811 228.164 274.972 228.041 314.133C228.025 319.013 229.182 323.007 232.065 327.06C253.508 357.197 274.453 387.691 296.154 417.638C303.654 427.988 304.314 439.492 305.335 451.227C306.949 469.769 308.521 488.315 310.09 506.862C311.505 523.597 312.91 540.333 314.285 557.071C315.401 570.669 316.185 584.301 317.626 597.864C319.525 615.745 308.365 630.43 289.82 633.74C274.743 636.431 258.764 624.946 255.106 608.771C250.229 587.208 245.379 565.639 240.493 544.078C234.906 519.426 229.24 494.792 223.746 470.119C222.837 466.037 220.971 462.981 217.862 460.111C188.971 433.442 160.596 406.219 131.252 380.031C118.303 368.475 111.985 353.517 111.962 336.068C111.93 312.405 111.978 288.741 111.95 265.078C111.946 262.45 112.366 259.759 110.96 256.293C102.74 260.212 93.1284 259.939 88.1419 270.57C75.4119 297.711 61.5552 324.323 48.2076 351.175C43.6616 360.321 36.4413 365.614 26.2403 366.116C8.71367 366.978 -4.29121 350.081 1.32238 333.314C6.12975 318.956 11.8017 304.885 17.1391 290.705C24.8817 270.135 32.7618 249.615 40.372 228.996C42.4128 223.467 45.5754 219.041 50.1734 215.465C79.2363 192.859 108.265 170.209 137.345 147.625C139.433 146.004 141.84 144.794 144.432 143.217Z" fill="black"/>
<path d="M38.2765 539.227C58.2526 511.914 77.7783 484.709 97.943 457.987C102.4 452.08 102.884 445.794 103.568 439.337C105.597 420.17 107.216 400.958 109.006 381.765C109.157 380.147 108.99 378.433 110.032 377.039C110.507 377.039 110.968 376.903 111.111 377.059C132.816 400.598 157.7 420.773 180.909 442.718C186.537 448.04 188.502 452.75 185.814 459.992C184.035 464.786 183.343 469.989 182.233 475.024C180.516 482.818 177.177 489.558 171.561 495.505C138.397 530.621 105.405 565.901 72.4718 601.234C65.2518 608.98 57.5919 615.727 46.3944 616.219C33.654 616.779 23.5879 611.657 17.2131 600.576C10.4287 588.784 11.2409 576.894 18.9186 565.749C25.0577 556.837 31.6596 548.244 38.2765 539.227Z" fill="black"/>
<path d="M252.939 88.654C233.801 130.158 178.618 138.546 148.788 103.962C133.457 86.1887 128.932 65.295 136.651 42.8052C144.622 19.5807 161.385 5.49776 185.363 1.02419C222.955 -5.98931 258.249 23.9563 258.446 62.1279C258.493 71.3197 256.702 79.9547 252.939 88.654Z" fill="black"/>
<path d="M255.411 223.693C257.079 226.613 258.974 229.066 259.982 231.841C263.965 242.811 272.494 247.949 282.829 252.137C303.181 260.384 323.141 269.607 343.196 278.574C351.641 282.349 356.733 290.841 356.118 299.322C355.457 308.428 349.595 316.044 341.11 318.56C336.712 319.864 332.236 319.743 327.819 318.492C300.296 310.7 272.785 302.867 245.245 295.137C242.23 294.29 240.799 292.817 240.807 289.566C240.87 261.258 240.835 232.95 240.851 204.642C240.851 203.698 240.605 202.612 242.475 201.376C246.736 208.725 250.982 216.05 255.411 223.693Z" fill="black"/>
</svg>
