<svg width="154" height="228" viewBox="0 0 154 228" fill="none" xmlns="http://www.w3.org/2000/svg">
<path d="M122.355 77.6509C122.355 136.446 122.355 94.7482 122.355 153.05C122.355 155.216 122.424 157.384 122.333 159.546C121.971 158.174 115.944 163.994 107.636 163.797C99.7204 163.61 93.9028 157.536 93.8891 159.118C93.8359 126.469 93.8662 193.82 93.8654 161.171C93.8654 159.519 93.8654 157.867 93.8654 155.743C92.1744 155.639 90.6349 155.544 88.5207 155.414C88.5207 157.55 88.5209 159.315 88.5207 161.081C88.518 193.23 88.5361 125.38 88.5 157.529C88.4887 157.526 82.9501 163.764 74.2437 163.797C66.4577 163.827 60.2588 157.986 59.9583 160.142C59.7926 155.817 59.914 151.481 59.9139 147.15C59.9126 102.008 59.8798 156.865 60.0135 111.723C60.02 109.533 61.0423 107.009 62.3772 105.23C65.1469 101.538 65.4581 97.6999 64.5797 93.4286C63.7525 89.406 63.1418 85.3389 62.4219 81.2114C78.2944 79.9924 93.5851 78.8182 108.876 77.644C108.836 76.9456 108.796 76.2472 108.756 75.5488C93.3503 76.64 77.9452 77.7312 62.0387 78.8579C62.0387 72.2712 62.0387 66.374 62.0387 60.3398C73.7142 59.4561 85.3097 58.6285 96.8952 57.6777C101.702 57.2832 106.493 56.6731 111.281 56.0757C117.721 55.272 122.335 59.165 122.427 65.6661C122.482 69.4955 122.384 73.327 122.355 77.6509Z" fill="#020202"/>
<path d="M91.8537 51.8144C76.875 51.2889 66.2357 41.5084 65.0996 27.6424C64.0786 15.1789 73.1791 3.0857 85.4754 0.565892C100.392 -2.49084 114.71 7.15876 116.863 21.719C119.173 37.3473 108.377 50.58 91.8537 51.8144ZM105.115 24.5483C92.6806 29.4319 80.9829 29.0729 70.5381 19.5976C72.0662 28.0168 82.3146 32.5061 95.9711 30.8218C105.954 29.5907 111.744 25.2808 111.375 19.7305C109.62 21.144 107.708 22.6841 105.115 24.5483Z" fill="#050505"/>
<path d="M58.4552 105.492C50.8791 108.194 46.1146 106.021 44.4485 98.8179C40.0845 79.9495 39.714 60.8624 42.338 41.733C43.1237 36.0047 47.6736 32.8734 52.9871 33.6063C58.0462 34.3042 61.4767 39.0072 60.6897 44.6061C58.3001 61.606 58.8292 78.4698 62.6493 95.2227C63.6017 99.3997 62.1537 102.735 58.4552 105.492Z" fill="#040404"/>
<path d="M38.6522 69.6261C38.6715 72.9214 38.6715 75.7351 38.6715 78.4523C29.2792 78.4523 19.8265 78.758 10.408 78.3229C5.72014 78.1064 2.62394 73.4461 2.8844 68.7177C3.15535 63.7989 6.75638 60.2141 12.0945 60.1106C20.7273 59.9432 29.3657 60.0656 38.633 60.0656C38.633 63.5886 38.633 66.3665 38.6522 69.6261Z" fill="#050505"/>
<path d="M30.5366 43.4536C23.9401 43.4541 17.8037 43.4541 11.1493 43.4541C11.1493 46.2558 11.1493 48.9493 11.1493 51.434C7.3886 47.7632 3.78024 44.2411 0 40.5513C3.22938 37.5524 6.94603 34.101 10.7922 30.5293C10.7922 32.8585 10.7922 35.5275 10.7922 38.5208C18.5642 38.5208 25.8198 38.5208 33.4964 38.5208C33.5659 40.9249 35.1863 43.4987 30.5366 43.4536Z" fill="#111111"/>
<path d="M105.457 24.3863C107.709 22.6841 109.621 21.1441 111.376 19.7306C111.745 25.2809 105.955 29.5907 95.9721 30.8219C82.3155 32.5062 72.0672 28.0169 70.5391 19.5977C80.9839 29.073 92.6815 29.4319 105.457 24.3863Z" fill="#E8E8E8"/>
<path d="M45.3729 223.006C51.832 225.491 56.8835 223.559 60.3979 216.945C64.7742 199.813 68.9423 183.184 73.2176 166.128L73.2318 166.071H110.335C114.499 182.793 118.304 198.412 122.301 213.983C124.293 221.74 130.181 225.55 136.736 223.718C143.012 221.963 145.984 216.085 144.189 208.625C140.1 191.625 135.687 174.696 131.902 157.63C130.109 149.546 126.732 143.237 117.216 143L65.9841 143.23C56.2239 145.262 54.3384 146.962 52.068 156.059C47.721 173.477 43.412 190.905 39.1917 208.353C37.4629 215.5 39.651 220.806 45.3729 223.006Z" fill="black"/>
<path d="M84.6857 202.171C78.5224 203.681 72.903 204.991 67.2836 206.302C67.0204 205.641 66.7573 204.981 66.4941 204.321C70.9287 197.353 80.0726 200.255 86.4719 196.11C87.1083 192.199 87.8367 187.722 88.6425 182.771C83.1266 181.624 78.0498 180.569 72.6279 179.443C73.4388 175.918 74.1072 173.013 75.0219 169.036C85.6752 169.036 96.4368 169.036 107.612 169.036C108.474 172.418 109.258 175.497 110.261 179.432C104.987 180.514 100.098 181.517 94.2845 182.71C94.9912 187.218 95.6867 191.655 96.3676 195.998C102.524 200.363 111.981 197.311 116.055 206.302C108.923 204.705 101.791 203.108 92.6252 201.055C94.088 205.707 95.6379 209.25 96.2098 212.946C96.5862 215.378 96.4006 219.05 94.9109 220.293C93.4449 221.516 89.1719 221.32 87.6925 219.996C86.2927 218.742 86.4581 215.153 86.7757 212.7C87.167 209.678 88.5724 206.796 89.1195 203.777C89.1836 203.423 86.5907 202.585 84.6857 202.171Z" fill="#0D0D0D"/>
</svg>
