<svg width="500" height="500" viewBox="0 0 500 500" fill="none" xmlns="http://www.w3.org/2000/svg">
<path d="M338.481 178.322L466.88 252.447L466.879 115.829L338.48 41.7207L338.481 178.322Z" fill="white"/>
<path d="M469.402 253.908L466.884 255.408L335.969 179.824L338.485 178.322L469.402 253.908Z" fill="#FAFAFA"/>
<path d="M331.215 182.566L471.633 263.636V113.088L331.215 32.0176V182.566ZM335.966 40.2446L466.881 115.83L466.882 255.41L335.967 179.825L335.966 40.2446Z" fill="#F0F0F0"/>
<path d="M335.966 179.824L338.482 178.322L338.481 41.7211L335.965 40.2441L335.966 179.824Z" fill="#E0E0E0"/>
<path d="M331.215 32.0167L333.771 30.5527L474.188 111.623L471.632 113.087L331.215 32.0167Z" fill="#FAFAFA"/>
<path d="M474.189 111.623L471.633 113.087V263.635L474.189 262.172V111.623Z" fill="#E0E0E0"/>
<path d="M464.788 143.389V146.344L335.965 71.8711L338.481 70.3691L464.788 143.389Z" fill="#FAFAFA"/>
<path d="M405.47 80.3881L402.914 78.9121V218.5L405.47 217.037V80.3881Z" fill="#E0E0E0"/>
<path d="M398.164 76.1816L402.915 78.9116V218.5L398.165 215.749L398.164 76.1816Z" fill="#F0F0F0"/>
<path d="M335.965 71.8711V77.3491L466.93 153.244V147.766L335.965 71.8711Z" fill="#F0F0F0"/>
<path d="M402.914 110.669L405.47 109.098L466.879 144.594V147.766L402.914 110.669Z" fill="#FAFAFA"/>
<path d="M210.967 490.548L39.5312 391.565L300.732 240.859L472.168 339.842L210.967 490.548Z" fill="#E0E0E0"/>
<path d="M312.348 197.303C311.001 196.154 309.228 195.597 307.465 195.431C304.597 195.16 301.786 195.842 298.937 195.997C294.598 196.233 287.59 196.671 283.682 194.596C282.886 194.173 281.366 193.052 282.95 192.568C285.016 191.936 287.154 191.468 289.083 190.492C291.012 189.516 292.759 187.922 293.309 185.831C293.475 185.201 293.518 184.501 293.214 183.925C292.782 183.11 292.171 183.206 291.457 183.352C290.705 183.505 289.926 183.53 289.155 183.585C287.565 183.699 285.974 183.815 284.386 183.952C275.115 184.748 265.5 186.264 257.674 191.662C256.537 192.446 248.75 199.161 244.052 202.806C240.002 206.238 214.413 220.427 214.413 220.427C214.413 220.427 207.313 202.951 203.049 192.02C197.668 178.225 193.321 169.399 189.322 163.472C185.054 157.147 182.209 155.422 170.492 153.162L172.218 214.254C172.218 214.254 187.197 243.008 190.128 247.639C199.194 261.965 203.677 263.126 215.682 257.805C225.888 253.281 231.774 246.252 244.862 233.05C254.91 222.914 256.421 220.361 260.349 217.627C264.277 214.893 268.07 216.948 270.908 217.35C276.094 218.085 277.469 218.086 282.694 217.73C286.134 217.496 289.564 216.885 292.828 215.76C294.195 215.289 296.368 214.742 297.382 213.661C298.329 212.65 298.74 211.24 299.843 210.286C301.081 209.216 302.791 208.757 303.904 207.557C304.779 206.614 305.173 205.336 305.778 204.2C306.74 202.395 308.379 201.864 310.221 201.296C311.115 201.021 312.076 200.799 312.751 200.152C313.834 199.113 313.262 198.083 312.348 197.303Z" fill="#FFBDA7"/>
<path d="M214.415 220.425L213.005 216.945C205.929 221.7 200.173 230.892 201.262 239.819C201.769 236.418 205.374 226.719 214.415 220.425Z" fill="#F0997A"/>
<path d="M277.484 195.898C273.653 199.659 266.613 202.637 263.238 202.866C263.238 202.866 267.808 204.495 271.48 202.634C275.503 200.594 276.847 197.848 277.484 195.898Z" fill="#F0997A"/>
<path d="M160.785 150.178C180.944 152.9 186.923 152.67 196.66 175.261C203.213 190.463 210.623 209.413 210.623 209.413C210.623 209.413 207.227 217.397 196.958 223.273C185.004 230.113 177.884 227.242 177.884 227.242L171.298 215.064L160.785 150.178Z" fill="#92E3A9"/>
<path d="M236.301 350.294C236.58 346.62 233.671 342.426 227.194 337.455C215.243 328.272 171.808 298.069 154.937 286.885C154.921 286.751 154.803 286.728 154.803 286.728C141.879 277.401 138.979 213.517 131.951 182.948C131.886 182.661 131.405 180.318 130.419 177.306C130.374 177.165 130.325 177.034 130.28 176.895C130.142 176.485 129.995 176.067 129.839 175.638C129.765 175.433 129.696 175.211 129.619 175.01L129.607 175.012C128.341 171.68 126.527 168.001 124.053 165.445C123.844 165.23 122.866 164.105 121.149 163.036C119.69 162.052 116.131 160.274 115.367 159.741C106.581 153.484 84.2868 169.357 68.5478 176.413C58.7598 180.808 50.2708 186.28 44.4908 197.281H44.4888C41.7148 202.551 39.5698 209.107 38.1898 217.414C35.6008 233.029 36.1188 285.431 37.5008 308.449L37.4888 308.435C39.0788 346.84 44.7408 347.358 52.4778 354.384C65.7798 366.467 104.839 391.188 117.879 397.56C141.515 409.111 162.646 395.892 178.108 389.733C193.556 383.586 222.838 369.229 229.463 365.184C233.391 362.772 235.539 360.191 235.728 357.307C235.805 356.171 236.205 351.497 236.301 350.294Z" fill="#263238"/>
<path d="M178.664 382.663C194.117 376.506 223.403 362.15 230.022 358.105C238.971 352.637 238.694 346.29 227.198 337.458C211.227 325.188 145.676 280.752 145.676 280.752C145.676 280.752 69.472 317.473 51.412 333.512C48.682 335.936 48.57 341.069 49.524 342.261C59.418 354.628 103.485 383.18 118.438 390.484C142.082 402.034 163.211 388.82 178.664 382.663Z" fill="#455A64"/>
<path d="M121.151 163.036C121.072 162.991 120.993 162.934 120.903 162.889C119.053 161.727 116.887 160.983 114.372 160.847C106.386 160.204 93.7752 165.788 74.8922 177.993C69.5112 181.467 63.6122 185.55 58.7052 190.356C58.6032 190.446 58.5022 190.548 58.4122 190.638C56.9462 192.037 55.5582 193.571 54.2722 195.274C54.0582 195.545 53.8552 195.815 53.6522 196.097C53.5392 196.255 53.4152 196.413 53.3142 196.571C53.0542 196.943 52.7952 197.316 52.5472 197.699C52.0512 198.466 51.5662 199.267 51.0922 200.09C51.0362 200.18 50.9912 200.259 50.9452 200.35C50.7642 200.688 50.5842 201.027 50.4032 201.365L50.3582 201.342L44.4922 197.281C50.2672 186.283 59.1452 180.62 68.2822 175.014C84.0292 165.358 101.569 152.815 112.737 158.229C113.582 158.637 119.685 162.055 121.151 163.036Z" fill="#455A64"/>
<path d="M131.949 182.948C130.932 178.921 127.399 161.54 114.367 160.844C106.387 160.207 93.7689 165.794 74.8919 177.989C66.1029 183.667 55.9669 190.945 50.9439 200.35C43.5379 212.039 42.3839 244.459 42.8179 275.642C43.2519 306.826 45.2739 336.773 49.4919 342.286C56.9079 321.488 144.541 280.544 154.802 286.727C141.877 277.401 138.977 213.517 131.949 182.948Z" fill="#37474F"/>
<path d="M64.1925 281.595C62.8685 300.96 64.6135 314.378 67.4775 323.888C70.7995 334.918 75.9085 349.412 97.2575 361.974C127.616 379.839 148.728 391.691 148.728 391.691L249.269 326.177L177.001 281.594L64.1925 281.595Z" fill="#92E3A9"/>
<path opacity="0.1" d="M64.1925 281.595C62.8685 300.96 64.6135 314.378 67.4775 323.888C70.7995 334.918 75.9085 349.412 97.2575 361.974C127.616 379.839 148.728 391.691 148.728 391.691L249.269 326.177L177.001 281.594L64.1925 281.595Z" fill="black"/>
<path opacity="0.35" d="M99.861 341.642C99.039 340.753 98.256 339.867 97.493 338.983C105.068 336.971 109.527 327.566 108.583 316.943C108.041 310.849 107.428 303.944 108.251 297.403L106.925 297.236C106.083 303.918 106.704 310.901 107.251 317.06C108.203 327.772 103.681 336.437 96.516 337.837C82.005 320.463 84.266 303.588 91.329 281.191L90.055 280.789C82.311 305.341 81.132 323.364 98.88 342.55C110.543 355.158 142.353 372.379 160.965 383.852L162.212 383.053C143.643 371.629 111.545 354.273 99.861 341.642Z" fill="black"/>
<path opacity="0.35" d="M181.022 305.654C176.975 318.682 168.551 324.895 168.551 324.895C184.307 336.371 197.222 347.02 206.241 354.841L217.261 347.78L178.555 321.8C183.073 312.57 181.022 305.654 181.022 305.654Z" fill="black"/>
<path d="M210.906 472.019L46.0117 376.818L306.279 226.621L471.173 321.823L210.906 472.019Z" fill="#92E3A9"/>
<path opacity="0.8" d="M210.906 472.019L46.0117 376.818L306.279 226.621L471.173 321.823L210.906 472.019Z" fill="white"/>
<path d="M46.0117 376.818V388.718L210.906 483.92V472.019L46.0117 376.818Z" fill="#92E3A9"/>
<path opacity="0.5" d="M46.0117 376.818V388.718L210.906 483.92V472.019L46.0117 376.818Z" fill="white"/>
<path d="M210.906 483.919L471.174 333.722L471.173 321.822L210.906 472.018V483.919Z" fill="#92E3A9"/>
<path opacity="0.65" d="M210.906 472.018L471.173 321.822L471.174 333.722L210.906 483.919V472.018Z" fill="white"/>
<path d="M108.841 311.221C89.9442 311.221 73.9352 306.883 63.7212 299.001C63.2132 282.643 63.4512 250.867 70.5912 219.875C70.9242 218.431 71.2532 216.956 71.5882 215.46C74.9292 200.524 78.7162 183.596 90.3262 173.682C95.2412 169.486 101.117 166.575 106.801 163.76L110.515 161.921C123.239 155.625 136.662 151.81 149.335 150.889C152.158 150.684 154.416 150.588 156.441 150.588C163.97 150.588 172.628 151.742 179.749 160.3C188.48 170.793 188.472 185.418 187.162 199.66C186.324 208.766 184.326 217.137 182.393 225.232C180.338 233.841 178.396 241.974 178.226 249.746L178.178 251.853C178.029 258.163 177.875 264.688 178.719 269.421C179.674 274.777 180.374 283.424 180.381 283.511C180.382 283.54 180.479 286.855 173.472 292.282C166.229 297.89 152.814 305.413 130.032 309.409C123.274 310.594 115.946 311.221 108.841 311.221Z" fill="#FAFAFA"/>
<path d="M156.441 151.168C163.835 151.168 172.333 152.297 179.301 160.671C187.897 171.001 187.88 185.489 186.582 199.607C185.748 208.671 183.755 217.021 181.827 225.097C179.764 233.738 177.816 241.899 177.645 249.734L177.597 251.834C177.447 258.175 177.292 264.731 178.147 269.524C179.097 274.853 179.794 283.472 179.8 283.529C179.8 283.56 179.773 286.669 173.116 291.824C165.926 297.392 152.597 304.863 129.93 308.839C123.205 310.018 115.912 310.642 108.84 310.642C90.2032 310.642 74.4142 306.408 64.2922 298.709C63.7962 282.301 64.0712 250.764 71.1552 220.006C71.4882 218.561 71.8182 217.084 72.1532 215.586C75.4752 200.739 79.2392 183.911 90.7022 174.124C95.5622 169.974 101.406 167.08 107.058 164.28L110.772 162.441C123.428 156.177 136.778 152.383 149.377 151.468C152.185 151.264 154.429 151.168 156.441 151.168ZM156.441 150.008C154.124 150.008 151.737 150.132 149.292 150.31C135.746 151.294 122.393 155.394 110.256 161.401C109.018 162.014 107.78 162.627 106.542 163.24C100.739 166.114 94.8732 169.036 89.9482 173.241C77.0142 184.285 73.6752 203.892 70.0242 219.745C63.7512 246.979 62.4302 276.754 63.1492 299.292C74.9512 308.53 92.4482 311.801 108.84 311.801C116.393 311.801 123.713 311.106 130.13 309.981C150.475 306.413 164.787 299.74 173.825 292.741C181.276 286.971 180.957 283.466 180.957 283.466C180.957 283.466 180.26 274.768 179.288 269.32C178.362 264.129 178.65 256.834 178.804 249.759C179.129 234.882 185.989 218.703 187.736 199.713C189.13 184.561 188.866 170.353 180.192 159.929C173.515 151.903 165.487 150.008 156.441 150.008Z" fill="#E0E0E0"/>
<path d="M114.928 88.4776C108.191 101.026 112.678 116.296 118.178 129.533C124.698 144.967 125.658 150.116 135.273 152.924C134.535 148.74 133.82 144.517 133.54 140.274C133.403 138.196 133.166 135.673 133.946 133.685C135.095 130.757 137.934 131.455 140.386 132.189C151.155 135.415 167.273 140.041 172.75 125.923C174.157 122.297 174.425 118.326 174.553 114.425C179.283 114.023 183.769 111.379 186.442 107.417C189.116 103.455 189.924 98.2516 188.586 93.6266C188.146 92.1076 187.451 90.6026 186.25 89.5876C187.288 88.3456 187.476 86.4426 186.702 85.0066C185.928 83.5706 184.243 82.6966 182.647 82.9036C183.844 79.8706 185.064 76.6946 184.767 73.4336C184.681 72.4876 184.428 71.4846 183.718 70.8606C182.561 69.8426 180.807 70.2596 179.331 70.6526C171.29 72.7976 163.55 71.5916 155.341 71.2296C151.142 71.0446 146.926 70.9086 142.75 71.3546C134.429 72.2426 126.251 75.5746 120.252 81.4576C117.996 83.6686 116.247 86.0206 114.928 88.4776Z" fill="#37474F"/>
<path d="M119.072 134.953C126.413 137.522 129.379 132.408 129.379 132.408L119.708 158.097C119.708 158.097 119.132 166.393 129.549 175.111C139.965 183.828 151.539 187.243 159.956 190.043C161.096 182.46 160.077 173.81 157.967 168.131L162.501 157.138C162.501 157.138 168.76 157.593 174.903 155.071C181.284 152.451 185.275 145.911 186.292 138.323C187.608 128.5 186.479 122.464 185.413 112.642C184.318 102.552 182.293 89.0325 170.15 86.8355C164.893 85.8845 159.623 88.0085 154.684 90.0445C151.657 91.2925 148.46 92.6275 145.209 93.1415C142.163 93.6235 138.66 92.9715 135.56 92.7905C137.669 99.1605 138.418 101.911 134.85 107.594C133.958 109.014 132.973 110.369 132.671 112.053C132.38 113.681 132.692 115.385 132.626 117.033C132.553 118.846 132.332 120.652 130.571 121.555C128.625 122.554 126.651 119.589 125.729 117.706C124.179 114.544 122.888 112.525 119.643 111.897C116.308 111.251 112.862 112.014 110.177 116.492C106.015 123.435 113.743 133.087 119.072 134.953Z" fill="#FFBDA7"/>
<path d="M132.051 137.504C132.051 137.504 132.396 145.738 138.779 152.655C143.566 157.842 155.039 160.858 160.478 162.042L162.502 157.136C154.362 156.517 145.151 153.686 140.331 149.673C135.511 145.659 132.051 137.504 132.051 137.504Z" fill="#F0997A"/>
<path d="M157.502 100.255C157.284 100.282 157.027 100.408 157.035 100.627C157.044 100.873 157.262 100.905 157.438 100.986C157.727 101.119 158.003 101.298 158.264 101.478C158.526 101.659 158.782 101.865 158.943 102.139C159.059 102.336 159.121 102.559 159.173 102.781C159.262 103.161 159.29 103.527 159.322 103.91C159.348 104.224 159.62 104.412 159.911 104.143C160.021 104.042 160.085 103.901 160.134 103.76C160.287 103.319 160.339 102.866 160.268 102.424C160.229 102.178 160.151 101.936 160.031 101.7C159.587 100.824 158.505 100.129 157.502 100.255ZM169.872 100.044C169.985 99.5196 169.41 99.0326 168.913 99.2416C168.069 99.5956 167.555 100.542 167.33 101.392C167.009 102.607 167.178 104.081 168.205 104.917C168.355 105.039 168.577 105.144 168.727 105.024C169.093 104.734 168.714 103.392 168.713 103.01C168.712 102.442 168.853 101.875 169.113 101.37C169.341 100.929 169.765 100.54 169.872 100.044ZM162.98 97.5306C162.836 97.4486 162.711 97.5006 162.662 97.6596C162.559 97.9996 162.726 98.2426 162.886 98.5216C163.063 98.8316 163.214 99.1556 163.339 99.4896C163.586 100.148 163.734 100.841 163.799 101.541C163.86 102.199 163.848 102.862 163.783 103.519C163.722 104.138 163.565 104.744 163.507 105.361C163.501 105.423 163.548 105.598 163.639 105.513C164.68 104.534 164.85 103.063 164.752 101.71C164.698 100.959 164.547 100.194 164.281 99.4876C164.019 98.7946 163.647 97.9126 162.98 97.5306Z" fill="#F0997A"/>
<path d="M148.043 106.479L155.175 103.254C156.027 105.297 155.119 107.676 153.15 108.566C151.18 109.457 148.894 108.522 148.043 106.479Z" fill="#37474F"/>
<path d="M171.981 102.123L179.247 105.195C178.468 107.249 176.209 108.227 174.203 107.379C172.197 106.531 171.201 104.178 171.981 102.123Z" fill="#37474F"/>
<path d="M155.687 112.965C154.915 111.365 154.062 113.748 152.142 114.674C150.222 115.6 147.961 114.72 148.733 116.32C149.505 117.92 151.688 118.466 153.608 117.539C155.528 116.613 156.459 114.565 155.687 112.965Z" fill="#263238"/>
<path d="M180.574 113.141C180.877 111.39 178.797 112.832 176.696 112.468C174.595 112.104 173.269 110.073 172.966 111.823C172.663 113.574 174.12 115.288 176.221 115.652C178.322 116.015 180.271 114.891 180.574 113.141Z" fill="#263238"/>
<path d="M163.102 109.035L167.298 130.395L177.89 124.671L163.102 109.035Z" fill="#F0997A"/>
<path d="M159.377 134.777C158.899 135.126 158.496 135.556 158.224 136.074C157.376 137.691 158.757 138.4 160.188 138.452C161.762 138.51 163.325 138.865 164.77 139.494C165.466 139.797 166.115 140.179 166.895 140.036C167.322 139.958 167.833 139.633 168.045 139.253C168.251 138.883 168.271 138.326 168.187 137.911C167.853 136.258 166.562 134.523 164.634 133.934C162.861 133.392 160.883 133.681 159.377 134.777Z" fill="#B16668"/>
<path d="M164.77 139.495C165.129 139.651 165.477 139.826 165.835 139.941C164.958 137.012 162.184 134.949 159 135.115C158.694 135.397 158.418 135.706 158.224 136.075C157.376 137.692 158.757 138.401 160.187 138.453C161.763 138.511 163.326 138.867 164.77 139.495Z" fill="#F28F8F"/>
<path d="M60.4961 257.027C68.1951 259.112 89.2951 247.657 89.2951 247.657C96.7491 232.855 102.503 220.243 102.503 220.243C107.122 208.531 109.516 178.494 97.1281 168.201C88.5911 170.873 82.3441 175.585 75.9711 192.105C67.6771 213.609 60.4961 257.027 60.4961 257.027Z" fill="#92E3A9"/>
<path d="M102.246 183.475C103.725 179.731 110.153 178.576 112.547 175.931C116.817 171.214 116.965 167.653 120.045 158.479C120.127 158.242 120.209 158.006 120.291 157.769C120.655 156.72 121.019 155.672 121.382 154.623C121.902 153.124 122.422 151.626 122.941 150.127C123.468 148.609 123.994 147.091 124.521 145.573C124.905 144.466 125.289 143.359 125.673 142.251C125.14 141.986 122.518 141.324 121.29 141.114C119.793 140.859 118.034 140.838 117.016 141.964C116.433 142.609 116.187 143.549 115.474 144.046C114.173 144.954 112.33 143.816 110.815 144.289C108.934 144.875 108.592 147.461 107.064 148.704C105.964 149.599 103.241 149.258 101.902 149.724C99.9025 150.42 98.8075 150.867 96.6005 153.373C88.1355 162.984 83.6675 168.114 80.1785 175.739C75.2775 186.45 70.2915 196.08 61.2495 216.35C57.5515 224.64 53.6435 230.615 51.8975 239.522C50.5475 246.412 50.8695 255.132 53.2785 261.727C57.4325 273.098 63.2645 272.055 68.2575 270.706C74.9995 268.884 83.2415 259.317 86.0055 254.458C89.0165 249.166 90.4055 245.814 92.1735 236.09C94.0105 225.985 94.9035 221.829 97.2085 208.145C98.9705 197.695 100.154 188.767 102.246 183.475Z" fill="#FFBDA7"/>
<path d="M119.868 148.994C120.705 150.198 120.512 151.819 120.51 153.214C120.225 157.512 119.199 161.723 118.101 165.866C116.785 172.153 113.844 176.435 107.754 178.831C110.233 177.423 112.498 175.635 114.107 173.366C115.812 171.071 116.338 168.308 117.061 165.589C118.114 161.463 119.26 157.356 119.949 153.156C120.108 151.795 120.47 150.287 119.868 148.994Z" fill="#F0997A"/>
<path d="M119.207 161.049L125.673 142.25C125.673 142.25 124.188 145.725 122.051 150.04C121.348 151.459 120.508 150.742 120.508 150.742L119.207 161.049Z" fill="#F0997A"/>
<g opacity="0.2">
<path d="M443.877 310.596C452.502 315.575 452.501 323.65 443.875 328.629C435.25 333.608 421.266 333.608 412.641 328.629C404.016 323.649 404.015 315.575 412.641 310.596C421.267 305.616 435.251 305.616 443.877 310.596Z" fill="#92E3A9"/>
</g>
<path d="M414.521 320.725C407.009 313.06 402.597 293.922 409.923 287.842H447.202C454.527 293.92 450.119 313.047 442.612 320.717C442.548 320.788 442.474 320.858 442.406 320.928C442.32 321.013 442.235 321.099 442.148 321.181C441.936 321.386 441.711 321.588 441.469 321.785C441.409 321.834 441.349 321.878 441.289 321.926C441.105 322.071 440.924 322.215 440.722 322.354C440.402 322.581 440.079 322.793 439.751 322.975C433.572 326.542 423.554 326.542 417.375 322.975H417.374C417.044 322.792 416.719 322.579 416.396 322.35C416.209 322.22 416.041 322.085 415.869 321.951C415.795 321.893 415.721 321.838 415.647 321.777C415.414 321.587 415.196 321.392 414.992 321.194C414.891 321.1 414.793 321.001 414.693 320.902C414.638 320.843 414.575 320.785 414.521 320.725Z" fill="#F0F0F0"/>
<path d="M443.967 285.394C452.473 290.305 452.473 298.267 443.967 303.178C435.46 308.088 421.67 308.089 413.165 303.178C404.659 298.267 404.659 290.305 413.165 285.394C421.671 280.483 435.462 280.483 443.967 285.394Z" fill="#FAFAFA"/>
<path d="M437.934 288.876C443.109 291.863 443.109 296.708 437.934 299.696C432.759 302.683 424.369 302.683 419.194 299.696C414.019 296.708 414.019 291.864 419.194 288.876C424.369 285.888 432.759 285.888 437.934 288.876Z" fill="#E0E0E0"/>
<path d="M419.194 294.011C424.369 291.023 432.759 291.023 437.934 294.011C439.372 294.841 440.395 295.817 441.034 296.853C440.395 297.89 439.372 298.866 437.934 299.696C432.759 302.683 424.369 302.683 419.194 299.696C417.756 298.866 416.733 297.89 416.094 296.853C416.733 295.816 417.756 294.841 419.194 294.011Z" fill="#455A64"/>
<path d="M436.791 296.853C436.791 296.853 440.439 293.377 443.569 287.842C446.699 282.307 449.375 275.272 447.757 274.357C446.139 273.442 437.455 280.458 437.455 280.458C437.455 280.458 438.425 275.94 438.148 271.01C437.871 266.08 436.67 261.601 435.259 260.696C433.848 259.791 430.688 266.012 429.333 270.519C427.978 275.026 427.436 277.826 427.436 277.826C427.436 277.826 426.245 272.638 424.741 268.359C423.098 263.68 421.608 262.622 420.452 263.085C419.296 263.547 418.534 265.73 418.196 271.963C417.959 276.327 418.474 280.882 418.474 280.882C418.474 280.882 416.152 278.329 413.573 275.851C410.742 273.132 408.741 273.135 407.932 273.655C407.123 274.173 407.688 278.026 412.073 285.958C415.943 292.957 420.351 296.854 420.351 296.854C420.351 296.854 426.421 300.767 436.791 296.853Z" fill="#92E3A9"/>
<g opacity="0.2">
<path d="M436.791 296.853C436.791 296.853 440.439 293.377 443.569 287.842C446.699 282.307 449.375 275.272 447.757 274.357C446.139 273.442 437.455 280.458 437.455 280.458C437.455 280.458 438.425 275.94 438.148 271.01C437.871 266.08 436.67 261.601 435.259 260.696C433.848 259.791 430.688 266.012 429.333 270.519C427.978 275.026 427.436 277.826 427.436 277.826C427.436 277.826 426.245 272.638 424.741 268.359C423.098 263.68 421.608 262.622 420.452 263.085C419.296 263.547 418.534 265.73 418.196 271.963C417.959 276.327 418.474 280.882 418.474 280.882C418.474 280.882 416.152 278.329 413.573 275.851C410.742 273.132 408.741 273.135 407.932 273.655C407.123 274.173 407.688 278.026 412.073 285.958C415.943 292.957 420.351 296.854 420.351 296.854C420.351 296.854 426.421 300.767 436.791 296.853Z" fill="black"/>
</g>
<path opacity="0.2" d="M429.336 270.519C427.982 275.026 427.438 277.826 427.438 277.826L428.259 281.71C428.259 281.71 429.11 273.223 430.306 267.756C429.932 268.698 429.6 269.641 429.336 270.519Z" fill="black"/>
<path opacity="0.2" d="M419.96 277.319C418.874 273.339 418.763 266.556 418.762 266.512C418.515 267.836 418.326 269.609 418.199 271.964C417.962 276.328 418.477 280.883 418.477 280.883L424.461 287.157C424.461 287.157 421.049 281.312 419.96 277.319Z" fill="black"/>
<path opacity="0.2" d="M433.684 284.143L437.459 280.458C437.46 280.454 438.428 275.938 438.152 271.01C438.039 268.997 437.766 267.075 437.393 265.424C437.477 266.048 437.997 270.348 436.951 274.486C435.82 278.961 433.684 284.143 433.684 284.143Z" fill="black"/>
<path opacity="0.2" d="M152.679 388.395C152.679 388.235 152.665 388.075 152.66 387.915C152.658 387.889 152.658 387.864 152.657 387.838C152.182 375.222 135.713 363.423 121.745 361.077C107.571 358.696 99.1953 368.867 99.1953 375.359C99.1953 375.359 99.2323 375.397 99.2433 375.408C98.9253 380.139 103.407 385.651 111.999 389.953C125.212 396.569 141.76 398.562 148.959 394.406C151.472 392.955 152.645 390.848 152.651 388.408C152.655 388.407 152.679 388.395 152.679 388.395Z" fill="#92E3A9"/>
<path d="M151.875 385.49C151.875 385.337 151.861 385.185 151.857 385.033C151.856 385.008 151.856 384.984 151.854 384.959C151.401 372.93 135.699 361.679 122.38 359.443C108.865 357.173 100.879 366.871 100.879 373.06C100.879 373.06 100.914 373.096 100.925 373.107C100.622 377.618 104.895 382.873 113.088 386.976C125.687 393.284 141.465 395.184 148.329 391.221C150.725 389.838 151.843 387.828 151.849 385.502C151.852 385.501 151.875 385.49 151.875 385.49Z" fill="#37474F"/>
<path d="M143.519 369.893C130.874 372.978 124.721 383.876 122.82 390.819C123.278 390.957 123.734 391.077 124.191 391.204C126.033 384.441 132.11 373.68 144.745 371.056C144.349 370.661 143.939 370.274 143.519 369.893Z" fill="#92E3A9"/>
<path d="M149.891 390.071C149.746 380.459 143.42 374.665 137.544 372.545L137.059 373.888C142.961 376.015 148.818 381.627 148.474 391.128C149.009 390.806 149.486 390.455 149.891 390.071Z" fill="#92E3A9"/>
<path opacity="0.2" d="M153.771 347.349L192.868 370.017C194.043 370.697 195.948 370.699 197.125 370.021L309.343 305.32C310.519 304.642 310.52 303.541 309.346 302.861L270.249 280.193C269.074 279.513 267.168 279.511 265.992 280.189L153.774 344.89C152.597 345.567 152.597 346.668 153.771 347.349Z" fill="#92E3A9"/>
<path d="M304.771 299.519C304.771 299.083 304.483 298.648 303.907 298.315L268.929 278.123C267.777 277.458 265.909 277.459 264.757 278.126L158.027 339.846C157.451 340.179 157.164 340.615 157.164 341.05C157.164 341.485 157.164 344.283 157.164 344.718C157.163 345.154 157.452 345.591 158.03 345.924L192.99 366.114C194.144 366.777 196.012 366.774 197.165 366.109L303.907 304.486C304.481 304.155 304.769 303.721 304.771 303.286C304.773 302.847 304.771 299.954 304.771 299.519Z" fill="#263238"/>
<path d="M192.99 362.351L158.03 342.253C156.877 341.59 156.875 340.513 158.027 339.846L264.757 278.125C265.909 277.459 267.776 277.458 268.929 278.123L303.907 298.314C305.059 298.979 305.059 300.058 303.907 300.723L197.165 362.346C196.013 363.012 194.144 363.014 192.99 362.351Z" fill="#37474F"/>
<path d="M194.943 362.847V366.597C194.236 366.581 193.53 366.42 192.983 366.116L158.035 345.927C157.457 345.59 157.168 345.156 157.168 344.723V341.045C157.168 341.479 157.458 341.912 158.035 342.25L192.983 362.358C193.53 362.662 194.237 362.831 194.943 362.847Z" fill="#263238"/>
<path d="M266.59 281.309C266.627 281.309 266.657 281.319 266.665 281.323L270.126 283.321L265.43 286.033L261.853 284.023L266.544 281.314L266.59 281.309ZM272.007 284.438C272.046 284.438 272.076 284.447 272.084 284.452L275.545 286.45L271.858 288.58L268.279 286.568L271.963 284.441L272.007 284.438ZM260.027 285.097C260.066 285.097 260.094 285.106 260.102 285.111L263.565 287.111L259.878 289.239L256.299 287.227L259.982 285.102L260.027 285.097ZM277.426 287.567C277.466 287.567 277.496 287.576 277.506 287.581L280.966 289.579L275.007 293.018L271.426 291.007L277.382 287.569L277.426 287.567ZM266.455 287.644C266.494 287.644 266.524 287.653 266.532 287.658L269.995 289.657L267.065 291.349L263.484 289.337L266.411 287.648L266.455 287.644ZM254.475 288.302C254.514 288.302 254.544 288.312 254.552 288.316L258.013 290.314L254.326 292.444L250.748 290.432L254.431 288.306L254.475 288.302ZM261.659 290.411C261.699 290.411 261.731 290.422 261.74 290.427L265.2 292.425L262.269 294.116L258.691 292.105L261.616 290.416L261.659 290.411ZM282.845 290.696C282.886 290.696 282.915 290.706 282.925 290.71L286.385 292.708L281.688 295.42L278.109 293.408L282.801 290.699L282.845 290.696ZM248.923 291.508C248.962 291.508 248.992 291.517 249 291.522L252.461 293.52L225.81 308.908L222.231 306.894L248.878 291.51L248.923 291.508ZM269.603 292.084C269.644 292.084 269.674 292.093 269.683 292.098L273.143 294.096L270.213 295.787L266.634 293.776L269.559 292.087L269.603 292.084ZM256.865 293.181C256.906 293.181 256.935 293.191 256.945 293.195L260.405 295.193L257.474 296.884L253.897 294.873L256.822 293.184L256.865 293.181ZM288.264 293.825C288.305 293.825 288.335 293.834 288.344 293.839L291.806 295.837L288.874 297.528L285.293 295.517L288.22 293.828L288.264 293.825ZM276.284 294.484C276.324 294.484 276.353 294.494 276.361 294.498L279.824 296.496L276.893 298.189L273.314 296.177L276.241 294.488L276.284 294.484ZM264.808 294.852C264.849 294.852 264.878 294.861 264.888 294.866L268.348 296.864L265.418 298.555L261.837 296.543L264.764 294.855L264.808 294.852ZM252.07 295.949C252.111 295.949 252.141 295.959 252.15 295.963L255.61 297.961L252.679 299.652L249.1 297.64L252.027 295.952L252.07 295.949ZM283.469 296.594C283.51 296.594 283.54 296.603 283.549 296.608L287.009 298.606L284.079 300.297L280.5 298.286L283.425 296.597L283.469 296.594ZM271.489 297.252C271.528 297.252 271.558 297.261 271.566 297.266L275.028 299.264L272.099 300.957L268.52 298.945L271.447 297.256L271.489 297.252ZM260.012 297.619C260.051 297.619 260.081 297.63 260.09 297.635L263.553 299.633L260.623 301.324L257.042 299.312L259.969 297.624L260.012 297.619ZM294.84 297.622C294.881 297.622 294.911 297.632 294.919 297.636L298.382 299.634L294.693 301.762L291.114 299.749L294.799 297.624L294.84 297.622ZM247.276 298.717C247.317 298.717 247.346 298.726 247.356 298.731L250.816 300.729L247.885 302.42L244.307 300.409L247.232 298.72L247.276 298.717ZM278.674 299.362C278.715 299.362 278.744 299.371 278.754 299.376L282.214 301.374L279.284 303.065L275.705 301.054L278.63 299.365L278.674 299.362ZM266.693 300.02C266.734 300.02 266.764 300.03 266.771 300.034L270.234 302.032L267.302 303.725L263.723 301.713L266.65 300.023L266.693 300.02ZM255.218 300.389C255.257 300.389 255.287 300.398 255.295 300.403L258.758 302.401L255.827 304.092L252.248 302.079L255.175 300.392L255.218 300.389ZM242.481 301.486C242.522 301.486 242.552 301.495 242.561 301.5L246.021 303.498L243.09 305.189L239.512 303.178L242.437 301.489L242.481 301.486ZM287.204 302.031C287.243 302.031 287.273 302.04 287.281 302.045L290.744 304.045L287.813 305.736L284.234 303.724L287.161 302.035L287.204 302.031ZM273.878 302.128C273.919 302.128 273.95 302.139 273.96 302.144L277.42 304.142L274.49 305.833L270.91 303.821L273.837 302.133L273.878 302.128ZM261.899 302.789C261.94 302.789 261.969 302.798 261.977 302.803L265.44 304.801L262.509 306.493L258.93 304.48L261.856 302.791L261.899 302.789ZM250.422 303.156C250.463 303.156 250.494 303.167 250.503 303.172L253.963 305.17L251.031 306.861L247.452 304.849L250.379 303.161L250.422 303.156ZM237.685 304.252C237.724 304.252 237.754 304.263 237.763 304.268L241.226 306.266L238.294 307.956L234.715 305.944L237.642 304.256L237.685 304.252ZM282.407 304.8C282.45 304.8 282.479 304.809 282.489 304.814L285.947 306.812L283.017 308.505L279.438 306.493L282.365 304.804L282.407 304.8ZM269.087 304.897C269.126 304.897 269.155 304.907 269.163 304.911L272.626 306.911L269.694 308.602L266.115 306.589L269.041 304.902L269.087 304.897ZM257.104 305.557C257.145 305.557 257.175 305.566 257.183 305.571L260.644 307.569L257.714 309.261L254.135 307.249L257.06 305.559L257.104 305.557ZM245.629 305.924C245.668 305.924 245.698 305.933 245.706 305.938L249.169 307.938L246.238 309.629L242.659 307.617L245.586 305.929L245.629 305.924ZM232.891 307.022C232.931 307.022 232.96 307.031 232.968 307.036L236.431 309.034L233.5 310.725L229.923 308.714L232.848 307.025L232.891 307.022ZM277.614 307.568C277.654 307.568 277.684 307.577 277.694 307.582L281.152 309.58L278.222 311.273L274.643 309.261L277.57 307.572L277.614 307.568ZM264.29 307.667C264.331 307.667 264.36 307.676 264.37 307.681L267.83 309.68L264.899 311.371L261.32 309.359L264.247 307.671L264.29 307.667ZM220.405 307.973C220.446 307.973 220.476 307.982 220.484 307.987L223.947 309.985L220.259 312.113L216.679 310.101L220.362 307.976L220.405 307.973ZM252.309 308.325C252.35 308.325 252.379 308.334 252.387 308.339L255.85 310.337L252.919 312.029L249.34 310.017L252.267 308.328L252.309 308.325ZM240.836 308.693C240.875 308.693 240.904 308.702 240.912 308.707L244.375 310.707L241.444 312.398L237.865 310.386L240.792 308.698L240.836 308.693ZM228.097 309.79C228.138 309.79 228.167 309.8 228.177 309.804L231.637 311.802L228.706 313.493L225.127 311.481L228.053 309.793L228.097 309.79ZM272.819 310.336C272.858 310.336 272.888 310.345 272.896 310.35L276.358 312.348L273.428 314.04L269.849 312.028L272.776 310.338L272.819 310.336ZM259.494 310.433C259.535 310.433 259.566 310.444 259.576 310.449L263.036 312.448L260.105 314.138L256.526 312.126L259.453 310.438L259.494 310.433ZM247.514 311.094C247.555 311.094 247.584 311.104 247.593 311.108L251.056 313.106L248.125 314.798L244.546 312.786L247.473 311.097L247.514 311.094ZM214.853 311.177C214.894 311.177 214.925 311.188 214.934 311.193L218.394 313.191L214.706 315.32L211.125 313.309L214.809 311.182L214.853 311.177ZM236.038 311.461C236.079 311.461 236.11 311.472 236.12 311.477L239.58 313.475L236.649 315.166L233.07 313.154L235.997 311.466L236.038 311.461ZM223.301 312.557C223.342 312.557 223.373 312.568 223.383 312.573L226.843 314.571L223.912 316.262L220.335 314.252L223.26 312.563L223.301 312.557ZM254.701 313.202C254.74 313.202 254.77 313.211 254.778 313.216L258.241 315.216L255.311 316.907L251.73 314.895L254.657 313.207L254.701 313.202ZM242.721 313.862C242.76 313.862 242.79 313.871 242.798 313.876L246.261 315.874L243.329 317.565L239.752 315.554L242.677 313.865L242.721 313.862ZM231.245 314.229C231.284 314.229 231.314 314.238 231.322 314.243L234.785 316.243L231.853 317.934L228.274 315.922L231.201 314.234L231.245 314.229ZM265.938 314.309C265.978 314.309 266.007 314.318 266.015 314.323L269.478 316.321L266.547 318.013L262.968 316.001L265.895 314.312L265.938 314.309ZM209.302 314.383C209.343 314.383 209.373 314.392 209.382 314.397L212.842 316.395L209.154 318.525L205.575 316.513L209.258 314.386L209.302 314.383ZM218.509 315.325C218.548 315.325 218.576 315.334 218.584 315.339L222.047 317.339L219.116 319.03L215.537 317.018L218.464 315.33L218.509 315.325ZM249.906 315.97C249.95 315.97 249.981 315.982 249.987 315.985L253.444 317.982L250.516 319.674L246.935 317.662L249.862 315.974L249.906 315.97ZM237.926 316.63C237.966 316.63 237.995 316.639 238.003 316.644L241.466 318.642L238.535 320.334L234.956 318.322L237.883 316.633L237.926 316.63ZM226.45 316.997C226.489 316.997 226.519 317.007 226.527 317.011L229.99 319.011L227.059 320.702L223.48 318.69L226.407 317.002L226.45 316.997ZM261.144 317.077C261.183 317.077 261.213 317.087 261.22 317.091L264.682 319.089L261.752 320.781L258.173 318.769L261.1 317.08L261.144 317.077ZM203.75 317.589C203.791 317.589 203.82 317.599 203.828 317.603L207.292 319.601L202.594 322.313L199.015 320.301L203.706 317.592L203.75 317.589ZM213.711 318.094C213.75 318.094 213.78 318.105 213.789 318.109L217.252 320.107L208.013 325.441L204.434 323.429L213.669 318.098L213.711 318.094ZM245.113 318.738C245.153 318.738 245.182 318.747 245.191 318.752L248.651 320.752L245.72 322.443L242.141 320.431L245.068 318.743L245.113 318.738ZM233.13 319.399C233.171 319.399 233.201 319.408 233.209 319.413L236.671 321.411L233.741 323.103L230.162 321.09L233.088 319.401L233.13 319.399ZM221.657 319.766C221.695 319.766 221.725 319.776 221.733 319.78L225.196 321.78L222.265 323.471L218.686 321.459L221.613 319.771L221.657 319.766ZM256.347 319.845C256.388 319.845 256.418 319.855 256.426 319.859L259.889 321.858L256.958 323.55L253.379 321.538L256.305 319.849L256.347 319.845ZM240.318 321.506C240.358 321.506 240.387 321.516 240.397 321.52L243.857 323.52L240.925 325.211L237.346 323.199L240.272 321.511L240.318 321.506ZM196.181 321.958C196.219 321.958 196.247 321.967 196.255 321.972L199.721 323.972L196.789 325.663L193.21 323.651L196.137 321.963L196.181 321.958ZM228.335 322.167C228.376 322.167 228.406 322.176 228.414 322.181L231.877 324.179L228.946 325.87L225.369 323.859L228.294 322.17L228.335 322.167ZM216.861 322.534C216.898 322.534 216.927 322.543 216.935 322.548L220.399 324.548L217.722 326.093C217.535 326.201 217.422 326.383 217.422 326.581C217.422 326.788 217.537 326.975 217.74 327.092L222.287 329.716L218.85 331.699L209.85 326.561L216.816 322.539L216.861 322.534ZM251.555 322.614C251.594 322.614 251.624 322.623 251.632 322.628L255.095 324.626L252.164 326.318L248.585 324.306L251.512 322.617L251.555 322.614ZM235.522 324.275C235.561 324.275 235.591 324.284 235.599 324.289L239.061 326.287L236.131 327.98L232.552 325.967L235.478 324.279L235.522 324.275ZM191.385 324.728C191.426 324.728 191.455 324.737 191.463 324.742L194.926 326.74L191.994 328.431L188.415 326.419L191.341 324.731L191.385 324.728ZM223.54 324.935C223.581 324.935 223.61 324.944 223.619 324.949L227.082 326.947L224.151 328.638L220.572 326.626L223.497 324.938L223.54 324.935ZM244.672 326.587C244.713 326.587 244.743 326.596 244.75 326.601L248.212 328.599L245.282 330.292L241.703 328.28L244.63 326.591L244.672 326.587ZM230.729 327.043C230.768 327.043 230.798 327.052 230.808 327.057L234.266 329.055L231.336 330.747L227.757 328.735L230.684 327.047L230.729 327.043ZM186.59 327.495C186.63 327.495 186.662 327.504 186.672 327.511L190.131 329.509L187.2 331.2L183.621 329.188L186.548 327.5L186.59 327.495ZM196.805 327.855C196.846 327.855 196.876 327.865 196.886 327.869L200.346 329.869L197.415 331.56L193.836 329.548L196.763 327.859L196.805 327.855ZM239.878 329.355C239.919 329.355 239.949 329.364 239.956 329.369L243.419 331.367L240.488 333.058L236.909 331.047L239.834 329.358L239.878 329.355ZM225.934 329.811C225.973 329.811 226.003 329.82 226.012 329.825L229.471 331.823L224.27 334.826L220.691 332.814L225.889 329.815L225.934 329.811ZM180.786 330.847C180.826 330.847 180.855 330.856 180.863 330.861L184.326 332.859L176.6 337.319L173.021 335.307L180.742 330.85L180.786 330.847ZM212.438 331.346C212.479 331.346 212.508 331.355 212.518 331.36L215.978 333.358L213.047 335.05L209.468 333.04L212.394 331.349L212.438 331.346ZM235.083 332.123C235.124 332.123 235.154 332.132 235.162 332.137L238.625 334.135L235.693 335.825L232.114 333.814L235.039 332.125L235.083 332.123ZM186.206 333.976C186.247 333.976 186.276 333.986 186.286 333.99L189.746 335.988L186.814 337.68L183.235 335.669L186.162 333.978L186.206 333.976ZM207.643 334.114C207.684 334.114 207.714 334.123 207.723 334.128L211.182 336.126L208.254 337.818L204.673 335.805L207.599 334.116L207.643 334.114ZM217.856 334.474C217.896 334.474 217.927 334.484 217.935 334.488L221.398 336.487L218.466 338.179L214.887 336.167L217.812 334.477L217.856 334.474ZM230.288 334.892C230.329 334.892 230.358 334.901 230.366 334.906L233.829 336.904L230.897 338.595L227.318 336.584L230.243 334.895L230.288 334.892ZM171.197 336.383C171.238 336.383 171.268 336.392 171.277 336.397L174.735 338.395L171.805 340.088L168.226 338.075L171.153 336.386L171.197 336.383ZM181.411 336.744C181.452 336.744 181.482 336.753 181.491 336.758L184.951 338.756L182.021 340.448L178.442 338.436L181.367 336.747L181.411 336.744ZM202.848 336.882C202.889 336.882 202.918 336.891 202.928 336.896L206.388 338.894L203.457 340.587L199.877 338.575L202.804 336.886L202.848 336.882ZM191.624 337.105C191.665 337.105 191.694 337.114 191.702 337.119L195.165 339.117L192.234 340.808L188.655 338.797L191.58 337.108L191.624 337.105ZM213.062 337.243C213.103 337.243 213.133 337.252 213.142 337.257L216.602 339.255L213.672 340.947L210.093 338.935L213.019 337.246L213.062 337.243ZM224.433 338.272C224.474 338.272 224.504 338.281 224.512 338.286L227.975 340.284L225.043 341.976L221.464 339.964L224.389 338.275L224.433 338.272ZM166.402 339.152C166.443 339.152 166.473 339.161 166.483 339.166L175.361 344.293L172.431 345.985L163.43 340.845L166.359 339.154L166.402 339.152ZM176.616 339.512C176.657 339.512 176.686 339.522 176.696 339.527L180.156 341.525L177.226 343.217L173.645 341.205L176.572 339.516L176.616 339.512ZM186.829 339.873C186.87 339.873 186.9 339.882 186.908 339.887L190.371 341.885L187.44 343.576L183.861 341.565L186.786 339.876L186.829 339.873ZM208.267 340.011C208.308 340.011 208.338 340.02 208.347 340.025L211.807 342.023L208.878 343.715L205.299 341.703L208.224 340.014L208.267 340.011ZM197.043 340.232C197.082 340.232 197.111 340.241 197.118 340.246L200.585 342.246L197.654 343.937L194.075 341.925L197 340.237L197.043 340.232ZM219.638 341.04C219.679 341.04 219.709 341.05 219.717 341.054L223.18 343.052L220.248 344.744L216.669 342.732L219.594 341.043L219.638 341.04ZM182.035 342.641C182.076 342.641 182.106 342.65 182.114 342.655L185.577 344.653L182.646 346.344L179.065 344.333L181.991 342.644L182.035 342.641ZM192.249 343C192.288 343 192.316 343.01 192.324 343.014L195.791 345.014L192.86 346.705L189.28 344.693L192.205 343.006L192.249 343ZM202.464 343.361C202.503 343.361 202.533 343.37 202.541 343.375L206.003 345.373L203.073 347.066L199.494 345.053L202.42 343.365L202.464 343.361ZM214.844 343.808C214.885 343.808 214.915 343.817 214.922 343.822L218.385 345.82L215.454 347.512L211.875 345.5L214.802 343.811L214.844 343.808ZM177.24 345.409C177.281 345.409 177.311 345.419 177.32 345.423L186.2 350.55L183.269 352.241L174.268 347.103L177.196 345.412L177.24 345.409ZM187.455 345.769C187.493 345.769 187.521 345.778 187.529 345.783L190.995 347.783L188.064 349.474L184.485 347.462L187.412 345.774L187.455 345.769ZM197.669 346.129C197.707 346.129 197.735 346.138 197.743 346.143L201.208 348.141L198.278 349.833L194.699 347.821L197.625 346.134L197.669 346.129ZM210.432 347.963C210.473 347.963 210.502 347.972 210.51 347.977L212.012 348.825L209.083 350.517L207.475 349.648L210.388 347.965L210.432 347.963ZM192.874 348.898C192.913 348.898 192.943 348.908 192.951 348.912L196.413 350.91L193.483 352.603L189.904 350.591L192.831 348.903L192.874 348.898ZM205.637 350.731C205.678 350.731 205.708 350.74 205.717 350.745L207.218 351.594L204.288 353.286L202.68 352.417L205.593 350.734L205.637 350.731ZM188.08 351.666C188.119 351.666 188.149 351.676 188.156 351.68L191.618 353.678L188.688 355.37L185.109 353.358L188.034 351.67L188.08 351.666ZM200.842 353.499C200.882 353.499 200.912 353.509 200.922 353.513L202.423 354.361L199.493 356.054L197.885 355.185L200.798 353.502L200.842 353.499ZM196.046 356.267C196.087 356.267 196.118 356.278 196.127 356.283L197.63 357.132L194.699 358.824L193.09 357.955L196.004 356.272L196.046 356.267Z" fill="#92E3A9"/>
<path opacity="0.2" d="M410.047 337.798L403.481 334.131C401.442 332.881 398.113 332.843 396.045 334.045L363.37 352.902L359.076 350.392C357.25 349.325 354.285 349.316 352.453 350.374L312.771 373.44C310.939 374.498 310.939 376.212 312.771 377.27L316.958 379.687L269.729 406.943C267.661 408.145 267.664 410.088 269.736 411.284L276.308 415.078C278.379 416.274 281.738 416.274 283.809 415.078L331.034 387.813C332.866 388.867 335.832 388.867 337.663 387.811L377.189 364.836C378.97 363.808 379.009 362.155 377.332 361.083L409.99 342.227C412.06 341.03 412.086 339.047 410.047 337.798Z" fill="#92E3A9"/>
<path d="M394.92 304.056L403.283 204.695C403.514 201.899 401.853 198.567 399.574 197.251C397.295 195.935 393.479 196.005 391.049 197.408L266.178 269.503C263.749 270.906 261.593 274.309 261.362 277.105L252.998 376.466C252.767 379.262 254.428 382.594 256.706 383.91C258.985 385.225 262.802 385.155 265.231 383.753L390.103 311.659C392.533 310.254 394.689 306.851 394.92 304.056Z" fill="#263238"/>
<path d="M394.921 304.056L403.284 204.695C403.515 201.899 401.854 198.567 399.575 197.251C397.296 195.935 393.48 196.006 391.051 197.408L266.18 269.503C264.98 270.196 263.849 271.38 262.98 272.735L278.286 281.572L277.34 376.762L390.105 311.658C392.534 310.254 394.69 306.851 394.921 304.056Z" fill="#455A64"/>
<path d="M261.25 381.23L269.614 281.869C269.845 279.074 272.001 275.671 274.43 274.268L397.77 202.989C400.199 201.587 401.215 202.652 400.984 205.447L394.919 304.056C394.688 306.852 392.532 310.254 390.103 311.657L265.231 383.753C262.802 385.155 261.02 384.026 261.25 381.23Z" fill="#37474F"/>
<path d="M329.158 293.744C329.538 289.139 332.765 283.716 336.365 281.63C339.966 279.544 342.577 281.586 342.197 286.19C341.817 290.795 338.59 296.218 334.989 298.304C331.389 300.39 328.778 298.348 329.158 293.744Z" fill="#92E3A9"/>
<path d="M328.312 332.086L355.002 316.581L350.454 313.955L323.781 329.468L328.312 332.086Z" fill="#455A64"/>
<path d="M367.381 362.083L334.889 380.848C334.307 381.184 333.546 381.34 332.807 381.318C332.18 381.296 331.531 381.139 331.038 380.87C331.015 380.87 331.015 380.848 330.993 380.848L316.684 372.585C316.661 372.562 316.639 372.562 316.617 372.54C315.564 371.913 314.758 370.458 314.758 369.226V368.465C314.758 367.233 315.609 366.718 316.684 367.345L325.328 372.316L327.254 373.435L326.828 371.24L323.782 329.467L328.315 332.092L355.009 316.588L368.904 358.767C369.128 359.978 368.456 361.478 367.381 362.083Z" fill="#37474F"/>
<path d="M315.355 367.189L326.438 360.789L328.69 375.703L315.355 367.189Z" fill="black"/>
<path d="M328.315 332.094L323.782 329.469L326.828 371.242C327.074 372.451 326.38 372.944 325.328 372.317L316.684 367.346C315.609 366.719 314.758 367.234 314.758 368.466V369.227C314.758 370.459 315.564 371.914 316.617 372.541C316.639 372.564 316.662 372.564 316.684 372.586L330.993 380.849C331.015 380.849 331.015 380.871 331.038 380.871C331.531 381.14 332.18 381.297 332.807 381.319L328.315 332.094Z" fill="#263238"/>
<path opacity="0.2" d="M183.668 415.395C192.664 410.693 207.065 410.577 215.834 415.136C224.603 419.696 224.664 427.203 215.969 431.903C207.274 436.603 192.873 436.718 183.803 432.161C174.733 427.604 174.672 420.098 183.668 415.395Z" fill="#92E3A9"/>
<path d="M184.983 383.801C193.232 380.659 206.438 380.514 214.478 383.475C222.519 386.436 222.574 391.382 214.6 394.52C206.626 397.659 193.421 397.804 185.105 394.846C176.788 391.887 176.734 386.942 184.983 383.801Z" fill="#92E3A9"/>
<g opacity="0.3">
<path d="M184.983 383.801C193.232 380.659 206.438 380.514 214.478 383.475C222.519 386.436 222.574 391.382 214.6 394.52C206.626 397.659 193.421 397.804 185.105 394.846C176.788 391.887 176.734 386.942 184.983 383.801Z" fill="black"/>
</g>
<path d="M178.273 373.837L220.761 373.414L218.093 423.507L218.053 423.508C217.872 425.333 216.189 427.151 212.959 428.579C206.072 431.623 194.661 431.749 187.472 428.86C184.099 427.505 182.317 425.726 182.09 423.905H182.048L178.273 373.837Z" fill="#FAFAFA"/>
<path d="M220.761 373.414L220.219 383.587C219.25 384.275 218.092 384.931 216.691 385.529C207.546 389.435 192.394 389.602 182.849 385.902C182.436 385.742 182.091 385.567 181.717 385.397C180.194 384.699 179.034 383.926 179.034 383.926L178.273 373.835L220.761 373.414Z" fill="#EBEBEB"/>
<path d="M175.604 375.347L175.52 367.694L180.471 367.639C181.128 367.284 181.846 366.941 182.636 366.614C192.097 362.704 207.249 362.537 216.478 366.24C217.246 366.549 217.927 366.879 218.569 367.219L223.38 367.166L223.465 374.82C223.492 377.313 221.223 379.832 216.65 381.785C207.505 385.691 192.353 385.858 182.808 382.158C178.035 380.308 175.631 377.841 175.604 375.347Z" fill="#92E3A9"/>
<g opacity="0.2">
<path d="M175.604 375.347L175.52 367.694L180.471 367.639C181.128 367.284 181.846 366.941 182.636 366.614C192.097 362.704 207.249 362.537 216.478 366.24C217.246 366.549 217.927 366.879 218.569 367.219L223.38 367.166L223.465 374.82C223.492 377.313 221.223 379.832 216.65 381.785C207.505 385.691 192.353 385.858 182.808 382.158C178.035 380.308 175.631 377.841 175.604 375.347Z" fill="black"/>
</g>
<path d="M182.571 360.727C192.033 356.818 207.184 356.65 216.413 360.353C225.642 364.056 225.711 370.225 216.565 374.132C207.42 378.038 192.268 378.205 182.723 374.506C173.178 370.805 173.11 364.637 182.571 360.727Z" fill="#92E3A9"/>
<path d="M179.898 365.806H179.88L181.343 359.479L193.496 359.345C197.438 358.81 201.671 358.763 205.582 359.212L217.379 359.082L218.988 365.375H218.968C219.756 367.659 217.966 370.081 213.548 371.892C206.007 374.982 193.517 375.12 185.65 372.2C181.04 370.489 179.134 368.108 179.898 365.806Z" fill="#92E3A9"/>
<path opacity="0.2" d="M179.898 365.806H179.88L181.343 359.479L193.496 359.345C197.438 358.81 201.671 358.763 205.582 359.212L217.379 359.082L218.988 365.375H218.968C219.756 367.659 217.966 370.081 213.548 371.892C206.007 374.982 193.517 375.12 185.65 372.2C181.04 370.489 179.134 368.108 179.898 365.806Z" fill="black"/>
<path d="M186.595 355.387C193.762 352.691 205.233 352.564 212.218 355.104C219.203 357.644 219.25 361.886 212.323 364.579C205.396 367.273 193.924 367.399 186.7 364.862C179.475 362.325 179.428 358.083 186.595 355.387Z" fill="#92E3A9"/>
<path d="M183.746 360.164C183.76 360.264 183.95 360.598 184.552 361.051C185.117 361.469 186.057 361.994 187.52 362.513C190.708 363.623 195.11 364.247 199.593 364.198C204.075 364.148 208.388 363.441 211.427 362.262C212.853 361.711 213.743 361.153 214.262 360.724C214.842 360.245 215 359.895 214.999 359.807C214.997 359.633 214.363 358.532 211.374 357.444C208.31 356.332 203.983 355.72 199.5 355.77C195.018 355.819 190.63 356.528 187.468 357.721C184.491 358.836 183.756 359.94 183.746 360.164Z" fill="#92E3A9"/>
<g opacity="0.5">
<path d="M183.746 360.164C183.76 360.264 183.95 360.598 184.552 361.051C185.117 361.469 186.057 361.994 187.52 362.513C190.708 363.623 195.11 364.247 199.593 364.198C204.075 364.148 208.388 363.441 211.427 362.262C212.853 361.711 213.743 361.153 214.262 360.724C214.842 360.245 215 359.895 214.999 359.807C214.997 359.633 214.363 358.532 211.374 357.444C208.31 356.332 203.983 355.72 199.5 355.77C195.018 355.819 190.63 356.528 187.468 357.721C184.491 358.836 183.756 359.94 183.746 360.164Z" fill="black"/>
</g>
<path d="M184.551 361.051C185.116 361.469 186.056 361.994 187.519 362.513C190.707 363.623 195.109 364.247 199.592 364.198C204.074 364.148 208.387 363.441 211.426 362.262C212.852 361.711 213.742 361.153 214.261 360.724C213.733 360.307 212.831 359.769 211.393 359.249C208.329 358.137 204.002 357.525 199.519 357.575C195.037 357.624 190.649 358.333 187.487 359.525C186.034 360.076 185.106 360.609 184.551 361.051Z" fill="#92E3A9"/>
<g opacity="0.2">
<path d="M184.551 361.051C185.116 361.469 186.056 361.994 187.519 362.513C190.707 363.623 195.109 364.247 199.592 364.198C204.074 364.148 208.387 363.441 211.426 362.262C212.852 361.711 213.742 361.153 214.261 360.724C213.733 360.307 212.831 359.769 211.393 359.249C208.329 358.137 204.002 357.525 199.519 357.575C195.037 357.624 190.649 358.333 187.487 359.525C186.034 360.076 185.106 360.609 184.551 361.051Z" fill="black"/>
</g>
<g opacity="0.5">
<path d="M191.764 361.135C190.71 360.553 189.433 360.324 188.912 360.625C188.391 360.925 188.824 361.647 189.879 362.237C190.933 362.827 192.211 363.056 192.731 362.747C193.251 362.44 192.819 361.718 191.764 361.135Z" fill="black"/>
</g>
<path d="M219.543 407.313C219.564 409.196 217.699 411.1 213.943 412.578C206.431 415.535 193.99 415.672 186.155 412.885C182.245 411.494 180.273 409.637 180.246 407.756L178.836 389.392C178.858 391.39 180.951 393.366 185.109 394.845C193.425 397.803 206.631 397.658 214.604 394.519C218.591 392.95 220.57 390.929 220.548 388.93L219.543 407.313Z" fill="#92E3A9"/>
<g opacity="0.35">
<path d="M219.543 407.313C219.564 409.196 217.699 411.1 213.943 412.578C206.431 415.535 193.99 415.672 186.155 412.885C182.245 411.494 180.273 409.637 180.246 407.756L178.836 389.392C178.858 391.39 180.951 393.366 185.109 394.845C193.425 397.803 206.631 397.658 214.604 394.519C218.591 392.95 220.57 390.929 220.548 388.93L219.543 407.313Z" fill="white"/>
</g>
<path d="M206.584 408.542C207.274 407.592 207.648 406.431 208.204 405.405C209.311 403.362 210.909 401.963 212.963 401.12C213.238 401.007 213.58 401.118 213.714 401.382C214.783 403.498 214.174 406.484 212.035 408.67C209.917 410.835 206.976 411.53 204.842 410.554C204.721 410.499 204.685 410.264 204.782 410.206C205.462 409.801 206.066 409.256 206.584 408.542Z" fill="#37474F"/>
<path d="M211.805 400.55C210.696 400.987 209.662 401.669 208.795 402.448C207.867 403.281 207.154 404.34 206.635 405.473C205.847 407.196 205.088 408.264 203.916 409.16C203.66 409.354 203.267 409.307 203.087 409.041C201.651 406.919 202.175 403.637 204.48 401.281C206.664 399.048 209.723 398.38 211.87 399.495C212.302 399.718 212.257 400.371 211.805 400.55Z" fill="#37474F"/>
<path d="M71.0648 113.816L85.9508 122.005L84.3328 127.211L93.8588 128.305L91.9298 132.709L102.907 136.183L84.4618 137.031L86.7618 132.198L74.4598 132.654L76.9688 125.514L65.7148 125.295L71.0648 113.816Z" fill="#E39293"/>
<path d="M105.257 118.752L101.076 122.85L106.546 132.98L94.5855 122.422L97.7185 118.888L88.5625 110.658L96.6795 105.51L105.257 118.752Z" fill="#E39293"/>
<path opacity="0.3" d="M105.257 118.752L101.076 122.85L106.546 132.98L94.5855 122.422L97.7185 118.888L88.5625 110.658L96.6795 105.51L105.257 118.752Z" fill="white"/>
<path d="M81.5078 140.184L84.9627 144.911L101.175 140.992L84.1058 151.845L80.8127 147.628L70.4118 153.82L67.8438 144.062L81.5078 140.184Z" fill="#E39293"/>
<path opacity="0.6" d="M81.5078 140.184L84.9627 144.911L101.175 140.992L84.1058 151.845L80.8127 147.628L70.4118 153.82L67.8438 144.062L81.5078 140.184Z" fill="white"/>
<path d="M241.252 79.8651C231.443 85.5241 224.73 94.5011 221.665 104.568L220.508 109.344C218.734 119.015 220.236 129.343 225.526 138.512C237.356 159.015 263.662 166.073 284.166 154.243C293.335 148.953 299.805 140.763 303.109 131.503L304.497 126.789C306.882 116.539 305.563 105.407 299.904 95.5991C288.069 75.0871 261.763 68.0301 241.252 79.8651Z" fill="white"/>
<path d="M239.503 76.6699C219.526 88.1489 211.286 112.285 219.038 133.207L209.945 144.462C208.392 146.384 210.016 149.21 212.459 148.837L226.76 146.648C240.932 163.884 265.936 168.921 285.915 157.441C308.183 144.646 315.889 116.117 303.094 93.8499C290.299 71.5809 261.77 63.8739 239.503 76.6699ZM299.939 95.6619C305.581 105.481 306.88 116.615 304.477 126.86L303.08 131.571C299.759 140.825 293.275 149.004 284.097 154.278C263.573 166.072 237.278 158.968 225.485 138.444C220.211 129.265 218.728 118.934 220.518 109.267L221.684 104.493C224.767 94.4319 231.496 85.4659 241.315 79.8249C261.847 68.0259 288.142 75.1299 299.939 95.6619Z" fill="#455A64"/>
<path d="M256.949 91.1669C256.751 91.1429 256.508 91.1619 256.416 91.3389C256.329 91.5049 256.441 91.7159 256.599 91.8159C256.757 91.9159 256.95 91.9409 257.13 91.9899C257.896 92.2019 258.477 92.9559 258.487 93.7519C258.495 94.3879 258.175 94.9849 257.783 95.4849C257.642 95.6649 257.487 95.8419 257.41 96.0579C257.185 96.6869 257.694 97.3369 258.237 97.7259C258.779 98.1149 259.431 98.4439 259.693 99.0579C259.759 99.2139 259.788 99.4159 259.667 99.5339C259.615 99.5839 259.544 99.6099 259.474 99.6289C258.806 99.8069 258.098 99.4749 257.579 99.0169C257.061 98.5589 256.665 97.9779 256.159 97.5059C255.719 97.0949 255.201 96.7729 254.774 96.3479C254.147 95.7239 253.745 94.9049 253.48 94.0609C253.268 93.3859 253.135 92.6719 253.231 91.9709C253.448 90.3869 254.82 89.1949 256.403 89.1449C257.568 89.1079 258.595 89.2929 258.971 90.5199C259.406 91.9349 257.739 91.2649 256.949 91.1669Z" fill="#E39293"/>
<path opacity="0.6" d="M256.949 91.1669C256.751 91.1429 256.508 91.1619 256.416 91.3389C256.329 91.5049 256.441 91.7159 256.599 91.8159C256.757 91.9159 256.95 91.9409 257.13 91.9899C257.896 92.2019 258.477 92.9559 258.487 93.7519C258.495 94.3879 258.175 94.9849 257.783 95.4849C257.642 95.6649 257.487 95.8419 257.41 96.0579C257.185 96.6869 257.694 97.3369 258.237 97.7259C258.779 98.1149 259.431 98.4439 259.693 99.0579C259.759 99.2139 259.788 99.4159 259.667 99.5339C259.615 99.5839 259.544 99.6099 259.474 99.6289C258.806 99.8069 258.098 99.4749 257.579 99.0169C257.061 98.5589 256.665 97.9779 256.159 97.5059C255.719 97.0949 255.201 96.7729 254.774 96.3479C254.147 95.7239 253.745 94.9049 253.48 94.0609C253.268 93.3859 253.135 92.6719 253.231 91.9709C253.448 90.3869 254.82 89.1949 256.403 89.1449C257.568 89.1079 258.595 89.2929 258.971 90.5199C259.406 91.9349 257.739 91.2649 256.949 91.1669Z" fill="white"/>
<path d="M290.552 110.794C290.686 110.742 290.817 110.681 290.944 110.61C291.547 110.27 291.999 109.678 292.275 109.056C292.374 108.833 292.662 108.425 292.662 108.185C292.446 108.49 292.218 108.806 291.888 108.983C291.597 109.139 291.258 109.171 290.93 109.2C288.92 109.376 286.933 109.552 284.91 109.542C282.795 109.531 280.679 109.477 278.566 109.38C275.28 109.229 271.829 108.919 269.105 107.075C266.713 105.456 265.178 102.846 262.974 100.978C262.563 102.038 261.362 102.572 260.237 102.733C254.124 103.607 250.832 97.9795 249.889 92.8105C249.979 93.3055 249.773 93.9995 249.767 94.5155C249.759 95.1725 249.797 95.8306 249.89 96.4806C250.046 97.5696 250.416 98.5415 250.948 99.5015C251.979 101.364 253.51 102.95 255.349 104.024C256.798 104.872 258.4 105.396 259.945 106.033C261.513 106.679 262.747 107.289 263.899 108.538C265.166 109.911 266.325 111.407 267.817 112.549C268.355 112.961 268.94 113.325 269.587 113.526C270.359 113.766 271.184 113.765 271.992 113.74C274.404 113.666 276.81 113.403 279.182 112.956C281.411 112.535 283.632 112.319 285.87 111.898C287.415 111.608 289.083 111.367 290.552 110.794Z" fill="#E39293"/>
<path opacity="0.6" d="M290.552 110.794C290.686 110.742 290.817 110.681 290.944 110.61C291.547 110.27 291.999 109.678 292.275 109.056C292.374 108.833 292.662 108.425 292.662 108.185C292.446 108.49 292.218 108.806 291.888 108.983C291.597 109.139 291.258 109.171 290.93 109.2C288.92 109.376 286.933 109.552 284.91 109.542C282.795 109.531 280.679 109.477 278.566 109.38C275.28 109.229 271.829 108.919 269.105 107.075C266.713 105.456 265.178 102.846 262.974 100.978C262.563 102.038 261.362 102.572 260.237 102.733C254.124 103.607 250.832 97.9795 249.889 92.8105C249.979 93.3055 249.773 93.9995 249.767 94.5155C249.759 95.1725 249.797 95.8306 249.89 96.4806C250.046 97.5696 250.416 98.5415 250.948 99.5015C251.979 101.364 253.51 102.95 255.349 104.024C256.798 104.872 258.4 105.396 259.945 106.033C261.513 106.679 262.747 107.289 263.899 108.538C265.166 109.911 266.325 111.407 267.817 112.549C268.355 112.961 268.94 113.325 269.587 113.526C270.359 113.766 271.184 113.765 271.992 113.74C274.404 113.666 276.81 113.403 279.182 112.956C281.411 112.535 283.632 112.319 285.87 111.898C287.415 111.608 289.083 111.367 290.552 110.794Z" fill="white"/>
<path d="M275.596 131.189C278.714 135.131 282.015 138.932 285.815 142.229H287.291C287.281 142.217 287.272 142.203 287.262 142.191C285.987 140.67 284.536 139.395 283.214 137.931C280.958 135.433 278.762 132.88 276.628 130.277C275.836 129.311 275.044 128.322 274.548 127.176C272.977 123.544 275.34 118.691 276.641 115.305C276.888 114.662 277.166 113.983 277.817 113.658C278.582 113.276 279.594 113.297 280.425 113.185C282.228 112.943 284.022 112.643 285.806 112.285C286.891 112.067 287.975 111.838 289.051 111.577C289.782 111.399 290.524 111.182 291.181 110.807C291.913 110.389 292.488 109.783 292.729 108.959C293.267 107.114 292.601 104.947 292.206 103.145C292.155 102.91 292.103 102.675 292.052 102.44C292.011 102.255 291.901 102.02 291.715 102.056C291.538 102.09 291.513 102.331 291.531 102.511C291.728 104.478 292.604 106.953 291.742 108.842C291.405 109.581 290.734 110.025 289.993 110.299C288.398 110.89 286.609 111.134 284.943 111.444C283.073 111.792 281.193 112.085 279.306 112.32C278.55 112.414 277.771 112.492 277.09 112.862C276.454 113.207 276.041 113.785 275.749 114.434C275.025 116.044 274.483 117.785 273.957 119.469C273.338 121.454 272.526 123.764 272.783 125.873C273.029 127.897 274.372 129.641 275.596 131.189Z" fill="#455A64"/>
<path d="M236.345 142.229C236.319 138.952 236.552 135.773 238.16 132.806C238.991 131.273 239.999 129.844 240.88 128.34C241.786 126.793 242.593 125.189 243.332 123.556C244.83 120.241 246.041 116.806 247.231 113.371C247.802 111.724 248.37 110.082 248.292 108.313C248.224 106.743 247.734 105.24 247.109 103.811C246.36 102.098 245.416 100.483 244.609 98.7979C243.7 96.8989 243.039 94.8959 242.526 92.8559C242.452 92.5639 241.848 92.3619 241.901 92.7949C242.349 96.3989 243.982 99.4809 245.493 102.721C246.212 104.262 246.872 105.895 247.056 107.599C247.256 109.454 246.712 111.138 246.102 112.865C244.916 116.224 243.726 119.588 242.266 122.84C241.53 124.479 240.727 126.088 239.827 127.643C238.969 129.124 237.986 130.528 237.145 132.019C236.19 133.712 235.543 135.507 235.267 137.435C235.04 139.023 235.027 140.628 235.052 142.23L236.345 142.229Z" fill="#455A64"/>
<path d="M253.363 112.839C253.054 112.627 252.828 112.316 252.549 112.066C252.32 111.861 252.04 111.692 251.733 111.675C251.426 111.657 251.095 111.825 250.997 112.116C250.955 112.24 250.957 112.374 250.96 112.505C250.965 112.769 250.97 113.033 250.975 113.297C250.98 113.538 250.983 113.788 250.889 114.01C250.758 114.322 250.462 114.525 250.219 114.759C249.975 114.993 249.762 115.331 249.867 115.653C249.935 115.86 250.125 116.009 250.332 116.077C250.856 116.249 251.406 115.965 251.925 115.779C252.469 115.584 253.05 115.492 253.627 115.51C253.695 115.512 253.768 115.515 253.828 115.482C253.923 115.43 253.952 115.31 253.973 115.204C254.074 114.684 254.391 113.897 254.327 113.376C254.26 112.831 253.796 113.135 253.363 112.839Z" fill="#E0E0E0"/>
<path opacity="0.2" d="M253.363 112.839C253.054 112.627 252.828 112.316 252.549 112.066C252.32 111.861 252.04 111.692 251.733 111.675C251.426 111.657 251.095 111.825 250.997 112.116C250.955 112.24 250.957 112.374 250.96 112.505C250.965 112.769 250.97 113.033 250.975 113.297C250.98 113.538 250.983 113.788 250.889 114.01C250.758 114.322 250.462 114.525 250.219 114.759C249.975 114.993 249.762 115.331 249.867 115.653C249.935 115.86 250.125 116.009 250.332 116.077C250.856 116.249 251.406 115.965 251.925 115.779C252.469 115.584 253.05 115.492 253.627 115.51C253.695 115.512 253.768 115.515 253.828 115.482C253.923 115.43 253.952 115.31 253.973 115.204C254.074 114.684 254.391 113.897 254.327 113.376C254.26 112.831 253.796 113.135 253.363 112.839Z" fill="black"/>
<path d="M253.363 112.839C253.054 112.627 252.828 112.316 252.549 112.066C252.32 111.861 252.04 111.692 251.733 111.675C251.426 111.657 251.095 111.825 250.997 112.116C250.955 112.24 250.957 112.374 250.96 112.505C250.965 112.769 250.97 113.033 250.975 113.297C250.98 113.538 250.983 113.788 250.889 114.01C250.758 114.322 250.462 114.525 250.219 114.759C249.975 114.993 249.762 115.331 249.867 115.653C249.935 115.86 250.125 116.009 250.332 116.077C250.856 116.249 251.406 115.965 251.925 115.779C252.469 115.584 253.05 115.492 253.627 115.51C253.695 115.512 253.768 115.515 253.828 115.482C253.923 115.43 253.952 115.31 253.973 115.204C254.074 114.684 254.391 113.897 254.327 113.376C254.26 112.831 253.796 113.135 253.363 112.839Z" stroke="#455A64" stroke-width="0.25" stroke-miterlimit="10"/>
<path d="M253.297 115.744C253.251 116.707 253.589 117.497 254.921 117.718C255.36 117.791 255.809 117.735 256.254 117.714C257.541 117.655 258.842 117.902 260.017 118.429C260.597 118.689 261.152 119.018 261.766 119.185C262.38 119.352 263.089 119.33 263.588 118.937C263.895 118.695 264.091 118.34 264.248 117.982C264.713 116.92 265.32 114.595 264.58 113.519C263.802 112.389 261.531 112.886 260.331 112.726C258.214 112.445 254.764 109.789 253.881 113.128C253.659 113.963 253.337 114.918 253.297 115.744Z" fill="#E0E0E0" stroke="#455A64" stroke-width="0.25" stroke-miterlimit="10"/>
<path d="M250.316 120.764C250.007 120.552 249.781 120.241 249.502 119.99C249.273 119.785 248.993 119.616 248.686 119.599C248.379 119.581 248.048 119.749 247.95 120.04C247.908 120.164 247.91 120.298 247.913 120.429C247.918 120.693 247.923 120.957 247.928 121.221C247.933 121.462 247.936 121.712 247.842 121.934C247.711 122.246 247.415 122.449 247.172 122.683C246.928 122.917 246.715 123.255 246.82 123.577C246.888 123.784 247.078 123.933 247.285 124.001C247.809 124.173 248.359 123.889 248.878 123.703C249.422 123.508 250.003 123.416 250.58 123.434C250.648 123.436 250.721 123.439 250.781 123.406C250.876 123.354 250.905 123.234 250.926 123.128C251.027 122.608 251.344 121.821 251.28 121.3C251.214 120.756 250.75 121.061 250.316 120.764Z" fill="#E0E0E0"/>
<path opacity="0.2" d="M250.316 120.764C250.007 120.552 249.781 120.241 249.502 119.99C249.273 119.785 248.993 119.616 248.686 119.599C248.379 119.581 248.048 119.749 247.95 120.04C247.908 120.164 247.91 120.298 247.913 120.429C247.918 120.693 247.923 120.957 247.928 121.221C247.933 121.462 247.936 121.712 247.842 121.934C247.711 122.246 247.415 122.449 247.172 122.683C246.928 122.917 246.715 123.255 246.82 123.577C246.888 123.784 247.078 123.933 247.285 124.001C247.809 124.173 248.359 123.889 248.878 123.703C249.422 123.508 250.003 123.416 250.58 123.434C250.648 123.436 250.721 123.439 250.781 123.406C250.876 123.354 250.905 123.234 250.926 123.128C251.027 122.608 251.344 121.821 251.28 121.3C251.214 120.756 250.75 121.061 250.316 120.764Z" fill="black"/>
<path d="M250.316 120.764C250.007 120.552 249.781 120.241 249.502 119.99C249.273 119.785 248.993 119.616 248.686 119.599C248.379 119.581 248.048 119.749 247.95 120.04C247.908 120.164 247.91 120.298 247.913 120.429C247.918 120.693 247.923 120.957 247.928 121.221C247.933 121.462 247.936 121.712 247.842 121.934C247.711 122.246 247.415 122.449 247.172 122.683C246.928 122.917 246.715 123.255 246.82 123.577C246.888 123.784 247.078 123.933 247.285 124.001C247.809 124.173 248.359 123.889 248.878 123.703C249.422 123.508 250.003 123.416 250.58 123.434C250.648 123.436 250.721 123.439 250.781 123.406C250.876 123.354 250.905 123.234 250.926 123.128C251.027 122.608 251.344 121.821 251.28 121.3C251.214 120.756 250.75 121.061 250.316 120.764Z" stroke="#455A64" stroke-width="0.25" stroke-miterlimit="10"/>
<path d="M250.25 123.669C250.203 124.632 250.541 125.422 251.873 125.643C252.312 125.716 252.761 125.66 253.206 125.639C254.493 125.58 255.794 125.827 256.969 126.354C257.549 126.614 258.104 126.943 258.718 127.11C259.332 127.277 260.041 127.255 260.54 126.862C260.847 126.62 261.043 126.265 261.2 125.907C261.665 124.845 262.272 122.52 261.532 121.444C260.754 120.314 258.483 120.811 257.283 120.651C255.166 120.37 251.716 117.714 250.833 121.053C250.613 121.889 250.29 122.843 250.25 123.669Z" fill="#E0E0E0" stroke="#455A64" stroke-width="0.25" stroke-miterlimit="10"/>
<path d="M246.796 128.865C246.472 128.676 246.225 128.381 245.929 128.152C245.686 127.964 245.395 127.816 245.087 127.82C244.78 127.824 244.461 128.015 244.384 128.313C244.351 128.44 244.363 128.573 244.375 128.704C244.399 128.967 244.423 129.23 244.447 129.493C244.469 129.733 244.49 129.982 244.412 130.21C244.303 130.53 244.023 130.754 243.797 131.005C243.571 131.256 243.382 131.609 243.51 131.921C243.592 132.122 243.793 132.257 244.004 132.31C244.539 132.444 245.067 132.121 245.572 131.898C246.101 131.665 246.673 131.531 247.251 131.507C247.319 131.504 247.392 131.502 247.449 131.464C247.54 131.405 247.561 131.284 247.574 131.177C247.637 130.651 247.897 129.844 247.796 129.329C247.69 128.793 247.249 129.13 246.796 128.865Z" fill="#E0E0E0"/>
<path opacity="0.2" d="M246.796 128.865C246.472 128.676 246.225 128.381 245.929 128.152C245.686 127.964 245.395 127.816 245.087 127.82C244.78 127.824 244.461 128.015 244.384 128.313C244.351 128.44 244.363 128.573 244.375 128.704C244.399 128.967 244.423 129.23 244.447 129.493C244.469 129.733 244.49 129.982 244.412 130.21C244.303 130.53 244.023 130.754 243.797 131.005C243.571 131.256 243.382 131.609 243.51 131.921C243.592 132.122 243.793 132.257 244.004 132.31C244.539 132.444 245.067 132.121 245.572 131.898C246.101 131.665 246.673 131.531 247.251 131.507C247.319 131.504 247.392 131.502 247.449 131.464C247.54 131.405 247.561 131.284 247.574 131.177C247.637 130.651 247.897 129.844 247.796 129.329C247.69 128.793 247.249 129.13 246.796 128.865Z" fill="black"/>
<path d="M246.796 128.865C246.472 128.676 246.225 128.381 245.929 128.152C245.686 127.964 245.395 127.816 245.087 127.82C244.78 127.824 244.461 128.015 244.384 128.313C244.351 128.44 244.363 128.573 244.375 128.704C244.399 128.967 244.423 129.23 244.447 129.493C244.469 129.733 244.49 129.982 244.412 130.21C244.303 130.53 244.023 130.754 243.797 131.005C243.571 131.256 243.382 131.609 243.51 131.921C243.592 132.122 243.793 132.257 244.004 132.31C244.539 132.444 245.067 132.121 245.572 131.898C246.101 131.665 246.673 131.531 247.251 131.507C247.319 131.504 247.392 131.502 247.449 131.464C247.54 131.405 247.561 131.284 247.574 131.177C247.637 130.651 247.897 129.844 247.796 129.329C247.69 128.793 247.249 129.13 246.796 128.865Z" stroke="#455A64" stroke-width="0.25" stroke-miterlimit="10"/>
<path d="M246.939 131.769C246.962 132.733 247.355 133.496 248.7 133.622C249.143 133.663 249.587 133.575 250.029 133.523C251.309 133.372 252.623 133.525 253.834 133.967C254.431 134.185 255.008 134.474 255.633 134.596C256.257 134.718 256.962 134.646 257.433 134.218C257.722 133.955 257.892 133.586 258.023 133.218C258.411 132.125 258.85 129.763 258.034 128.743C257.177 127.672 254.947 128.33 253.739 128.257C251.607 128.128 247.976 125.726 247.334 129.12C247.173 129.967 246.919 130.942 246.939 131.769Z" fill="#E0E0E0" stroke="#455A64" stroke-width="0.25" stroke-miterlimit="10"/>
<path d="M244.703 137.524C244.367 137.358 244.1 137.081 243.789 136.872C243.533 136.701 243.233 136.573 242.926 136.599C242.62 136.624 242.315 136.837 242.259 137.139C242.235 137.268 242.256 137.4 242.277 137.53C242.319 137.791 242.361 138.051 242.403 138.312C242.441 138.55 242.48 138.797 242.418 139.03C242.332 139.357 242.068 139.6 241.859 139.866C241.65 140.132 241.487 140.497 241.636 140.8C241.732 140.995 241.942 141.116 242.156 141.154C242.699 141.25 243.204 140.893 243.692 140.635C244.203 140.366 244.765 140.193 245.34 140.13C245.408 140.122 245.48 140.115 245.535 140.074C245.621 140.009 245.634 139.887 245.64 139.779C245.667 139.25 245.87 138.426 245.734 137.92C245.59 137.389 245.174 137.756 244.703 137.524Z" fill="#E0E0E0"/>
<path opacity="0.2" d="M244.703 137.524C244.367 137.358 244.1 137.081 243.789 136.872C243.533 136.701 243.233 136.573 242.926 136.599C242.62 136.624 242.315 136.837 242.259 137.139C242.235 137.268 242.256 137.4 242.277 137.53C242.319 137.791 242.361 138.051 242.403 138.312C242.441 138.55 242.48 138.797 242.418 139.03C242.332 139.357 242.068 139.6 241.859 139.866C241.65 140.132 241.487 140.497 241.636 140.8C241.732 140.995 241.942 141.116 242.156 141.154C242.699 141.25 243.204 140.893 243.692 140.635C244.203 140.366 244.765 140.193 245.34 140.13C245.408 140.122 245.48 140.115 245.535 140.074C245.621 140.009 245.634 139.887 245.64 139.779C245.667 139.25 245.87 138.426 245.734 137.92C245.59 137.389 245.174 137.756 244.703 137.524Z" fill="black"/>
<path d="M244.703 137.524C244.367 137.358 244.1 137.081 243.789 136.872C243.533 136.701 243.233 136.573 242.926 136.599C242.62 136.624 242.315 136.837 242.259 137.139C242.235 137.268 242.256 137.4 242.277 137.53C242.319 137.791 242.361 138.051 242.403 138.312C242.441 138.55 242.48 138.797 242.418 139.03C242.332 139.357 242.068 139.6 241.859 139.866C241.65 140.132 241.487 140.497 241.636 140.8C241.732 140.995 241.942 141.116 242.156 141.154C242.699 141.25 243.204 140.893 243.692 140.635C244.203 140.366 244.765 140.193 245.34 140.13C245.408 140.122 245.48 140.115 245.535 140.074C245.621 140.009 245.634 139.887 245.64 139.779C245.667 139.25 245.87 138.426 245.734 137.92C245.59 137.389 245.174 137.756 244.703 137.524Z" stroke="#455A64" stroke-width="0.25" stroke-miterlimit="10"/>
<path d="M245.046 140.41C245.135 141.37 245.58 142.104 246.93 142.137C247.375 142.148 247.812 142.029 248.249 141.947C249.515 141.708 250.838 141.77 252.076 142.128C252.687 142.304 253.282 142.552 253.914 142.631C254.545 142.71 255.244 142.589 255.683 142.13C255.953 141.847 256.097 141.468 256.203 141.092C256.515 139.975 256.79 137.588 255.906 136.627C254.977 135.617 252.798 136.427 251.588 136.438C249.452 136.456 245.664 134.31 245.258 137.74C245.155 138.596 244.969 139.586 245.046 140.41Z" fill="#E0E0E0" stroke="#455A64" stroke-width="0.25" stroke-miterlimit="10"/>
<path d="M268.413 142.214C267.688 140.675 266.833 139.19 265.922 137.753C265.147 136.53 264.199 135.506 262.976 134.723C260.297 133.007 257.1 132.778 254.006 132.74C253.831 132.738 253.861 133.064 254.011 133.089C256.847 133.554 259.892 133.955 262.352 135.555C263.469 136.282 264.485 137.265 265.213 138.367C266.117 139.736 266.776 140.978 267.758 142.466C267.982 142.805 268.638 142.691 268.413 142.214Z" fill="#455A64"/>
<path d="M262.904 102.105C263.106 101.829 263.273 101.524 263.404 101.202C263.519 100.919 263.621 100.613 263.561 100.314C263.544 100.227 263.506 100.134 263.426 100.094C263.331 100.046 263.21 100.094 263.14 100.173C263.069 100.253 263.036 100.358 262.998 100.457C262.453 101.898 260.962 102.623 259.501 102.661C258.528 102.686 257.572 102.473 256.677 102.097C254.998 101.391 253.606 100.101 252.6 98.5991C250.456 95.3981 249.318 89.7011 253.123 87.2001C254.924 86.0161 257.465 86.2091 259.224 87.3781C259.465 87.5381 259.489 87.1121 259.328 86.9921C257.467 85.6101 254.992 85.1141 252.845 86.1621C250.752 87.1841 249.653 89.4901 249.509 91.7311C249.223 96.1671 251.956 100.987 256.021 102.846C257.088 103.334 258.254 103.604 259.429 103.609C260.071 103.611 260.731 103.511 261.337 103.297C261.986 103.067 262.511 102.64 262.904 102.105Z" fill="#455A64"/>
<path d="M259.589 97.8683C258.926 97.3643 257.42 96.9212 258.081 95.8312C258.532 95.0882 259.339 94.5722 259.187 93.5882C259.019 92.4972 258.032 91.8512 257.042 91.5842C256.769 91.5102 256.849 91.9672 257.036 92.0422C257.921 92.3972 258.782 93.1082 258.129 94.0942C257.736 94.6872 257.092 95.1382 256.892 95.8482C256.659 96.6742 257.183 97.3972 257.84 97.8472C258.533 98.3222 260.03 98.7722 259.672 99.8922C259.653 99.9512 259.675 100.094 259.766 100.062C260.752 99.7163 260.166 98.3073 259.589 97.8683Z" fill="#455A64"/>
<path d="M258.911 90.0093C258.69 89.7823 258.512 89.5883 258.234 89.4383C257.992 89.3073 257.736 89.2013 257.472 89.1233C256.952 88.9683 256.407 88.9293 255.869 89.0023C254.728 89.1563 253.594 89.8523 253.138 90.9463C252.903 91.5093 252.902 92.1343 252.902 92.7343C252.902 93.3403 252.915 93.9643 253.09 94.5493C253.259 95.1173 253.541 95.6803 253.931 96.1283C254.149 96.3793 254.365 96.5823 254.625 96.7873C254.846 96.9613 255.072 97.1743 255.353 97.2393C255.602 97.2963 255.674 97.0863 255.604 96.8813C255.523 96.6463 255.298 96.5333 255.139 96.3573C255.008 96.2113 254.9 96.0453 254.787 95.8803C254.512 95.4783 254.295 95.0353 254.163 94.5663C254.013 94.0293 253.981 93.4923 253.981 92.9373C253.981 92.4003 253.967 91.8413 254.175 91.3363C254.926 89.5183 257.337 89.4523 258.847 90.2443C258.951 90.2973 258.958 90.0583 258.911 90.0093Z" fill="#455A64"/>
<path opacity="0.2" d="M253.456 125.595C253.456 129.361 250.403 132.415 246.636 132.415C242.869 132.415 239.816 129.362 239.816 125.595C239.816 121.829 242.869 118.775 246.636 118.775C250.403 118.775 253.456 121.829 253.456 125.595Z" fill="#E39293"/>
<path opacity="0.2" d="M250.317 125.596C250.317 127.629 248.669 129.276 246.637 129.276C244.604 129.276 242.957 127.628 242.957 125.596C242.957 123.563 244.605 121.916 246.637 121.916C248.669 121.916 250.317 123.563 250.317 125.596Z" fill="#E39293"/>
<path opacity="0.2" d="M256.985 127.273C257.912 121.562 254.033 116.181 248.322 115.254C242.611 114.327 237.23 118.206 236.303 123.917C235.376 129.628 239.255 135.009 244.966 135.936C250.677 136.863 256.058 132.985 256.985 127.273Z" fill="#E39293"/>
<path opacity="0.2" d="M260.813 127.894C262.083 120.068 256.769 112.695 248.944 111.425C241.119 110.155 233.746 115.469 232.475 123.295C231.205 131.121 236.519 138.494 244.345 139.764C252.17 141.034 259.543 135.72 260.813 127.894Z" fill="#E39293"/>
</svg>
