<svg width="89" height="66" viewBox="0 0 89 66" fill="none" xmlns="http://www.w3.org/2000/svg">
<path d="M38.203 20.0649C38.3221 20.0677 38.443 20.0813 38.5595 20.1061C46.1384 21.7217 49.6179 26.7685 51.9884 33.6185C52.3192 34.5747 51.8454 35.6154 50.924 36.0333C47.597 37.542 44.2844 39.0811 40.896 40.4301C40.8331 40.4551 40.7679 40.4741 40.7004 40.4877C39.3348 40.7634 38.3778 38.4038 39.354 37.4098C39.4748 37.2868 39.6059 37.1826 39.7507 37.1033C41.3245 36.2411 43.2895 36.1009 44.883 35.2631C45.0335 35.184 45.1707 35.0795 45.2979 34.956C46.2745 34.008 45.5083 31.9715 44.1584 31.7971C43.9708 31.7728 43.7848 31.7659 43.6008 31.7822C42.1428 31.9119 40.7212 32.5431 39.3037 33.0188C33.3443 35.0189 31.9512 38.4943 35.3143 42.885C36.0086 43.7914 35.9783 45.0994 35.1216 45.8542C33.3867 47.3827 31.6586 48.9153 30.0231 50.5409C29.9591 50.6045 30.1822 50.9571 30.5048 51.4174C31.1364 52.3188 32.396 52.5565 33.3179 51.9551C39.185 48.1276 44.9354 44.4456 50.5742 40.6001C53.7049 38.4649 55.6632 38.8745 57.0468 42.4907C58.3752 45.9627 59.8296 49.3866 61.3824 53.1036C61.9313 54.4175 60.9645 55.8629 59.5406 55.8629C57.6371 55.8629 55.8254 55.8629 54.0515 55.8629C52.4904 55.8629 51.8105 54.2416 52.1264 52.7128C52.2511 52.1093 52.078 51.6519 51.5974 51.0633C50.9205 50.2342 49.6548 50.2517 48.8682 50.9776C44.7133 54.8115 40.5401 58.6446 36.3984 62.5115C33.2588 65.4428 29.8445 67.0781 25.5483 65.128C21.3357 63.2157 20.0017 59.7059 20.0493 55.3662C20.0891 51.7377 20.0737 48.1087 19.4987 44.0472C19.2796 42.4996 17.5801 42.0706 16.8147 43.4335C16.7058 43.6275 16.6009 43.8174 16.4998 44C12.7955 50.692 9.94964 59.4706 5.5 65.5C5.26345 65.9207 4.75481 65.8706 4.16452 65.7302C3.12441 65.4829 0.555854 64.4727 0.999517 63.5V63.5C6.17347 52.1558 12.1413 39.3114 17.6064 28.106C20.2265 22.7339 24.9583 20.1159 30.9601 19.9784C33.2396 19.9261 35.5219 20.0021 38.203 20.0649Z" fill="black"/>
<path d="M70.9818 65.9673C60.1836 65.9673 49.8294 65.9673 39.0139 65.9673C38.2128 65.9673 37.7439 65.0758 38.25 64.4548C40.9212 61.1773 43.9345 59.8645 48.2058 60.0617C56.8488 60.4608 65.5234 60.1582 74.1847 60.1801C78.144 60.1901 82.1711 60.7402 85.2998 57.2823C85.6164 56.9325 86.1666 56.794 86.808 56.6952C87.5976 56.5735 88.2847 57.408 88.0042 58.1562C85.0754 65.9673 84.2109 65.9673 70.9818 65.9673Z" fill="black"/>
<path d="M27.9307 10.0818C27.5 7 28.2758 4.92431 29.4991 2.99987C31.4693 -0.0996149 37.3669 -0.409089 39.2089 2.44137C40.3967 4.27957 40.5602 7.37167 40.0004 9.6055C39.2024 12.7896 37.3734 16.4967 33.3826 15.7028C31.296 15.2877 27.9991 11.9999 27.9307 10.0818Z" fill="black"/>
<path d="M62.6696 57.403C58.6892 58.6212 54.7869 59.5108 50.7283 59.3645C49.6844 59.3269 48.6054 59.1629 47.6181 58.8283C45.642 58.1587 45.2001 56.5508 46.462 54.8927C46.8749 54.3502 47.4073 53.9003 47.9695 53.321C48.2953 53.6599 48.5572 53.9324 48.8652 54.2529C48.4299 54.7031 48.0258 55.0718 47.6792 55.4891C46.7476 56.6106 46.9221 57.4749 48.3351 57.6649C50.2746 57.9257 52.2854 58.0706 54.219 57.8557C60.0471 57.2082 65.5826 55.5342 70.6135 52.4318C71.4628 51.9081 72.265 51.2474 72.9388 50.5108C73.8857 49.4754 73.6857 48.7825 72.3507 48.4061C71.3658 48.1284 70.3225 48.0633 69.2701 47.898C69.143 48.768 69.045 49.4391 68.9109 50.3567C67.8741 49.0959 66.9896 48.0204 66.0378 46.8631C67.1844 45.9037 68.2615 45.0026 69.5195 43.95C69.4583 44.9675 69.41 45.7698 69.3634 46.5434C70.4386 46.7127 71.5084 46.7757 72.5171 47.0606C75.0378 47.7727 75.7104 49.7955 73.7526 51.4882C71.8341 53.1469 69.5565 54.4242 67.3211 55.6581C65.9253 56.4286 64.3156 56.8087 62.6696 57.403Z" fill="#0E0E0E"/>
</svg>
