<svg width="532" height="763" viewBox="0 0 532 763" fill="none" xmlns="http://www.w3.org/2000/svg">
<path d="M286.734 68.2891L298.234 63.2891H306.734V66.2891C305.234 69.6224 301.934 76.3891 300.734 76.7891C299.534 77.1891 294.568 75.9557 292.234 75.2891L286.734 68.2891Z" fill="#BCBCBC"/>
<path d="M128.313 658.812C128.461 663.099 128.609 667.385 128.51 671.928C118.874 674.792 109.385 676.827 99.5705 676.464C96.1122 676.336 92.6717 675.731 89.083 675.224C88.6246 674.37 88.3062 673.636 87.976 672.671C87.8093 671.12 87.6209 669.802 87.5065 668.479C87.254 665.557 87.1734 662.615 86.7795 659.714C86.0397 654.266 85.0853 648.848 84.2966 643.406C82.9603 634.188 81.7608 624.95 80.3603 615.741C78.893 606.093 77.333 596.458 75.6739 586.841C73.8191 576.089 72.0239 565.319 69.7869 554.645C68.3335 547.709 66.08 540.944 64.2916 534.075C62.9977 529.105 61.8565 524.095 60.6879 519.093C59.4156 513.647 57.725 508.247 57.0621 502.725C56.2317 495.808 54.9003 488.946 55.7073 481.801C56.5969 473.922 59.4641 467.161 64.7318 461.495C70.4667 455.327 77.8652 451.386 85.5453 448.317C94.0262 444.927 102.803 442.268 111.487 439.398C118.744 437 126.052 434.759 133.336 432.442C139.513 430.478 145.647 428.366 151.871 426.566C163.232 423.28 174.619 420.073 186.047 417.031C195.492 414.517 204.952 411.993 214.517 410.015C224.241 408.004 234.064 406.357 243.914 405.106C252.714 403.988 261.599 403.374 270.466 403.018C276.863 402.761 283.299 403.153 289.702 403.521C294.033 403.77 298.342 404.449 302.654 404.992C306.099 405.426 309.533 405.945 312.973 406.427C312.994 406.204 313.015 405.981 313.036 405.758C291.181 398.521 268.85 397.548 246.158 401.187C245.048 399.286 243.981 397.458 242.837 395.485C242.455 394.493 242.15 393.645 242.068 392.76C243.939 392.377 245.593 392.059 247.233 391.677C258.388 389.08 269.533 386.441 280.697 383.88C283.889 383.147 287.118 382.561 290.349 382.02C296.295 381.025 302.235 379.953 308.214 379.206C316.216 378.206 324.236 377.203 332.279 376.73C339.219 376.322 346.202 376.653 353.298 376.792C359.158 391.485 364.164 406.251 366.171 421.863C367.948 435.687 367.356 449.297 362.342 462.481C356.526 477.774 345.912 489.02 332.247 497.849C331.261 497.917 330.468 498.065 329.681 498.041C323.013 497.839 316.346 497.523 309.677 497.399C296.404 497.152 283.129 497.006 269.855 496.816C269.41 496.809 268.941 496.861 268.523 496.744C264.847 495.71 261.194 496.212 257.771 497.488C252.941 499.288 249.243 502.513 247.403 507.759C246.815 510.468 246.321 512.988 245.718 515.482C245.5 516.385 245.023 517.226 244.664 518.095C242.868 518.109 241.073 518.123 238.843 518.11C236.93 518.172 235.449 518.26 233.969 518.348C222.862 518.328 211.755 518.308 200.241 518.239C199.048 518.217 198.262 518.245 197.475 518.274C194.989 518.27 192.496 518.381 190.018 518.242C183.959 517.901 177.91 517.408 171.852 517.05C168.347 516.843 164.823 516.912 161.328 516.62C155.948 516.17 150.589 515.477 145.214 514.966C142.617 514.719 140.001 514.681 137.398 514.489C135.757 514.368 134.124 514.137 132.204 513.733C129.885 513.138 127.817 512.883 125.826 512.343C124.777 512.058 123.597 511.493 122.937 510.68C120.419 507.579 118.254 504.183 115.651 501.161C111.213 496.009 105.421 492.628 99.3985 489.677C97.2805 488.639 94.9611 488.012 92.7337 487.198C92.6406 487.412 92.5474 487.626 92.4544 487.84C92.8296 488.138 93.1601 488.569 93.5872 488.713C98.6483 490.418 102.971 493.307 107.114 496.631C115.44 503.31 120.861 512.03 124.389 521.837C127.838 531.423 128.713 541.607 129.27 551.719C129.769 560.762 129.817 569.836 129.838 578.897C129.854 585.9 129.547 592.904 129.329 599.906C129.235 602.927 128.994 605.944 128.833 608.963C128.639 612.606 128.425 616.249 128.304 619.895C128.283 620.536 128.679 621.191 128.882 621.839C128.679 627.565 128.477 633.29 128.225 639.47C128.221 646.22 128.267 652.516 128.313 658.812Z" fill="black"/>
<path d="M447.777 419.575C448.591 421.314 449.404 423.053 450.42 425.025C450.828 425.48 451.035 425.702 451.241 425.924C451.306 426.091 451.371 426.258 451.608 426.643C451.931 427.01 452.083 427.158 452.234 427.307C452.735 428.055 453.236 428.804 453.893 429.785C454.133 430.17 454.259 430.269 454.428 430.316C454.428 430.316 454.44 430.292 454.462 430.442C454.632 430.721 454.78 430.851 454.929 430.982C455.471 431.761 456.013 432.54 456.699 433.528C456.908 433.849 457.006 433.904 457.137 433.901C459.913 438.327 462.689 442.754 465.609 447.481C465.896 447.94 466.038 448.099 466.18 448.258C467.623 453.078 469.477 457.822 470.379 462.741C471.111 466.735 471.107 470.979 470.702 475.038C470.043 481.623 468.843 488.158 467.744 494.692C467.487 496.223 466.72 497.669 465.942 499.291C463.065 495.243 460.845 490.709 457.689 486.966C454.38 483.043 450.171 479.879 446.246 476.248C443.78 473.939 441.424 471.764 439.015 469.395C436.785 466.442 434.607 463.684 432.351 460.758C430.395 457.939 428.517 455.286 426.617 452.44C425.296 448.681 424.014 445.111 422.691 441.556C422.076 439.907 421.381 438.287 420.715 436.435C419.619 432.789 418.531 429.362 417.456 425.717C417.332 424.715 417.262 423.913 417.048 423.152C413.179 409.423 406.989 396.909 398.235 385.567C384.773 368.124 373.19 349.477 364.18 329.334C351.974 302.048 341.758 273.896 328.498 247.066C328.081 246.222 327.504 245.457 326.9 244.489C326.839 242.289 326.421 241.357 323.856 241.799C321.203 242.255 318.283 242.135 315.645 241.539C299.398 237.864 285.726 220.515 285.48 203.542C285.322 192.598 288.498 182.355 292.708 172.497C296.484 163.659 301.085 155.173 305.495 146.522C305.895 146.465 306.12 146.418 306.346 146.37C314.237 145.158 321.777 147.125 329.073 149.568C332.995 150.881 336.408 153.72 340.043 155.884C344.646 158.624 347.97 162.79 351.696 166.491C352.914 167.701 353.877 169.278 354.609 170.848C357.382 176.796 359.799 182.918 362.768 188.763C364.941 193.044 365.237 197.702 366.398 202.18C367.599 206.813 368.455 211.535 369.603 216.184C371.614 224.333 373.598 232.493 375.84 240.581C378.841 251.412 381.575 262.358 385.365 272.917C388.625 282.003 393.185 290.625 397.207 299.435C401.444 308.715 405.992 317.865 409.906 327.279C413.549 336.043 416.793 344.997 419.746 354.019C422.992 363.94 425.501 374.102 428.741 384.025C430.271 388.71 432.758 393.082 434.992 397.894C436.749 401.061 438.326 403.931 439.911 406.993C441.666 410.273 443.356 413.395 445.188 416.43C445.882 417.58 446.904 418.533 447.777 419.575Z" fill="#C38E8F"/>
<path d="M305.323 146.532C301.086 155.173 296.485 163.659 292.709 172.498C288.499 182.355 285.323 192.599 285.481 203.542C285.727 220.515 299.399 237.865 315.646 241.539C318.284 242.136 321.204 242.255 323.857 241.799C326.422 241.358 326.84 242.289 326.929 244.733C327.769 250.447 328.539 255.745 329.181 261.058C330.357 270.794 331.457 280.538 332.365 290.281C321.77 288.36 311.297 287.891 300.777 288.079C300.696 288.081 300.611 287.856 300.348 287.481C305.369 285.77 309.716 283.138 312.698 278.678C315.672 274.233 317.155 269.306 317.433 263.991C316.976 264.541 316.75 265.167 316.579 265.808C314.978 271.825 312.403 277.32 307.538 281.394C299.623 288.02 290.358 288.455 280.752 286.816C270.068 284.994 259.445 282.374 248.504 283.386C244.672 283.74 240.654 284.504 237.216 286.129C232.12 288.536 227.455 291.859 222.626 294.824C216.179 298.783 209.614 302.26 201.619 300.582C201.349 300.525 201.001 300.836 200.502 300.963C191.984 296.959 184.698 291.666 179.258 283.892C172.445 272.404 171.566 260.079 173.679 247.491C175.24 238.191 177.367 228.963 179.698 219.819C184.681 200.27 190.18 180.882 201.25 163.653C204.262 158.508 208.732 156.177 214.932 156.87C211.656 165.43 207.974 173.752 204.633 182.208C200.336 193.08 196.406 204.081 194.508 215.698C193.356 222.75 195.631 227.228 202.148 230.124C203.204 230.593 204.312 230.964 205.422 231.287C212.617 233.383 219.891 233.196 227.151 231.798C238.58 229.597 249.058 225.481 255.764 215.27C259.528 209.54 262.962 203.542 265.997 197.394C274.839 179.483 283.404 161.436 292.078 143.443C296.385 142.572 300.703 141.627 304.528 145.557C304.947 146.024 305.135 146.278 305.323 146.532Z" fill="black"/>
<path d="M201.112 163.606C190.179 180.882 184.68 200.27 179.697 219.819C177.366 228.963 175.239 238.191 173.678 247.491C171.565 260.079 172.444 272.404 179.14 284.079C178.669 285.828 178.335 287.216 177.962 288.593C172.882 307.338 166.007 325.46 158.73 343.428C149.905 365.216 140.946 386.933 126.498 405.856C120.215 414.086 114.424 422.692 108.257 431.231C101.932 433.409 95.7365 435.414 89.5963 437.575C84.0614 439.524 78.587 441.644 73.0859 443.689C75.7688 438.325 78.5329 433.001 81.1139 427.589C84.3365 420.832 87.7225 414.128 90.4713 407.176C94.5549 396.849 98.403 386.412 101.875 375.864C106.325 362.343 109.94 348.541 114.601 335.097C118.136 324.9 123.018 315.177 126.792 305.053C130.51 295.082 133.891 284.961 136.863 274.744C140.024 263.88 142.639 252.851 145.289 241.846C147.305 233.473 148.982 225.018 150.849 216.609C153.511 204.62 156.433 192.72 162.434 181.835C167.526 172.599 175.393 167.682 185.77 166.422C189.022 166.027 192.224 165.226 195.856 164.546C197.741 164.147 199.218 163.813 200.696 163.479C200.789 163.505 200.882 163.532 201.112 163.606Z" fill="#C38E8F"/>
<path d="M291.955 143.264C283.404 161.435 274.838 179.482 265.996 197.393C262.962 203.541 259.527 209.539 255.764 215.269C249.058 225.48 238.58 229.596 227.151 231.797C219.891 233.195 212.616 233.382 205.422 231.286C204.311 230.963 203.203 230.592 202.148 230.123C195.631 227.227 193.355 222.749 194.507 215.697C196.406 204.08 200.336 193.079 204.632 182.207C207.973 173.751 211.655 165.429 215.174 156.843C220.642 149.437 224.668 141.497 227.168 132.804C229.268 125.504 230.985 118.143 229.79 110.139C229.718 109.545 229.653 109.261 229.588 108.978C229.433 107.664 229.278 106.35 229.071 104.621C229.017 103.655 229.017 103.105 229.246 102.531C231.505 102.69 233.533 102.872 235.585 103.248C239.128 111.459 244.152 118.382 250.985 123.861C256.592 128.356 262.81 131.781 270.013 132.998C274.03 133.677 278.079 134.163 282.114 134.736C282.114 134.736 282.231 134.698 282.285 134.856C282.464 135.191 282.588 135.367 282.712 135.544C282.826 136.085 282.94 136.627 283.211 137.441C283.692 137.996 284.016 138.279 284.34 138.562C286.146 141.217 288.81 142.448 291.955 143.264Z" fill="#C38E8F"/>
<path d="M235.562 103.054C233.534 102.872 231.505 102.69 229.152 102.417C228.57 102.216 228.311 102.107 228.053 101.998C227.983 101.939 227.913 101.881 227.584 101.704C226.885 101.6 226.446 101.614 225.957 101.439C224.935 100.955 223.85 100.844 223.006 100.334C219.228 98.0519 215.348 95.8834 211.824 93.2473C206.704 89.4174 201.637 85.3812 200.989 78.2384C200.975 78.0878 200.568 77.973 200.344 77.8415C199.784 76.8393 199.224 75.8372 198.571 74.4478C198.428 73.9336 198.38 73.8066 198.332 73.6796C198.332 73.6796 198.195 73.7237 198.31 73.6159C198.467 73.4465 198.509 73.385 198.55 73.3235C198.377 73.3227 198.203 73.322 198.029 73.3212C197.904 73.2855 197.824 73.2049 197.85 72.7762C197.449 71.7589 196.988 71.045 196.526 70.3311C196.145 67.3969 195.77 64.4619 195.381 61.5288C195.041 58.9657 194.464 56.4106 194.396 53.8413C194.325 51.1619 194.538 48.4357 194.987 45.7911C195.658 41.841 196.234 37.7935 197.606 34.0656C199.117 29.9581 200.824 25.587 203.639 22.3768C207.425 18.0589 211.126 13.2537 217.067 11.3059C218.387 10.8729 219.643 9.83651 220.601 8.78058C223.481 5.60504 227.06 3.88972 231.128 2.73078C237.058 1.04122 242.975 -0.28876 249.208 0.054254C253.182 0.272911 257.174 0.138608 261.156 0.211452C261.942 0.225818 262.72 0.485674 263.507 0.594314C266.19 0.96484 268.874 1.57855 271.562 1.59645C273.727 1.61086 275.586 1.98634 277.457 3.06355C278.964 3.93117 280.761 4.28489 282.31 5.09506C283.838 5.89462 285.212 6.98816 286.662 7.93988C288.629 9.2315 290.605 10.5109 292.905 11.9455C293.669 12.2042 294.105 12.313 294.558 12.4114C294.576 12.4011 294.539 12.4132 294.532 12.6056C295.083 13.031 295.639 13.2639 296.191 13.4759C296.188 13.455 296.145 13.4607 296.094 13.6484C297.529 16.0474 299.017 18.2587 300.588 20.6381C300.986 21.4484 301.34 22.0747 301.606 22.7364C302.093 23.9478 302.719 24.1603 303.603 23.1064C303.629 23.2008 303.654 23.2952 303.666 23.7058C302.419 25.4112 301.781 26.8516 303.27 28.4749C302.955 29.0506 302.641 29.6263 302.11 30.3791C301.665 30.6857 301.308 30.7609 301.227 30.9527C298.767 36.784 293.994 38.786 288.107 38.7321C281.835 38.6748 277.622 41.1604 275.661 47.4241C274.599 50.8198 272.037 53.2351 268.879 55.063C267.582 55.8134 266.4 57.1496 265.725 58.4991C264.576 60.7962 263.719 63.2718 263.017 65.7511C262.211 68.5954 260.742 70.7598 257.997 71.9537C255.605 72.9946 255.036 74.7971 255.612 77.2139C255.863 78.268 255.849 79.3853 255.956 80.4739C255.603 80.4901 255.251 80.5064 254.898 80.5226C254.898 77.5657 254.898 74.6088 254.898 71.537C251.252 71.1278 249.428 68.1807 247.337 65.4987C245.079 62.6019 242.238 60.6541 238.354 61.4791C233.868 62.432 231.593 66.7811 232.566 72.2527C234.187 81.3594 238.062 89.1161 245.875 94.6233C243.863 99.391 240.33 101.988 235.562 103.054Z" fill="black"/>
<path d="M244.885 518.201C245.024 517.226 245.501 516.386 245.719 515.483C246.321 512.989 246.816 510.469 247.573 507.719C248.394 506.833 249.053 506.232 249.585 505.534C253.182 500.809 258.053 498.585 263.87 498.466C266.704 498.408 269.544 498.851 272.385 498.941C279.422 499.163 286.462 499.314 293.5 499.492C300.628 499.672 307.756 499.847 314.884 500.03C321.654 500.204 328.425 500.383 335.195 500.565C341.698 500.741 348.2 500.929 354.702 501.1C361.83 501.286 368.958 501.469 376.086 501.636C384.196 501.825 392.308 501.983 400.418 502.18C406.921 502.337 413.422 502.575 419.925 502.701C430.895 502.915 441.865 503.069 452.981 503.396C453.985 507.138 454.88 510.725 455.695 514.331C456.914 519.73 458.077 525.143 459.015 530.577C456.55 530.596 454.333 530.587 451.928 530.479C447.829 530.188 443.864 529.156 440.099 531.151C437.711 530.731 435.335 530.068 432.933 529.949C429.373 529.772 425.795 529.98 421.887 529.945C421.287 529.884 421.024 529.901 420.762 529.918C417.373 529.643 413.987 529.323 410.594 529.11C408.571 528.984 406.537 529.027 404.123 528.919C403.113 528.886 402.486 528.929 401.86 528.973C398.089 528.969 394.318 528.966 390.233 528.723C388.213 528.41 386.508 528.336 384.802 528.263C384.506 528.277 384.209 528.291 383.63 528.193C383.132 528.107 382.917 528.133 382.702 528.159C381.565 528.231 380.428 528.303 378.892 528.275C377.532 528.092 376.572 527.975 375.608 527.931C371.372 527.742 367.137 527.538 362.899 527.409C357.714 527.25 352.528 527.162 347.342 527.043C342.587 526.96 337.833 526.84 333.077 526.803C328.104 526.764 323.13 526.804 317.797 526.704C316.838 526.638 316.24 526.678 315.641 526.719C312.78 526.451 309.923 526.117 307.057 525.937C304.677 525.787 302.285 525.82 299.529 525.706C298.702 525.678 298.245 525.716 297.787 525.755C292.947 525.584 288.106 525.414 282.853 525.174C281.475 525.132 280.508 525.159 279.542 525.187C275.061 525.028 270.581 524.868 265.668 524.633C263.744 524.577 262.252 524.597 260.76 524.617C256.608 524.632 252.45 524.521 248.306 524.707C245.785 524.821 244.933 523.86 245.195 521.465C245.308 520.428 245.143 519.361 244.885 518.201Z" fill="#595C67"/>
<path d="M245.957 94.4408C238.062 89.1159 234.187 81.3592 232.566 72.2524C231.593 66.7809 233.868 62.4317 238.354 61.4788C242.238 60.6538 245.079 62.6017 247.337 65.4985C249.427 68.1804 251.252 71.1276 254.898 71.5368C254.898 74.6086 254.898 77.5655 254.898 80.5224C255.25 80.5061 255.603 80.4899 255.956 80.4737C255.849 79.3851 255.863 78.2678 255.612 77.2136C255.035 74.7968 255.604 72.9943 257.997 71.9535C260.742 70.7595 262.211 68.5952 263.016 65.7508C263.719 63.2716 264.576 60.796 265.725 58.4988C266.4 57.1494 267.582 55.8131 268.879 55.0627C272.037 53.2348 274.598 50.8196 275.661 47.4238C277.622 41.1601 281.835 38.6745 288.106 38.7319C293.994 38.7858 298.767 36.7837 301.227 30.9524C301.308 30.7606 301.665 30.6854 302.065 30.5732C308.255 34.5766 311.479 40.445 313.27 47.2126C314.363 51.341 315.258 55.5934 313.875 59.7759C313.238 61.7026 311.701 63.3238 310.634 65.1202C310.204 65.8437 309.94 66.6655 309.568 67.8169C309.274 68.9839 309.011 69.7764 308.749 70.5689C309.54 75.1367 311.951 78.6691 315.61 81.438C316.369 82.0126 317.087 82.7001 317.652 83.4628C321.147 88.1769 320.202 91.4124 314.739 93.6108C311.959 94.7297 311.651 95.4605 312.795 98.5771C312.235 99.4114 311.649 99.8151 311.148 100.305C308.925 102.48 306.838 104.859 303.198 104.35C302.999 104.323 302.191 105.859 302.359 106.48C303.249 109.773 305.516 111.934 308.576 113.409C308.555 113.532 308.458 113.761 308.458 113.761C308.13 115.18 307.225 116.76 307.566 117.994C310.095 127.122 303.594 129.731 297.006 130.225C292.449 130.567 287.776 129.349 282.88 128.949C282.606 129.07 282.439 129.122 282.37 128.913C281.83 128.367 281.402 127.936 280.883 127.71C277.879 126.404 274.711 125.404 271.86 123.827C261.607 118.155 254.644 109.737 251.455 98.3673C250.377 94.521 250.437 94.5043 245.957 94.4408ZM307.298 93.0983C306.945 92.8855 306.592 92.6727 306.24 92.4598C306.172 92.6248 306.104 92.7897 306.036 92.9546C306.512 93.0953 306.989 93.236 307.557 93.6953C308.186 93.8107 308.815 93.9261 309.445 94.0414C309.463 93.8673 309.481 93.6932 309.498 93.519C308.812 93.4812 308.126 93.4435 307.298 93.0983ZM305.483 88.1987C305.265 89.2791 305.047 90.3596 304.829 91.44C305.091 91.4525 305.352 91.4649 305.614 91.4774C305.684 90.3246 305.753 89.1718 306.07 87.9103C306.212 87.7099 306.355 87.5094 306.498 87.3089C306.373 87.253 306.249 87.197 306.125 87.141C306.036 87.4439 305.947 87.7468 305.483 88.1987ZM298.654 71.3146C299.666 71.0125 300.928 70.9859 301.631 70.3458C302.775 69.3058 303.602 67.896 304.464 66.5783C304.889 65.9292 305.096 65.137 305.401 64.4095C305.238 64.2264 305.076 64.0433 304.913 63.8602C303.23 67.0873 300.376 66.5719 297.639 66.7298C295.88 66.8313 294.154 67.4958 292.272 68.1224C292.131 68.2213 291.98 68.3103 291.856 68.4274C291.832 68.4506 291.888 68.6324 291.944 68.6563C294.023 69.5537 296.107 70.4412 298.654 71.3146ZM286.414 56.9741C287.586 56.5521 288.748 56.0957 289.933 55.7137C296.588 53.5685 302.177 55.219 306.378 60.3619C306.795 60.8725 308.239 61.1165 308.84 60.7962C310.578 59.8693 310.742 57.9489 309.778 56.6253C308.516 54.8925 306.893 53.015 304.997 52.2261C298.665 49.5898 292.762 51.3492 287.304 55.0022C286.706 55.4026 286.415 56.2613 285.806 56.9669C285.871 56.9539 285.936 56.9408 286.414 56.9741ZM250.467 88.071C249.263 87.6499 247.99 86.7993 246.882 86.9776C246.272 87.0759 245.394 89.061 245.639 89.9052C245.877 90.7263 247.379 91.6599 248.351 91.6881C250.291 91.7446 250.765 90.216 250.467 88.071ZM314.438 92.2164C314.168 91.5795 313.979 90.4519 313.613 90.3912C312.092 90.1387 310.635 90.3975 310.026 92.9112C311.597 92.7216 312.837 92.5719 314.438 92.2164ZM255.292 82.5946C255.252 82.3742 255.211 82.1538 255.17 81.9333C255.109 81.9849 254.993 82.0412 254.997 82.0872C255.016 82.3088 255.068 82.5277 255.292 82.5946Z" fill="#B87B7C"/>
<path d="M306.234 96.2891C305.234 94.1224 303.134 89.6891 302.734 89.2891L301.234 83.7891L308.734 83.2891L308.234 88.2891L308.734 91.7891L310.734 94.2891L306.234 96.2891Z" fill="#A56364"/>
<path d="M89.2238 675.343C92.6724 675.73 96.113 676.334 99.5713 676.462C109.385 676.826 118.875 674.791 128.469 672.162C130.754 684 132.873 695.851 134.893 707.718C135.754 712.773 136.693 717.772 135.918 723.028C134.89 730.005 130.193 733.921 123.197 734.381C116.351 734.832 109.469 734.883 102.603 734.878C95.9521 734.873 89.3017 734.574 82.3251 734.265C81.3369 734.087 80.6748 734.049 80.0128 734.01C76.948 733.796 73.8833 733.582 70.3996 733.275C68.6684 733.229 67.3561 733.277 66.0438 733.324C64.9471 733.31 63.8503 733.295 62.3602 733.204C61.0054 733.214 60.0439 733.299 59.0824 733.385C55.8247 733.521 52.5669 733.658 48.9541 733.741C47.9821 733.776 47.3652 733.865 46.7483 733.953C41.228 733.919 35.7052 733.969 30.189 733.802C28.3883 733.747 26.4463 733.461 24.8453 732.699C21.0653 730.901 17.1232 731.073 13.1555 731.134C8.42561 731.207 5.40227 728.403 5.69759 723.689C6.33691 722.801 6.93127 721.782 7.36158 721.848C16.2684 723.195 24.6497 721.281 32.8704 718.051C46.8508 712.558 60.8103 707.026 73.2422 698.372C76.8125 695.886 80.481 693.481 83.7328 690.618C86.344 688.318 88.0928 685.317 88.1212 681.504C88.1365 679.448 88.834 677.397 89.2238 675.343Z" fill="#B48182"/>
<path d="M459.263 530.55C458.076 525.143 456.914 519.731 455.694 514.331C454.88 510.726 453.985 507.138 452.962 503.213C452.631 502.298 452.465 501.715 452.278 500.917C450.29 492.596 448.323 484.49 446.355 476.383C450.171 479.879 454.379 483.043 457.688 486.966C460.845 490.709 463.065 495.243 465.862 499.487C466.082 500.1 466.136 500.656 466.223 501.637C466.344 503.908 467.698 503.889 468.956 503.776C472.537 503.455 475.973 504.021 478.854 506.151C480.788 507.582 482.304 509.579 484.007 511.323C484.268 511.562 484.755 511.801 484.756 512.042C484.783 517.453 484.772 522.865 484.728 528.277C484.72 529.233 484.537 530.188 484.426 531.228C480.85 531.228 477.487 531.228 473.703 531.228C474.653 535.31 475.507 539.232 476.481 543.124C481.068 561.469 485.71 579.801 490.292 598.147C496.025 621.105 501.732 644.069 507.421 667.037C509.479 675.347 511.437 683.681 513.467 691.997C514.878 697.778 516.336 703.548 517.769 709.324C519.191 715.052 520.607 720.782 521.918 726.879C518.064 729.784 513.921 730.633 509.464 730.149C509.175 729.505 508.788 728.887 508.612 728.213C506.134 718.691 503.586 709.186 501.247 699.629C495.51 676.182 489.879 652.709 484.171 629.255C483.977 628.458 483.411 627.752 483.042 626.735C482.265 622.711 481.464 618.957 480.623 615.006C474.435 590.039 468.302 565.266 462.122 540.503C461.287 537.156 460.222 533.866 459.263 530.55Z" fill="#5F636F"/>
<path d="M234.633 732.358C235.464 731.213 236.295 730.069 237.298 728.644C240.735 723.307 244.051 718.28 247.242 713.176C248.681 710.873 249.872 708.414 251.333 705.939C254.651 701.124 257.914 696.46 260.952 691.654C267.07 681.977 273.039 672.208 279.119 662.507C283.6 655.357 288.194 648.279 292.671 641.126C297.619 633.222 302.444 625.241 307.408 617.346C312.944 608.539 318.614 599.816 324.158 591.013C330.881 580.339 337.517 569.611 344.221 558.924C349.416 550.643 354.604 542.356 359.947 534.17C360.581 533.199 362.165 532.325 363.321 532.309C367.585 532.253 371.855 532.575 376.122 532.756C372.021 539.413 367.941 546.084 363.814 552.725C355.573 565.986 347.353 579.259 339.04 592.474C329.499 607.642 319.831 622.73 310.285 637.895C301.947 651.142 293.734 664.468 285.404 677.721C277.09 690.949 268.691 704.125 260.347 717.335C255.893 724.386 251.475 731.46 246.692 738.644C243.274 737.048 240.209 735.324 237.133 733.619C236.317 733.167 235.467 732.777 234.633 732.358Z" fill="#5F636F"/>
<path d="M72.9001 443.755C78.5863 441.643 84.0607 439.523 89.5956 437.574C95.7358 435.412 101.931 433.407 108.468 431.189C110.025 430.669 111.219 430.297 112.411 429.92C155.348 416.345 198.376 403.112 242.914 395.629C243.981 397.457 245.048 399.285 246.158 401.186C268.85 397.547 291.181 398.52 313.037 405.757C313.015 405.98 312.994 406.203 312.973 406.426C309.533 405.944 306.099 405.425 302.654 404.991C298.342 404.448 294.033 403.769 289.702 403.52C283.299 403.152 276.863 402.76 270.466 403.017C261.599 403.373 252.714 403.987 243.914 405.105C234.064 406.356 224.241 408.003 214.517 410.014C204.952 411.992 195.492 414.516 186.047 417.03C174.619 420.072 163.232 423.279 151.871 426.565C145.647 428.365 139.513 430.477 133.336 432.441C126.052 434.758 118.744 436.999 111.487 439.397C102.803 442.267 94.0262 444.926 85.5453 448.316C77.8652 451.385 70.4667 455.326 64.7318 461.494C59.4641 467.16 56.5969 473.921 55.7073 481.8C54.9003 488.945 56.2317 495.807 57.0621 502.724C57.725 508.246 59.4156 513.646 60.6879 519.092C61.8565 524.094 62.9977 529.104 64.2916 534.074C66.08 540.943 68.3335 547.708 69.7869 554.644C72.0239 565.318 73.8191 576.088 75.6739 586.84C77.333 596.457 78.893 606.092 80.3603 615.74C81.7608 624.949 82.9603 634.187 84.2966 643.405C85.0853 648.847 86.0397 654.265 86.7795 659.713C87.1734 662.614 87.254 665.556 87.5065 668.478C87.6209 669.801 87.8093 671.119 87.7735 672.639C85.99 672.238 84.3972 671.635 82.8044 671.033C82.2758 665.488 81.8531 659.93 81.191 654.401C80.4146 647.917 79.5102 641.445 78.5129 634.991C77.5118 628.514 76.2409 622.077 75.2515 615.598C74.4444 610.311 74.0049 604.968 73.1716 599.686C72.2109 593.596 70.9131 587.56 69.922 581.475C69.2575 577.394 69.0646 573.233 68.3196 569.171C66.9438 561.669 65.5471 554.156 63.7413 546.75C61.0603 535.755 57.9024 524.876 55.1669 513.892C53.4157 506.861 51.8455 499.769 50.605 492.633C49.8284 488.166 49.4839 483.563 49.5202 479.026C49.6349 464.686 55.9618 453.81 68.3742 446.529C69.8444 445.666 71.2692 444.726 72.9001 443.755Z" fill="#242E30"/>
<path d="M376.281 532.669C371.855 532.576 367.586 532.253 363.322 532.31C362.166 532.326 360.582 533.199 359.948 534.171C354.605 542.357 349.417 550.644 344.222 558.925C337.518 569.611 330.881 580.34 324.158 591.014C318.614 599.817 312.945 608.54 307.408 617.347C302.445 625.242 297.62 633.223 292.672 641.127C288.195 648.279 283.6 655.358 279.119 662.508C273.04 672.209 267.07 681.978 260.953 691.655C257.915 696.461 254.652 701.125 251.132 705.92C249.36 705.284 247.87 704.701 246.551 703.852C244.793 702.722 243.168 701.386 241.486 700.138C246.015 692.895 250.501 685.624 255.084 678.415C261.075 668.99 267.127 659.602 273.182 650.218C279.534 640.375 285.961 630.579 292.282 620.716C297.461 612.636 302.495 604.463 307.665 596.376C312.833 588.292 318.127 580.289 323.3 572.208C331.178 559.905 338.99 547.56 346.852 535.247C348.355 532.894 349.961 530.607 351.651 528.095C349.98 527.847 348.701 527.658 347.382 527.255C352.528 527.161 357.714 527.25 362.899 527.408C367.137 527.538 371.372 527.742 375.608 527.931C376.572 527.974 377.532 528.091 378.653 528.333C378.022 529.855 377.231 531.218 376.281 532.669Z" fill="#4F535E"/>
<path d="M447.826 419.379C446.905 418.532 445.883 417.58 445.189 416.429C443.357 413.394 441.667 410.272 439.996 406.815C443.328 401.36 446.625 396.3 449.831 391.184C453.925 384.652 457.902 378.047 462.01 371.525C467.977 362.05 474.06 352.649 480.012 343.166C485.5 334.421 490.845 325.587 496.319 316.834C501.072 309.236 505.817 301.628 510.779 294.167C512.405 291.723 514.703 289.725 516.868 287.478C517.634 287.305 518.224 287.177 518.813 287.049C523.92 288.71 525.695 290.671 525.16 294.621C524.942 296.232 524.247 297.893 523.375 299.285C512.216 317.116 500.997 334.909 489.768 352.696C484.526 361.001 479.206 369.257 473.965 377.562C469.399 384.796 464.893 392.068 460.191 399.594C459.878 400.146 459.735 400.428 459.591 400.71C455.685 406.868 451.779 413.026 447.826 419.379Z" fill="#5F636F"/>
<path d="M480.663 615.201C481.464 618.956 482.265 622.71 482.907 626.59C481.12 626.006 479.493 625.295 477.578 624.445C477.004 624.215 476.718 624.123 476.432 624.032C476.353 623.969 476.274 623.907 475.83 623.807C475.539 624.129 475.613 624.49 475.688 624.85C476.286 627.777 476.791 630.727 477.5 633.627C480.308 645.123 483.179 656.603 486.096 668.433C486.287 669.048 486.408 669.317 486.529 669.587C487.068 671.946 487.607 674.305 487.957 676.897C484.289 678.015 480.809 678.897 477.33 679.78C476.354 676.348 475.297 672.936 474.416 669.479C471.765 659.074 469.154 648.657 466.583 638.232C463.953 627.57 461.43 616.883 458.785 606.225C455.647 593.578 452.396 580.959 449.257 568.312C446.501 557.21 443.835 546.086 441.124 534.973C440.844 533.826 440.528 532.689 440.164 531.348C443.863 529.155 447.829 530.187 451.952 530.699C458.608 557.142 465.05 583.264 471.504 609.383C471.649 609.97 471.781 610.824 472.19 611.04C474.974 612.504 477.83 613.83 480.663 615.201Z" fill="#4F535E"/>
<path d="M200.294 78.0753C200.567 77.9727 200.975 78.0875 200.989 78.2381C201.637 85.3809 206.704 89.4171 211.824 93.247C215.348 95.8831 219.228 98.0516 223.006 100.334C223.85 100.843 224.934 100.954 226.004 101.624C226.258 102.512 226.416 103.025 226.574 103.538C226.539 105.018 226.503 106.499 226.529 108.417C226.413 109.602 226.234 110.35 226.056 111.098C226.031 111.362 226.007 111.625 225.86 112.105C225.738 112.321 225.622 112.478 225.622 112.478L225.766 112.611C225.144 113.645 224.523 114.68 223.678 115.928C222.293 117.671 221.132 119.202 219.972 120.732C219.972 120.732 220.003 120.753 219.819 120.805C218.701 121.543 217.767 122.228 216.832 122.913C216.395 123.095 215.958 123.277 215.166 123.457C214.402 123.641 213.993 123.827 213.583 124.013C210.339 124.001 207.094 123.99 203.496 123.848C202.683 123.667 202.224 123.618 201.765 123.568C197.852 123.234 193.911 123.007 190.428 120.225C190.009 119.791 189.744 119.656 189.48 119.521C189.452 119.337 189.348 119.216 188.966 118.989C188.098 118.366 187.436 117.913 186.774 117.459C184.729 114.339 182.068 111.451 180.782 108.044C178.84 102.901 178.86 97.382 180.985 92.1451C184.252 84.091 190.579 80.2603 198.999 79.4013C199.447 79.3556 199.831 78.6877 200.294 78.0753Z" fill="black"/>
<path d="M516.692 287.524C514.701 289.726 512.404 291.723 510.778 294.167C505.816 301.628 501.071 309.236 496.318 316.835C490.844 325.588 485.499 334.422 480.011 343.166C474.059 352.65 467.976 362.051 462.009 371.525C457.901 378.047 453.924 384.652 449.83 391.184C446.623 396.3 443.327 401.361 439.986 406.623C438.326 403.93 436.749 401.06 435.164 398C439.837 390.472 444.502 383.124 449.203 375.798C456.602 364.269 464.041 352.765 471.432 341.23C479.684 328.351 487.926 315.465 496.122 302.549C499.154 297.77 502.034 292.895 504.999 288.073C507.159 284.563 511.458 283.939 515.923 286.715C516.323 287.131 516.507 287.328 516.692 287.524Z" fill="#4F535E"/>
<path d="M82.7692 671.273C84.399 671.636 85.9918 672.238 87.7872 672.871C88.308 673.636 88.6264 674.37 89.0848 675.224C88.8351 677.397 88.1375 679.449 88.1222 681.505C88.0938 685.318 86.345 688.319 83.7339 690.618C80.482 693.482 76.8136 695.887 73.2432 698.372C60.8113 707.026 46.8518 712.558 32.8714 718.052C24.6507 721.282 16.2694 723.196 7.36261 721.848C6.9323 721.783 6.33794 722.802 5.7181 723.462C0.991019 722.397 -1.18658 718.435 0.647595 714.166C10.3794 716.63 19.5443 713.948 28.3883 710.171C38.9109 705.676 49.4052 701.043 59.5644 695.797C65.8246 692.565 71.6006 688.297 77.2828 684.075C81.3135 681.08 82.5012 676.394 82.7692 671.273Z" fill="#AD7777"/>
<path d="M245.873 94.6237C250.436 94.5049 250.376 94.5217 251.454 98.3679C254.643 109.738 261.606 118.156 271.859 123.828C274.71 125.405 277.878 126.405 280.882 127.711C281.401 127.936 281.829 128.368 282.369 129.067C282.44 129.736 282.443 130.043 282.445 130.35C282.354 131.65 282.262 132.949 282.142 134.493C278.079 134.164 274.029 133.678 270.012 132.999C262.809 131.782 256.591 128.357 250.984 123.862C244.151 118.383 239.127 111.46 235.584 103.249C240.329 101.988 243.861 99.3914 245.873 94.6237Z" fill="#9A5C5C"/>
<path d="M509.426 730.338C513.921 730.631 518.065 729.782 521.921 727.098C522.903 728.952 523.786 730.949 524.642 732.958C526.848 738.13 529.092 743.287 531.176 748.507C531.439 749.166 531.054 750.333 530.586 750.991C528.498 753.921 526.915 757.396 523.152 758.683C522.597 758.873 521.802 758.813 521.276 758.552C518.97 757.408 516.474 756.444 514.54 754.825C513.228 753.726 512.326 751.736 511.951 749.992C510.823 744.736 509.993 739.412 509.165 734.097C508.986 732.947 509.301 731.72 509.426 730.338Z" fill="#333333"/>
<path d="M234.546 732.521C235.468 732.778 236.318 733.168 237.134 733.62C240.21 735.325 243.275 737.05 246.545 738.756C244.785 743.075 242.825 747.406 240.728 751.999C240.457 752.575 240.322 752.889 240.187 753.204C239.226 755.173 238.184 757.108 237.324 759.12C236.409 761.258 234.942 762.4 232.584 762.367C230.712 762.34 228.836 762.283 226.97 762.383C224.85 762.497 223.524 761.3 222.903 759.606C222.091 757.392 221.555 755.039 221.218 752.699C220.945 750.804 221.336 749.017 222.718 747.363C226.735 742.556 230.558 737.588 234.546 732.521Z" fill="#333333"/>
<path d="M129.07 621.719C128.68 621.19 128.284 620.535 128.305 619.894C128.426 616.248 128.64 612.605 128.834 608.962C128.995 605.943 129.235 602.927 129.33 599.906C129.548 592.904 129.855 585.899 129.839 578.896C129.818 569.835 129.77 560.761 129.271 551.718C128.713 541.606 127.839 531.422 124.39 521.836C120.862 512.029 115.441 503.309 107.115 496.63C102.972 493.306 98.649 490.417 93.5879 488.712C93.1608 488.568 92.8304 488.137 92.4551 487.839C92.5482 487.625 92.6413 487.411 92.7344 487.197C94.9619 488.012 97.2813 488.638 99.3993 489.676C105.421 492.627 111.214 496.008 115.652 501.161C118.255 504.183 120.42 507.579 122.938 510.68C123.598 511.493 124.778 512.058 125.826 512.342C127.817 512.882 129.886 513.137 131.971 513.688C129.604 513.648 127.19 513.432 124.434 513.184C125.859 516.923 127.223 520.298 128.436 523.727C131.117 531.303 132.248 539.194 132.49 547.166C132.842 558.749 133.326 570.36 132.883 581.925C132.432 593.7 130.935 605.436 129.872 617.186C129.739 618.664 129.466 620.129 129.07 621.719Z" fill="#242E30"/>
<path d="M241.31 700.191C243.168 701.385 244.793 702.722 246.551 703.852C247.87 704.701 249.36 705.284 250.975 706.006C249.873 708.415 248.682 710.874 247.242 713.177C244.051 718.281 240.735 723.307 237.319 728.465C235.581 728.466 233.916 728.641 232.424 728.214C229.332 727.33 229.462 724.255 228.682 721.89C227.601 718.608 228.139 715.823 230.679 713.085C234.424 709.046 237.674 704.548 241.31 700.191Z" fill="#333333"/>
<path d="M477.301 679.995C480.81 678.898 484.289 678.015 487.957 677.105C490.421 682.702 492.841 688.273 494.863 693.986C495.322 695.281 494.419 697.069 494.096 698.62C494.05 698.841 493.735 699.002 493.552 699.197C487.559 705.613 488.887 704.399 481.64 700.282C480.354 699.552 479.576 697.335 479.227 695.666C478.315 691.314 477.746 686.889 477.104 682.483C476.997 681.749 477.207 680.969 477.301 679.995Z" fill="#333333"/>
<path d="M308.597 113.288C305.515 111.935 303.249 109.774 302.359 106.481C302.191 105.86 302.999 104.323 303.197 104.351C306.838 104.86 308.924 102.481 311.148 100.306C311.649 99.8158 312.235 99.4121 312.828 98.7793C315.558 99.9404 314.078 101.881 313.424 103.527C312.988 104.626 312.02 105.514 311.24 106.564C311.563 106.912 311.913 107.288 312.394 107.899C312.571 108.277 312.664 108.372 312.807 108.419C312.807 108.419 312.812 108.415 312.811 108.642C312.858 109.612 312.907 110.355 312.957 111.098C311.784 111.832 310.611 112.567 309.133 113.308C308.827 113.314 308.597 113.288 308.597 113.288Z" fill="black"/>
<path d="M483.989 511.114C482.305 509.579 480.79 507.581 478.855 506.151C475.974 504.021 472.539 503.455 468.958 503.776C467.7 503.889 466.346 503.907 466.25 501.846C470.075 502.143 474.02 502.255 477.707 503.289C481.237 504.279 483.136 507.326 483.989 511.114Z" fill="#4F535E"/>
<path d="M303.622 22.8996C302.719 24.1601 302.092 23.9476 301.606 22.7362C301.34 22.0745 300.986 21.4482 300.747 20.5054C301.167 16.5125 300.274 15.2246 296.145 13.4605C296.145 13.4605 296.187 13.4548 296.118 13.312C295.546 12.9171 295.042 12.665 294.538 12.413C294.538 12.413 294.576 12.4009 294.637 12.3023C294.666 12.0041 294.552 11.8776 294.357 11.8243C293.706 10.9118 293.056 9.99926 292.553 9.29297C294.912 10.7144 297.459 11.9416 299.612 13.6625C300.887 14.6824 301.54 16.4815 302.688 18.2633C303.21 18.2633 304.154 18.2633 305.099 18.2633C302.338 19.1244 303.074 20.9385 303.622 22.8996Z" fill="#595C67"/>
<path d="M128.449 658.638C128.267 652.516 128.222 646.22 128.25 639.721C128.47 641.158 128.739 642.798 128.741 644.439C128.747 649.114 128.645 653.789 128.449 658.638Z" fill="#C8C8D2"/>
<path d="M200.694 163.295C199.218 163.812 197.74 164.147 196.064 164.449C197.273 163.487 198.678 162.557 200.298 161.486C200.467 162.187 200.58 162.649 200.694 163.295Z" fill="#EFEFF1"/>
<path d="M303.44 28.3746C301.78 26.8514 302.418 25.411 303.693 23.8496C303.694 25.2098 303.652 26.7422 303.44 28.3746Z" fill="#595C67"/>
<path d="M220.174 120.734C221.133 119.202 222.293 117.672 223.634 116.127C224.229 118.814 222.309 119.78 220.174 120.734Z" fill="#EFEFF1"/>
<path d="M384.869 528.478C386.508 528.335 388.214 528.409 389.986 528.671C388.347 528.805 386.641 528.749 384.869 528.478Z" fill="#4F535E"/>
<path d="M66.1914 733.47C67.3571 733.277 68.6693 733.229 70.1496 733.286C68.9911 733.466 67.6646 733.541 66.1914 733.47Z" fill="#C8C8D2"/>
<path d="M217.047 122.91C217.766 122.228 218.7 121.543 219.809 120.789C220.169 122.809 218.813 122.979 217.047 122.91Z" fill="#EFEFF1"/>
<path d="M59.2246 733.516C60.0433 733.3 61.0047 733.214 62.1251 733.223C61.3118 733.428 60.3396 733.538 59.2246 733.516Z" fill="#C8C8D2"/>
<path d="M313.136 111.045C312.908 110.355 312.858 109.612 312.809 108.645C314.386 109 314.179 109.931 313.136 111.045Z" fill="#EFEFF1"/>
<path d="M226.695 103.425C226.416 103.026 226.258 102.513 226.053 101.815C226.446 101.614 226.885 101.6 227.447 101.706C227.318 102.321 227.067 102.816 226.695 103.425Z" fill="#EFEFF1"/>
<path d="M196.512 70.5215C196.988 71.0451 197.449 71.759 197.847 72.6885C197.354 72.1733 196.926 71.4425 196.512 70.5215Z" fill="#480B3B"/>
<path d="M80.1289 734.163C80.6744 734.05 81.3365 734.088 82.0759 734.277C81.5174 734.389 80.8814 734.352 80.1289 734.163Z" fill="#C8C8D2"/>
<path d="M226.227 111.05C226.234 110.35 226.413 109.602 226.609 108.65C226.55 109.299 226.474 110.151 226.227 111.05Z" fill="#EFEFF1"/>
<path d="M228.055 102.181C228.311 102.107 228.57 102.217 228.923 102.441C229.017 103.105 229.018 103.656 229.001 104.413C228.674 103.867 228.366 103.116 228.055 102.181Z" fill="#EFEFF1"/>
<path d="M46.873 734.076C47.3648 733.867 47.9817 733.778 48.7344 733.779C48.2461 733.978 47.6222 734.087 46.873 734.076Z" fill="#C8C8D2"/>
<path d="M186.771 117.67C187.435 117.913 188.098 118.367 188.841 118.976C188.204 118.715 187.487 118.297 186.771 117.67Z" fill="#EFEFF1"/>
<path d="M201.801 123.728C202.225 123.618 202.684 123.667 203.257 123.852C202.859 123.954 202.348 123.922 201.801 123.728Z" fill="#EFEFF1"/>
<path d="M213.688 124.135C213.991 123.826 214.401 123.64 214.994 123.512C214.716 123.799 214.255 124.028 213.688 124.135Z" fill="#EFEFF1"/>
<path d="M305.496 146.521C305.134 146.276 304.946 146.022 304.693 145.625C305.137 145.682 305.647 145.883 306.251 146.226C306.121 146.416 305.895 146.464 305.496 146.521Z" fill="#EFEFF1"/>
<path d="M229.483 109.064C229.654 109.262 229.719 109.546 229.723 109.927C229.568 109.733 229.473 109.442 229.483 109.064Z" fill="#EFEFF1"/>
<path d="M284.331 138.384C284.016 138.28 283.692 137.997 283.344 137.547C283.654 137.655 283.988 137.93 284.331 138.384Z" fill="#EFEFF1"/>
<path d="M382.709 528.324C382.917 528.133 383.132 528.107 383.415 528.134C383.227 528.287 382.971 528.388 382.709 528.324Z" fill="#4F535E"/>
<path d="M294.121 11.8213C294.551 11.8775 294.665 12.004 294.619 12.3125C294.104 12.3127 293.668 12.2039 293.092 11.9779C293.263 11.8466 293.575 11.8325 294.121 11.8213Z" fill="#C8C8D2"/>
<path d="M282.533 130.242C282.444 130.042 282.442 129.735 282.439 129.274C282.439 129.121 282.607 129.07 282.694 129.061C282.727 129.412 282.674 129.774 282.533 130.242Z" fill="#EFEFF1"/>
<path d="M189.525 119.666C189.743 119.657 190.007 119.792 190.308 120.073C190.086 120.084 189.829 119.947 189.525 119.666Z" fill="#EFEFF1"/>
<path d="M312.782 108.326C312.664 108.371 312.57 108.276 312.531 108.03C312.637 108.01 312.711 108.112 312.782 108.326Z" fill="#EFEFF1"/>
<path d="M198.051 73.3905C198.201 73.3219 198.375 73.3227 198.549 73.3234C198.508 73.3849 198.466 73.4464 198.28 73.55C198.136 73.5922 198.074 73.4598 198.051 73.3905Z" fill="#480B3B"/>
<path d="M198.229 73.7852C198.38 73.8062 198.428 73.9332 198.528 74.257C198.428 74.2663 198.277 74.0787 198.229 73.7852Z" fill="#480B3B"/>
<path d="M225.799 112.559C225.765 112.61 225.621 112.478 225.621 112.478C225.621 112.478 225.738 112.32 225.834 112.302C225.931 112.283 225.833 112.508 225.799 112.559Z" fill="#EFEFF1"/>
<path d="M308.575 113.41C308.596 113.287 308.827 113.314 308.93 113.368C308.945 113.553 308.827 113.648 308.568 113.734C308.457 113.761 308.554 113.532 308.575 113.41Z" fill="#EFEFF1"/>
<path d="M282.693 135.384C282.587 135.367 282.463 135.191 282.346 134.848C282.459 134.862 282.567 135.043 282.693 135.384Z" fill="#EFEFF1"/>
<path d="M344.55 354.582C347.411 361.804 350.273 369.026 353.151 376.453C346.203 376.653 339.22 376.322 332.28 376.73C324.237 377.203 316.217 378.206 308.215 379.206C302.236 379.953 296.296 381.025 290.35 382.02C287.119 382.561 283.89 383.147 280.697 383.88C269.534 386.441 258.389 389.08 247.234 391.677C245.594 392.059 243.94 392.377 242.069 392.76C239.457 385.631 237.068 378.466 234.91 371.103C238.421 369.762 241.632 368.334 244.992 367.525C258.499 364.273 271.969 360.774 285.608 358.185C305.059 354.494 324.654 351.674 344.55 354.582Z" fill="black"/>
<path d="M332.249 497.848C333.028 497.999 333.608 498.268 334.195 498.283C345.624 498.573 357.055 498.783 368.481 499.15C370.433 499.212 371.089 498.082 371.913 496.793C386.257 474.375 400.615 451.966 414.972 429.558C415.695 428.43 416.449 427.323 417.316 426.07C418.532 429.362 419.62 432.789 420.672 436.631C417.557 442.034 414.498 447.035 411.397 452.009C403.641 464.453 395.878 476.893 388.091 489.318C386.086 492.517 383.984 495.655 381.683 499.196C387.452 499.475 392.567 499.724 397.924 499.948C409.69 499.924 421.213 499.924 432.748 499.924C431.042 492.794 429.244 485.278 427.51 477.567C430.809 475.447 434.045 473.521 437.378 471.774C439.927 481.761 442.379 491.57 444.768 501.13C447.535 501.13 449.917 501.13 452.299 501.13C452.466 501.714 452.633 502.297 452.818 503.064C441.866 503.068 430.896 502.914 419.926 502.7C413.423 502.574 406.922 502.336 400.419 502.179C392.309 501.982 384.197 501.824 376.087 501.635C368.959 501.468 361.831 501.285 354.703 501.099C348.201 500.928 341.699 500.74 335.196 500.565C328.426 500.382 321.655 500.203 314.885 500.029C307.757 499.846 300.629 499.671 293.501 499.491C286.463 499.313 279.423 499.162 272.386 498.94C269.545 498.85 266.705 498.407 263.871 498.465C258.054 498.584 253.183 500.808 249.586 505.533C249.054 506.231 248.395 506.832 247.625 507.519C249.244 502.513 252.942 499.288 257.773 497.487C261.195 496.211 264.849 495.71 268.525 496.743C268.943 496.861 269.412 496.808 269.857 496.815C283.131 497.005 296.405 497.151 309.678 497.398C316.348 497.522 323.014 497.838 329.683 498.04C330.47 498.064 331.262 497.916 332.249 497.848Z" fill="#4F535E"/>
<path d="M437.28 471.595C434.044 473.521 430.807 475.447 427.34 477.461C426.621 477.671 426.067 477.683 425.655 477.932C418.099 482.489 410.351 486.775 403.132 491.817C400.634 493.561 399.459 497.199 397.68 499.972C392.565 499.724 387.451 499.475 381.682 499.195C383.982 495.655 386.084 492.517 388.09 489.318C395.876 476.893 403.64 464.453 411.396 452.009C414.496 447.035 417.556 442.034 420.677 436.85C421.38 438.287 422.076 439.906 422.69 441.555C424.014 445.11 425.295 448.681 426.469 452.581C425.164 455.142 423.986 457.367 422.631 459.671C419.871 463.777 417.289 467.804 414.706 471.831C414.881 471.981 415.055 472.13 415.23 472.28C417.862 470.681 420.522 469.125 423.106 467.452C423.694 467.071 424.02 466.285 424.678 465.689C428.168 465.315 430.452 463.363 432.428 460.925C434.606 463.683 436.784 466.442 438.894 469.528C438.311 470.435 437.795 471.015 437.28 471.595Z" fill="#5F636F"/>
<path d="M422.809 459.592C423.987 457.367 425.166 455.142 426.492 452.775C428.518 455.286 430.396 457.938 432.352 460.758C430.453 463.363 428.169 465.315 424.597 465.494C423.806 463.394 423.307 461.493 422.809 459.592Z" fill="#4F535E"/>
<path d="M332.363 290.28C333.518 297.655 334.449 305.031 335.123 312.644C331.503 312.451 328.137 312.056 324.781 311.589C303.057 308.562 281.247 307.42 259.358 309.039C244.706 310.122 231.135 314.299 219.91 324.357C215.966 318.653 212.213 312.802 207.989 307.313C206.136 304.906 203.322 303.239 200.816 301.105C201 300.835 201.347 300.525 201.617 300.581C209.613 302.259 216.178 298.782 222.624 294.824C227.453 291.859 232.119 288.536 237.214 286.128C240.652 284.504 244.67 283.74 248.502 283.385C259.444 282.373 270.066 284.993 280.751 286.816C290.356 288.454 299.621 288.019 307.536 281.393C312.402 277.32 314.977 271.825 316.578 265.808C316.748 265.167 316.974 264.54 317.432 263.99C317.154 269.305 315.67 274.232 312.697 278.678C309.714 283.137 305.367 285.77 300.346 287.481C300.609 287.856 300.694 288.08 300.775 288.078C311.296 287.89 321.768 288.359 332.363 290.28Z" fill="black"/>
<path d="M296.094 13.6484C300.274 15.2248 301.168 16.5128 300.664 20.3376C299.017 18.2587 297.53 16.0474 296.094 13.6484Z" fill="#C8C8D2"/>
<path d="M294.531 12.6055C295.041 12.665 295.545 12.9171 296.121 13.3329C295.638 13.2638 295.081 13.0309 294.531 12.6055Z" fill="#C8C8D2"/>
<path d="M285.98 56.908C286.414 56.2619 286.705 55.4032 287.304 55.0028C292.761 51.3498 298.664 49.5904 304.997 52.2267C306.892 53.0156 308.515 54.8931 309.777 56.6259C310.741 57.9495 310.577 59.8699 308.839 60.7968C308.238 61.1171 306.794 60.8731 306.377 60.3625C302.177 55.2196 296.588 53.5691 289.932 55.7143C288.747 56.0963 287.586 56.5527 286.202 56.9459C285.991 56.9171 285.98 56.908 285.98 56.908Z" fill="black"/>
<path d="M250.519 88.2784C250.764 90.2156 250.29 91.7442 248.35 91.6877C247.378 91.6594 245.875 90.7258 245.638 89.9048C245.393 89.0606 246.271 87.0754 246.881 86.9772C247.989 86.7989 249.262 87.6494 250.519 88.2784Z" fill="#530F40"/>
<path d="M314.257 92.3192C312.836 92.5718 311.596 92.7215 310.025 92.9111C310.634 90.3973 312.091 90.1386 313.612 90.3911C313.978 90.4518 314.167 91.5793 314.257 92.3192Z" fill="black"/>
<path d="M255.199 82.6713C255.067 82.5279 255.015 82.3091 254.996 82.0874C254.992 82.0415 255.109 81.9851 255.169 81.9336C255.21 82.154 255.251 82.3744 255.199 82.6713Z" fill="#530F40"/>
<path d="M285.997 56.9219C285.936 56.9405 285.871 56.9536 285.893 56.9369C285.981 56.9071 285.992 56.9163 285.997 56.9219Z" fill="#480B3B"/>
<path d="M219.941 324.531C231.135 314.298 244.707 310.122 259.358 309.038C281.247 307.42 303.058 308.562 324.781 311.588C328.137 312.055 331.504 312.45 335.097 312.876C337.327 326.877 340.113 340.707 344.549 354.375C324.654 351.673 305.058 354.494 285.608 358.185C271.969 360.773 258.499 364.272 244.992 367.524C241.631 368.333 238.42 369.761 234.945 370.91C233.234 364.316 232.198 357.557 230.087 351.153C227.136 342.199 223.383 333.509 219.941 324.531Z" fill="#C38E8F"/>
</svg>
