<svg width="222" height="296" viewBox="0 0 222 296" fill="none" xmlns="http://www.w3.org/2000/svg">
<path d="M202.227 185.14C194.925 197.126 185.611 207.444 179.048 219.294C171.194 233.478 162.551 247.451 157.599 263.126C155.832 268.721 156.478 269.746 162.008 271.147C165.386 272.003 168.598 273.551 171.991 274.305C179.557 275.986 181.084 281.665 181.481 288.092C181.693 291.531 179.15 293.077 176.401 294.105C170.231 296.413 163.885 296.037 157.697 294.456C152.321 293.083 146.996 292.378 141.438 292.502C132.663 292.698 127.703 286.169 131.464 278.324C137.67 265.381 137.831 251.265 140.761 237.699C141.845 232.68 142.17 227.502 143.012 222.424C144.002 216.45 146.997 211.5 151.462 207.495C155.003 204.318 157.33 200.659 158.971 196.052C162.482 186.191 166.818 176.621 170.857 166.948C172.506 162.998 172.987 159.243 171.378 154.959C165.948 140.499 166.493 126.56 176.309 113.872C177.932 111.774 177.476 109.976 176.416 107.908C172.936 101.117 168.033 95.5359 162.202 90.6906C158.104 87.286 154.177 83.6695 149.988 80.3828C146.555 77.6883 142.818 75.7024 138.092 76.0764C135.005 76.3207 132.524 74.1706 129.775 72.563C129.293 73.089 128.696 73.4763 128.479 74.0165C122.287 89.4498 105.617 91.0804 92.8773 87.276C85.7102 85.1357 81.6412 78.6655 81.9111 71.1987C82.3834 58.1312 82.4772 57.8578 92.5204 40.4206C91.9337 40.1646 91.3806 39.7225 90.8154 39.7066C81.9923 39.4577 74.3024 36.2511 67.3595 30.9507C57.3378 23.2997 45.686 19.4483 33.6142 16.5834C28.3817 15.3416 23.994 18.5828 19.113 19.315C14.6238 19.9884 10.4439 19.5747 6.36364 18.1199C2.64975 16.7956 0.434187 13.8485 0.0325517 9.85437C-0.349677 6.05323 2.70807 4.74463 5.32687 3.39356C10.9217 0.507132 16.6947 -1.15689 23.0785 0.944539C35.914 5.16977 49.4531 3.87167 62.5974 5.74908C72.8702 7.21634 82.5403 9.80868 91.9336 14.7345C109.32 23.8515 127.393 31.6155 146.348 37.0786C148.791 37.7827 151.247 37.995 153.75 37.9939C164.193 37.9895 173.438 41.2333 181.008 48.5139C195.552 62.5034 208.052 78.116 215.251 97.1409C222.934 117.446 224.801 138.31 216.402 158.925C212.709 167.988 207.752 176.558 202.227 185.14Z" fill="black"/>
</svg>
