<svg width="84" height="129" viewBox="0 0 84 129" fill="none" xmlns="http://www.w3.org/2000/svg">
<path d="M51.1805 110.619C52.7631 111.798 50.9783 113.716 49.0466 113.311V113.311C46.5495 112.787 44.054 114.998 44.7825 117.444C45.0924 118.484 45.3454 119.496 45.4962 120.523C45.7501 122.252 45.5907 124.849 44.521 125.736C43.4794 126.599 40.4088 126.454 39.3997 125.506C38.4149 124.581 38.5383 122.014 38.8438 120.286C38.9979 119.414 39.2216 118.555 39.4916 117.668C40.2671 115.121 37.7919 112.774 35.1899 113.337V113.337C33.3391 113.738 31.2199 112.009 32.6391 110.755C33.703 109.815 35.8794 110.237 37.3931 109.793C38.2406 109.545 38.6025 108.643 38.7455 107.771C39.0594 105.859 39.3714 103.957 39.6738 102.115C39.9469 100.45 39.3036 98.6876 37.6261 98.5123C35.074 98.2456 32.1528 98.8757 32.01 94.3895C31.3099 102.445 30.7083 110.51 29.846 118.548C29.6066 120.78 29.0421 123.224 27.8384 125.052C25.6688 128.346 22.159 129.158 18.5594 127.723C14.5043 126.107 13.027 122.771 13.4125 118.46C14.3171 108.344 15.1611 98.2226 15.976 88.0991V88.0991C16.1062 86.4818 14.3471 85.9171 13.1265 86.9862C12.5937 87.4529 12.0552 87.7644 11.5299 87.7435C7.73049 87.5926 6.90047 84.511 6.85024 80.8872C6.59963 62.792 10.9018 45.6937 17.5648 29.0395C19.2293 24.8791 21.9522 23.9025 25.8662 25.5064C27.3009 26.0942 28.6597 26.8674 30.307 27.3703C30.5219 27.4359 31.0239 27.1235 30.8493 27.2649V27.2649C30.7506 27.3449 30.7003 27.5071 30.7148 27.6334C30.7355 27.8128 30.8018 27.9455 30.9101 28.1088C31.0753 28.3579 31.2936 28.5719 31.5377 28.7443C38.9044 33.9483 45.2518 34.0385 51.9304 29.0945C52.0605 28.9982 52.164 28.8583 52.1706 28.6966C52.1754 28.5799 52.1567 28.487 52.1232 28.4088C52.0539 28.2475 51.8411 28.1696 51.9797 28.2774V28.2774C52.0718 28.3491 52.3487 28.407 52.4389 28.3329C52.8009 28.0354 52.8884 27.6242 52.9289 27.234C52.9315 27.2086 52.8901 27.2053 52.8716 27.2229V27.2229C52.8502 27.2433 52.8828 27.2665 52.911 27.2579C54.5933 26.7437 56.3239 26.3456 57.9407 25.6738C62.3367 23.8472 65.0002 24.79 66.6692 29.067C73.213 45.8354 77.8301 63.0016 77.1891 81.219C77.1433 82.5233 77.3501 84.337 76.6134 85.0104C75.1586 86.3403 73.1837 87.2379 71.2725 87.7965C70.9563 87.889 69.7294 85.4086 69.1944 84.0133C68.8856 83.2082 68.9878 82.2457 68.9489 80.7315C68.9405 80.4077 68.8936 80.0861 68.8144 79.7721C68.2785 77.6471 67.7532 76.0381 67.2293 74.4923C67.112 74.1463 66.722 73.977 66.3887 74.1268V74.1268C66.1025 74.2554 65.9576 74.5776 66.0513 74.8771C66.5559 76.4905 67.0604 78.1039 67.565 79.7174C67.6764 80.0737 67.7475 80.4413 67.7771 80.8134C68.6842 92.2235 69.5966 103.633 70.4923 115.044C70.6482 117.031 71.0622 119.073 70.7787 121.004C70.1541 125.258 67.6186 127.966 63.1854 128.217C58.7876 128.465 55.8594 126.244 54.813 121.975C54.2633 119.732 54.225 117.363 53.9421 114.194C53.3181 106.595 52.7033 99.5748 52.0478 92.1809C51.8081 89.4771 49.4541 87.4595 46.7452 87.6324C43.5089 87.839 40.3181 88.0375 36.9799 88.2302C36.8064 88.2402 36.6336 88.2644 36.4646 88.3046C35.533 88.5266 34.7821 88.7555 34.0686 88.9858C33.7607 89.0852 33.5917 89.415 33.6888 89.7236V89.7236C33.7913 90.0494 34.1475 90.2199 34.4666 90.0981C35.2084 89.8149 35.9885 89.5348 36.9505 89.2695C37.2248 89.1938 37.5092 89.1644 37.7937 89.1672C41.8275 89.2078 46.491 88.277 48.3496 89.1668C47.7339 88.7701 50.6184 88.3782 51.417 89.1337C51.6809 89.3834 51.6442 89.8037 51.7063 90.1617C52.088 92.3615 52.6671 95.1389 51.3769 97.5099C51.1163 97.9887 50.7168 98.3839 50.2275 98.6242C49.6881 98.8892 49.1789 99.0129 48.6826 99.0551C45.9993 99.2835 44.2258 100.999 44.6632 103.656C44.8274 104.653 44.9873 105.624 45.1426 106.568C45.3651 107.92 46.1405 109.158 47.4731 109.477C48.8183 109.798 50.2433 109.92 51.1805 110.619ZM60.0294 64.1038C60.0294 65.8063 60.0294 67.5089 60.0294 69.2397C60.0294 70.3683 60.6625 71.3909 61.679 71.8811V71.8811C63.6486 72.8309 65.9476 71.3801 65.8734 69.1948C65.6082 61.3871 64.7649 53.9047 61.1126 46.5068V46.5068C60.9151 45.9722 60.1011 46.1354 60.093 46.7052C60.0871 47.1275 60.0687 47.5576 60.0357 48.077C60.0753 49.7755 60.1149 51.4739 59.9738 54.0718C60.0335 57.127 60.0932 60.1823 60.0294 64.1038ZM18.5706 67.1395C18.4686 67.805 18.3667 68.4705 18.2635 69.1445C17.9211 71.3799 20.375 72.9936 22.3653 71.9198V71.9198C23.2514 71.4416 23.7106 70.5662 23.7106 69.5592C23.7106 61.784 23.7106 54.2071 23.7106 46.6349C23.7106 46.3262 23.4825 46.065 23.1767 46.0234V46.0234C22.8526 45.9793 22.5505 46.1957 22.4879 46.5167C21.204 53.1026 19.9183 59.7115 18.5706 67.1395Z" fill="#040404"/>
<path d="M30.0609 27.0589C28.7832 22.8225 26.4784 18.5608 26.4096 14.2634C26.3091 7.98713 31.5028 2.85969 37.5912 1.31117C43.1487 -0.102282 49.5569 2.16774 53.0848 6.79951C56.752 11.6142 57.1401 18.1561 54.0246 23.5632C53.4515 24.5578 52.6864 25.4417 51.9377 26.7323C51.8655 27.0879 51.9543 27.0006 51.6844 26.9974C51.2512 27.3467 51.0879 27.6992 50.9245 28.0518C50.9245 28.0518 50.9757 27.9859 50.7395 27.9193C50.36 27.9649 50.2165 28.0772 49.72 28.2889C42.9283 32.349 36.834 31.293 30.734 26.9035C30.3282 26.7739 30.1419 26.8655 29.9556 26.957C29.9556 26.957 30.0336 27.0178 30.0609 27.0589Z" fill="#050505"/>
<path d="M13.676 18.7792C12.9961 21.5757 12.4367 23.9932 11.8003 26.7433C10.8634 25.748 10.1257 24.9642 8.76744 23.5214C6.55839 30.5847 4.50572 37.148 2.4531 43.7113C2.07151 43.8847 1.68992 44.0582 1.30833 44.2316C0.875346 42.9411 -0.176656 41.4885 0.111857 40.387C1.74101 34.1656 3.69181 28.0283 5.66667 21.4148C4.96702 21.0843 3.78416 20.5255 2.12956 19.7438C6.50016 17.0114 10.4046 14.5703 14.933 11.7393C14.4802 14.3929 14.1383 16.3965 13.676 18.7792Z" fill="#131313"/>
<path d="M76.501 22.5876C78.902 29.5926 81.1215 36.2774 83.3409 42.9622C82.7343 43.3801 82.1277 43.798 81.5211 44.2159C80.6687 43.3135 79.3817 42.5516 79.0369 41.4851C77.2188 35.8619 75.6384 30.1618 73.7809 23.8243C72.3582 24.9799 71.5558 25.6315 70.4244 26.5504C69.383 21.8134 68.3823 17.2614 67.1475 11.645C71.8762 14.5719 75.8222 17.0142 79.8546 19.5101C78.5569 20.5222 77.4381 21.3948 76.501 22.5876Z" fill="#131313"/>
<path d="M67.0608 80.0534C66.1835 78.082 65.5683 76.1149 64.9531 74.1478C65.3274 73.9796 65.7017 73.8113 66.0759 73.6431C66.7109 75.5065 67.3459 77.3701 67.9135 79.6263C67.6716 80.032 67.4973 80.0449 67.0608 80.0534Z" fill="#E6E6E6"/>
<path d="M30.9543 27.1245C36.8348 31.293 42.9291 32.349 49.8409 28.449C50.5297 28.6677 50.7453 28.8257 50.9608 28.9839C44.3344 33.92 37.8335 33.794 30.4062 28.1629C30.6613 27.5869 30.8379 27.3816 30.9543 27.1245Z" fill="#CACACA"/>
<path d="M35.7844 88.041C36.1377 88.0544 36.0297 88.4817 36.0305 88.702C35.002 89.3219 33.9728 89.7215 32.9436 90.1211C32.8221 89.7349 32.7006 89.3487 32.5791 88.9625C33.5298 88.6509 34.4805 88.3392 35.7844 88.041Z" fill="#0A0A0A"/>
<path d="M60.1735 46.6104C60.1686 46.918 59.7126 47.0455 59.476 47.0396C59.2028 46.2806 59.1663 45.5278 59.0566 43.2671C59.7821 45.2303 59.9803 45.7665 60.1735 46.6104Z" fill="#CACACA"/>
<path d="M51.1981 28.7392C50.7446 28.8255 50.5291 28.6675 50.1934 28.3494C50.2167 28.077 50.3601 27.9647 50.7734 27.8945C51.1741 28.1226 51.3051 28.3087 51.1981 28.7392Z" fill="#FEFEFE"/>
<path d="M48.1357 89.4188C48.3521 89.3081 48.6922 89.3742 49.0209 89.7201C48.7173 89.9436 48.4672 89.8087 48.1357 89.4188Z" fill="#0A0A0A"/>
<path d="M51.3527 28.2361C51.0882 27.6989 51.2515 27.3464 51.7317 26.9561C51.9591 27.4191 51.8699 27.9199 51.3527 28.2361Z" fill="#FEFEFE"/>
<path d="M30.7343 26.9032C30.8373 27.3813 30.6607 27.5866 30.2521 27.8529C29.9182 27.8149 29.7561 27.6642 29.7749 27.2351C30.1421 26.8652 30.3284 26.7737 30.7343 26.9032Z" fill="#FEFEFE"/>
</svg>
