<svg width="81" height="176" viewBox="0 0 81 176" fill="none" xmlns="http://www.w3.org/2000/svg">
<path d="M60.6891 71.2997C53.4947 81.5338 48.3914 92.9918 41.7991 103.579C40.3426 105.918 41.8128 108.16 42.3384 110.312C46.8736 128.883 51.6381 147.399 56.1355 165.979C57.6902 172.402 52.5561 177.24 46.2603 175.585C42.5785 174.618 41.1617 171.74 40.309 168.294C35.9965 150.864 31.606 133.453 27.2174 116.042C26.734 114.125 26.0878 112.248 24.8143 110.304C22.8776 121.98 20.9317 133.655 19.0074 145.333C17.8466 152.378 16.854 159.453 15.5357 166.468C14.4218 172.395 10.7316 175.318 6.0818 174.417C1.40425 173.51 -0.733992 169.663 0.224688 163.584C3.30209 144.068 6.06698 124.493 9.64456 105.069C12.7224 88.3579 19.5635 72.7243 25.7109 56.998C29.8658 46.3692 30.2403 35.281 32.2208 24.3865C32.6315 22.1275 33.1901 20.2874 34.9931 18.8039C41.8092 13.1959 48.5797 7.53235 55.3591 1.87982C57.1151 0.415696 59.0599 -0.428969 61.3526 0.223161C64.95 1.24645 65.7619 5.03307 62.7006 8.10216C57.7649 13.0502 52.531 17.7007 47.424 22.4779C41.6887 27.8429 43.6818 35.1255 42.8023 41.6619C42.6173 43.037 44.6247 43.4047 45.7712 43.9913C49.4752 45.8862 53.2894 47.5765 56.9276 49.5873C65.6848 54.4272 66.9568 59.1243 62.1222 67.9445C61.6439 68.8173 61.2652 69.7446 60.7534 70.9842C60.6667 71.3218 60.6891 71.2997 60.6891 71.2997Z" fill="black"/>
<path d="M67.2753 48.3319C58.3474 51.537 49.4259 45.8895 47.9628 36.912C46.6955 29.136 52.19 21.8752 60.4735 20.7045C67.2336 19.749 73.8369 23.8373 76.0361 30.3397C78.5474 37.7653 75.6749 43.8833 67.2753 48.3319Z" fill="black"/>
<path d="M60.6586 71.3357C63.6811 69.3746 64.1187 65.4118 67.2885 62.4795C72.0018 70.7077 76.2479 78.6794 79.7543 87.0202C80.7469 89.3813 79.1174 91.0899 77.0277 92.2284C69.4438 96.3606 61.8858 100.541 54.2751 104.623C51.5517 106.084 48.6528 106.494 46.8996 103.315C45.2439 100.314 47.1843 98.3579 49.6351 96.8108C53.8492 94.1506 57.931 91.2555 62.2826 88.846C65.9615 86.809 66.8047 84.768 64.4175 80.9898C62.7205 78.3041 60.0245 75.8216 60.6244 71.692C60.6893 71.2997 60.6669 71.3218 60.6586 71.3357Z" fill="black"/>
</svg>
