<svg width="148" height="110" viewBox="0 0 148 110" fill="none" xmlns="http://www.w3.org/2000/svg">
<path d="M65.5369 63.6058C61.8992 62.2426 58.5497 61.1842 55.3752 59.741C49.3184 56.9875 45.1042 52.5014 43.2078 45.9842C40.144 35.455 48.5005 24.9891 59.515 25.8162C67.2564 26.3975 74.953 27.8177 83.1306 26.887C81.0467 23.9163 77.9885 21.7871 78.0179 16.97C87.1786 23.5909 92.8041 18.6813 98.4291 12.3298C102.32 7.93598 107.378 5.22663 113.608 7.04926C116.127 7.7862 117.188 6.13944 118.665 4.83445C129.086 -4.36822 143.983 0.143502 147.35 13.4908C149.509 22.0454 143.86 31.3327 135.15 33.5506C126.258 35.8146 116.813 30.7663 114.457 22.3784C113.787 19.9945 113.488 17.5065 112.956 14.7369C108.311 16.1215 106.185 20.2916 102.11 23.8895C106.832 23.7483 110.513 24.4133 113.673 26.6317C116.944 28.9283 118.095 32.3895 118.454 36.136C118.893 40.7303 115.296 41.3392 112.286 42.3415C109.994 41.347 110.867 39.0754 109.733 36.9788C110.544 46.7155 111.275 55.8185 112.079 64.915C112.287 67.2665 114.023 68.6632 115.671 70.1133C122.177 75.8365 128.668 81.5762 135.114 87.3661C139.849 91.6184 140.077 93.7558 136.555 98.7558C137.542 98.8442 138.21 97.5159 139.644 98.4017C140.545 101.922 140.371 105.466 136.605 107.674C132.678 109.977 128.883 109.156 125.605 106.132C117.032 98.2227 108.199 90.5636 100.043 82.243C92.974 75.0317 85.0487 69.7531 75.3091 67.0925C72.1074 66.218 69.0353 64.8688 65.5369 63.6058ZM77.0302 50.129C82.6423 52.2176 88.1924 54.4991 93.8879 56.3282C97.8173 57.5902 100.274 59.5916 100.354 63.97C100.385 65.6791 100.821 67.3808 101.073 69.0859C101.229 69.0673 101.385 69.0488 101.541 69.0303C100.496 58.2141 99.45 47.398 98.4042 36.5819C97.55 42.1944 99.9334 47.7426 98.4437 53.3312C96.0482 54.1392 94.8611 52.7144 93.7198 51.2427C90.4608 47.0404 81.0526 46.3297 77.0302 50.129Z" fill="black"/>
<path d="M12.342 103.946C11.1531 106.145 11.6381 110.059 8.54466 109.16C5.29784 108.216 7.58806 105.195 8.20207 103.208C11.6355 92.0994 14.5953 80.8305 19.1445 69.4813C13.4634 67.2072 11.9646 61.718 10.3693 56.2604C7.28896 45.7218 4.11763 35.2096 1.0858 24.6573C0.458451 22.4738 -1.53423 19.5326 2.25224 18.4376C5.65916 17.4525 5.79341 20.7426 6.41612 22.7921C9.80025 33.9304 13.0368 45.1134 16.3663 56.2685C18.4953 63.4018 19.5749 64.1864 26.8872 64.2177C38.0506 64.2656 49.2139 64.3032 60.3772 64.3531C66.0704 64.3785 66.4266 65.0115 64.9868 70.338C63.7738 74.826 65.8809 79.1166 66.4379 83.4919C67.3596 90.7332 68.8146 97.9052 69.8954 105.129C70.1105 106.566 71.1188 108.848 68.5919 109.222C66.1797 109.579 66.2708 107.205 66.0048 105.711C64.3754 96.5571 62.7009 87.4058 61.3837 78.2045C60.8233 74.2898 59.0995 72.6976 55.1979 72.7469C45.8687 72.865 36.5347 72.8959 27.2073 72.7185C23.3817 72.6457 21.437 74.228 20.3909 77.8076C17.8712 86.43 15.1293 94.9876 12.342 103.946Z" fill="black"/>
</svg>
