<svg width="218" height="192" viewBox="0 0 218 192" fill="none" xmlns="http://www.w3.org/2000/svg">
<path d="M60.8126 118.577C63.5205 135.425 62.3622 177.537 62.5 191C62.5 192.481 103.017 191.038 150.712 191.001C151.761 191 152.63 190.199 152.648 189.15C152.825 178.672 151.175 142.796 152.579 136.477C153.922 130.436 154.28 124.15 156.581 118.115C157.023 116.957 158.452 116.577 159.305 117.476C161.047 119.313 161.883 121.384 162.953 123.229C168.075 132.06 174.597 139.382 183.783 144.186C187.311 146.032 190.589 148.354 194.006 150.418C197.707 152.654 203.939 151.737 206.129 148.359C211.854 139.531 215.293 129.709 215.562 119.291C215.87 107.356 213.776 95.2615 215.918 83.4777C217.458 75.0075 217.63 67.062 216.179 58.5656C214.743 50.157 213.353 42.6672 204.848 38.3643C201.47 36.6554 198.221 35.9588 194.901 37.1472C191.841 38.2422 192.435 41.5221 192.166 44.0853C191.942 46.2218 192.64 48.4207 192.217 50.551C192.054 51.3711 191.232 51.8185 190.397 51.7785C185.267 51.5327 184.699 52.8064 186.419 58.1422C186.772 59.2374 186.893 60.415 187.05 61.5643C187.86 67.4938 189.9 72.8428 194.325 77.0678C196.354 79.0045 197.935 81.5879 197.631 84.1245C196.657 92.2666 194.342 100.117 192.075 108.115C191.709 109.404 190.204 109.982 189.135 109.174C184.065 105.34 180.883 100.492 178.201 94.8445C172.499 82.8411 165.036 73.2205 149.718 72.7137C142.938 72.4894 135.941 70.3472 129.619 67.2103C124.268 64.5553 123.055 60.4232 124.983 54.9167C126.059 51.8465 127.244 49.2407 129.95 47.1884C131.958 45.6651 132.667 43.1216 132.744 40.476C132.978 32.3198 131.142 24.3482 130.659 16.2519C130.424 12.311 128.4 8.81264 125.397 6.30247C117.075 -0.652056 107.792 -1.77421 97.8789 2.55574C89.1937 6.34925 85.5522 13.3078 85.72 22.4955C85.7602 24.6984 85.6267 26.7845 84.7016 28.824C81.2083 36.5259 82.7017 43.5497 88.6313 49.6224C92.8079 53.8997 94.8281 64.3361 88.0835 67.3085C81.6197 70.1572 74.8211 72.7466 67.9953 72.7693C53.2847 72.8184 45.393 81.8299 40.0688 93.2533C37.1412 99.5344 33.0448 104.442 28.6608 109.476C27.6058 110.688 25.6185 110.223 25.2046 108.671C23.4623 102.137 21.7606 95.9073 20.2502 89.6313C19.35 85.8907 18.6849 81.7859 21.7543 78.7465C27.1286 73.4249 29.4223 66.8791 30.7448 59.6769C31.9704 53.0028 32.2355 52.4008 26.7659 52.0719C25.702 52.0079 24.8648 51.1346 24.8582 50.0688C24.8469 48.2411 24.8308 46.4056 24.875 44.5716C25.0389 37.7836 20.2738 34.4619 14.2086 37.492C6.53213 41.3272 1.55824 47.4289 1.20862 56.269C0.868724 64.863 -1.40031 73.0181 1.3241 82.2329C3.94676 91.1035 2.66825 101.48 1.56087 111.016C-0.0143502 124.581 4.51277 136.278 10.54 147.659C13.2286 152.736 19.6703 153.317 24.3274 149.941C26.7428 148.19 29.3166 146.62 31.9488 145.212C40.6339 140.564 47.9722 134.623 52.8278 125.767C54.2959 123.09 55.6741 120.21 57.9431 117.664C58.9142 116.575 60.581 117.136 60.8126 118.577Z" fill="black"/>
</svg>
