<svg width="1038" height="915" viewBox="0 0 1038 915" fill="none" xmlns="http://www.w3.org/2000/svg">
<mask id="path-1-inside-1_361_2218" fill="white">
<path d="M641.5 346.668C738.652 346.668 835.804 346.668 932.956 346.667C949.787 346.667 966.62 346.805 983.449 346.621C1002.18 346.417 1015.25 328.294 1009.8 310.384C1006 297.924 995.105 290.376 980.786 290.375C862.303 290.368 743.82 290.373 625.336 290.372C620.004 290.372 614.667 290.474 609.34 290.303C602.392 290.081 597.232 284.443 597.405 277.526C597.602 269.7 602.951 264.773 611.641 264.746C633.138 264.68 654.635 264.75 676.132 264.699C677.98 264.695 680.039 265.323 681.728 263.936C681.04 261.5 679.665 260.414 677.339 260.277C674.685 260.12 672.049 259.682 669.399 259.424C635.99 256.179 608.394 241.516 586.301 216.52C582.912 212.686 579.553 211.606 575.016 212.474C542.131 218.77 516.41 235.621 499.5 264.781C476.687 304.119 454.263 343.682 431.649 383.135C363.142 502.653 294.629 622.167 226.105 741.675C209.617 770.431 192.974 799.099 176.596 827.917C167.862 843.286 169.865 862.285 181.136 875.541C192.378 888.762 210.409 893.675 226.375 887.797C236.366 884.119 243.494 877.228 248.698 868.037C266.1 837.306 283.555 806.604 301.074 775.938C340.322 707.234 379.631 638.565 418.888 569.866C424.423 560.179 430.676 558.292 440.385 563.946C488.902 592.195 537.389 620.494 585.862 648.816C594.027 653.587 595.673 660.719 590.799 669.245C564.099 715.955 537.381 762.654 510.712 809.381C505.531 818.458 503.371 828.009 505.229 838.606C509.48 862.838 534.579 878.404 557.952 870.865C569.551 867.124 577.298 859.062 583.165 848.647C595.919 826.005 608.909 803.496 621.809 780.936C644.631 741.022 667.61 701.197 690.219 661.162C701.687 640.855 695.124 616.809 675.317 604.531C669.372 600.847 663.254 597.444 657.21 593.921C635.623 581.335 614.004 568.805 592.461 556.145C583.798 551.054 582.275 543.246 587.962 535.087C590.055 532.084 592.086 529.019 593.908 525.846C622.358 476.296 650.775 426.725 679.165 377.14C679.927 375.809 681.403 374.549 680.245 372.315C678.392 372.315 676.411 372.315 674.429 372.315C653.266 372.311 632.102 372.36 610.938 372.277C602.893 372.245 597.298 366.795 597.33 359.382C597.361 351.847 602.826 346.713 611.004 346.671C620.836 346.621 630.668 346.664 641.5 346.668ZM779.422 92.0167C762.86 47.8489 717.15 19.967 670.004 26.0979C620.246 32.5685 580.968 74.8069 579.482 127.809C578.779 152.883 586.328 175.755 602.457 195.333C628.968 227.514 663.092 240.586 703.799 232.084C766.733 218.94 801.983 153.206 779.422 92.0167ZM807.5 372.296C777.011 372.301 746.522 372.322 716.033 372.282C713.048 372.278 710.75 372.569 709.107 375.767C704.542 384.65 699.535 393.305 694.762 402.082C693.934 403.605 692.436 404.983 693.091 407.017C694.702 407.978 696.405 407.649 698.034 407.65C759.678 407.669 821.323 407.657 882.967 407.68C888.289 407.682 893.119 406.214 897.634 403.474C909.189 396.462 911.254 385.06 912.048 372.297C877.38 372.297 842.94 372.297 807.5 372.296Z"/>
</mask>
<path d="M641.5 346.668C738.652 346.668 835.804 346.668 932.956 346.667C949.787 346.667 966.62 346.805 983.449 346.621C1002.18 346.417 1015.25 328.294 1009.8 310.384C1006 297.924 995.105 290.376 980.786 290.375C862.303 290.368 743.82 290.373 625.336 290.372C620.004 290.372 614.667 290.474 609.34 290.303C602.392 290.081 597.232 284.443 597.405 277.526C597.602 269.7 602.951 264.773 611.641 264.746C633.138 264.68 654.635 264.75 676.132 264.699C677.98 264.695 680.039 265.323 681.728 263.936C681.04 261.5 679.665 260.414 677.339 260.277C674.685 260.12 672.049 259.682 669.399 259.424C635.99 256.179 608.394 241.516 586.301 216.52C582.912 212.686 579.553 211.606 575.016 212.474C542.131 218.77 516.41 235.621 499.5 264.781C476.687 304.119 454.263 343.682 431.649 383.135C363.142 502.653 294.629 622.167 226.105 741.675C209.617 770.431 192.974 799.099 176.596 827.917C167.862 843.286 169.865 862.285 181.136 875.541C192.378 888.762 210.409 893.675 226.375 887.797C236.366 884.119 243.494 877.228 248.698 868.037C266.1 837.306 283.555 806.604 301.074 775.938C340.322 707.234 379.631 638.565 418.888 569.866C424.423 560.179 430.676 558.292 440.385 563.946C488.902 592.195 537.389 620.494 585.862 648.816C594.027 653.587 595.673 660.719 590.799 669.245C564.099 715.955 537.381 762.654 510.712 809.381C505.531 818.458 503.371 828.009 505.229 838.606C509.48 862.838 534.579 878.404 557.952 870.865C569.551 867.124 577.298 859.062 583.165 848.647C595.919 826.005 608.909 803.496 621.809 780.936C644.631 741.022 667.61 701.197 690.219 661.162C701.687 640.855 695.124 616.809 675.317 604.531C669.372 600.847 663.254 597.444 657.21 593.921C635.623 581.335 614.004 568.805 592.461 556.145C583.798 551.054 582.275 543.246 587.962 535.087C590.055 532.084 592.086 529.019 593.908 525.846C622.358 476.296 650.775 426.725 679.165 377.14C679.927 375.809 681.403 374.549 680.245 372.315C678.392 372.315 676.411 372.315 674.429 372.315C653.266 372.311 632.102 372.36 610.938 372.277C602.893 372.245 597.298 366.795 597.33 359.382C597.361 351.847 602.826 346.713 611.004 346.671C620.836 346.621 630.668 346.664 641.5 346.668ZM779.422 92.0167C762.86 47.8489 717.15 19.967 670.004 26.0979C620.246 32.5685 580.968 74.8069 579.482 127.809C578.779 152.883 586.328 175.755 602.457 195.333C628.968 227.514 663.092 240.586 703.799 232.084C766.733 218.94 801.983 153.206 779.422 92.0167ZM807.5 372.296C777.011 372.301 746.522 372.322 716.033 372.282C713.048 372.278 710.75 372.569 709.107 375.767C704.542 384.65 699.535 393.305 694.762 402.082C693.934 403.605 692.436 404.983 693.091 407.017C694.702 407.978 696.405 407.649 698.034 407.65C759.678 407.669 821.323 407.657 882.967 407.68C888.289 407.682 893.119 406.214 897.634 403.474C909.189 396.462 911.254 385.06 912.048 372.297C877.38 372.297 842.94 372.297 807.5 372.296Z" fill="black" stroke="black" stroke-width="2" mask="url(#path-1-inside-1_361_2218)"/>
<rect x="949.5" y="40.5" width="88" height="871" rx="10.5" fill="#0A0A0A" stroke="white"/>
<path d="M19.8338 749.899C59.6175 749.902 96.6262 749.902 136.759 749.902C136.759 766.789 136.759 783.024 136.759 798C159.439 775.875 181.201 754.646 204 732.406C184.524 714.331 162.109 693.528 138.912 672C138.912 686.039 138.912 702.126 138.912 720.168C92.0393 720.168 48.2808 720.168 1.98375 720.168C1.5642 734.658 -8.2081 750.171 19.8338 749.899Z" fill="#111111"/>
</svg>
