<svg width="119" height="304" viewBox="0 0 119 304" fill="none" xmlns="http://www.w3.org/2000/svg">
<path d="M39.7506 0C44.2503 2.71616 48.4999 5.43231 52.9717 8.29053C50.42 12.7764 47.9517 17.1156 45.0114 22.2845C43.9937 18.997 43.2787 16.6872 42.4144 13.8947C27.6981 17.3573 17.8553 26.1805 12.2322 39.9876C10.8479 43.3867 10.8625 43.3926 7.0293 42.5162C8.76688 28.6925 19.9785 17.519 40.9879 8.82178C40.3664 6.17365 39.7336 3.47752 39.0508 0.390697C39.0006 1.99676e-06 39.5006 2e-06 39.7506 0Z" fill="#0E0E0E"/>
<path d="M98.1153 66.8443C98.5209 60.2938 99.0768 54.165 99.1507 48.0303C99.213 42.8662 96.1513 39.8381 91.323 38.3521C87.8703 37.2895 84.427 36.1608 81.0672 34.8386C69.2678 30.1953 56.0513 33.5281 48.3508 43.6587C45.7115 47.131 42.7882 48.1291 38.8867 47.1012C34.8816 46.0461 32.1227 43.0643 32.429 39.2621C32.6755 36.2013 34.4594 31.6212 36.7952 30.6335C54.4642 23.162 72.5823 16.5904 92.2701 19.8214C110.444 22.8038 120.309 36.8089 117.665 55.2352C115.065 73.3595 106.764 88.6211 93.2135 100.884C90.8342 103.037 90.0805 105.081 90.0842 108.111C90.1561 167.261 90.1447 226.412 90.1122 285.562C90.1108 288.036 90.1401 290.625 89.4655 292.962C87.5412 299.626 80.7053 303.848 74.0161 302.868C66.9526 301.833 61.8319 296.209 61.7612 288.718C61.6054 272.224 61.7025 255.727 61.7002 239.232C61.6978 221.248 61.6997 203.265 61.6997 184.737C60.0135 184.597 58.4713 184.469 56.2453 184.285C56.2453 186.485 56.2453 188.254 56.2453 190.022C56.2448 222.513 56.2937 255.005 56.2167 287.496C56.1899 298.793 46.5685 305.909 36.8094 301.923C31.4709 299.742 28.2756 295.699 27.8695 289.779C27.7444 287.954 27.803 286.116 27.803 284.284C27.8003 226.135 27.8008 167.987 27.8008 109.819C19.2662 111.807 17.5464 117.187 23.2081 123.596C24.2147 124.736 25.2534 126.329 25.3042 127.748C25.5302 134.053 25.4022 140.371 25.4022 147.545C15.6614 141.903 7.08521 136.173 2.84324 125.896C-1.10363 116.334 1.24998 107.818 8.10978 100.633C16.1486 92.213 26.2009 87.5854 37.9202 87.6645C47.5304 87.7294 57.1637 88.2253 66.7364 89.0886C81.9026 90.4562 93.7399 82.4178 98.1153 66.8443Z" fill="#010101"/>
<path d="M44.976 65.8802C43.0688 49.7947 52.7224 36.8747 67.6055 35.128C81.9691 33.4422 94.8209 43.9669 96.3634 58.6788C97.7139 71.5581 89.2306 83.2608 76.2792 86.3852C63.9818 89.3518 50.9279 82.4857 46.2992 70.5766C45.7603 69.1898 45.4424 67.7171 44.976 65.8802ZM89.7862 67.2312C90.2751 66.6261 90.7641 66.021 91.422 65.2068C72.4353 66.8481 60.0294 60.3228 54.9579 45.7115C52.63 51.6597 55.5745 55.4566 58.8188 58.958C66.8842 67.6626 79.8913 71.3494 89.7862 67.2312Z" fill="#050505"/>
<path d="M89.4552 67.4922C79.8915 71.3493 66.8844 67.6625 58.819 58.9579C55.5747 55.4565 52.6302 51.6596 54.9581 45.7114C60.0296 60.3227 72.4355 66.848 91.4222 65.2067C90.7642 66.021 90.2753 66.626 89.4552 67.4922Z" fill="#EDEDED"/>
</svg>
