<svg width="417" height="530" viewBox="0 0 417 530" fill="none" xmlns="http://www.w3.org/2000/svg">
<path d="M165.726 226.789C182.017 232.037 198.18 236.364 215.048 234.853C236.694 232.913 256.991 225.927 276.275 216.1C307.938 199.965 336.098 178.661 363.561 156.364C380.122 142.919 396.266 128.987 412.119 114.714C413.037 113.888 413.786 112.547 415.522 113.058C415.846 115.28 413.958 116.177 412.829 117.438C383.579 150.12 355.482 183.723 331.39 220.465C317.181 242.134 305.321 264.909 298.164 290.064C291.227 314.446 293.333 338.087 301.509 361.625C312.808 394.158 331.496 422.488 351.785 449.868C371.241 476.124 392.183 501.18 413.945 525.554C414.953 526.683 416.735 527.525 416.139 529.884C413.636 529.262 412.352 527.211 410.692 525.732C372.46 491.695 333.924 458.038 289.457 432.094C266.183 418.515 241.48 408.928 214.317 406.907C201.376 405.944 188.748 408.337 176.279 411.402C154.844 416.672 135.475 426.665 116.864 438.215C86.1851 457.255 58.3216 480.026 31.0149 503.504C21.6703 511.538 12.585 519.874 3.36651 528.056C2.52822 528.8 1.87353 529.914 0.394528 529.784C-0.798954 527.92 1.01614 527.168 1.86627 526.213C29.0368 495.705 55.1973 464.377 78.34 430.663C96.906 403.616 112.851 375.32 120.196 342.811C125.319 320.138 121.736 298.479 114.236 277.142C104.865 250.484 90.1152 226.716 73.8224 203.857C51.9367 173.15 27.9427 144.146 2.56533 116.273C1.80752 115.441 0.762723 114.726 0.992825 113.029C3.1156 112.7 4.11532 114.434 5.35208 115.55C38.4111 145.392 72.4622 174.002 109.786 198.447C127.241 209.88 145.49 219.899 165.726 226.789Z" fill="black"/>
<circle cx="208.5" cy="80.5" r="80.5" fill="black"/>
</svg>
