<svg width="86" height="95" viewBox="0 0 86 95" fill="none" xmlns="http://www.w3.org/2000/svg">
<path d="M33.4767 32.601C32.8767 32.201 32.1767 32.101 31.5767 32.401C30.9767 32.701 30.5767 33.301 30.5767 34.001V37.301H25.7767C20.6767 37.301 16.5767 41.401 16.5767 46.501V57.001C16.5767 58.301 17.5767 59.301 18.8767 59.301C20.1767 59.301 21.1767 58.301 21.1767 57.001V46.601C21.1767 44.001 23.2767 41.901 25.8767 41.901H30.6767V45.201C30.6767 45.901 31.0767 46.501 31.6767 46.801C32.2767 47.101 32.9767 47.001 33.5767 46.601L41.1767 41.001C41.6767 40.701 41.8767 40.101 41.8767 39.501C41.8767 38.901 41.5767 38.401 41.1767 38.001L33.4767 32.601Z" fill="black"/>
<path d="M37.6766 67.5992C37.6766 65.7992 36.2766 64.3992 34.4766 64.3992H10.9766L6.37664 37.0992C6.07664 35.3992 4.47664 34.1992 2.67664 34.4992C1.87664 34.5992 1.07664 35.0992 0.576641 35.7992C0.0766407 36.4992 -0.123359 37.2992 0.0766407 38.1992L5.07664 68.0992C5.37664 69.5992 6.67664 70.7992 8.27664 70.7992H9.87664L4.87664 90.9992C4.47664 92.6992 5.47664 94.3992 7.17664 94.8992C7.47664 94.9992 7.67664 94.9992 7.97664 94.9992C9.47664 94.9992 10.6766 93.9992 11.0766 92.5992L13.1766 83.9992H28.6766L30.7766 92.5992C31.1766 93.9992 32.3766 94.9992 33.8766 94.9992C34.1766 94.9992 34.3766 94.9992 34.6766 94.8992C36.3766 94.4992 37.4766 92.6992 36.9766 90.9992L31.9766 70.7992H34.3766C36.2766 70.7992 37.6766 69.3992 37.6766 67.5992ZM14.4766 79.0992L16.4766 70.8992H25.4766L27.4766 79.0992H14.4766Z" fill="black"/>
<path d="M81.8766 40.5974L72.7766 37.9974L66.3766 25.0974C66.2766 24.7974 65.8766 24.0974 64.8766 23.0974C63.2766 21.4974 60.9766 20.6974 58.6766 20.7974C56.4766 20.8974 54.3766 21.9974 52.9766 23.5974C52.4766 24.1974 51.9766 25.1974 51.7766 25.9974L46.3766 47.0974C46.0766 48.2974 46.1766 49.6974 46.7766 50.7974L55.7766 67.7974C55.9766 68.1974 56.0766 68.5974 55.9766 68.9974L52.8766 88.6974C52.4766 91.2974 53.9766 93.9974 56.4766 94.7974C56.9766 94.8974 57.4766 94.9974 57.9766 94.9974C60.4766 94.9974 62.5766 93.2974 63.0766 90.7974L67.3766 68.3974C67.5766 67.4974 67.4766 66.5974 67.1766 65.6974L62.2766 51.6974C62.1766 51.2974 62.0766 50.8974 62.1766 50.4974L64.3766 40.8974L65.6766 43.5974C66.1766 44.6974 67.1766 45.4974 68.3766 45.7974L79.6766 49.0974C80.0766 49.1974 80.4766 49.2974 80.8766 49.2974C82.8766 49.2974 84.7766 47.8974 85.1766 45.6974C85.5766 43.3974 84.0766 41.2974 81.8766 40.5974Z" fill="black"/>
<path d="M63.6766 18.6C68.8128 18.6 72.9766 14.4362 72.9766 9.3C72.9766 4.16375 68.8128 0 63.6766 0C58.5403 0 54.3766 4.16375 54.3766 9.3C54.3766 14.4362 58.5403 18.6 63.6766 18.6Z" fill="black"/>
</svg>
