<svg width="735" height="796" viewBox="0 0 735 796" fill="none" xmlns="http://www.w3.org/2000/svg">
<path d="M240.431 692.672C241.324 690.703 242.264 688.753 243.105 686.761C269.243 624.894 311.388 506.03 337.433 444.124C338.421 441.774 338.933 438.982 338.802 436.44C336.908 399.544 334.927 362.651 332.721 325.773C332.577 323.377 331.004 320.411 329.138 318.87C280.507 278.712 231.746 238.712 183.017 198.673C171.723 189.393 171.35 174.989 182.161 167.201C189.554 161.877 198.517 162.486 206.488 169.001C221.825 181.535 237.119 194.122 252.423 206.695C287.271 235.326 322.085 263.997 357.038 292.498C358.966 294.07 362.066 295.048 364.563 294.942C384.852 294.084 405.135 293.025 425.396 291.664C428 291.49 431.024 289.786 432.912 287.866C477.943 242.064 522.877 196.167 567.73 150.191C573.672 144.1 580.293 140.716 588.748 143.32C602.81 147.652 606.804 164.13 596.379 175.029C583.728 188.257 570.827 201.245 558.024 214.327C526.251 246.792 494.437 279.216 462.798 311.81C461.127 313.531 460.036 316.715 460.158 319.143C462.53 366.18 465.011 413.212 467.802 460.225C468.181 466.621 470.125 472.963 471.692 479.244C488.91 548.248 505.967 617.295 523.594 686.195C529.639 709.827 511.368 727.173 492.442 724.862C479.861 723.325 470.484 714.844 467.073 701.357C460.989 677.295 455.001 653.207 448.981 629.128C437.711 584.046 426.422 538.969 415.238 493.865C414.516 490.951 413.549 489.76 410.272 490.042C401.82 490.767 393.332 491.231 384.851 491.401C381.437 491.47 380.006 492.85 378.752 495.835C356.098 549.766 317.329 660.649 294.444 714.852C294.302 715.162 294.01 715.141 293.582 715.008C275.748 707.517 258.342 700.16 240.834 692.674C240.732 692.546 240.431 692.672 240.431 692.672Z" fill="#131514"/>
<path d="M384.146 171.983C406.135 169.913 423.571 177.483 435.526 195.654C447.038 213.153 447.344 231.776 437.546 250.128C426.12 271.526 400.406 282.104 377.411 275.544C353.383 268.689 337.525 247.212 338.381 222.684C339.241 198.034 356.63 177.51 380.838 172.575C381.816 172.376 382.799 172.205 384.146 171.983Z" fill="#131514"/>
<path d="M255.847 305.996L255.496 305.909L255.303 306.214C254.218 307.932 253.226 309.678 252.247 311.402C251.83 312.138 251.414 312.87 250.995 313.593C249.586 316.023 248.12 318.386 246.326 320.602C241.666 326.359 236.203 329.095 230.977 328.924C225.756 328.754 220.644 325.678 216.687 319.542C209.853 308.945 207.212 297.206 205.56 285.361C200.434 248.591 202.864 212.181 214.159 176.288C216.581 168.594 219.615 161.104 224.742 154.366C228.298 149.694 232.622 145.87 239.823 145.932C243.725 145.966 246.715 147.069 249.138 148.79C251.569 150.518 253.452 152.886 255.105 155.485C255.449 156.025 255.761 156.567 256.078 157.116C256.244 157.404 256.411 157.693 256.584 157.985C257.079 158.821 257.61 159.652 258.26 160.411C259.578 161.949 261.358 163.16 264.263 163.631C264.797 163.717 265.174 163.919 265.453 164.183C265.737 164.451 265.943 164.806 266.092 165.229C266.379 166.044 266.426 167.017 266.469 167.915C266.472 167.972 266.475 168.028 266.478 168.084C266.754 173.677 266.849 179.276 266.945 184.884C266.96 185.801 266.976 186.718 266.993 187.636C266.993 187.668 266.994 187.699 266.994 187.73C267.007 188.435 267.018 189.039 266.826 189.544C266.648 190.009 266.275 190.441 265.323 190.681C263.641 191.107 262.444 190.427 261.247 189.345C255.816 184.44 251.143 179.044 246.211 173.351C246.093 173.215 245.975 173.078 245.856 172.941C245.196 172.001 244.7 171.279 244.534 170.587C244.455 170.257 244.456 169.945 244.555 169.623C244.657 169.296 244.87 168.929 245.265 168.511C246.996 166.676 247.261 163.966 246.542 161.547C245.822 159.125 244.084 156.875 241.637 155.936C239.879 155.262 238.564 155.522 237.508 156.21C236.726 156.719 236.087 157.473 235.535 158.124C235.388 158.298 235.247 158.465 235.111 158.617C229.092 165.369 226.078 173.251 223.869 181.173C212.915 220.456 211.178 260.016 219.816 299.777C221.052 305.469 223.211 311.024 226.878 316.064C228.316 318.041 229.808 319.207 231.474 319.303C233.137 319.399 234.773 318.417 236.47 316.617C239.646 313.249 241.604 309.362 243.121 305.361C243.154 305.275 243.193 305.18 243.234 305.077C243.381 304.715 243.563 304.265 243.635 303.842C243.684 303.554 243.693 303.238 243.6 302.922C243.506 302.598 243.315 302.307 243.016 302.06C241.886 301.128 241.291 300.281 241.032 299.515C240.777 298.76 240.833 298.034 241.103 297.301C241.377 296.556 241.87 295.811 242.482 295.046C242.904 294.517 243.364 294 243.832 293.475C244.046 293.234 244.261 292.992 244.476 292.746C248.168 288.509 251.98 284.341 255.796 280.17C256.155 279.777 256.514 279.385 256.873 278.992C257.645 278.148 258.382 277.351 259.273 276.848C260.133 276.362 261.154 276.143 262.52 276.519C263.174 276.699 263.618 276.948 263.926 277.226C264.231 277.501 264.423 277.824 264.543 278.188C264.775 278.889 264.738 279.704 264.697 280.596C264.693 280.673 264.69 280.75 264.686 280.827C264.628 282.163 264.572 283.499 264.516 284.834C264.245 291.287 263.975 297.729 263.451 304.158C263.35 305.395 263.028 306.11 262.627 306.521C262.235 306.923 261.699 307.105 261 307.119C260.292 307.134 259.47 306.975 258.574 306.744C258.159 306.637 257.737 306.517 257.31 306.395L257.218 306.369C256.762 306.239 256.3 306.109 255.847 305.996Z" fill="black" stroke="white"/>
<path d="M516.702 156.106L516.701 156.113L516.7 156.121L516.591 156.929C515.648 163.954 514.753 170.621 513.766 177.275C513.645 178.092 513.489 178.893 513.16 179.539C512.842 180.162 512.371 180.626 511.591 180.815C510.669 181.038 509.954 180.802 509.358 180.335C508.74 179.85 508.247 179.112 507.843 178.34C503.771 170.566 501.761 162.153 499.736 153.672C499.132 151.147 498.528 148.616 497.867 146.095L497.383 146.221L497.867 146.095C497.61 145.115 497.882 144.387 498.375 143.914C498.887 143.423 499.683 143.163 500.526 143.249C501.607 143.36 502.486 143.284 503.202 143.028C503.927 142.768 504.457 142.332 504.846 141.775C505.228 141.228 505.463 140.578 505.632 139.896C505.799 139.218 505.908 138.475 506.017 137.73L506.019 137.717L505.524 137.644L506.019 137.717C506.692 133.123 507.745 128.644 509.941 124.543C512.7 119.394 516.524 116.346 520.738 115.458C524.95 114.57 529.651 115.818 534.207 119.465C543.185 126.651 548.959 136.293 553.771 146.564C572.399 186.325 582.36 227.909 579.755 272.037C579.355 278.82 577.879 285.443 574.968 291.642C572.087 297.775 568.35 301.298 564.09 302.326C559.829 303.354 554.886 301.924 549.505 297.792C548.872 297.306 548.225 296.834 547.603 296.38C547.323 296.175 547.048 295.975 546.782 295.779L546.522 295.587L546.241 295.745C544.787 296.562 543.672 297.141 542.774 297.462C541.875 297.784 541.274 297.818 540.812 297.65C540.351 297.481 539.914 297.071 539.44 296.234C538.966 295.398 538.496 294.209 537.932 292.592C534.653 283.179 531.652 273.663 528.685 264.136C528.346 263.049 528.057 261.928 528.099 260.883C528.14 259.866 528.494 258.93 529.461 258.167C529.981 257.756 530.464 257.563 530.917 257.502C531.374 257.44 531.835 257.506 532.313 257.665C532.795 257.824 533.28 258.072 533.784 258.358C533.979 258.469 534.184 258.59 534.394 258.714C534.701 258.896 535.017 259.082 535.314 259.244C541.427 262.571 545.7 267.792 550.04 273.096C550.76 273.976 551.482 274.859 552.215 275.735C553.012 276.689 553.203 277.602 553.086 278.539C552.965 279.513 552.511 280.526 551.956 281.656C550.861 283.889 550.625 285.792 551.507 287.568C552.364 289.294 554.231 290.794 557.037 292.378C559.041 293.51 560.836 293.82 562.45 293.297C564.05 292.778 565.36 291.476 566.482 289.634C569.413 284.82 570.147 279.421 570.765 274.149C572.59 258.588 571.328 243.109 568.883 227.782C564.825 202.338 558.324 177.528 547.409 154.046C543.119 144.817 538.328 135.725 530.721 128.558C527.431 125.457 524.554 124.007 521.996 124.628C519.445 125.248 517.492 127.862 515.859 132.097C514.333 136.057 513.563 140.188 512.88 144.302L513.373 144.384L512.88 144.302C512.692 145.438 512.574 146.576 512.832 147.631C513.099 148.716 513.751 149.666 514.997 150.447C515.932 151.033 516.45 151.795 516.696 152.717C516.947 153.659 516.919 154.791 516.702 156.106Z" fill="black" stroke="white"/>
<path d="M240.431 692.432C231.761 732.383 286.34 735.418 294.501 715.189L267.466 703.81L240.431 692.432Z" fill="#131514"/>
</svg>
