<svg width="325" height="424" viewBox="0 0 325 424" fill="none" xmlns="http://www.w3.org/2000/svg">
<path d="M189.66 281.089C187.411 284.66 175.808 290.256 172.171 288.948C170.223 288.247 168.814 286.052 166.819 283.999C163.785 278.044 161.093 272.62 158.417 266.88C158.473 266.144 158.512 265.724 158.708 264.97C160.077 260.729 162.468 256.759 162.27 252.923C161.755 242.967 160.102 233.07 158.847 222.708C158.35 218.604 157.91 214.941 157.768 211.015C158.217 210.289 158.542 209.809 158.497 209.366C157.522 199.6 156.542 189.835 155.425 180.086C155.344 179.38 154.215 178.795 153.419 177.868C151.73 176.465 150.196 175.349 148.524 174.009C148.097 173.599 147.807 173.413 147.236 173.054C143.194 169.269 139.434 165.657 135.525 161.752C132.748 158.79 130.121 156.121 127.407 153.142C126.673 152.323 126.025 151.814 125.128 151.182C124.467 150.686 124.056 150.312 123.595 149.669C123.17 149.038 122.794 148.676 122.465 148.325C122.511 148.336 122.438 148.396 122.449 148.037C118.657 143.145 114.854 138.612 111.051 134.078C110.611 134.478 110.17 134.878 109.73 135.278C112.676 138.906 115.622 142.533 118.154 146.213C103.917 145.403 93.7081 135.111 92.7977 121.117C91.9403 107.939 101.116 95.5166 113.482 93.1149C126.838 90.5209 139.263 97.819 143.343 111.153C147.477 124.666 155.163 136.302 162.216 148.705C165.054 153.06 167.791 157.056 170.572 161.419C173.27 167.925 176.637 173.873 178.359 180.263C179.83 185.724 179.412 191.695 179.801 197.849C180.094 203.235 180.414 208.211 180.689 213.656C180.58 220.567 181.418 227.176 180.257 233.414C178.18 244.58 180.179 254.636 185.652 264.572C185.997 265.307 186.324 265.76 186.658 266.596C187.665 271.682 188.663 276.385 189.66 281.089Z" fill="#F1A291"/>
<path d="M50.5996 373.225C51.5216 359.289 52.8773 345.365 53.2588 331.414C53.7682 312.78 53.4681 294.125 53.6434 275.48C53.6793 271.67 54.2807 267.865 54.8934 263.384C56.4099 256.018 60.426 251.212 66.1048 247.251C67.988 247.449 69.5216 247.447 70.9157 247.887C86.5451 252.818 102.11 257.959 117.781 262.751C129.173 266.234 140.699 269.28 152.089 272.824C151.952 273.963 151.892 274.798 151.831 275.634C137.929 276.814 124.035 278.09 110.123 279.135C102.831 279.683 95.509 279.851 88.1987 280.143C84.9499 280.273 82.7423 281.659 83.878 285.085C92.0273 309.669 83.7377 332.623 77.208 355.797C75.6824 361.212 74.7412 366.791 73.0822 372.786C65.2799 376.935 57.9405 374.777 50.5996 373.225Z" fill="black"/>
<path d="M152.166 272.52C140.7 269.279 129.174 266.234 117.782 262.751C102.11 257.959 86.5454 252.818 70.9159 247.887C69.5218 247.447 67.9882 247.449 65.8851 246.981C61.6675 243.558 58.0842 240.4 54.5009 237.242C48.3319 223.456 54.0105 211.986 68.7927 209.307C73.5899 208.438 78.7519 208.431 83.5874 209.132C100.652 211.603 117.647 214.552 135.401 217.586C137.95 217.982 139.767 218.111 141.81 218.518C147.658 220.248 153.28 221.698 158.902 223.149C160.101 233.07 161.754 242.967 162.269 252.923C162.467 256.759 160.077 260.728 158.368 264.996C155.969 267.743 154.067 270.132 152.166 272.52Z" fill="#353535"/>
<path d="M162.113 148.347C155.163 136.302 147.477 124.666 143.343 111.153C139.264 97.819 126.838 90.5209 113.482 93.1149C101.116 95.5166 91.9404 107.939 92.7978 121.117C93.7082 135.111 103.917 145.403 118.448 146.355C120.249 147.096 121.344 147.746 122.438 148.396C122.438 148.396 122.511 148.336 122.506 148.601C122.882 149.223 123.263 149.581 123.644 149.939C124.056 150.312 124.467 150.686 125.239 151.478C126.231 152.415 126.863 152.934 127.495 153.452C130.121 156.121 132.748 158.79 135.371 162.07C129.443 167.49 123.52 172.3 117.098 177.513C117.098 172.762 117.098 168.865 117.098 164.967C115.532 169.623 114.881 174.395 113.397 178.893C112.423 181.848 110.247 184.407 108.61 187.143C105.951 187.224 103.293 187.351 100.634 187.377C87.9129 187.504 80.7017 181.109 80.9168 168.38C81.0674 159.464 82.8423 150.565 84.0531 141.681C85.0848 134.111 86.3467 126.572 87.5715 118.211C88.3086 114.5 88.7534 111.522 89.6921 108.709C93.8674 96.1959 101.206 87.1346 115.401 85.835C130.464 86.0505 141.28 94.0846 148.925 105.951C156.886 118.31 163.447 131.571 170.326 144.845C167.393 146.285 164.753 147.316 162.113 148.347Z" fill="black"/>
<path d="M185.633 264.291C180.179 254.637 178.18 244.58 180.258 233.414C181.418 227.176 180.581 220.567 181.023 213.618C189.13 206.817 196.857 200.523 204.584 194.229C217.141 208.309 224.387 224.309 222.664 243.638C221.91 252.092 216.955 258.249 211.496 264.757C210.973 265.213 210.762 265.264 210.095 265.272C201.637 264.917 193.635 264.604 185.633 264.291Z" fill="#353535"/>
<path d="M50.3422 373.459C57.9419 374.777 65.2813 376.934 73.0028 373.194C74.0393 381.218 74.7444 389.321 75.3651 397.43C75.8908 404.298 72.8595 407.19 65.9448 407.059C47.0274 406.7 28.1075 406.462 9.18793 406.231C4.7502 406.177 1.01698 405.262 0 401.329C13.0272 396.108 25.5724 390.785 38.3473 386.087C44.582 383.794 48.3785 379.917 50.3422 373.459Z" fill="#E19D93"/>
<path d="M74.5347 99.2752C70.9924 101.334 67.2118 103.082 63.9821 105.55C61.326 107.58 58.8699 107.749 56.8746 105.61C53.4522 101.94 50.5661 97.774 47.358 93.8965C46.4832 92.8391 45.2727 91.3062 44.199 91.292C38.4607 91.2163 39.3775 87.8805 40.0672 84.1262C40.5842 81.3119 40.4112 78.3709 40.7047 74.7591C41.3584 68.9385 46.0577 70.4636 49.5847 69.2025C42.6295 67.0061 40.806 67.5748 38.153 72.2985C37.6199 69.8461 36.7704 66.6313 36.5 63.5C40.9726 62.415 44.812 62.2004 47.5 58C52.2288 59.4326 57.5883 60.637 62 62.5C63.3192 64.7253 64.0322 67.0317 65.2872 68.8954C66.6188 67.1722 68.0208 65.497 69.2443 63.7002C69.6818 63.0576 69.5777 62.0723 69.909 61.327C71.524 57.694 74.8184 56.9373 77.805 59.6023C81.6245 63.0105 82.7279 67.1552 80.5861 72.2906C79.3408 73.5454 78.2723 74.4981 77.7223 74.9885C78.0732 77.3051 78.2613 79.0453 78.6087 80.7532C79.9892 87.5391 76.3486 93.203 74.5347 99.2752Z" fill="#F1A291"/>
<path d="M210.55 265.315C210.761 265.264 210.971 265.213 211.498 265.084C212.205 265.055 212.597 265.103 213.563 265.468C228.435 266.262 242.731 266.759 257.029 267.161C257.875 267.185 258.741 266.437 259.99 265.978C261.703 265.895 263.026 265.881 264.607 266.191C267.141 266.341 269.416 266.167 272.009 266.039C272.749 266.167 273.169 266.248 273.633 266.622C274.645 267.017 275.612 267.12 276.735 267.572C278.249 271.709 279.779 275.45 280.864 279.315C281.212 280.554 280.383 282.123 279.783 283.607C278.632 283.58 277.791 283.487 276.544 283.347C274.828 282.758 273.514 281.774 272.21 281.788C270.666 281.804 269.131 282.681 267.592 283.185C256.282 282.918 244.971 282.651 232.752 282.323C226.504 282.231 221.166 282.199 215.827 282.167C207.41 281.849 198.992 281.53 190.117 281.151C188.662 276.386 187.664 271.682 187.121 266.598C189.554 266.221 191.534 266.303 193.507 266.212C199.19 265.95 204.869 265.619 210.55 265.315Z" fill="#5A5E66"/>
<path d="M280.093 283.54C280.383 282.123 281.212 280.554 280.864 279.315C279.779 275.45 278.248 271.709 276.71 267.227C276.515 266.304 276.5 266.074 276.341 265.517C274.618 258.956 273.038 252.721 271.531 246.125C273.883 244.587 276.162 243.409 278.441 242.231C280.457 249.936 282.474 257.641 284.543 266.16C286.256 272.719 287.916 278.464 289.576 284.208C295.169 306.591 300.748 328.978 306.36 351.357C310.519 367.943 314.721 384.519 318.51 401.56C315.88 402.432 313.643 402.844 311.406 403.257C306.769 385.436 302.175 367.605 297.454 349.807C296.667 346.838 295.325 344.017 294.162 340.572C293.898 338.021 293.712 336.026 293.471 333.662C291.172 324.481 289.009 315.65 286.663 306.867C284.579 299.063 282.291 291.314 280.093 283.54Z" fill="#656771"/>
<path d="M80.5 72C82.465 67.1666 81.6262 63.0111 77.8067 59.6029C74.8201 56.9379 71.5257 57.6946 69.9107 61.3277C69.5794 62.0729 69.6835 63.0583 69.246 63.7008C68.0225 65.4976 66.6205 67.1728 65.2889 68.896C64.0339 67.0323 62.7789 65.1686 61.623 62.6139C67.4801 58.4204 69.3431 53.318 68.6751 46.7081C68.1926 41.9333 68.5911 37.0695 68.9896 32.2338C72.799 31.1924 76.2157 30.1626 79.6323 29.1328C88.6607 29.6798 93.5097 35.5335 96.5918 43.0975C98.0656 46.7147 99.3641 50.8013 99.1914 54.6048C98.8761 61.5477 97.4013 69.0913 96 76.5C92.5736 78.0774 90.3207 79.0996 87 80C84.9678 77.4074 82.2244 74.4119 80.5 72Z" fill="black"/>
<path d="M230.644 285.248C214.324 311.642 198.021 338.047 181.675 364.424C172.669 378.956 163.589 393.442 153.856 408.133C151.282 407.11 149.396 405.902 147.51 404.695C147.442 404.186 147.374 403.678 147.572 402.693C150.487 397.891 153.136 393.565 156.064 389.062C157.166 387.858 158.109 386.906 158.799 385.796C170.099 367.594 181.362 349.369 192.646 331.157C200.384 318.668 208.217 306.236 215.857 293.687C219.29 288.049 222.978 283.274 230.644 285.248Z" fill="#61656F"/>
<path d="M313.578 137.236C320.137 138.467 320.953 140.489 317.314 146.345C301.726 171.437 286.149 196.536 270.116 222.037C266.281 223.501 266.413 226.187 266.316 229.069C265.15 231.221 264.329 233.231 263.221 235.41C260.853 238.698 258.772 241.818 256.353 245.052C254.776 246.688 253.633 248.302 252.279 249.713C248.449 253.703 245.451 259.093 238.727 257.912C243.15 250.701 247.444 243.812 251.719 236.912C264.374 216.484 277.009 196.043 289.676 175.622C297.621 162.813 305.609 150.031 313.578 137.236Z" fill="#61646E"/>
<path d="M141.585 218.24C139.768 218.111 137.951 217.982 135.831 217.622C135.407 216.622 135.572 215.522 135.122 215.132C128.743 209.609 122.281 204.182 115.912 198.168C126.504 189.807 137.023 182.011 147.821 174.223C148.288 174.231 148.475 174.232 148.661 174.233C150.196 175.349 151.73 176.466 153.416 178.341C154.577 189.818 155.586 200.536 156.239 211.297C151.118 213.64 146.351 215.94 141.585 218.24Z" fill="#F1A291"/>
<path d="M313.358 136.934C305.609 150.03 297.621 162.812 289.676 175.621C277.009 196.042 264.374 216.483 251.719 236.911C247.444 243.812 243.15 250.7 238.456 258.118C236.957 260.566 235.865 262.49 234.323 265.206C238.098 265.206 240.873 265.206 243.979 265.264C249.407 265.563 254.503 265.805 259.6 266.047C258.743 266.436 257.876 267.184 257.031 267.16C242.732 266.758 228.437 266.261 213.859 265.499C214.208 265.061 214.903 264.652 215.459 264.792C224.912 267.188 229.357 262.003 233.995 254.522C257.371 216.806 281.309 179.438 305.158 142.017C306.921 139.25 307.881 134.539 313.358 136.934Z" fill="#52555E"/>
<path d="M230.894 285.066C222.979 283.274 219.291 288.049 215.859 293.687C208.219 306.236 200.386 318.668 192.647 331.157C181.363 349.369 170.101 367.594 158.8 385.796C158.111 386.906 157.168 387.858 155.734 388.941C153.568 388.048 152.012 387.099 150.455 386.149C171.148 353.422 191.841 320.695 212.529 287.965C213.594 286.28 214.612 284.565 215.74 282.515C221.167 282.198 226.506 282.23 232.327 282.279C232.255 283.159 231.699 284.022 230.894 285.066Z" fill="#51555D"/>
<path d="M54.4413 237.622C58.0838 240.4 61.6671 243.558 65.4703 246.986C60.4258 251.211 56.4097 256.017 54.9128 262.956C51.4058 263.65 48.108 263.898 44.9057 264.589C38.3363 266.006 33.9986 262.524 30.02 258.161C28.1698 256.131 26.4429 253.988 24.6924 251.87C22.5596 249.288 23.598 246.297 27.522 245.2C34.3493 243.293 41.3099 241.868 48.1877 240.135C50.2977 239.603 52.3198 238.723 54.4413 237.622Z" fill="#E19D93"/>
<path d="M80 29.3857C76.7451 30.7602 73.2489 31.9677 69 33C66.3497 32.9064 64.0407 32.2434 62.2699 31.9023C54.7505 30.4536 47.8226 34.2295 46.7188 41.7927C45.9427 47.111 47.2259 52.73 47.5895 58.2147C45.2828 62.3464 41.29 63.1775 36.8189 63.8545C36.1156 64.1445 35.6735 64.1638 34.7262 63.8674C28.9446 59.5989 29.2784 53.9512 29.614 48.3029C29.8275 48.0716 30.027 47.8289 30.6054 47.212C31.0825 46.4697 31.1668 46.0902 31.2511 45.7107C36.8145 36.3435 45.5581 31.7139 55.3574 29.3857C56.6034 27.0263 57.6976 24.9544 59.1707 22.5899C67.3366 24.6982 71.3218 22.9689 73.9165 16.2042C75.2782 15.8711 76.3076 15.541 77.337 15.2109C80.073 19.312 83.4236 23.9985 80 29.3857Z" fill="black"/>
<path d="M147.541 174.214C137.023 182.011 126.505 189.807 115.779 197.855C113.337 194.669 111.102 191.231 108.738 187.468C110.247 184.407 112.423 181.848 113.397 178.893C114.88 174.395 115.532 169.623 117.098 164.967C117.098 168.864 117.098 172.762 117.098 177.513C123.519 172.299 129.443 167.49 135.52 162.362C139.434 165.657 143.194 169.269 147.237 173.301C147.52 173.721 147.541 174.214 147.541 174.214Z" fill="black"/>
<path d="M86.5529 79.5866C89.5658 78.5056 92.5788 77.4245 95.9183 76.2236C102.449 79.2258 108.652 82.3479 115.129 85.6525C101.207 87.1348 93.8678 96.1961 89.6925 108.709C88.7537 111.522 88.309 114.5 87.5439 117.783C85.9365 111.157 82.2897 105.472 76.9609 100.583C78.5352 98.7308 80.524 97.4677 81.2144 95.698C83.2677 90.4344 84.8105 84.9716 86.5529 79.5866Z" fill="#F1A291"/>
<path d="M243.647 265.207C240.872 265.207 238.096 265.207 234.322 265.207C235.864 262.491 236.956 260.567 238.318 258.436C245.449 259.093 248.448 253.703 252.278 249.713C253.632 248.302 254.775 246.688 256.722 245.133C260.16 243.78 262.889 242.462 265.962 241.124C268.877 240.125 269.775 238.544 268.688 235.779C267.92 233.825 267.66 231.672 267.599 229.528C270.236 229.036 272.448 228.625 274.66 228.214C275.945 232.613 277.23 237.013 278.478 241.822C276.163 243.409 273.884 244.586 271.181 246.039C269.613 247.297 268.468 248.282 266.972 249.264C264.907 250.301 263.193 251.341 261.127 252.354C258.345 253.667 255.694 254.723 253.537 256.41C250.069 259.123 246.927 262.253 243.647 265.207Z" fill="#686C75"/>
<path d="M204.481 193.905C196.857 200.523 189.13 206.817 181.069 213.149C180.415 208.211 180.094 203.235 180.084 197.762C181.121 196.637 181.847 196.008 182.884 195.218C187.736 191.583 192.277 188.109 196.818 184.635C199.338 187.617 201.858 190.599 204.481 193.905Z" fill="black"/>
<path d="M196.692 184.349C192.276 188.108 187.735 191.582 182.893 194.736C183.128 181.767 181.257 169.83 172.629 159.741C174.384 158.755 175.904 157.989 177.425 157.224C183.806 166.17 190.187 175.117 196.692 184.349Z" fill="#F1A291"/>
<path d="M267.928 283.363C269.131 282.68 270.666 281.804 272.21 281.787C273.514 281.773 274.829 282.757 276.433 283.73C277.189 286.596 277.55 289.057 278.131 291.465C281.173 304.065 284.271 316.653 286.98 329.226C285.929 328.275 285.193 327.378 284.578 326.405C282.878 323.712 282.872 319.567 278.4 319.28C275.645 308.822 272.916 298.357 270.104 287.915C269.696 286.401 268.886 284.996 267.928 283.363Z" fill="#555962"/>
<path d="M291.773 373.269C289.01 362.199 286.246 351.13 283.869 339.606C286.335 339.442 288.413 339.734 290.492 340.025C293.15 350.503 295.808 360.982 298.088 371.834C295.731 372.561 293.752 372.915 291.773 373.269Z" fill="#555962"/>
<path d="M77.649 14.9908C76.3075 15.5415 75.2781 15.8716 73.911 15.8347C70.6195 7.88742 63.2959 6.91999 56.5538 13.2194C55.8927 7.88741 56.8956 3.41423 62.4395 1.01355C66.9008 -0.918306 72.6261 -0.0545986 76.3004 3.31455C79.9906 6.69822 80.483 10.0947 77.649 14.9908Z" fill="black"/>
<path d="M56.2623 13.4656C63.2953 6.91987 70.619 7.88729 73.5782 15.8375C71.3212 22.9693 67.336 24.6986 59.1579 22.2371C55.5403 20.1128 55.0234 17.1542 56.2623 13.4656Z" fill="black"/>
<path d="M311.361 403.701C313.644 402.844 315.882 402.431 318.552 401.962C320.41 405.222 321.603 408.665 323.316 411.826C325.551 415.95 322.88 418.079 320.169 419.839C318.062 421.207 313.436 418.015 312.837 414.902C312.154 411.35 311.808 407.734 311.361 403.701Z" fill="#373637"/>
<path d="M147.201 404.865C149.397 405.903 151.283 407.11 153.579 408.296C152.303 412.061 150.649 415.861 148.923 419.628C147.464 422.816 143.587 424.343 140.849 422.883C138.492 421.626 137.783 416.68 139.764 414.003C142.035 410.936 144.506 408.018 147.201 404.865Z" fill="#373637"/>
<path d="M80.5686 75.4273C81.7655 76.881 83.0608 78.5266 84.2607 80.0575C83.1382 84.0538 81.5929 87.9487 80.0185 91.9171C79.6407 92.8693 79.2612 93.8258 78.8855 94.7889C78.752 95.1312 78.508 95.5226 78.1091 95.9928C78.1884 95.7827 78.2692 95.5716 78.3512 95.3591C78.4842 95.0143 78.6224 94.6616 78.7628 94.3033C79.197 93.1948 79.6526 92.0318 80.046 90.877C81.1103 87.7522 81.8764 84.2677 81.0601 80.2552C80.8439 79.1927 80.7004 78.1627 80.5236 76.8935C80.4721 76.5244 80.4179 76.135 80.3582 75.7187C80.427 75.6245 80.4978 75.5261 80.5686 75.4273ZM77.5506 98.0661C77.5506 98.0662 77.55 98.0659 77.5486 98.0654L77.5506 98.0661Z" fill="#E49689" stroke="#E49689" stroke-width="5"/>
<path d="M177.396 156.874C175.904 157.989 174.384 158.755 172.357 159.801C171.409 160.405 170.968 160.729 170.527 161.052C167.79 157.056 165.054 153.059 162.215 148.705C164.752 147.315 167.392 146.284 170.408 145.196C172.978 148.935 175.173 152.73 177.396 156.874Z" fill="black"/>
<path d="M290.016 284.161C287.916 278.463 286.256 272.718 284.604 266.549C285.994 266.19 287.376 266.256 289.258 266.753C290.77 267.456 291.784 267.728 292.797 268C292.797 268 292.711 268.104 292.818 268.314C293.254 268.715 293.582 268.905 293.911 269.095C294.711 273.857 295.51 278.618 296.389 283.853C293.655 283.974 292.055 284.045 290.016 284.161Z" fill="#5A5E66"/>
<path d="M290.817 339.973C288.412 339.734 286.334 339.442 283.9 339.19C281.838 332.846 280.131 326.462 278.412 319.679C282.871 319.568 282.878 323.713 284.578 326.405C285.192 327.378 285.928 328.275 287.122 329.549C289.599 331.271 291.564 332.651 293.528 334.032C293.713 336.026 293.898 338.02 293.888 340.284C292.842 340.342 291.992 340.132 290.817 339.973Z" fill="#484C56"/>
<path d="M150.16 386.305C152.012 387.099 153.568 388.049 155.456 389.119C153.138 393.566 150.488 397.891 147.53 402.436C143.025 401.832 141.237 398.043 143.599 394.62C145.544 391.801 147.766 389.172 150.16 386.305Z" fill="#373637"/>
<path d="M291.732 373.671C293.751 372.916 295.73 372.562 298.096 372.229C299.638 374.991 300.705 377.775 301.972 380.465C303.528 383.769 301.462 386.169 299.127 386.7C297.563 387.057 294.481 384.983 293.623 383.238C292.289 380.522 292.269 377.161 291.732 373.671Z" fill="#373637"/>
<path d="M158.4 267.196C161.092 272.62 163.784 278.044 166.52 283.822C165.905 285.677 165.246 287.178 164.588 288.68C163.93 288.156 163.272 287.631 162.614 287.106C161.741 285.114 160.868 283.122 159.848 280.425C159.268 275.545 158.834 271.371 158.4 267.196Z" fill="#E19D93"/>
<path d="M158.417 266.88C158.835 271.371 159.268 275.545 159.654 280.14C156.834 279.717 151.939 282.677 152.008 276.027C151.893 274.798 151.953 273.962 152.09 272.823C154.068 270.132 155.969 267.743 158.211 265.329C158.512 265.723 158.473 266.143 158.417 266.88Z" fill="#5A5E66"/>
<path d="M31.5 48C31.429 53.7314 30.0495 59.7598 35.5 64C30.3678 64.898 27.0374 63.1973 26.5081 57.6215C26.2427 54.8252 27.1149 51.921 27.6412 48.5343C29 46 31.5 46.5 31.5 46.5C31.8385 46.6465 30.8969 47.7704 31.5 48Z" fill="black"/>
<path d="M274.671 227.833C272.448 228.624 270.236 229.036 267.443 229.378C266.862 229.308 266.66 228.926 266.66 228.926C266.412 226.186 266.28 223.5 270 222.376C271.786 224.024 273.235 225.738 274.671 227.833Z" fill="#373637"/>
<path d="M38.2441 72.6608C40.8073 67.575 42.6308 67.0063 49.586 69.2027C46.059 70.4638 41.3597 68.9387 40.6771 74.3955C39.7707 74.1803 39.0523 73.6016 38.2441 72.6608Z" fill="black"/>
<path d="M292.632 267.735C291.785 267.729 290.772 267.456 289.66 266.863C290.53 266.851 291.498 267.16 292.632 267.735Z" fill="#656771"/>
<path d="M293.811 268.822C293.584 268.906 293.256 268.715 292.828 268.248C293.055 268.163 293.382 268.356 293.811 268.822Z" fill="#656771"/>
<path d="M31.0128 45.8936C31.1659 46.0903 31.0817 46.4698 30.7578 47.0328C30.6039 46.8362 30.6896 46.4563 31.0128 45.8936Z" fill="black"/>
<path d="M170.5 161C170.897 160.31 173.286 159.384 174 159C183.134 168.808 183.13 181.767 182.582 194.897C181.846 196.007 181.12 196.636 180.112 197.352C179.412 191.694 179.83 185.724 178.359 180.263C176.638 173.872 173.198 167.506 170.5 161Z" fill="#E49689"/>
<path d="M141.811 218.518C146.351 215.939 151.118 213.639 156.458 211.315C157.032 211.29 157.47 211.277 157.47 211.277C157.91 214.94 158.35 218.603 158.846 222.707C153.281 221.698 147.658 220.247 141.811 218.518Z" fill="black"/>
<path d="M157.767 211.014C157.47 211.277 157.031 211.289 156.813 211.272C155.586 200.535 154.577 189.817 153.57 178.626C154.214 178.794 155.344 179.38 155.425 180.085C156.542 189.834 157.522 199.6 158.497 209.365C158.541 209.808 158.217 210.289 157.767 211.014Z" fill="#E39E94"/>
<path d="M210.095 265.272C204.871 265.618 199.191 265.95 193.509 266.211C191.536 266.302 189.555 266.22 187.114 266.215C186.324 265.759 185.998 265.306 185.652 264.571C193.635 264.603 201.637 264.916 210.095 265.272Z" fill="#52555E"/>
<path d="M122.45 148.037C121.344 147.745 120.25 147.095 118.861 146.303C115.622 142.533 112.676 138.905 109.73 135.278C110.171 134.878 110.611 134.478 111.051 134.078C114.854 138.611 118.657 143.145 122.45 148.037Z" fill="#E39E94"/>
<path d="M127.407 153.142C126.863 152.934 126.231 152.415 125.488 151.601C126.025 151.814 126.673 152.323 127.407 153.142Z" fill="#E39E94"/>
<path d="M123.594 149.669C123.262 149.581 122.881 149.223 122.459 148.59C122.794 148.676 123.169 149.038 123.594 149.669Z" fill="#E39E94"/>
<path d="M108.043 133.748C108.072 133.798 108.015 133.698 108.043 133.748Z" fill="#E39E94"/>
<path d="M147.821 174.222C147.541 174.214 147.52 173.72 147.52 173.473C147.808 173.412 148.097 173.599 148.524 174.009C148.475 174.231 148.288 174.231 147.821 174.222Z" fill="#E39E94"/>
<path d="M47.5001 58.0001C46.7552 52.5841 45.9431 47.1123 46.7193 41.7939C47.823 34.2307 54.4803 29.5514 61.9997 31C63.7706 31.3412 68.2423 30.8949 70.4998 31.0001C70.9337 35.8333 70.0173 44.2253 70.4998 49.0001C71.1678 55.61 67.9211 59.1682 61.9998 63.0001C57.489 61.8281 52.2289 59.4327 47.5001 58.0001Z" fill="black"/>
<path d="M293.471 333.661C291.563 332.651 289.599 331.271 287.492 329.567C284.27 316.652 281.172 304.065 278.13 291.464C277.549 289.057 277.188 286.596 276.838 283.776C277.791 283.486 278.632 283.579 279.783 283.606C282.291 291.313 284.579 299.062 286.663 306.866C289.009 315.649 291.172 324.481 293.471 333.661Z" fill="#E4E5EA"/>
<path d="M243.979 265.264C246.927 262.253 250.069 259.123 253.537 256.41C255.694 254.723 258.345 253.667 261.169 252.739C262.493 257.39 263.421 261.629 264.349 265.868C263.026 265.881 261.704 265.895 259.99 265.978C254.503 265.806 249.406 265.564 243.979 265.264Z" fill="#E9EAEE"/>
<path d="M264.607 266.191C263.42 261.628 262.492 257.389 261.521 252.765C263.193 251.34 264.906 250.301 267.092 249.639C268.94 255.342 270.315 260.668 271.69 265.993C269.416 266.167 267.141 266.341 264.607 266.191Z" fill="#52555E"/>
<path d="M272.009 266.039C270.315 260.667 268.94 255.342 267.443 249.641C268.467 248.281 269.612 247.297 271.108 246.399C273.038 252.721 274.618 258.955 275.987 265.614C275.047 266.135 274.318 266.232 273.59 266.33C273.17 266.248 272.749 266.166 272.009 266.039Z" fill="#E4E5EA"/>
<path d="M273.635 266.621C274.32 266.232 275.048 266.135 276.132 265.94C276.501 266.073 276.516 266.303 276.556 266.878C275.614 267.12 274.646 267.016 273.635 266.621Z" fill="#52555E"/>
<path d="M265.619 241.143C262.89 242.461 260.16 243.78 257.061 245.018C258.771 241.818 260.852 238.698 263.503 235.622C264.588 237.492 265.103 239.317 265.619 241.143Z" fill="#5A5E66"/>
<path d="M265.962 241.124C265.103 239.317 264.587 237.491 263.789 235.453C264.328 233.231 265.149 231.221 266.315 229.068C266.66 228.926 266.862 229.308 267.017 229.457C267.66 231.671 267.92 233.825 268.688 235.778C269.775 238.543 268.877 240.125 265.962 241.124Z" fill="#E4E5EA"/>
<path d="M47.4152 129.966C51.4697 129.727 55.0407 129.56 58.2106 129.411C51.2396 132.804 43.5617 134.857 37.9409 139.711C31.248 145.49 31.964 154.326 32.1676 162.8C34.0896 162.246 35.6461 161.798 37.9027 161.148C36.9905 169.204 36.1029 177.043 34.9673 187.07C29.0353 177.999 24.0577 170.387 18.0775 161.242C21.7233 162.227 23.6139 162.738 26.2366 163.447C26.7461 148.226 28.7535 134.025 47.4152 129.966Z" fill="#131313"/>
</svg>
