<svg width="197" height="313" viewBox="0 0 197 313" fill="none" xmlns="http://www.w3.org/2000/svg">
<path d="M9.34672e-09 27.2643C2.06047 24.3576 4.12093 21.8794 6.45962 19.0665C7.7632 20.4499 8.72823 21.474 9.69825 22.5034C7.86407 24.9763 6.16101 27.2723 3.75073 30.5218C6.85881 31.1055 8.88158 31.8986 10.8538 31.7881C22.9979 31.1085 33.8506 27.0558 42.757 18.58C44.7359 16.6968 47.0349 14.0859 41.6769 12.6646C40.849 14.4926 40.0752 16.2011 38.9205 18.7508C37.0488 14.3341 35.4954 10.6684 33.7386 6.52286C37.7147 4.84695 41.5464 3.23196 46.1166 1.30566C45.1548 3.82999 44.4841 5.59027 43.8246 7.32129C51.7527 12.9818 52.0662 17.2037 44.6067 23.6475C35.2573 31.7239 24.1378 35.802 11.9069 36.7499C7.71287 37.0749 3.54 36.5388 0.363763 32.7589C-2.02656e-06 31.1215 -1.99065e-06 29.4072 9.34672e-09 27.2643Z" fill="#161616"/>
<path d="M66.3473 105.683C56.1462 92.8025 45.4389 80.2823 35.9241 66.9133C29.7161 58.1905 25.2398 48.2352 19.8555 38.5952C26.1765 36.1197 31.8198 33.9095 38.0033 31.4878C48.5926 53.8195 61.9834 74.6378 80.8057 92.499C81.8824 93.303 82.4748 93.762 83.0699 93.7656C92.8017 93.8239 102.534 93.8653 112.265 93.7713C113.174 93.7625 114.075 92.8149 114.979 92.3032C116.285 91.3225 117.741 90.4895 118.875 89.3388C134.306 73.6807 146.547 55.7854 156.091 36.0128C156.808 34.5271 157.551 33.0534 158.295 31.547C164.271 33.8216 170.087 36.0348 176.02 38.2928C164.948 63.1622 149.959 85.3254 130.136 104.721C129.293 104.989 128.998 105.103 128.703 105.218C129.097 105.421 129.49 105.624 129.884 105.827C129.955 106.278 130.026 106.728 129.614 107.604C128.756 109.71 128.055 111.39 128.053 113.071C127.996 174.614 127.995 236.158 128.046 297.701C128.047 299.418 128.694 301.135 129.04 302.852C125.753 311.705 117.771 314.772 108.229 310.097C106.539 308.333 105.103 307.225 103.667 306.116C103.667 306.116 103.856 305.947 103.873 305.606C103.594 301.647 103.05 298.03 103.042 294.411C102.974 262.946 103.027 231.482 102.943 200.017C102.938 198.014 102.089 196.013 101.632 194.011C101.771 193.708 102.007 193.566 102.467 193.179C102.107 192.524 101.618 192.275 101.13 192.026C101.13 192.026 101.042 191.988 101.018 191.647C98.9161 190.513 96.8375 189.719 94.2005 188.712C94.2005 192.365 94.2007 195.152 94.2005 197.938C94.1986 230.174 94.1818 262.41 94.2353 294.646C94.2381 296.389 94.8293 298.13 95.1465 299.871C95.1675 300.039 95.1885 300.206 94.8198 300.682C90.6878 301.514 93.8366 302.858 94.0892 303.857C89.2338 312.975 81.3362 315.111 72.0817 309.066C70.3167 306.186 68.6807 304.013 67.0447 301.84C66.8435 301.45 66.6423 301.059 66.8486 300.093C67.5046 298.079 67.9694 296.642 67.9702 295.205C68.0066 233.626 68.0141 172.046 67.9326 110.467C67.9305 108.872 66.8988 107.278 66.3473 105.683Z" fill="#131514"/>
<path d="M77.0215 37.8702C83.6821 32.2056 90.7304 27.8589 100.112 28.5651C114.017 29.6118 125.292 41.5914 124.939 55.489C124.575 69.8382 112.951 81.5371 98.8066 81.7906C84.5953 82.0452 72.6957 71.1594 71.7432 57.2133C71.2682 50.2579 73.1069 44.0883 77.134 38.1776C77.0367 37.8178 77.0215 37.8702 77.0215 37.8702Z" fill="#131514"/>
<path d="M77.0648 37.8138C76.0748 38.3355 74.7438 38.6179 74.1069 39.4388C72.8758 41.0255 72.036 42.9158 70.8228 45.0523C68.1477 33.3087 72.5779 22.5418 82.2737 16.2912C92.4641 9.72197 106.317 10.1628 115.939 17.3626C124.937 24.0952 128.778 34.7654 126.188 43.8875C121.973 39.5896 118.001 33.9739 112.659 30.413C100.686 22.4311 82.5756 26.3799 76.6157 37.6698C77.0222 37.8702 77.0374 37.8178 77.0648 37.8138Z" fill="#141514"/>
<path d="M173.045 0.662537C181.824 -1.09616 187.563 4.78864 185.255 12.8159C183.933 17.4129 182.367 21.9403 180.87 26.4855C180.619 27.2481 180.157 27.9413 179.391 29.4662C173.616 27.316 167.862 25.1736 162.016 22.997C163.886 17.123 165.196 11.8393 167.305 6.89627C168.317 4.52365 170.84 2.79514 173.045 0.662537Z" fill="#161616"/>
<path d="M13.7501 21.1463C12.7017 17.7685 11.5166 14.8163 10.9252 11.7495C9.81563 5.99567 12.5235 1.79908 17.9065 0.319831C22.6084 -0.972222 27.2567 1.73215 29.082 6.95557C30.8271 11.9496 32.4466 16.9875 34.4107 22.8734C28.6374 25.0765 22.8779 27.2742 16.768 29.6057C15.633 26.4265 14.7572 23.9734 13.7501 21.1463Z" fill="#141514"/>
<path d="M177.139 35.8181C169.205 32.4104 161.612 29.2197 154.232 25.5938C152.108 24.5497 150.371 22.4304 148.851 20.4942C144.716 15.2249 145.82 11.6132 152.706 7.49835C152.031 5.78653 151.343 4.03934 150.28 1.33936C154.913 3.26504 158.605 4.79965 162.585 6.45422C160.935 10.4807 159.441 14.1254 157.665 18.4576C156.527 16.3195 155.672 14.714 154.82 13.1141C150.623 14.0453 150.177 14.7906 152.924 17.7775C160.711 26.2445 170.966 29.8909 181.967 31.5946C185.029 32.0688 188.286 31.2858 193.03 30.9769C190.346 27.3851 188.728 25.2187 186.859 22.7179C187.504 21.8468 188.353 20.7003 190.113 18.3238C192.417 22.2878 194.873 25.3682 196.063 28.8779C197.285 32.4847 194.719 35.2791 191.314 35.7254C186.8 36.3171 182.151 35.8701 177.139 35.8181Z" fill="#161616"/>
<path d="M129.291 302.516C128.693 301.135 128.046 299.418 128.045 297.701C127.994 236.158 127.995 174.614 128.052 113.071C128.054 111.39 128.755 109.71 129.522 107.937C129.969 116.169 130.07 124.494 130.072 132.819C130.087 186.794 130.088 240.769 130.058 294.744C130.057 297.222 129.722 299.701 129.291 302.516Z" fill="#040605"/>
<path d="M66.2692 106.094C66.8984 107.278 67.9301 108.872 67.9322 110.467C68.0137 172.046 68.0062 233.626 67.9698 295.206C67.969 296.643 67.5042 298.079 66.8797 299.764C66.3855 298.694 66.1644 297.377 66.1644 296.06C66.1614 232.875 66.1776 169.69 66.2692 106.094Z" fill="#040605"/>
<path d="M95.3217 299.499C94.8281 298.13 94.2369 296.389 94.2341 294.646C94.1806 262.41 94.1974 230.174 94.1993 197.938C94.1995 195.152 94.1993 192.365 94.1993 188.712C96.8363 189.719 98.9149 190.513 100.98 191.616C99.3771 191.787 97.7873 191.649 95.7598 191.472C95.7598 193.425 95.7604 194.884 95.7598 196.342C95.7465 228.946 95.7364 261.55 95.7105 294.154C95.7091 295.812 95.572 297.47 95.3217 299.499Z" fill="#3A3E3F"/>
<path d="M101.338 194.223C102.089 196.013 102.938 198.014 102.943 200.017C103.027 231.482 102.974 262.946 103.043 294.411C103.05 298.03 103.594 301.647 103.802 305.711C102.8 303.408 101.103 300.663 101.09 297.91C100.933 263.418 101.019 228.926 101.338 194.223Z" fill="#040605"/>
<path d="M114.524 92.1846C114.074 92.8147 113.174 93.7622 112.265 93.771C102.533 93.865 92.8009 93.8236 83.0691 93.7653C82.474 93.7617 81.8816 93.3028 81.043 92.6731C91.8889 92.2157 102.98 92.141 114.524 92.1846Z" fill="#040605"/>
<path d="M129.965 105.592C129.49 105.624 129.097 105.421 128.703 105.218C128.998 105.103 129.293 104.988 129.841 104.87C130.095 104.866 130.045 105.358 129.965 105.592Z" fill="#040605"/>
<path d="M101.166 192.484C101.618 192.275 102.107 192.524 102.683 193.198C102.248 193.395 101.725 193.169 101.166 192.484Z" fill="#040605"/>
</svg>
