<svg width="192" height="307" viewBox="0 0 192 307" fill="none" xmlns="http://www.w3.org/2000/svg">
<path d="M3.33324e-09 27.4286C2.0769 24.5369 4.1538 22.0736 6.45227 19.3475C7.672 20.8371 8.48325 21.8279 9.27704 22.7973C7.58052 25.1581 6.00454 27.3511 3.89322 30.2891C6.40313 30.9805 8.06911 31.8708 9.70697 31.8218C21.9291 31.456 32.7649 27.3416 41.7598 18.9833C45.0138 15.9597 44.6683 14.906 40.7172 13.2403C39.9594 14.7663 39.1921 16.3114 37.9637 18.7851C36.1804 14.5202 34.7038 10.9886 33.0433 7.01736C36.5798 5.5849 39.9218 4.2312 43.6186 2.91895C43.9733 2.96039 43.9368 2.89453 43.9368 2.89453C43.6655 4.59598 43.3943 6.29742 43.1107 8.0766C50.6319 13.2435 50.9588 17.4357 43.6447 23.7625C34.3184 31.8299 23.2151 36.0502 10.9899 36.457C7.61026 36.5694 4.14314 34.0522 0.358084 32.8709C-9.23872e-07 31.2858 -9.96667e-07 29.5715 3.33324e-09 27.4286Z" fill="#0E0E0E"/>
<path d="M64.8309 240C64.8309 195.68 64.8012 151.859 64.8921 108.039C64.8987 104.834 64.0733 102.522 61.7723 100.181C44.3804 82.4841 29.7647 60.613 20.0938 38.2022C25.5844 36.0728 31.0761 33.9429 37.1383 31.5918C37.7201 32.7446 38.4578 34.1512 39.1475 35.581C48.5482 55.0688 60.6034 72.7216 75.8716 88.0795C77.3957 89.6125 80.0584 90.7095 82.2324 90.7797C91.3867 91.0755 100.561 91.0723 109.716 90.7823C111.897 90.7132 114.572 89.6595 116.101 88.1364C131.936 72.3587 144.149 54.019 153.743 33.8843C154.088 33.1593 154.455 32.4447 154.868 31.6127C160.557 33.7822 166.058 35.8799 172.149 38.203C169.84 42.8442 167.594 47.5748 165.161 52.207C155.971 69.7015 144.559 85.6216 130.731 99.7361C128.203 102.317 127.116 104.773 127.122 108.407C127.236 168.556 127.212 228.704 127.171 288.853C127.169 291.486 127.152 294.264 126.361 296.724C124.213 303.394 117.719 307.044 110.597 306.028C104.039 305.092 98.9367 299.581 98.8658 292.557C98.6842 274.564 98.7675 256.569 98.7575 238.575C98.7483 221.929 98.7556 205.284 98.7556 188.178C97.0055 188.041 95.4604 187.921 93.295 187.752C93.295 189.917 93.2949 191.689 93.295 193.461C93.2956 225.785 93.327 258.108 93.2776 290.432C93.2634 299.708 88.1336 305.681 80.0902 306.136C71.3516 306.631 64.9349 300.623 64.8692 291.484C64.747 274.49 64.8321 257.495 64.8309 240Z" fill="#010101"/>
<path d="M70.0156 54.9755C70.696 40.1737 80.4779 29.6866 94.1024 28.7113C107.591 27.7456 119.201 36.7711 121.734 50.1918C124.087 62.6527 116.216 75.4257 103.754 79.3717C87.4309 84.5402 71.5354 73.2527 70.0156 54.9755Z" fill="#030303"/>
<path d="M16.7327 1.23807C24.33 0.663023 26.9391 2.48059 29.0453 9.38769C29.7195 11.5986 30.4188 13.8029 31.1582 15.9927C31.8427 18.0196 32.5962 20.0231 33.6543 22.9698C27.9559 25.1779 22.3953 27.3327 16.2265 29.7231C14.1776 23.2594 12.0348 17.557 10.6119 11.6803C9.44531 6.86203 11.9513 3.4238 16.7327 1.23807Z" fill="#060606"/>
<path d="M163.783 6.93964C167.313 1.12305 171.44 -0.509123 176.282 1.68863C180.853 3.76291 182.653 8.11572 180.979 13.7979C179.491 18.8462 177.71 23.8081 175.795 29.6051C169.833 27.3635 164.236 25.2592 158.494 23.1001C160.383 17.3122 162.016 12.3063 163.783 6.93964Z" fill="#060606"/>
<path d="M155.459 5.52283C157.911 6.2988 159.46 7.01227 157.972 9.7681C156.574 12.3581 155.6 15.1767 154.153 18.5655C152.976 16.4237 152.098 14.8246 151.228 13.2415C147.349 14.919 147.088 15.5888 149.975 18.5939C156.79 25.6866 165.486 29.3336 174.95 31.0019C178.838 31.6874 182.948 31.1154 188.635 31.1154C186.2 27.6384 184.666 25.4492 182.856 22.8656C183.452 22.0521 184.288 20.9114 185.244 19.6078C189.228 22.998 193.177 26.1234 191.667 31.8011C190.723 35.3523 185.279 37.2083 179.019 36.4902C167.013 35.113 156.078 31.0651 147.209 22.6364C141.058 16.7906 141.803 12.3692 149.24 8.21255C148.658 6.5322 148.065 4.82431 147.208 2.35498C150.151 3.46204 152.645 4.4003 155.459 5.52283Z" fill="#0E0E0E"/>
<path d="M43.9958 2.99045C44.188 2.82971 44.3578 2.63873 44.5277 2.44775C44.448 2.69473 44.3684 2.94171 44.1128 3.04153C43.9369 2.89438 43.9734 2.96024 43.9958 2.99045Z" fill="#0E0E0E"/>
</svg>
