<svg width="150" height="331" viewBox="0 0 150 331" fill="none" xmlns="http://www.w3.org/2000/svg">
<path d="M65 283C58.5 283.5 45.685 284.408 36.5009 287C36.0708 285.694 37.9213 284.806 37.4912 283.5C44.7388 269.717 57.1826 277.751 67.6413 269.554C68.6813 261.817 69.8719 252.962 71.1888 243.167C62.1739 240.9 53.8767 238.813 45.0154 236.584C46.3407 229.612 47.433 223.866 48.928 216C66.3392 216 83.9275 216 102.192 216C103.6 222.69 104.882 228.78 106.521 236.563C97.9011 238.704 89.9104 240.688 80.4099 243.048C81.5649 251.964 82.7016 260.741 83.8143 269.332C93.8756 277.964 109.842 271.215 116.5 289C104.844 285.841 96.4703 287.06 81.4907 283C81.9907 290.5 82.6218 295.544 83.5565 302.854C84.1717 307.665 83.8683 314.928 81.4335 317.386C79.0377 319.805 72.0541 319.419 69.6361 316.799C67.3484 314.319 67.6187 307.219 68.1378 302.368C68.7774 296.391 68.0965 290.971 68.9907 285C69.0955 284.3 67.9192 283.459 65 283Z" fill="#222222"/>
<path d="M103.708 54.6524C103.027 55.7284 101.957 56.4951 100.733 56.8483C93.3645 58.9751 87.042 62.3071 82.5013 68.708C75.9335 77.9665 75.1831 90.891 81.7526 100.094C84.6995 104.223 86.2019 107.896 84.7397 112.766C84.6579 113.038 84.5948 113.316 84.5452 113.601C84.1026 116.146 86.1714 118.496 88.713 118.955C97.8944 120.613 107.003 122.268 116.136 123.784C116.875 123.906 118.088 122.792 118.659 121.963C119.878 120.193 120.916 118.278 121.86 116.341C125.042 109.812 128.306 103.317 131.245 96.68C134.971 88.2659 134.497 79.926 130.341 71.678C127.828 66.69 125.664 61.5251 123.395 56.4162C122.317 53.9883 121.857 51.1116 120.266 49.1168C113.944 41.1889 116.253 34.4126 122.341 27.7961C122.902 27.186 123.41 26.5267 123.914 25.8192C125.189 24.028 127.897 23.9402 129.022 25.8292V25.8292C140.369 44.8662 147.89 65.1151 147.51 87.5981C147.189 106.623 141.138 123.756 129.53 138.955C127.623 141.452 126.199 144.679 125.618 147.769C122.391 164.93 118.854 182.074 116.734 199.385C115.585 208.763 116.256 203.975 116.7 212.778C116.723 213.253 116.809 213.721 116.965 214.17C127.356 244.249 148.042 286.189 149.334 315.097C149.718 323.666 143.67 330.087 135.562 330.306C127.134 330.534 121.102 324.545 120.682 315.617C119.157 283.224 104.655 257.162 89.0218 219.858C88.3657 218.292 86.9574 217.189 85.26 217.208C80.841 217.26 73.1077 218.001 68.0562 218.136C65.6887 218.199 63.3598 219.579 62.4602 221.77C57.0919 234.843 54.7558 239.796 50.5 251.5C44.5 268 34.0945 291.498 27.6647 312.267C25.5905 318.966 20.0587 322.524 13.2357 322.232C6.89939 321.961 1.38639 317.629 0.23439 311.149C-0.29241 308.186 0.115691 304.807 0.990791 301.883C12.2702 264.196 41.3296 211.655 46.6234 193C50.8244 178.196 56.5975 164.757 59 149.5C61.7124 132.275 65.3961 114.597 68.7605 97.516C75.6434 62.5736 92.3403 32.0936 114.001 4.17939C117.671 -0.549249 122.91 -1.23983 127.166 1.97799C131.554 5.29499 131.875 10.5837 128.562 15.6766C120.222 28.4974 112.072 41.4422 103.708 54.6524Z" fill="#030303"/>
<path d="M82.0727 73.7247C88.6952 62.2784 99.683 57.0818 111.076 59.7759C122.719 62.5292 130.834 72.0297 131.539 83.7352C132.22 95.019 125.101 105.82 114.215 109.581C104.007 113.108 94.7168 111.054 87.1599 103.46C78.7831 95.042 77.4928 84.9596 82.0727 73.7247ZM90.8949 84.4389C99.361 90.379 108.65 92.531 118.748 90.046C122.372 89.1545 125.776 87.4975 127.148 82.1217C119.995 87.9752 112.623 87.9563 105.214 86.6492C97.645 85.3138 90.9419 82.1718 86.754 75.0005C86.2872 75.379 85.8204 75.7575 85.3536 76.136C87.0055 78.7609 88.6573 81.3859 90.8949 84.4389Z" fill="#040404"/>
<path d="M46.5425 89.6189C48.6232 68.378 56.4048 50.0984 71.2717 34.3337C69.1061 32.5194 67.024 30.7751 64.1648 28.3796C69.8688 27.6926 74.8002 27.0987 80.3707 26.4277C80.965 31.6077 81.5399 36.6196 82.2269 42.6077C79.4447 40.5887 77.381 39.091 75.0455 37.3961C59.1941 53.368 52.2446 73.085 50.6835 95.161C44.6491 97.067 46.5531 92.768 46.5425 89.6189Z" fill="#0E0E0E"/>
<path d="M90.6019 84.2249C88.6572 81.3859 87.0054 78.761 85.3535 76.136C85.8203 75.7575 86.2871 75.379 86.7539 75.0005C90.9418 82.1718 97.6449 85.3138 105.214 86.6492C112.623 87.9563 119.995 87.9752 127.148 82.1217C125.776 87.4975 122.372 89.1545 118.748 90.046C108.65 92.531 99.36 90.379 90.6019 84.2249Z" fill="#E8E8E8"/>
</svg>
