<svg width="835" height="835" viewBox="0 0 835 835" fill="none" xmlns="http://www.w3.org/2000/svg">
<path d="M296.703 764.814C315.586 751.552 332.271 736.184 349.451 721.42C357.059 714.882 365.04 708.98 374.188 704.658C392.722 695.902 410.157 699.604 427.223 708.802C427.369 708.881 427.525 708.947 427.663 709.038C441.099 717.95 455.157 721.21 471.666 718.404C499.251 713.716 526.902 709.712 553.325 700.11C560.82 697.387 568 693.789 575.302 690.542C576.462 690.027 577.731 689.488 578.193 688.059C576.596 686.271 574.899 687.499 573.476 687.848C541.604 695.664 509.37 701.462 476.798 705.403C472.669 705.903 468.484 705.992 464.378 706.621C453.741 708.25 444.857 703.9 436.143 698.748C426.924 693.298 417.329 688.783 406.713 686.68C387.668 682.906 370.796 688.75 354.974 698.571C341.3 707.059 329.801 718.301 318.347 729.438C302.278 745.063 283.622 756.807 264.187 767.592C249.923 775.508 235.468 783.174 222.652 793.422C219.645 795.826 216.075 795.567 212.683 796.103C175.296 802.014 138.383 800.575 102.159 788.795C96.6013 786.988 91.3348 784.516 86.04 782.065C52.252 766.422 38.982 723.533 61.2506 689.499C75.401 667.873 95.4822 654.649 119.292 645.918C146.986 635.763 175.533 628.355 203.499 619.096C227.254 611.232 250.837 602.906 271.575 588.434C286.485 578.03 297.939 564.954 301.301 546.318C301.741 543.881 301.878 541.36 301.878 538.878C301.878 515.547 302.207 492.206 301.647 468.887C301.226 451.397 301.192 433.909 300.904 416.421C300.883 415.129 301.106 413.766 300.04 412.419C297.57 413.195 297.192 415.536 296.347 417.322C284.869 441.559 273.186 465.706 262.142 490.14C255.968 503.801 246.857 514.21 234.427 522.647C175.161 562.877 116.187 603.536 57.1101 644.044C44.7391 652.527 31.6612 653.852 18.4853 646.621C5.8867 639.707 -0.445465 628.438 0.0243609 614.079C0.411156 602.258 5.99598 592.905 15.6314 585.824C54.435 557.311 93.154 528.682 131.9 500.091C146.648 489.208 161.32 478.22 176.156 467.459C183.846 461.88 189.156 454.562 192.594 445.909C215.466 388.345 238.236 330.739 261.033 273.145C261.891 270.978 262.699 268.79 263.51 266.605C269.039 251.706 279.348 241.811 294.556 237.157C307.967 233.052 321.809 231.3 335.641 229.182C362.406 225.082 389.305 223.754 416.279 223.755C438.576 223.756 460.861 224.496 483.098 226.771C503.985 228.907 524.687 231.823 545.115 236.723C561.083 240.553 571.466 250.704 577.148 265.56C598.379 321.074 619.317 376.7 640.397 432.272C644.282 442.515 647.096 453.311 654.866 461.635C656.45 463.332 658.088 465.033 659.934 466.422C712.393 505.897 764.824 545.408 817.414 584.707C827.681 592.38 834.265 601.876 834.404 614.803C834.558 629.18 828.045 640.3 815.283 646.952C802.558 653.585 789.663 652.81 777.994 644.356C743.455 619.33 709.126 594.012 674.712 568.814C649.439 550.31 624.226 531.723 598.85 513.362C589.702 506.742 582.79 498.484 577.943 488.352C566.227 463.859 554.467 439.388 542.683 414.928C541.848 413.196 541.412 411.087 538.651 409.912C536.583 414.397 537.005 419.286 536.713 423.795C535.039 449.702 533.961 475.647 532.295 501.555C531.513 513.706 531.21 525.85 531.419 537.998C531.72 555.472 540.089 569.165 552.723 580.465C568.776 594.823 588.102 603.441 607.921 611.063C636.701 622.132 666.624 629.652 695.881 639.241C710.93 644.173 725.846 649.49 739.636 657.423C756.906 667.358 769.888 681.5 778.269 699.458C791.446 727.695 781.71 761.009 755.437 779.413C737.507 791.972 717.01 797.424 695.766 800.659C668.129 804.868 640.369 804.466 612.556 802.877C595.268 801.889 577.953 801.267 560.642 800.792C530.502 799.965 500.374 798.891 470.216 798.496C419.468 797.831 369.56 803.36 320.424 816.107C296.752 822.247 272.982 828.012 249.256 833.944C248.61 834.106 247.963 834.278 247.306 834.383C239.047 835.703 233.034 833.563 230.16 828.291C226.439 821.469 227.146 812.411 232.005 806.747C237.97 799.795 245.762 795.207 253.518 790.649C267.878 782.212 282.642 774.453 296.703 764.814Z" fill="black"/>
<path d="M336.323 45.5452C351.498 21.6314 372.585 7.04431 400.121 1.66133C449.428 -7.97742 499.523 25.3713 509.397 74.5765C520.107 127.945 486.317 177.747 432.852 187.395C383.856 196.236 334.643 162.611 324.891 113.697C320.096 89.6447 323.926 67.0652 336.323 45.5452Z" fill="black"/>
</svg>
