<svg width="137" height="275" viewBox="0 0 137 275" fill="none" xmlns="http://www.w3.org/2000/svg">
<path d="M31.8212 56.4485C34.4976 53.6183 36.9957 50.8371 39.6243 47.9104C36.9199 45.1911 34.304 42.5609 31.1878 39.4277C31.1088 41.9859 36.5 45.9565 30.9863 45.9565C19.8019 46.3538 10.2317 42.3063 3.5 33.5C1.84277 31.332 2.66034 30.9687 0.0972485 32.3483C4.05922 41.9274 14.2608 47.7495 30.9672 49.876C35 50.3893 31.1243 53.9565 31.2447 56.3052C31.2859 56.5954 31.6427 56.4975 31.8212 56.4485Z" fill="black" fill-opacity="0.4"/>
<path d="M95.046 90.9563C95.0518 146.681 95.0587 202.002 95.027 257.323C95.0255 259.801 95.0614 262.385 94.4101 264.735C92.5906 271.298 86.2785 275.483 79.6114 274.932C72.9074 274.378 67.5992 269.295 66.6973 262.458C66.4807 260.816 66.4987 259.136 66.4982 257.474C66.4884 225.647 66.4921 193.821 66.4929 161.995C66.493 160.347 66.4929 158.699 66.4929 156.717C64.6284 156.717 63.0904 156.717 61.103 156.717C61.103 158.686 61.103 160.479 61.103 162.272C61.1024 194.764 61.1404 227.257 61.0797 259.75C61.0593 270.703 51.5983 277.702 41.9152 274.004C36.4793 271.929 33.2947 267.912 32.7512 262.042C32.5521 259.892 32.6359 257.714 32.6357 255.548C32.6308 200.394 32.6318 145.24 31.8054 89.6851C31.1999 91.1525 30.4843 92.5849 30.0064 94.0927C25.9398 106.922 24.8168 120.168 24.7343 133.52C24.6807 142.181 24.9777 150.845 25.1011 159.507C25.1905 165.781 21.8047 169.86 16.3736 170.061C10.8615 170.265 7.17519 166.665 6.77869 160.296C5.29376 136.442 5.2782 112.669 12.041 89.4423C14.5771 80.7321 18.4503 72.6685 25.309 66.3969C30.1631 61.9583 35.7969 59.5296 42.4817 59.5594C56.645 59.6225 70.8089 59.6148 84.9723 59.5597C96.0357 59.5168 103.36 65.6095 108.865 74.3232C115.864 85.4019 119.05 97.9033 119.845 110.734C120.853 126.994 120.798 143.325 120.948 159.628C121.011 166.47 116.893 170.441 110.987 170.034C105.378 169.646 102.225 165.298 102.541 158.727C103.441 140.066 103.749 121.412 99.942 102.984C99.0413 98.6235 97.4066 94.4146 96.1029 90.138C96.058 89.9908 95.9413 89.8654 95.8581 89.7299C95.5854 90.0043 95.3126 90.2786 95.046 90.9563Z" fill="#020202"/>
<path d="M69.9448 52.2014C54.7421 55.2881 40.8972 46.199 38.1758 31.7042C35.4856 17.3755 45.6795 3.1948 60.1339 1.15865C74.6992 -0.893147 87.912 9.43282 89.7726 24.3216C91.3127 36.6467 83.4091 47.9569 69.9448 52.2014ZM81.9427 26.496C82.9651 24.6554 83.9874 22.8147 85.0098 20.974C78.8301 27.0521 71.3657 28.5859 63.5781 28.539C55.9115 28.4928 48.5802 26.8605 43.0229 19.796C43.1956 25.0438 46.042 27.5792 49.6342 29.1146C60.5297 33.7717 71.2337 33.8355 81.9427 26.496Z" fill="#040404"/>
<path d="M61.6213 47.3501C59.833 47.2546 57.8109 46.1007 56.6265 44.7573V44.7573C54.6159 42.4766 55.389 39.4366 58.4234 39.2439C58.4913 39.2396 58.5607 39.2352 58.6315 39.2307C60.7386 39.2165 60.7386 39.2165 62.8881 39.2021C64.9996 39.1818 64.9996 39.1818 67.1537 39.1611V39.1611C68.9039 39.1558 70.3024 40.6969 69.9962 42.4201C69.9269 42.81 69.8455 43.2249 69.7363 43.7584C69.5248 44.791 68.9313 45.7317 67.9931 46.2124C65.8468 47.3121 63.8598 47.4696 61.6213 47.3501Z" fill="#EBEBEB"/>
<path d="M48.0155 87.3048C47.6665 83.6171 47.2112 80.1998 46.9768 76.7287C46.9183 75.8623 47.5717 74.8224 48.379 73.9503C52.6492 83.7012 50.9546 93.5667 44.5004 103.963C45.9317 103.613 46.9744 103.357 48.0181 103.102C49.1656 105.67 48.0407 106.403 39.2186 108.84C37.3649 103.131 37.7183 100.37 40.522 99.6564C40.7506 100.897 40.9815 102.15 41.2761 103.749C45.2993 98.5629 47.2783 93.2343 48.0155 87.3048Z" fill="white" fill-opacity="0.9"/>
<path d="M74.9826 88.886C75.4855 85.1695 76.0841 81.7109 76.4629 78.2232C76.5574 77.3526 75.9435 76.3884 75.1679 75.6085C70.4729 85.8082 71.7697 95.458 77.8292 105.107C76.4048 104.917 75.3671 104.778 74.3285 104.64C73.069 107.329 74.1696 107.935 82.9379 109.382C85.0369 103.482 84.7955 100.769 82.0063 100.369C81.7254 101.632 81.4416 102.907 81.0795 104.534C77.2488 99.8107 75.4791 94.7171 74.9826 88.886Z" fill="white" fill-opacity="0.9"/>
<path d="M60.5361 86.1724C61.0018 84.8619 61.4672 83.9309 61.9326 83C62.188 83.2493 62.4434 83.4985 62.6989 83.7478C62.6989 94.2829 62.6989 104.818 62.6989 115.068C63.907 115.202 64.9178 115.314 65.9286 115.427C65.9524 115.874 65.9762 116.32 66 116.767C64.6128 119.072 63.2255 121.378 61.6474 124C60.1767 121.36 58.8413 118.963 57 115.658C58.3353 115.35 59.3331 115.119 60.5359 114.841C60.5359 105.898 60.5359 96.2251 60.5361 86.1724Z" fill="white" fill-opacity="0.9"/>
<path d="M115.94 23.5C119 17.5 115.94 15 115.33 13.3806C115.286 11.9183 115.323 10.4536 115.94 9C125.608 19.4824 120.218 30.6892 102.973 37.6794C99 39 107.5 40.5 105.636 44.3753C101.544 41.9467 97.4685 39.528 93 36.8759C95.6266 32.4925 98.0575 28.4357 100.488 24.3795C104 27.5 95.4532 34.256 100.227 33.628C105 33 112.441 29.536 115.94 23.5Z" fill="black" fill-opacity="0.4"/>
<path d="M19.3943 34.1309C24 32 21.8144 30.575 23.058 29.0183C9.16252 23.7883 4.42652 17.6492 6.44448 5C7.98108 7.20328 9.43022 8.33659 9.53427 9.58229C10.2576 18.2417 16.2773 24.0632 25.4874 24.6622C27.1328 21.7422 19.1732 19.0872 25.5993 15.7328C26.9282 17.8779 28.2314 19.9514 29.5038 22.0437C30.7029 24.0152 31.8695 26.0064 33.2895 28.3902C29.3286 30.7466 25.6758 32.9998 21.9179 35.0614C21.4068 35.3417 20.37 34.6637 19.3943 34.1309Z" fill="black" fill-opacity="0.4"/>
<path d="M96.5004 49.4999C111.531 49.6297 125.603 41.4039 132.014 29.2631C132.702 27.9607 133.5 25.5 135.411 26.0599C136.5 27.5 135.6 29.4241 134.952 30.7409C127.501 45.8845 114.233 53.2832 96.5004 51.9999C96.4762 52.7431 96.5004 54.4999 97.9645 54.7431C97.9701 55.4078 98.0004 55.4999 98.0004 56.9999C93.8373 53.7389 90.0954 51.1873 85.6488 47.7043C90.9853 46.9973 95.5577 46.3916 99.538 45.8644C101.5 48.4999 95.0004 47.9999 96.5004 49.4999Z" fill="#131313" fill-opacity="0.4"/>
</svg>
