<svg width="537" height="572" viewBox="0 0 537 572" fill="none" xmlns="http://www.w3.org/2000/svg">
<path d="M328.587 385.849C331.983 420.454 335.368 455.06 338.778 489.663C340.35 505.617 341.969 521.566 342.885 538.493C329.906 542.516 317.611 545.564 305.315 548.611C299.373 523.977 293.378 499.356 287.504 474.707C282.06 451.859 276.747 428.981 270.977 404.418C269.288 404.418 265.191 404.418 259.43 404.425C209.998 404.413 162.229 404.204 114.463 404.498C101.054 404.581 88.5197 402.641 76.9423 394.569C66.9124 383.528 64.0034 367.201 64.5 353.5C71.6331 353.866 77.6937 354.421 84 355C111.07 357.484 137.371 356.94 159.572 338.365C160.95 335.114 161.725 332.163 163.233 329.255C186.905 336.211 209.803 343.267 232.802 349.978C245.827 353.779 259.016 357.014 272.777 360.715C278.546 361.49 283.671 362.039 288.792 362.626C292.893 363.096 297.835 362.336 300.908 364.375C307.191 368.545 313.023 368.902 320.052 366.403C323.239 373.134 325.913 379.492 328.587 385.849Z" fill="black"/>
<path d="M229.271 541.197C226.008 542.262 222.749 544.241 219.481 544.256C175.358 544.461 131.234 544.439 87.1104 544.276C84.4273 544.266 81.7504 542.597 78.4263 541.5C77.7819 541.301 77.8302 541.404 77.8416 540.776C77.1793 539.909 76.5056 539.67 75.8776 539.461C75.9232 539.489 75.9804 539.58 76.1103 538.944C75.4953 538.071 74.7504 537.835 74.0565 537.619C74.1075 537.639 74.2066 537.686 74.2066 537.686C68.5498 535.655 62.893 533.623 55.5844 530.998C60.4379 529.743 65.1392 527.541 69.8732 527.468C93.5382 527.106 117.212 527.303 141.513 527.303C141.513 500.516 141.513 474.291 141.513 447.014C125.81 447.014 110.411 447.013 95.0124 447.014C82.8538 447.016 70.693 447.17 58.5373 446.984C44.4989 446.769 35 434.5 31.5 426.5C31.2812 426 27.7867 417.5 27.7867 416.091C27 414.5 25.9789 409.624 25.1366 406.431C23.2721 399.364 20.7388 391.898 19.3657 385.582C17.5 377 16 372.5 14.5 363.5C13.9167 360 12.3521 353.608 11.5 350C10.7825 346.961 9.704 342.047 9 339C7.09239 330.745 4.9094 322.97 2.27701 314.906C-3.01494 298.696 3.31261 289.83 20.5507 289.678C22.6782 289.659 24.8061 289.685 28.2098 290.115C32.1685 300.988 34.8513 311.437 36.7546 321.973C33.9473 322.299 31.9195 322.539 30.5563 322.701C27.7398 331.98 34.6114 341.928 36.5 345.5C37.6114 348.428 39.5 352 40 355C40.5 358.5 42.2666 365 43 372.5C43.5887 379.629 45.5 387.5 51.2194 396.848C51.208 396.937 52.8337 397.236 53.3925 397.931C50.4022 402.817 47.7143 407.208 44.9299 412.335C45.7176 426.481 53.3568 433.491 67.4731 433.516C126.51 433.619 185.548 433.653 244.586 433.712C240.482 443.301 232.716 446.956 222.823 446.981C204.029 447.03 185.235 446.995 165.74 446.995C165.74 473.624 165.74 499.814 165.74 527.319C173.628 527.319 181.671 527.322 189.714 527.318C205.791 527.309 221.874 527.035 237.941 527.45C242.454 527.567 246.916 529.699 251.402 530.906C251.14 531.643 250.877 532.38 250.615 533.117C246.039 533.528 241.462 533.939 236.733 535.096C236.581 535.842 236.693 535.816 236.118 535.383C234.643 535.873 233.743 536.797 232.88 537.682C232.916 537.642 233.013 537.595 232.393 537.526C231.525 538.165 231.276 538.872 231.06 539.532C231.092 539.485 231.187 539.421 230.592 539.352C229.724 539.989 229.452 540.697 229.205 541.353C229.23 541.302 229.271 541.197 229.271 541.197Z" fill="#3E4143"/>
<path d="M158.969 338.665C137.371 356.94 111.95 360.636 84.8807 358.152C78.5744 357.574 72.2459 357.237 64.706 356.359C63.0567 353.357 62.6289 350.786 62.7442 347.888C74.4124 340.615 76.4888 335.78 73.8501 323.419C72.272 316.026 71.0907 308.54 69.2964 301.202C65.2159 284.515 60.8671 267.893 56.4415 250.66C54.4492 247.87 52.6429 245.665 50.8366 243.459C50.3574 226.55 48.8424 209.589 49.6711 192.744C50.6279 173.294 54.1272 154.134 70.7375 140.595C74.7108 143.766 77.6273 147.649 81.4611 149.088C90.3108 152.41 99.6053 154.546 109.708 157.447C108.001 158.597 107.379 159.348 106.665 159.449C84.682 162.576 76.9388 182.954 84.955 203.272C100.735 243.267 116.613 283.226 132.085 323.34C135.678 332.653 139.962 339.217 151.435 336.921C153.737 336.461 156.447 338.031 158.969 338.665Z" fill="black"/>
<path d="M78.6722 113.886C73.3742 105.172 68.755 95.9438 62.6258 87.8599C52.3748 74.3398 47.9181 59.4841 53.2362 43.5467C55.8262 35.7847 62.0799 28.7027 68.1228 22.7931C73.8034 17.2377 81.4017 13.6494 88.1336 9.16158C105.148 -2.18092 122.943 -2.47503 140.723 6.54795C159.179 15.9144 168.932 31.6868 171.048 52.1383C171.156 53.185 168.879 54.4784 166.264 55.5833C161.32 56.3544 157.614 56.7167 154.367 58.1314C143.16 63.0146 131.871 66.7351 119.212 62.7663C117.067 70.2841 115.105 77.1648 113.134 84.0711C98.8733 78.8569 96.9896 80.6698 98.1424 95.7862C98.3709 98.7814 94.9814 102.053 92.6817 105.379C87.6261 108.337 83.1492 111.111 78.6722 113.886Z" fill="black"/>
<path d="M329.346 385.778C325.914 379.492 323.24 373.134 319.879 365.804C312.36 348.296 300.478 340.04 282.195 342.215C281.315 342.32 280.391 342.054 279.078 341.492C271.649 337.773 264.628 334.524 258.074 330.678C266.121 329.889 273.701 329.697 281.281 329.505C281.281 329.505 281.3 329.484 281.363 329.997C282.62 330.525 283.815 330.54 285.01 330.556C297.465 330.327 309.921 329.91 322.377 329.904C366.484 329.882 410.592 330.001 455.844 330.47C456.988 330.874 457.877 331.077 457.877 331.077L458.701 330.687C458.701 330.687 459.133 330.754 459.099 331.692C458.272 339.389 457.478 346.149 456.446 353.542C454.336 358.704 452.464 363.232 450.592 367.759C423.311 371.688 396.021 375.557 368.752 379.572C355.848 381.472 342.985 383.653 329.346 385.778Z" fill="black"/>
<path d="M523.253 434.486C518.434 473.645 502.725 506.775 475.646 534.837C478.281 537.922 480.77 540.836 483.608 544.159C466.52 550.632 449.93 556.917 430.994 564.089C438.134 546.019 444.487 529.94 451.06 513.305C454.816 516.302 457.823 518.702 461.156 521.361C492.202 489.759 506.695 452.407 504.426 407.981C500.057 407.746 496.517 407.556 491.69 407.297C498.306 390.288 504.716 373.809 511.796 355.606C520.401 373.034 528.217 388.864 536.506 405.652C532.268 406.09 528.852 406.443 524.601 406.883C524.203 415.709 523.797 424.69 523.253 434.486Z" fill="black"/>
<path d="M244.225 433.693C184.547 433.653 125.51 433.619 66.4724 433.516C52.3561 433.492 44.7169 426.482 44.7698 412.399C117.432 411.759 189.156 411.79 260.881 411.822C261.568 424.152 258.034 428.973 244.225 433.693Z" fill="#7D8588"/>
<path d="M93.2598 105.197C94.9808 102.053 98.3703 98.7817 98.1418 95.7865C96.989 80.6701 98.8727 78.8572 113.134 84.0715C115.104 77.1652 117.067 70.2844 119.212 62.7666C131.871 66.7354 143.159 63.0149 154.367 58.1317C157.614 56.717 161.319 56.3547 165.537 55.668C166.255 61.8824 165.338 68.1066 166.416 73.9641C169.794 92.325 160.417 107.109 152.991 122.136C150.212 127.759 143.24 131.311 136.962 135.613C129.814 132.441 123.323 130.216 118.081 126.315C109.384 119.843 101.491 112.293 93.2598 105.197ZM140.128 75.9069C142.553 76.8102 144.918 78.1216 147.422 78.4919C149.545 78.8061 151.952 78.3464 153.973 77.5599C154.626 77.3058 155.077 74.0666 154.545 73.6819C152.756 72.3896 150.231 70.7008 148.448 71.1201C145.06 71.917 141.991 74.0673 138.776 75.9483L138.649 75.9133C138.649 75.9133 138.724 75.5647 140.128 75.9069Z" fill="#EFE2CF"/>
<path d="M281.325 328.848C273.7 329.697 266.12 329.889 257.447 330.523C233.87 320.236 211.244 309.788 189.026 298.534C184.742 296.365 180.708 291.586 178.877 287.071C172.495 271.33 166.915 255.249 161.431 239.161C154.293 218.218 147.539 197.145 141.215 176.386C150.077 196.575 158.344 216.506 167.124 237.676C168.055 228.197 168.743 219.209 169.5 211.5C174.587 229.274 179.993 248.263 184.7 266.137C186.453 272.797 189.704 276.994 195.896 280.282C222.169 294.23 248.166 308.7 274.216 323.065C276.767 324.472 278.993 326.468 281.325 328.848Z" fill="black"/>
<path d="M163 348.5C159.875 348.166 145.303 355.539 143 356C131.528 358.296 135.678 332.653 132.085 323.34C116.612 283.226 100.735 243.267 84.9549 203.272C76.9387 182.955 84.6819 162.576 106.665 159.45C107.379 159.348 108.001 158.598 109.708 157.448C99.6052 154.546 90.3107 152.41 81.461 149.088C77.6272 147.649 74.7107 143.767 71.2969 140.354C72.0848 139.032 72.9533 138.35 74.7818 137.971C92.074 149.22 110.953 151.298 129.743 153.282C131.437 153.461 133.791 149.582 135.444 147.301C136.847 145.366 137.679 143.018 138.763 140.853C139.053 141.02 139.344 141.187 140.117 142.266C143.146 149.322 142.704 154.758 135.438 156.665C130.174 158.047 124.536 158.007 119.064 158.6C119.494 158.092 119.925 157.583 120.355 157.075C125.297 161.008 130.239 164.94 134.578 168.62C130.71 166.754 127.559 164.825 124.157 163.586C113.026 159.535 98.6072 163.081 90.8605 172.033C82.7174 181.443 84.6061 191.57 89.5281 201.754C106.706 237.297 124.117 272.731 140.815 308.497C145.539 318.614 164.359 324.192 176 326.5C175.225 329.451 164.378 345.249 163 348.5Z" fill="black"/>
<path d="M304.896 549.153C317.611 545.564 329.906 542.516 342.908 539.283C358.485 545.933 373.47 552.537 388.134 559.789C391.295 561.352 393.299 565.252 395.836 568.076C395.168 569.14 394.5 570.204 393.832 571.268C362.741 569.625 331.651 567.982 299.332 566.274C301.168 560.357 302.822 555.025 304.896 549.153Z" fill="#222221"/>
<path d="M260.947 411.206C189.157 411.79 117.432 411.759 44.8672 411.663C46.7144 407.208 49.4023 402.817 53.1528 397.735C61.8709 396.417 69.5265 395.791 77.182 395.165C88.5205 402.641 101.055 404.581 114.464 404.498C162.23 404.204 209.999 404.413 258.626 404.545C259.994 406.635 260.503 408.613 260.947 411.206Z" fill="#A2ABB1"/>
<path d="M450.879 368.362C452.463 363.232 454.336 358.704 456.928 353.194C460.335 345.274 463.023 338.336 465.711 331.399C468.227 328.954 470.38 325.883 473.324 324.174C484.613 317.623 496.428 311.947 507.49 305.051C513.223 301.477 516.144 303.594 519.986 308.024C499.931 331.858 480.027 355.512 459.419 380.003C456.42 375.992 453.794 372.479 450.879 368.362Z" fill="#222221"/>
<path d="M138.519 140.378C137.678 143.018 136.846 145.366 135.444 147.301C133.791 149.582 131.437 153.461 129.742 153.282C110.953 151.298 92.0733 149.22 75.3066 137.773C76.2194 129.933 77.5667 122.594 78.7923 114.571C83.1476 111.112 87.6245 108.337 92.6801 105.379C101.49 112.293 109.383 119.843 118.08 126.315C123.322 130.216 129.813 132.44 136.311 135.682C137.344 137.264 137.81 138.584 138.519 140.378Z" fill="#DBD1BF"/>
<path d="M135.181 168.873C130.239 164.94 125.297 161.007 120.355 157.075C119.925 157.583 119.495 158.091 119.064 158.6C124.536 158.006 130.174 158.047 135.439 156.665C142.705 154.758 143.147 149.322 140.558 142.507C155.472 150.178 159.746 165.407 164.094 180.065C167.079 190.128 167.837 200.852 169.58 212.03C168.813 220.488 168.056 228.197 167.125 237.676C158.344 216.506 150.078 196.575 141.226 176.398C140.641 176.152 140.66 176.178 140.699 175.524C139.479 173.46 138.22 172.051 136.976 170.657C136.99 170.673 137.021 170.704 136.878 170.242C136.201 169.458 135.666 169.136 135.144 168.828C135.157 168.841 135.181 168.873 135.181 168.873Z" fill="black"/>
<path d="M50.1627 243.233C52.6421 245.665 54.4484 247.87 55.6629 250.586C36.2593 250.878 29.035 260.269 33.186 278.75C38.2024 301.084 42.775 323.518 46.9456 345.687C38.2343 339.623 38.0118 330.493 36.5328 321.886C33.85 311.437 31.1672 300.988 28.0357 290.065C26.3208 281.901 25.8353 273.976 23.6242 266.567C19.1477 251.567 31.7455 236.47 50.1627 243.233Z" fill="#A2ABB1"/>
<path d="M235.53 535.871C237.188 535.928 238.898 536.009 240.605 535.976C249.945 535.798 256.579 542.07 256.293 550.838C256.037 558.711 249.07 565.179 241.331 564.728C232.789 564.231 227.056 556.814 228.19 547.549C228.406 545.781 229.164 544.078 228.971 541.771C228.269 541.197 228.229 541.302 228.955 541.724C229.849 541.237 230.018 540.329 230.186 539.421C230.186 539.421 230.091 539.485 230.804 539.861C231.681 539.357 231.846 538.476 232.011 537.595C232.011 537.595 231.915 537.642 232.407 538.259C233.83 537.856 234.761 536.836 235.692 535.816C235.692 535.816 235.579 535.842 235.53 535.871Z" fill="#3D4041"/>
<path d="M76.7595 541.248C76.7552 543.045 76.5373 544.933 76.833 546.736C78.043 554.116 75.9315 559.897 68.9474 563.229C62.2738 566.413 55.3801 564.982 52.2867 559.002C49.94 554.466 49.6055 547.122 51.6682 542.495C54.5955 535.928 61.5565 534.2 68.7562 537.26C69.8638 537.731 70.9369 538.283 72.6163 538.242C73.2067 537.686 73.1075 537.639 72.7529 538.348C73.2589 539.231 74.1197 539.406 74.9804 539.58C74.9804 539.58 74.9232 539.489 74.5736 540.218C75.0927 541.099 75.9615 541.252 76.8302 541.404C76.8302 541.404 76.782 541.301 76.7595 541.248Z" fill="#3D4041"/>
<path d="M465.076 331.367C463.022 338.336 460.334 345.274 457.164 352.56C457.476 346.149 458.27 339.389 459.261 331.837C461.119 331.141 462.78 331.238 465.076 331.367Z" fill="#D7D7D7"/>
<path d="M284.44 330.243C283.814 330.54 282.619 330.525 281.377 329.995C282.177 329.631 283.024 329.781 284.44 330.243Z" fill="#5A82A4"/>
<path d="M458.423 330.304C458.699 330.687 457.875 331.077 457.875 331.077C457.875 331.077 456.986 330.874 456.686 330.531C456.972 330.099 457.559 330.01 458.423 330.304Z" fill="#5A82A4"/>
<path d="M163.233 329.255C150.859 326.903 145.539 318.614 140.816 308.497C124.118 272.73 106.706 237.296 89.5284 201.754C84.6064 191.57 82.7176 181.442 90.8608 172.032C98.6075 163.08 114.369 155.949 125.5 160C128.902 161.238 130.632 164.634 134.5 166.5C135.102 166.753 136.343 167.073 136.5 167.5C137.174 168.263 137.983 169.664 138.5 170C138.5 170 139.956 170.428 140 171C141.238 173.026 139.806 172.547 141 174C141 174 142.011 175.512 142 175.5C148.909 196.505 154.294 218.218 161.432 239.16C166.915 255.249 172.495 271.329 178.877 287.071C180.708 291.586 184.742 296.365 189.026 298.534C211.244 309.788 233.87 320.235 256.981 331.119C264.628 334.523 271.648 337.773 278.638 341.979C276.449 348.792 274.291 354.648 272.132 360.504C259.017 357.014 245.827 353.779 232.803 349.978C209.804 343.267 186.906 336.211 163.233 329.255Z" fill="black"/>
<path d="M272.777 360.715C274.291 354.648 276.45 348.792 279.048 342.448C280.391 342.054 281.315 342.32 282.195 342.215C300.478 340.04 312.36 348.296 319.366 365.43C313.023 368.902 307.192 368.545 300.909 364.375C297.836 362.336 292.894 363.096 288.793 362.626C283.672 362.039 278.546 361.49 272.777 360.715Z" fill="#DBD1BF"/>
<path d="M235.118 535.382C234.762 536.836 233.831 537.856 232.371 538.298C232.743 536.797 233.643 535.873 235.118 535.382Z" fill="#FEFEFE"/>
<path d="M76.841 540.776C75.9608 541.252 75.0921 541.1 74.5273 540.19C75.505 539.671 76.1787 539.909 76.841 540.776Z" fill="#FEFEFE"/>
<path d="M229.592 539.352C230.019 540.329 229.851 541.237 228.932 541.774C228.453 540.696 228.725 539.989 229.592 539.352Z" fill="#FEFEFE"/>
<path d="M231.393 537.526C231.848 538.476 231.683 539.357 230.773 539.909C230.276 538.872 230.524 538.165 231.393 537.526Z" fill="#FEFEFE"/>
<path d="M75.1096 538.943C74.119 539.406 73.2582 539.231 72.7012 538.328C73.7498 537.834 74.4947 538.071 75.1096 538.943Z" fill="#FEFEFE"/>
<path d="M62.7441 347.888C57.7111 347.739 53.221 347.263 48.1357 346.348C42.7758 323.518 38.2031 301.084 33.1868 278.75C29.0358 260.269 36.26 250.878 55.8496 251.171C60.867 267.894 65.2158 284.515 69.2963 301.203C71.0906 308.54 72.2719 316.026 73.85 323.419C76.4887 335.78 74.4123 340.615 62.7441 347.888Z" fill="#7B8487"/>
<path d="M138.79 75.6554C141.991 74.0671 145.06 71.9168 148.448 71.12C150.231 70.7006 152.756 72.3894 154.544 73.6818C155.077 74.0665 154.626 77.3056 153.973 77.5597C151.952 78.3462 149.545 78.8059 147.422 78.4918C144.918 78.1214 142.553 76.81 139.437 75.7671C138.746 75.6275 138.79 75.6554 138.79 75.6554Z" fill="#6E6A65"/>
<path d="M138.734 75.5958C138.723 75.5643 138.648 75.9129 138.648 75.9129C138.648 75.9129 138.775 75.9479 138.782 75.8015C138.789 75.6552 138.745 75.6273 138.734 75.5958Z" fill="#6E6A65"/>
</svg>
