<svg width="116" height="273" viewBox="0 0 116 273" fill="none" xmlns="http://www.w3.org/2000/svg">
<path d="M20.6894 107.739C20.1912 123.802 19.5579 139.428 19.4443 155.058C19.3905 162.451 16.6554 166.852 10.663 167.051C4.65466 167.251 1.30938 163.262 0.928765 155.795C-0.176582 134.113 -0.180244 112.498 5.00335 91.2316C7.26324 81.9602 10.6886 73.1712 17.1811 65.894C22.6753 59.7357 29.3413 56.4063 37.7956 56.5332C50.621 56.7258 63.4676 56.9874 76.2751 56.4708C88.9605 55.9591 97.5441 61.8465 103.71 72.1312C111.075 84.416 113.898 98.1843 114.732 112.152C115.624 127.08 115.295 142.094 115.155 157.067C115.092 163.808 111.16 167.388 105.347 167.036C99.9198 166.708 97.0215 162.702 96.8439 156.255C96.363 138.807 95.949 121.347 94.8813 103.931C94.5266 98.1462 92.2656 92.4785 90.8761 86.7573C90.3666 86.8048 89.8571 86.8522 89.3476 86.8996C89.3476 88.2497 89.3474 89.5997 89.3476 90.9497C89.3554 145.428 89.3773 199.906 89.331 254.384C89.3287 257.176 89.2056 260.12 88.3367 262.726C86.2184 269.08 79.3262 272.931 72.8718 271.844C65.8733 270.665 60.9269 264.909 60.9105 257.414C60.8388 224.76 60.8706 192.106 60.8649 159.452C60.8646 157.647 60.8648 155.842 60.8648 153.703C58.9936 153.703 57.4636 153.703 55.4867 153.703C55.4867 155.729 55.4867 157.525 55.4867 159.321C55.486 190.976 55.502 222.63 55.4535 254.284C55.4495 256.93 55.4063 259.686 54.696 262.197C52.9205 268.475 46.0711 272.688 39.5658 271.897C32.8953 271.086 27.539 265.641 27.0001 259.02C26.8519 257.199 26.9357 255.357 26.9356 253.525C26.9319 199.546 26.931 145.567 26.9299 91.5886C26.9298 89.9746 26.9299 88.3606 26.9299 86.7466C26.4094 86.6424 25.8889 86.5382 25.3684 86.434C23.8348 93.3901 22.3011 100.346 20.6894 107.739Z" fill="#010101"/>
<path d="M35.9459 2.77182C47.1015 -1.91683 56.8727 -0.0889587 65.2913 7.87358C72.9278 15.0964 74.9503 26.161 71.1648 35.9525C70.0771 38.766 68.7451 40.3947 65.4266 40.1092C52.5353 39.0004 39.6327 38.0197 26.7299 37.0504C23.5341 36.8103 22.3096 35.0856 21.6058 32.0644C18.9115 20.5 24.1433 9.36257 35.9459 2.77182ZM26.1988 24.649C25.9248 24.589 25.6507 24.529 25.3767 24.469C25.5952 24.6364 25.8137 24.8038 25.8259 25.6806C27.7405 27.3977 29.3791 29.7577 31.6182 30.7189C40.568 34.5609 56.0817 31.2242 62.6956 24.0094C64.6179 21.9124 65.4806 18.8441 66.829 16.221C66.4057 15.948 65.9824 15.6749 65.5592 15.4018C62.2307 22.0328 56.4579 25.1851 49.7583 27.2268C41.4657 29.7539 33.5708 28.968 26.1988 24.649Z" fill="#060606"/>
<path d="M61.9911 47.1204C46.9679 47.3383 32.5459 46.5038 18.6239 41.951C15.0431 40.78 11.4679 39.1393 8.38204 37.0037C2.20529 32.7291 2.2908 26.759 8.33291 22.3158C10.3095 20.8623 12.6079 19.8463 15.1394 18.4153C15.9278 19.9057 16.5615 21.1039 17.307 22.5135C15.3453 23.6275 13.5736 24.4923 11.9524 25.5813C7.595 28.5084 7.33059 31.6548 12.0377 33.7182C18.4986 36.5502 25.3231 39.0549 32.242 40.2454C53.0964 43.834 73.9687 43.6005 94.5285 37.9515C97.9993 36.9979 101.445 35.5264 104.521 33.6654C108.845 31.0498 108.849 28.4672 104.6 25.8409C101.465 23.9032 97.9137 22.6384 94.4318 21.0198C93.1163 23.8847 92.1014 26.0948 90.7138 29.1164C88.3876 23.7461 86.4033 19.165 84.268 14.2355C89.2077 12.0805 93.8475 10.0564 99.2673 7.69189C98.0316 11.1296 97.0572 13.8406 96.1176 16.4543C99.6747 18.1093 103.319 19.3935 106.53 21.3799C114.551 26.3437 114.848 33.9713 106.359 37.8388C98.0407 41.6285 88.8606 43.7487 79.8706 45.7614C74.2569 47.0183 68.2947 46.7191 61.9911 47.1204Z" fill="#0E0E0E"/>
<path d="M36.3931 48.0286C43.432 48.5806 50.0377 49.1036 56.4256 49.6093C51.7296 53.7603 40.7961 53.2356 33.7969 47.9995C34.8049 47.9995 35.3824 47.9995 36.3931 48.0286Z" fill="#111111"/>
<path d="M25.9119 25.0589C33.571 28.968 41.4659 29.754 49.7585 27.2268C56.4581 25.1851 62.2309 22.0328 65.5594 15.4019C65.9827 15.6749 66.4059 15.948 66.8292 16.221C65.4808 18.8441 64.6181 21.9125 62.6958 24.0095C56.0819 31.2243 40.5682 34.561 31.6184 30.7189C29.3793 29.7577 27.7407 27.3977 25.9004 25.3495C25.9747 25.0184 25.9119 25.0589 25.9119 25.0589Z" fill="#EDEDED"/>
<path d="M26.0037 24.995C25.814 24.804 25.5955 24.6366 25.377 24.4692C25.651 24.5292 25.925 24.5892 26.0555 24.8541C25.912 25.0591 25.9747 25.0186 26.0037 24.995Z" fill="#EDEDED"/>
</svg>
