<svg width="190" height="282" viewBox="0 0 190 282" fill="none" xmlns="http://www.w3.org/2000/svg">
<g clip-path="url(#clip0_322_323)">
<path d="M-808.5 283.803C-791.905 283.334 -775.31 283.334 -758.156 283.334C-767.861 276.984 -769.546 271.749 -765.944 261.15C-755.953 231.75 -755.676 202.068 -763.608 172.201C-763.986 170.779 -764.962 168.832 -766.126 168.408C-776.514 164.622 -780.099 156.284 -781.331 146.331C-783.891 125.655 -781.605 105.536 -774.608 85.879C-770.017 72.9839 -761.529 65.462 -747.608 64.3519C-742.165 63.9177 -736.984 63.8577 -731.436 64.8513C-725.879 65.8467 -719.191 65.1198 -714.08 62.7825C-708.359 60.1668 -702.752 58.4551 -696.648 57.6796C-683.439 56.0016 -670.251 54.1652 -657.041 52.5C-650.264 51.6459 -645.798 55.5611 -645.581 62.396C-645.481 65.5586 -645.246 68.7721 -645.675 71.8792C-646.03 74.4519 -647.271 76.9022 -648.119 79.4068C-648.529 79.2804 -648.939 79.1539 -649.349 79.0275C-649.58 76.948 -649.602 74.8184 -650.084 72.7987C-651.288 67.7532 -654.58 64.7823 -659.707 63.9484C-664.39 63.1868 -669.309 65.3727 -671.256 69.9329C-672.527 72.9108 -674.388 73.7217 -677.153 73.9258C-683.12 74.3663 -689.079 75.2247 -695.048 75.2869C-712.708 75.4709 -730.372 75.3238 -748.034 75.363C-755.73 75.38 -761.041 80.0381 -761.179 86.7225C-761.319 93.5607 -755.904 98.322 -747.895 98.3688C-743.573 98.394 -739.251 98.3732 -735.077 98.3732C-736.696 109.755 -738.416 120.882 -739.824 132.047C-741.023 141.554 -739.957 150.753 -737.132 160.079C-725.908 197.128 -726.286 234.165 -738.678 270.969C-740.417 276.134 -742.862 280.634 -749.819 283.118C-675.006 283.118 -601.829 283.118 -529.681 283.118C-531.922 280.114 -535.645 277.017 -536.687 273.19C-537.716 269.409 -536.79 264.625 -535.422 260.739C-525.25 231.847 -517.652 202.285 -511.65 172.285C-511.33 170.688 -511.216 169.049 -511.014 167.494C-519.386 164.076 -520.852 161.181 -520.251 152.13C-519.524 141.191 -519.351 130.216 -518.693 119.271C-518.591 117.571 -517.571 115.54 -516.318 114.361C-509.89 108.312 -503.215 102.527 -496.688 96.582C-491.015 91.4142 -490.381 84.3973 -495.025 79.3895C-499.582 74.4756 -506.33 74.3926 -511.949 79.3906C-526.883 92.676 -541.752 106.035 -557.129 119.297C-557.611 119.229 -557.926 118.923 -557.926 118.923C-547.174 105.783 -536.382 92.6771 -525.709 79.4742C-523.752 77.0539 -522.064 74.3546 -520.625 71.5896C-516.649 63.9484 -510.35 60.8457 -502.027 62.8514C-490.833 65.5493 -484.67 73.2545 -481.436 83.8111C-475.378 103.581 -474.386 123.595 -477.521 144.044C-484.134 187.183 -493.692 229.564 -508.383 270.725C-510.218 275.867 -512.573 280.345 -519.117 283.091C-450.895 283.091 -384.103 283.091 -316.426 283.091C-325.289 278.499 -327.285 271.962 -325.576 263.222C-322.453 247.258 -319.968 231.169 -317.038 214.091C-319.637 216.621 -321.201 218.591 -323.173 219.984C-329.643 224.553 -338.323 223.158 -343.072 216.434C-353.726 201.349 -364.134 186.091 -374.549 170.84C-375.706 169.146 -376.258 167.038 -377.7 163.72C-363.255 171.871 -359.004 160.145 -352.241 152.424C-345.292 162.437 -338.635 172.031 -331.612 182.151C-328.099 176.858 -324.913 172.057 -321.532 166.963C-328.309 162.897 -327.338 156.305 -327.232 149.865C-327.086 141.068 -327.312 132.264 -327.147 123.468C-327.11 121.496 -326.603 119.184 -325.476 117.639C-320.077 110.246 -314.351 103.093 -308.82 95.7954C-304.051 89.5037 -304.549 82.7653 -309.968 78.546C-315.317 74.3819 -322.225 75.6249 -327 81.6381C-328.741 83.8307 -330.425 86.0684 -332.783 89.1246C-334.361 80.2692 -333.289 73.0023 -327.785 67.0129C-322.589 61.3593 -315.913 61.5822 -309.277 63.8937C-299.893 67.1624 -294.542 74.31 -291.481 83.4323C-286.411 98.5411 -283.552 113.966 -284.293 130.002C-285.47 155.445 -285.501 180.982 -287.8 206.318C-289.796 228.306 -294.174 250.084 -297.709 271.92C-298.526 276.966 -301.836 280.501 -307.477 282.958C-271.941 282.958 -237.313 282.958 -204.149 282.958C-206.258 279.798 -210.026 276.21 -211.234 271.904C-213.617 263.408 -207.87 256.815 -198.525 254.4C-188.433 251.792 -178.177 249.237 -168.655 245.125C-148.553 236.443 -133.392 222.166 -124.128 201.441C-123.289 202.04 -122.5 202.688 -121.634 203.209C-116.855 206.083 -111.725 205.714 -107.768 202.249C-103.7 198.687 -102.757 193.449 -105.184 188.173C-107.055 184.105 -109.178 180.12 -110.659 175.911C-116.516 159.265 -111.324 146.742 -95.987 138.135C-92.8636 136.382 -90.0491 132.837 -88.7062 129.473C-87.0876 125.419 -88.9302 121.273 -92.5405 118.42C-96.1209 115.59 -100.294 114.978 -104.286 116.901C-108.599 118.98 -112.553 121.802 -116.661 124.303C-117.983 125.108 -119.299 125.92 -121.702 127.394C-118.755 119.251 -114.745 113.673 -108.42 109.945C-93.8572 101.364 -79.6779 109.004 -79.7341 125.89C-79.757 132.768 -82.0885 139.609 -82.9645 146.519C-84.6153 159.538 -85.8862 172.606 -87.4958 185.631C-88.0961 190.488 -85.8399 192.225 -81.4413 193.291C-71.6042 195.674 -61.908 198.633 -52.1198 201.228C-47.0619 202.568 -43.5953 205.598 -41.6481 210.361C-34.4871 227.879 -27.2948 245.386 -20.2744 262.961C-16.8943 271.422 -19.4914 277.731 -28.598 282.923C5.17369 282.923 38.3694 282.923 72 282.923C76.0674 282.923 79.9181 282.937 84 282.937C75.1982 278.949 74.4911 271.661 74.5522 263.473C74.7689 234.478 75.1525 205.468 74.4808 176.487C73.8962 151.262 71.9708 126.068 70.6378 100.86C69.6918 100.769 68.7457 100.677 67.7997 100.586C66.3807 107.045 64.5018 113.442 63.6329 119.974C61.4183 136.623 62.961 153.22 65.1697 169.772C65.4539 171.902 65.8112 174.189 65.3414 176.22C64.348 180.514 61.4843 183.115 56.9041 183.385C52.4777 183.646 48.2147 181.035 47.5911 176.738C43.773 150.426 41.2281 124.058 49.5663 98.0907C53.1773 86.8451 59.2137 77.0242 70.8983 72.59C75.457 70.8602 80.6221 70.6223 85.5474 69.986C95.6185 68.6853 105.742 67.7722 115.793 66.3356C128.097 64.577 137.119 69.7678 144.257 79.1423C150.916 87.887 155.355 97.889 157.343 108.521C160.576 125.819 162.848 143.305 165.201 160.756C166.168 167.924 162.58 172.646 156.767 173.148C151.181 173.631 147.027 169.112 146.641 162.037C145.668 144.215 143.647 126.544 138.42 109.405C136.888 104.382 134.655 99.572 131.561 94.9308C132.363 102.136 133.388 109.324 133.931 116.548C136.977 157.105 149.523 195.724 158.012 235.169C159.969 244.263 162.25 253.287 164.699 263.689C155.502 265.832 146.328 267.97 136.84 270.181C128.413 234.429 120.231 199.712 111.921 164.454C109.114 164.789 106.423 165.11 103.366 165.475C103.366 167.495 103.366 169.299 103.366 171.102C103.366 202.765 103.286 234.429 103.426 266.091C103.459 273.509 101.478 278.975 94.5 282.923C98.001 282.923 101.501 282.928 105 282.937C133.542 283.008 162.058 283.334 191.031 283.334C191.5 309.991 191.5 336.648 191.5 363.288C-141.833 363.288 -475.167 363.288 -808.5 363.288C-808.5 336.918 -808.5 310.595 -808.5 283.803ZM110.344 319.458C112.765 319.458 115.185 319.458 118.303 319.458C116.116 324.71 114.202 329.309 112.15 334.235C115.531 333.043 120.327 323.405 120.831 317.612C117.053 317.612 113.279 317.612 108.574 317.605C104.327 317.605 100.081 317.605 95.8349 317.605C95.8355 318.151 95.8361 318.697 95.8367 319.244C98.7724 319.244 101.708 319.244 105.409 319.244C103.092 324.746 101.161 329.335 99.2292 333.923C99.6364 334.168 100.044 334.413 100.451 334.658C101.343 333.413 102.36 332.238 103.105 330.911C105.296 327.01 107.38 323.049 110.344 319.458ZM29.3954 323.68C32.6903 323.678 32.3607 326.065 32.442 328.236C32.5195 330.303 32.6945 332.367 32.8265 334.432C33.2715 334.431 33.7164 334.43 34.1614 334.429C34.3994 333.592 34.6822 332.766 34.8672 331.918C35.4823 329.099 33.2372 324.136 37.4321 324.032C41.889 323.921 39.4833 328.92 40.1671 331.661C40.4095 332.632 40.7939 333.568 41.1133 334.52C41.5669 334.425 42.0204 334.33 42.4739 334.235C42.4739 331.148 42.7133 328.034 42.3557 324.989C42.2131 323.776 40.7863 321.784 39.8836 321.75C36.0991 321.608 32.2917 322.073 27.7173 322.129C26.6953 322.238 24.787 322.311 24.7808 322.462C24.6174 326.416 24.6514 330.377 24.6514 334.337C25.3243 334.387 25.9973 334.437 26.6702 334.487C26.9053 333.144 27.1279 331.798 27.3784 330.458C27.7908 328.252 28.2214 326.049 29.3954 323.68ZM-81 283.335C-66.8552 283.335 -52.7103 283.335 -39.6205 283.335C-42.1873 279.913 -45.5427 276.797 -47.2264 272.95C-53.274 259.131 -58.7051 245.044 -64.5223 231.122C-65.2025 229.494 -66.5833 227.432 -68.0662 226.984C-78.5256 223.823 -89.0966 221.032 -99.7872 218.081C-119.482 255.543 -151.967 274.598 -191.838 283.335C-155.225 283.335 -118.613 283.335 -81 283.335ZM-675.04 311.199C-679.638 316.794 -678.21 321.625 -671.42 323.377C-669.816 323.791 -667.949 323.731 -666.636 324.568C-665.316 325.409 -663.654 327.182 -663.769 328.393C-663.883 329.602 -666.118 331.628 -667.238 331.512C-669.575 331.269 -671.833 329.939 -674.037 328.879C-675.317 328.263 -676.43 327.304 -678.55 325.869C-676.934 334.098 -670.888 337.499 -664.516 334.46C-662.299 333.402 -659.831 330.229 -659.797 327.987C-659.764 325.796 -662.315 323.052 -664.428 321.497C-666.286 320.13 -669.192 320.277 -671.462 319.338C-672.424 318.94 -673.624 317.378 -673.503 316.516C-673.336 315.327 -671.922 313.312 -671.215 313.383C-668.843 313.619 -666.497 314.493 -664.244 315.384C-662.895 315.917 -661.737 316.936 -659.526 318.359C-661.602 309.684 -666.443 307.647 -675.04 311.199ZM128.121 317.296C124.224 318.087 121.115 319.317 123.954 324.22C124.216 324.672 123.809 325.501 123.736 326.158C123.518 328.114 122.431 330.83 123.309 331.849C124.581 333.326 127.421 334.448 129.328 334.131C131.709 333.736 133.821 331.726 136.095 330.386C138.557 334.32 142.908 335.778 146.532 333.361C150.72 330.568 148.503 327.552 147.228 324.456C147.606 322.436 147.624 319.161 146.75 318.903C144.161 318.136 141.002 317.944 138.524 318.821C137.531 319.173 137.735 322.903 137.394 325.095C137.743 325.175 138.092 325.255 138.441 325.336C137.462 326.545 136.484 327.755 135.434 329.053C134.354 327.526 133.436 326.227 132.536 324.954C135.488 320.273 134.777 318.803 128.121 317.296ZM-779.27 309.307C-780.06 309.394 -780.85 309.482 -781.92 309.601C-779.042 317.683 -776.344 325.52 -773.381 333.255C-773.006 334.234 -771.279 335.121 -770.105 335.226C-769.237 335.303 -767.736 334.235 -767.396 333.342C-764.42 325.527 -761.641 317.637 -758.803 309.77C-759.252 309.408 -759.701 309.046 -760.15 308.684C-761.359 309.886 -763.112 310.875 -763.681 312.327C-765.974 318.177 -767.901 324.17 -770.175 330.718C-773.121 323.13 -775.785 316.268 -779.27 309.307ZM-599.088 321.557C-599.748 322.164 -600.408 322.772 -601.809 324.062C-601.809 320.282 -601.807 317.522 -601.809 314.762C-601.813 309.682 -601.814 309.682 -605.422 309.732C-605.422 318.146 -605.422 326.562 -605.422 334.978C-605.011 335.244 -604.599 335.509 -604.188 335.775C-603.394 334.643 -602.316 333.61 -601.876 332.354C-601.301 330.716 -601.232 328.901 -600.929 327.06C-596.165 329.04 -596.529 336.272 -589.744 335.122C-592.386 331.247 -594.774 327.744 -598.012 322.996C-595.237 321.033 -592.545 319.129 -589.853 317.225C-590.366 316.636 -590.879 316.048 -591.392 315.46C-593.766 317.316 -596.14 319.172 -599.088 321.557ZM-744.346 326.334C-744.037 326.012 -743.486 325.71 -743.457 325.365C-743.058 320.623 -745.726 317.058 -750.104 316.383C-755.034 315.622 -759.367 318.706 -760.338 323.666C-761.355 328.86 -758.531 333.939 -753.962 335.134C-749.263 336.362 -745.353 334.097 -743.605 328.26C-746.572 329.813 -748.766 331.728 -751.164 332.033C-754.587 332.468 -756.539 330.261 -756.401 326.363C-752.573 326.363 -748.923 326.363 -744.346 326.334ZM-645.357 323.416C-645.681 330.497 -643.002 334.647 -637.671 335.32C-632.958 335.914 -628.556 332.904 -627.552 328.4C-626.416 323.309 -628.697 318.58 -633.101 316.893C-638 315.017 -642.24 317.05 -645.357 323.416ZM-699.483 335.25C-693.681 332.753 -691.739 329.775 -692.457 324.236C-693.013 319.955 -695.529 317.283 -699.707 316.444C-705.164 315.349 -709.98 319.18 -710.491 324.798C-711.066 331.129 -707.299 335.018 -699.483 335.25ZM-33.5259 329.005C-33.2904 328.954 -33.0539 328.869 -32.8201 328.876C-32.7586 328.877 -32.6865 329.16 -32.6512 329.32C-31.7738 333.313 -29.1024 335.048 -25.3387 334.087C-23.7542 333.683 -22.585 331.652 -21.392 330.517C-24.5623 330.682 -26.9234 330.804 -29.2846 330.927C-29.2988 328.908 -30.113 326.344 -29.1779 324.973C-26.3215 320.784 -24.4622 326.172 -21.4468 325.781C-22.6708 323.954 -24.5969 321.327 -25.9024 321.606C-28.7084 322.205 -31.1947 324.302 -33.1364 325.402C-35.2413 324.233 -37.7409 322.095 -40.5273 321.612C-41.9221 321.37 -44.6687 323.836 -45.3419 325.627C-46.587 328.939 -45.8385 332.46 -41.9866 333.9C-37.963 335.404 -35.2808 333.498 -33.5259 329.005ZM-608.449 329.565C-609.742 329.646 -611.654 329.212 -612.219 329.895C-614.67 332.851 -617.205 333.061 -619.939 330.702C-622.248 328.709 -622.335 323.171 -620.06 321.098C-617.151 318.447 -614.496 318.786 -612.103 322.119C-611.484 322.982 -609.912 323.162 -608.146 323.931C-609.188 318.674 -611.899 316.654 -615.981 316.354C-620.486 316.022 -624.054 318.708 -625.194 323.107C-626.431 327.88 -624.426 332.622 -620.364 334.525C-615.782 336.673 -611.923 335.297 -608.449 329.565ZM-740.514 330.503C-738.417 334.292 -735.142 335.906 -730.944 335.233C-727.361 334.659 -724.931 332.617 -724.171 327.623C-726.053 328.68 -727.566 329.105 -728.428 330.095C-730.753 332.766 -733.218 332.988 -735.811 330.864C-738.3 328.825 -738.327 322.975 -735.861 320.88C-733.312 318.715 -730.827 318.823 -728.49 321.518C-727.624 322.518 -726.235 323.063 -724.283 324.341C-725.773 318.316 -727.931 316.425 -732.276 316.328C-739.109 316.175 -742.602 321.698 -740.514 330.503ZM-717.871 311.835C-718.198 311.869 -718.524 311.904 -718.851 311.938C-717.74 315.045 -726.99 316.622 -720.149 320.674C-719.757 320.906 -719.995 322.248 -719.988 323.074C-719.967 325.562 -719.931 328.051 -719.973 330.538C-720.041 334.6 -717.66 335.72 -714.164 335.286C-713.453 335.198 -712.838 334.335 -712.179 333.83C-712.648 333.292 -713.02 332.564 -713.61 332.264C-714.402 331.862 -715.363 331.79 -716.195 331.59C-716.195 327.447 -716.195 323.664 -716.195 320.385C-714.616 319.429 -713.381 318.68 -712.145 317.932C-713.311 317.143 -714.477 316.353 -716.159 315.213C-716.323 314.638 -716.711 313.275 -717.871 311.835ZM-648.539 335.34C-647.061 332.993 -647.061 332.993 -651.182 331.153C-651.182 327.345 -651.182 323.557 -651.182 320.54C-649.519 319.423 -648.331 318.624 -647.144 317.826C-648.374 317.085 -649.605 316.344 -650.836 315.602C-651.405 314.468 -652.062 313.157 -652.719 311.846C-653.457 312.311 -654.833 312.783 -654.827 313.238C-654.794 315.805 -660.861 318.247 -655.077 321.007C-654.739 321.168 -654.984 322.576 -654.981 323.405C-654.975 325.561 -654.903 327.72 -655 329.872C-655.18 333.89 -653.382 335.759 -648.539 335.34ZM153.922 323.256C154.961 322.014 155.871 319.924 157.071 319.743C158.596 319.513 160.354 320.829 162.911 321.83C159.148 316.316 153.89 315.921 151.768 320.409C150.638 322.799 150.419 325.891 150.653 328.592C151.003 332.63 154.382 334.938 157.975 334.287C161.397 333.668 163.615 330.377 162.692 326.802C161.588 322.528 158.766 321.352 153.922 323.256ZM-57.7916 322.139C-54.8113 322.871 -54.6638 320.878 -56.3229 319.824C-58.4556 318.471 -61.3794 317.735 -63.8958 317.881C-65.14 317.953 -67.5096 321.241 -67.1497 321.955C-66.2048 323.829 -64.0645 325.116 -62.3438 326.57C-61.9974 326.862 -61.2636 326.715 -60.9449 327.019C-59.9109 328.005 -58.9867 329.106 -58.0203 330.163C-59.7707 330.597 -61.5847 331.52 -63.2505 331.304C-64.4955 331.142 -65.5494 329.509 -66.6883 328.532C-67.4251 332.669 -65.1415 334.555 -62.0296 334.165C-59.6758 333.87 -56.4395 332.373 -55.5475 330.488C-54.0075 327.233 -56.7878 325.468 -59.9 324.773C-60.8726 324.556 -61.9767 324.573 -62.7871 324.09C-63.5183 323.654 -64.5332 322.441 -64.3559 321.998C-63.9999 321.107 -62.8799 319.883 -62.1411 319.925C-60.8489 320.001 -59.6064 320.929 -57.7916 322.139ZM67.0764 328.557C69.474 329.456 71.8716 330.355 74.5487 331.359C74.8236 332.062 75.325 333.345 76.0734 335.258C77.5569 332.517 78.5195 330.737 79.4821 328.958C79.0756 329.046 78.6691 329.133 78.2626 329.221C77.8544 325.257 77.4462 321.292 77.0312 317.262C76.1195 317.404 75.4116 317.301 75.1948 317.58C72.5557 320.977 69.9886 324.431 67.0764 328.557ZM84.1902 333.258C88.0509 335.36 91.3114 334.75 93.4097 330.782C95.6342 326.576 94.2491 320.079 90.9761 318.134C87.7487 316.217 83.7349 317.405 82.3253 321.007C80.7466 325.042 80.6818 329.094 84.1902 333.258ZM-121.256 332.424C-116.348 335.571 -113.711 334.974 -112.158 330.361C-118.625 332.409 -118.625 332.409 -119.961 328.276C-117.084 328.276 -114.315 328.276 -111.531 328.276C-111.834 323.414 -113.22 321.454 -116.498 321.344C-119.992 321.227 -122.246 322.997 -122.539 326.503C-122.682 328.213 -122.004 329.991 -121.256 332.424ZM-135.507 324.861C-134.644 327.185 -133.907 329.569 -132.859 331.807C-132.386 332.815 -131.331 334.143 -130.466 334.201C-129.661 334.254 -128.353 332.973 -127.966 332.001C-126.096 327.31 -124.462 322.525 -122.744 317.774C-123.197 317.531 -123.65 317.288 -124.102 317.045C-128.202 320.223 -127.388 326.278 -130.334 330.236C-133.575 326.47 -132.42 320.257 -136.712 317.181C-137.127 317.38 -137.542 317.579 -137.956 317.777C-137.206 319.879 -136.455 321.981 -135.507 324.861ZM-688.163 335.368C-683.689 334.704 -686.209 331.258 -685.906 329.147C-685.362 325.355 -686.727 320.872 -680.836 319.959C-680.147 319.852 -679.744 317.902 -679.394 317.188C-683.018 317.188 -686.146 317.188 -689.084 317.188C-689.084 322.814 -689.084 329.039 -688.163 335.368ZM59.3467 332.061C61.1525 329.863 63.4462 327.89 64.5972 325.39C65.4008 323.645 65.4482 320.029 64.3982 319.291C62.5854 318.018 59.5681 317.805 57.2323 318.197C56.0016 318.403 55.1434 320.83 54.1169 322.254C54.5845 322.562 55.0522 322.871 55.5198 323.179C56.2203 322.359 56.7929 321.051 57.6494 320.826C59.1816 320.425 60.885 320.677 62.5168 320.656C62.3977 322.131 62.7254 323.869 62.0488 325.015C61.1582 326.524 59.4352 327.524 58.1487 328.82C56.6786 330.302 55.2949 331.869 53.4902 333.812C58.4937 333.812 62.2555 333.812 66.0173 333.812C66.0233 333.248 66.0293 332.684 66.0353 332.12C64.0464 332.12 62.0575 332.12 59.3467 332.061ZM-16.5725 330.162C-15.488 330.65 -14.3095 331 -13.3421 331.659C-12.0539 332.538 -10.9298 333.657 -9.73529 334.673C-9.47205 334.35 -9.2088 334.028 -8.94556 333.706C-10.4702 331.387 -11.9948 329.069 -13.4922 326.792C-11.9152 324.997 -10.5175 323.406 -9.11975 321.815C-9.36908 321.5 -9.61841 321.185 -9.86774 320.869C-11.913 322.41 -13.9583 323.951 -16.0973 325.562C-16.5948 322.601 -17.0518 319.881 -17.5089 317.16C-17.962 317.289 -18.4152 317.417 -18.8683 317.546C-18.8683 323.137 -18.8683 328.728 -18.8683 334.32C-18.377 334.393 -17.8856 334.465 -17.3943 334.538C-17.1342 333.361 -16.8741 332.183 -16.5725 330.162ZM-88.8088 327.841C-88.5784 331.934 -86.6249 334.494 -82.3279 334.297C-78.5222 334.123 -76.2856 331.345 -76.8516 328.025C-77.2629 325.613 -79.4727 322.357 -81.6071 321.64C-85.4208 320.359 -88.1849 322.752 -88.8088 327.841ZM20.0502 333.653C23.911 331.002 24.6616 327.217 21.8956 323.9C20.5682 322.308 16.8075 321.547 14.6178 322.141C10.9728 323.129 10.6394 326.821 11.5396 330.02C12.6241 333.874 15.5996 334.954 20.0502 333.653ZM-109.533 325.654C-109.535 327.137 -110.149 329.163 -109.414 329.991C-107.829 331.775 -105.702 333.746 -103.517 334.159C-100.874 334.657 -98.6756 332.913 -98.5721 330.063C-101.263 330.486 -103.643 330.86 -106.023 331.235C-106.272 329.385 -107.279 327.201 -106.637 325.744C-104.116 320.015 -101.345 326.696 -98.222 325.547C-99.5817 323.81 -101.325 321.491 -102.876 321.614C-105.109 321.79 -107.201 323.742 -109.533 325.654ZM3.31433 332.024C0.406616 330.434 -0.0971068 327.97 1.43262 325.331C4.34021 320.315 6.62244 326.595 9.76953 326.234C8.65533 322.217 6.30139 320.653 2.74774 321.515C-0.930786 322.408 -2.01941 325.27 -1.66351 328.793C-1.28308 332.558 0.921204 334.532 4.60834 334.294C7.32404 334.119 9.57837 332.936 9.21783 329.16C7.28095 330.296 5.66443 331.245 3.31433 332.024ZM-89.8464 322.866C-91.1967 321.29 -92.547 319.714 -94.062 317.946C-95.2815 319.656 -96.2931 321.075 -97.3046 322.494C-96.8893 322.489 -96.4739 322.484 -96.0586 322.479C-95.8049 325.121 -95.5244 327.762 -95.3038 330.407C-94.9639 334.484 -93.6311 335.157 -89.8629 333.109C-93.3881 330.842 -93.733 325.709 -89.8464 322.866ZM-49.5441 330.372C-49.2937 327.428 -50.9592 323.846 -46.3787 322.344C-47.5674 323.327 -48.7563 324.31 -49.9451 325.294C-50.5082 323.253 -51.0714 321.213 -51.6944 318.955C-52.1708 319.602 -53.2669 321.089 -54.363 322.576C-52.9054 325.045 -52.5148 327.534 -52.3334 330.037C-52.0238 334.311 -51.2721 334.831 -46.4061 333.38C-47.5786 332.543 -48.515 331.875 -49.5441 330.372ZM50.7791 323.189C51.4946 321.009 52.21 318.83 52.9254 316.651C52.2759 316.446 51.6265 316.242 50.977 316.037C48.487 323.367 45.9971 330.697 43.5071 338.026C44.1377 338.28 44.7683 338.534 45.3989 338.788C47.1203 333.849 48.8417 328.91 50.7791 323.189ZM-75.1238 321.644C-75.943 331.28 -75.7099 332.853 -72.6075 334.556C-72.6904 329.696 -73.834 324.55 -68.5983 321.805C-70.5062 321.654 -72.4141 321.504 -75.1238 321.644Z" fill="#020202"/>
<path d="M67.5348 44.0703C65.615 30.8977 70.1899 20.6646 80.1322 15.1673C89.5412 9.96482 101.443 11.1185 109.561 18.0198C118.149 25.3213 121.118 37.0673 117.001 47.4575C112.871 57.8802 102.687 64.4613 91.4834 63.9469C80.2542 63.4314 71.1118 55.9497 67.5348 44.0703ZM72.4814 33.5899L72.2308 33.6024C72.2308 33.6024 72.4797 33.5645 71.891 34.166C73.5652 36.4048 74.7733 39.4411 76.9965 40.7404C85.3635 45.6304 101.685 43.6139 108.923 37.0339C110.577 35.5301 111.424 33.1382 112.643 31.1551C112.281 30.9417 111.919 30.7283 111.558 30.5149C104.017 38.6866 94.3806 40.9607 83.9527 39.1808C79.8826 38.4861 76.2095 35.4652 72.4814 33.5899Z" fill="#050505"/>
<path d="M122.935 272.565C139.68 274.819 155.074 271.46 169.802 264.504C172.034 263.45 174.233 262.099 176.035 260.437C177.365 259.212 178.997 257.045 178.701 255.689C178.418 254.391 175.822 253.596 173.85 252.328C172.935 255.24 172.258 257.396 171.328 260.358C168.648 255.794 166.255 251.716 163.572 247.146C167.934 244.665 172.165 242.258 177.101 239.45C176.264 242.773 175.635 245.273 175.005 247.772C175.409 247.513 175.813 247.254 176.216 246.995C178.8 249.886 182.875 252.439 183.624 255.746C184.783 260.87 180.082 264.04 176.008 266.339C159.329 275.755 141.522 280.011 122.352 277.15C118.25 276.538 114.297 274.992 113.277 270.506C112.241 265.952 115.515 263.093 118.752 260.654C121.125 258.866 123.764 257.431 126.659 255.603C127.511 257.026 128.231 258.226 129.061 259.612C128.558 260.003 128.193 260.338 127.782 260.598C125.537 262.014 123.13 263.222 121.06 264.856C116.485 268.469 116.89 270.258 122.935 272.565Z" fill="#0E0E0E"/>
<path d="M153.972 283.121C149.661 282.787 145.735 282.387 141.809 281.988C141.834 281.398 141.86 280.808 141.885 280.219C148.817 278.587 155.75 276.956 163.435 275.147C161.339 279.387 158.401 281.81 153.972 283.121Z" fill="#111111"/>
<path d="M72.3567 33.5035C76.2107 35.4649 79.8838 38.4858 83.9539 39.1805C94.3818 40.9604 104.018 38.6863 111.559 30.5146C111.921 30.728 112.282 30.9414 112.644 31.1548C111.425 33.1379 110.578 35.5298 108.924 37.0336C101.686 43.6136 85.3647 45.6301 76.9977 40.7401C74.7745 39.4408 73.5664 36.4045 72.1406 33.8803C72.389 33.5948 72.3567 33.5035 72.3567 33.5035Z" fill="#EDEDED"/>
<path d="M72.4334 33.5798C72.4794 33.5645 72.2305 33.6024 72.2305 33.6024C72.2305 33.6024 72.4811 33.5899 72.4182 33.5468C72.3552 33.5037 72.3875 33.5951 72.4334 33.5798Z" fill="#EDEDED"/>
</g>
<defs>
<clipPath id="clip0_322_323">
<rect width="1000" height="1077" fill="white" transform="translate(-810 -713)"/>
</clipPath>
</defs>
</svg>
