<svg width="163" height="265" viewBox="0 0 163 265" fill="none" xmlns="http://www.w3.org/2000/svg">
<path d="M21.6929 176.329C20.9986 172.293 20.3092 168.701 19.6791 165.099C18.6868 159.427 16.9534 154.971 10.9285 151.909C3.28507 148.024 1.84006 139.611 0.876689 131.724C-1.63764 111.142 1.30983 91.2349 9.03022 72.0634C12.8525 62.5718 19.8101 56.3776 30.2023 55.2027C40.0876 54.085 47.0508 60.5182 48.3054 70.9647C49.3658 79.7947 46.3466 87.9343 44.3065 96.3442C40.4293 88.8885 42.5754 80.6875 41.2433 72.9598C41.0985 84.6071 40.7714 96.2328 44.8122 107.473C48.9199 118.9 55.727 128.35 64.7456 136.349C70.9445 141.848 71.3518 144.622 67.375 152.591C70.4953 145.981 74.6614 149.423 78.4952 150.875C97.4956 158.07 116.515 165.221 135.428 172.639C144.47 176.186 147.767 185.169 143.366 192.939C139.618 199.556 132.312 201.9 124.339 198.887C102.688 190.706 81.0616 182.458 59.4158 174.262C56.8035 173.273 54.2683 171.974 50.7307 171.725C49.9689 177.243 51.2481 182.598 51.6263 187.887C53.2942 211.212 49.3155 233.653 41.3945 255.452C38.6981 262.873 30.6113 266.013 23.2667 263.36C15.9565 260.72 12.0444 253.205 14.6474 245.547C19.5539 231.111 22.8149 216.429 23.1022 201.129C23.2555 192.965 22.8432 184.852 21.6929 176.329ZM21.4059 77.7018C20.2824 95.5458 23.8085 112.317 32.9349 127.766C30.7235 122.142 27.9507 116.699 26.2931 110.829C24.5747 104.744 23.1189 98.6232 22.5466 92.2737C22.0139 86.3637 21.375 80.4923 22.0227 74.5482C21.8399 75.3569 21.6571 76.1656 21.4059 77.7018Z" fill="black"/>
<path d="M142.962 208.1C148.287 208.088 153.113 208.14 157.937 208.043C161.053 207.981 162.418 209.198 162.402 212.463C162.32 228.269 162.334 244.076 162.451 259.881C162.472 262.804 161.291 263.571 158.594 263.559C142.953 263.485 127.311 263.452 111.671 263.587C107.861 263.62 106.807 261.946 106.83 258.463C106.925 243.488 106.948 228.512 106.829 213.537C106.796 209.416 108.496 207.952 112.512 208.019C122.493 208.184 132.478 208.09 142.962 208.1Z" fill="black"/>
<path d="M52.0943 1.6942C60.1535 7.49727 68.8636 10.6908 78.0222 13.1739C81.749 14.1844 87.1499 15.7676 86.3278 20.9593C85.4952 26.217 79.9494 26.0892 75.7787 26.4391C64.3308 27.3996 57.0246 26.3326 46.9216 22.8104C50.02 25.9347 54.2914 27.9005 62.4494 29.9565C67.5508 31.2422 67.8604 31.9298 65.5053 36.7437C59.8638 48.2751 45.7264 53.598 33.6574 48.7349C21.3991 43.7953 14.8086 29.9653 18.8137 17.5856C22.8264 5.18221 35.8838 -2.30998 48.3607 0.642538C49.4896 0.909658 50.6008 1.25142 52.0943 1.6942Z" fill="black"/>
<path d="M136.102 147.284C138.369 148.469 137.237 149.496 136.409 150.562C128.595 160.629 127.515 160.69 118.776 151.457C117.899 150.53 116.646 149.791 116.77 148.269C117.041 147.956 117.265 147.49 117.461 147.501C122.875 147.807 125.128 145.718 124.257 139.965C123.719 136.412 124.457 132.665 124.623 129.005C124.7 127.319 125.278 126.073 127.24 126.074C129.135 126.076 129.967 127.242 130.008 128.927C130.111 133.09 130.372 137.278 130.051 141.416C129.708 145.84 131.473 147.597 136.102 147.284Z" fill="black"/>
</svg>
