<svg width="218" height="196" viewBox="0 0 218 196" fill="none" xmlns="http://www.w3.org/2000/svg">
<path d="M0 176.349C4.86052 168.023 13.5109 165.383 20.8389 160.991C29.8183 155.61 39.0587 150.664 48.849 145.157C43.108 139.291 45.7987 133.266 47.7888 127.257C56.0521 102.306 66.3558 78.3489 82.572 57.382C87.2691 51.3089 92.5231 45.6944 100.03 42.865C103.259 41.6476 105.732 41.84 108.535 44.5101C117.63 53.1755 130.895 54.171 140.786 47.1455C140.989 46.8937 140.957 46.9145 140.957 46.9145C141.269 46.7988 141.687 46.7747 141.878 46.554C147.821 39.6722 154.426 42.2607 160.722 45.5803C176.159 53.7197 186.696 65.3569 186.199 84.0457C185.989 91.9003 182.892 98.9163 178.786 105.524C177.761 107.174 176.122 108.525 175.97 110.605C176.631 111.819 177.745 111.477 178.687 111.569C186.636 112.342 192.095 117.594 192.193 125.58C192.42 144.076 192.406 162.578 192.207 181.075C192.122 189.004 185.651 195.09 178.112 195.093C170.337 195.095 163.943 188.864 163.813 180.703C163.63 169.206 163.518 157.699 163.841 146.209C163.981 141.253 162.234 139.896 157.527 140.104C149.875 140.441 142.198 140.139 134.532 140.221C130.82 140.26 127.179 140.112 123.892 138.166C121.86 136.963 120.148 137.617 118.303 138.659C87.694 155.943 57.0664 173.193 26.4433 190.451C25.1376 191.187 23.8483 191.953 22.528 192.662C12.7048 197.933 6.08004 196.079 0.17227 186.182C5.96046e-08 182.864 0 179.833 0 176.349ZM72.3665 114.681C69.9506 121.27 67.017 127.696 65.0367 135.938C74.8409 130.517 83.3451 125.696 91.9737 121.108C95.0579 119.469 96.0518 117.234 96.0134 113.866C95.8863 102.708 95.9986 91.5471 96.0171 80.3875C96.0214 77.8064 96.0178 75.2253 96.0178 72.6441C85.2508 85.0928 78.785 99.4391 72.3665 114.681ZM166.912 85.4531C168.469 77.8366 165.058 70.6377 157.516 66.1825C157.516 77.9824 157.516 89.5673 157.516 101.782C162.428 97.1649 165.356 92.1551 166.912 85.4531Z" fill="black"/>
<path d="M141.003 46.8793C129.907 52.3887 119.241 52.4459 109.468 43.9873C101.39 36.996 98.9786 25.1993 103.361 15.2717C107.505 5.8813 118.761 -0.977897 128.234 0.114347C140.262 1.50132 149.235 9.36679 151.27 20.3387C153.251 31.0252 149.57 39.5661 141.152 46.6411C140.958 46.9141 140.99 46.8932 141.003 46.8793ZM111.963 25.9994C123.346 31.8243 135.762 31.1052 143.431 23.7588C132.049 28.2034 121.133 29.9682 109.732 24.6693C110.308 24.999 110.883 25.3286 111.963 25.9994Z" fill="black"/>
<path d="M205.268 94.0149C208.524 93.5392 209.022 95.4145 209.069 97.5914C209.137 100.744 209.12 103.898 209.13 107.051C209.154 114.821 209.151 114.821 217.077 116.216C214.092 120.322 210.553 123.367 207.101 126.468C206.433 127.068 205.483 126.795 204.844 126.153C201.748 123.044 198.175 120.36 195.566 116.253C196.565 115.946 197.176 115.551 197.728 115.621C202.45 116.214 203.26 113.599 203.134 109.637C203.003 105.503 203.348 101.352 203.528 97.2107C203.578 96.0491 203.735 94.8746 205.268 94.0149Z" fill="black"/>
<path d="M28.7641 108.721C28.7655 104.747 28.7463 101.247 28.7774 97.7475C28.7944 95.8329 28.9872 93.8792 31.5276 93.8254C34.1124 93.7706 34.3128 95.71 34.3223 97.6417C34.3422 101.641 34.5408 105.655 34.274 109.636C34.0007 113.715 34.9883 116.175 39.6718 115.575C40.461 115.474 41.3425 115.506 42.1721 116.654C39.8638 120.33 36.288 123.028 33.207 126.154C32.2533 127.122 31.0708 127.063 30.0619 126.166C26.8688 123.325 23.709 120.448 20.7559 116.897C25.3911 115.642 30.2889 115.549 28.7641 108.721Z" fill="black"/>
</svg>
