<svg width="203" height="299" viewBox="0 0 203 299" fill="none" xmlns="http://www.w3.org/2000/svg">
<g clip-path="url(#clip0_322_323)">
<path d="M-388.5 299.803C-371.905 299.334 -355.31 299.334 -338.156 299.334C-347.861 292.984 -349.546 287.749 -345.944 277.15C-335.953 247.75 -335.676 218.068 -343.608 188.201C-343.986 186.779 -344.962 184.832 -346.126 184.408C-356.514 180.622 -360.099 172.284 -361.331 162.331C-363.891 141.655 -361.605 121.536 -354.608 101.879C-350.017 88.9839 -341.529 81.462 -327.608 80.3519C-322.165 79.9177 -316.984 79.8577 -311.436 80.8513C-305.879 81.8467 -299.191 81.1198 -294.08 78.7825C-288.359 76.1668 -282.752 74.4551 -276.648 73.6796C-263.439 72.0016 -250.251 70.1652 -237.041 68.5C-230.264 67.6459 -225.798 71.5611 -225.581 78.396C-225.481 81.5586 -225.246 84.7721 -225.675 87.8792C-226.03 90.4519 -227.271 92.9022 -228.119 95.4068C-228.529 95.2804 -228.939 95.1539 -229.349 95.0275C-229.58 92.948 -229.602 90.8184 -230.084 88.7987C-231.288 83.7532 -234.58 80.7823 -239.707 79.9484C-244.39 79.1868 -249.309 81.3727 -251.256 85.9329C-252.527 88.9108 -254.388 89.7217 -257.153 89.9258C-263.12 90.3663 -269.079 91.2247 -275.048 91.2869C-292.708 91.4709 -310.372 91.3238 -328.034 91.363C-335.73 91.38 -341.041 96.0381 -341.179 102.722C-341.319 109.561 -335.904 114.322 -327.895 114.369C-323.573 114.394 -319.251 114.373 -315.077 114.373C-316.696 125.755 -318.416 136.882 -319.824 148.047C-321.023 157.554 -319.957 166.753 -317.132 176.079C-305.908 213.128 -306.286 250.165 -318.678 286.969C-320.417 292.134 -322.862 296.634 -329.819 299.118C-255.006 299.118 -181.829 299.118 -109.681 299.118C-111.922 296.114 -115.645 293.017 -116.687 289.19C-117.716 285.409 -116.79 280.625 -115.422 276.739C-105.25 247.847 -97.6522 218.285 -91.6497 188.285C-91.3302 186.688 -91.2159 185.049 -91.0144 183.494C-99.3857 180.076 -100.852 177.181 -100.251 168.13C-99.5244 157.191 -99.3508 146.216 -98.6933 135.271C-98.5912 133.571 -97.5707 131.54 -96.3176 130.361C-89.8896 124.312 -83.2148 118.527 -76.6882 112.582C-71.0148 107.414 -70.3806 100.397 -75.025 95.3895C-79.5821 90.4756 -86.3303 90.3926 -91.9485 95.3906C-106.883 108.676 -121.752 122.035 -137.129 135.297C-137.611 135.229 -137.926 134.923 -137.926 134.923C-127.174 121.783 -116.382 108.677 -105.709 95.4742C-103.752 93.0539 -102.064 90.3546 -100.625 87.5896C-96.6494 79.9484 -90.3504 76.8457 -82.0275 78.8514C-70.8327 81.5493 -64.6702 89.2545 -61.4356 99.8111C-55.3781 119.581 -54.3864 139.595 -57.521 160.044C-64.134 203.183 -73.6923 245.564 -88.3825 286.725C-90.2176 291.867 -92.5727 296.345 -99.1168 299.091C-30.8953 299.091 35.8967 299.091 103.574 299.091C94.7115 294.499 92.7145 287.962 94.4243 279.222C97.5474 263.258 100.032 247.169 102.962 230.091C100.363 232.621 98.799 234.591 96.8268 235.984C90.3573 240.553 81.6767 239.158 76.928 232.434C66.2744 217.349 55.8656 202.091 45.4506 186.84C44.2937 185.146 43.7418 183.038 42.2997 179.72C56.7449 187.871 60.9962 176.145 67.759 168.424C74.7076 178.437 81.365 188.031 88.3883 198.151C91.9014 192.858 95.0872 188.057 98.4682 182.963C91.691 178.897 92.6616 172.305 92.7681 165.865C92.9136 157.068 92.6877 148.264 92.8527 139.468C92.8897 137.496 93.3968 135.184 94.5244 133.639C99.9227 126.246 105.649 119.093 111.18 111.795C115.949 105.504 115.451 98.7653 110.032 94.546C104.683 90.3819 97.7749 91.6249 92.9999 97.6381C91.2588 99.8307 89.5746 102.068 87.2172 105.125C85.6386 96.2692 86.7108 89.0023 92.215 83.0129C97.4105 77.3593 104.087 77.5822 110.723 79.8937C120.107 83.1624 125.458 90.31 128.519 99.4323C133.589 114.541 136.448 129.966 135.707 146.002C134.53 171.445 134.499 196.982 132.2 222.318C130.204 244.306 125.826 266.084 122.291 287.92C121.474 292.966 118.164 296.501 112.523 298.958C148.059 298.958 182.687 298.958 215.851 298.958C213.742 295.798 209.974 292.21 208.766 287.904C206.383 279.408 212.13 272.815 221.475 270.4C231.567 267.792 241.823 265.237 251.345 261.125C271.447 252.443 286.608 238.166 295.872 217.441C296.711 218.04 297.5 218.688 298.366 219.209C303.145 222.083 308.275 221.714 312.232 218.249C316.3 214.687 317.243 209.449 314.816 204.173C312.945 200.105 310.822 196.12 309.341 191.911C303.484 175.265 308.676 162.742 324.013 154.135C327.136 152.382 329.951 148.837 331.294 145.473C332.912 141.419 331.07 137.273 327.46 134.42C323.879 131.59 319.706 130.978 315.714 132.901C311.401 134.98 307.447 137.802 303.339 140.303C302.017 141.108 300.701 141.92 298.298 143.394C301.245 135.251 305.255 129.673 311.58 125.945C326.143 117.364 340.322 125.004 340.266 141.89C340.243 148.768 337.911 155.609 337.035 162.519C335.385 175.538 334.114 188.606 332.504 201.631C331.904 206.488 334.16 208.225 338.559 209.291C348.396 211.674 358.092 214.633 367.88 217.228C372.938 218.568 376.405 221.598 378.352 226.361C385.513 243.879 392.705 261.386 399.726 278.961C403.106 287.422 400.509 293.731 391.402 298.923C425.174 298.923 458.369 298.923 492 298.923C496.067 298.923 499.918 298.937 504 298.937C495.198 294.949 494.491 287.661 494.552 279.473C494.769 250.478 495.152 221.468 494.481 192.487C493.896 167.262 491.971 142.068 490.638 116.86C489.692 116.769 488.746 116.677 487.8 116.586C486.381 123.045 484.502 129.442 483.633 135.974C481.418 152.623 482.961 169.22 485.17 185.772C485.454 187.902 485.811 190.189 485.341 192.22C484.348 196.514 481.484 199.115 476.904 199.385C472.478 199.646 468.215 197.035 467.591 192.738C463.773 166.426 461.228 140.058 469.566 114.091C473.177 102.845 479.214 93.0242 490.898 88.59C495.457 86.8602 500.622 86.6223 505.547 85.986C515.618 84.6853 525.742 83.7722 535.793 82.3356C548.097 80.577 557.119 85.7678 564.257 95.1423C570.916 103.887 575.355 113.889 577.343 124.521C580.576 141.819 582.848 159.305 585.201 176.756C586.168 183.924 582.58 188.646 576.767 189.148C571.181 189.631 567.027 185.112 566.641 178.037C565.668 160.215 563.647 142.544 558.42 125.405C556.888 120.382 554.655 115.572 551.561 110.931C552.363 118.136 553.388 125.324 553.931 132.548C556.977 173.105 569.523 211.724 578.012 251.169C579.969 260.263 582.25 269.287 584.699 279.689C575.502 281.832 566.328 283.97 556.84 286.181C548.413 250.429 540.231 215.712 531.921 180.454C529.114 180.789 526.423 181.11 523.366 181.475C523.366 183.495 523.366 185.299 523.366 187.102C523.366 218.765 523.286 250.429 523.426 282.091C523.459 289.509 521.478 294.975 514.5 298.923C518.001 298.923 521.501 298.928 525 298.937C553.542 299.008 582.057 299.334 611.031 299.334C611.5 325.991 611.5 352.648 611.5 379.288C278.167 379.288 -55.1667 379.288 -388.5 379.288C-388.5 352.918 -388.5 326.595 -388.5 299.803ZM530.344 335.458C532.765 335.458 535.185 335.458 538.303 335.458C536.116 340.71 534.202 345.309 532.15 350.235C535.531 349.043 540.327 339.405 540.831 333.612C537.053 333.612 533.279 333.612 528.574 333.605C524.327 333.605 520.081 333.605 515.835 333.605C515.836 334.151 515.836 334.697 515.837 335.244C518.772 335.244 521.708 335.244 525.409 335.244C523.092 340.746 521.161 345.335 519.229 349.923C519.636 350.168 520.044 350.413 520.451 350.658C521.343 349.413 522.36 348.238 523.105 346.911C525.296 343.01 527.38 339.049 530.344 335.458ZM449.395 339.68C452.69 339.678 452.361 342.065 452.442 344.236C452.519 346.303 452.694 348.367 452.827 350.432C453.271 350.431 453.716 350.43 454.161 350.429C454.399 349.592 454.682 348.766 454.867 347.918C455.482 345.099 453.237 340.136 457.432 340.032C461.889 339.921 459.483 344.92 460.167 347.661C460.41 348.632 460.794 349.568 461.113 350.52C461.567 350.425 462.02 350.33 462.474 350.235C462.474 347.148 462.713 344.034 462.356 340.989C462.213 339.776 460.786 337.784 459.884 337.75C456.099 337.608 452.292 338.073 447.717 338.129C446.695 338.238 444.787 338.311 444.781 338.462C444.617 342.416 444.651 346.377 444.651 350.337C445.324 350.387 445.997 350.437 446.67 350.487C446.905 349.144 447.128 347.798 447.378 346.458C447.791 344.252 448.221 342.049 449.395 339.68ZM339 299.335C353.145 299.335 367.29 299.335 380.38 299.335C377.813 295.913 374.457 292.797 372.774 288.95C366.726 275.131 361.295 261.044 355.478 247.122C354.797 245.494 353.417 243.432 351.934 242.984C341.474 239.823 330.903 237.032 320.213 234.081C300.518 271.543 268.033 290.598 228.162 299.335C264.775 299.335 301.387 299.335 339 299.335ZM-255.04 327.199C-259.638 332.794 -258.21 337.625 -251.42 339.377C-249.816 339.791 -247.949 339.731 -246.636 340.568C-245.316 341.409 -243.654 343.182 -243.769 344.393C-243.883 345.602 -246.118 347.628 -247.238 347.512C-249.575 347.269 -251.833 345.939 -254.037 344.879C-255.317 344.263 -256.43 343.304 -258.55 341.869C-256.934 350.098 -250.888 353.499 -244.516 350.46C-242.299 349.402 -239.831 346.229 -239.797 343.987C-239.764 341.796 -242.315 339.052 -244.428 337.497C-246.286 336.13 -249.192 336.277 -251.462 335.338C-252.424 334.94 -253.624 333.378 -253.503 332.516C-253.336 331.327 -251.922 329.312 -251.215 329.383C-248.843 329.619 -246.497 330.493 -244.244 331.384C-242.895 331.917 -241.737 332.936 -239.526 334.359C-241.602 325.684 -246.443 323.647 -255.04 327.199ZM548.121 333.296C544.224 334.087 541.115 335.317 543.954 340.22C544.216 340.672 543.809 341.501 543.736 342.158C543.518 344.114 542.431 346.83 543.309 347.849C544.581 349.326 547.421 350.448 549.328 350.131C551.709 349.736 553.821 347.726 556.095 346.386C558.557 350.32 562.908 351.778 566.532 349.361C570.72 346.568 568.503 343.552 567.228 340.456C567.606 338.436 567.624 335.161 566.75 334.903C564.161 334.136 561.002 333.944 558.524 334.821C557.531 335.173 557.735 338.903 557.394 341.095C557.743 341.175 558.092 341.255 558.441 341.336C557.462 342.545 556.484 343.755 555.434 345.053C554.354 343.526 553.436 342.227 552.536 340.954C555.488 336.273 554.777 334.803 548.121 333.296ZM-359.27 325.307C-360.06 325.394 -360.85 325.482 -361.92 325.601C-359.042 333.683 -356.344 341.52 -353.381 349.255C-353.006 350.234 -351.279 351.121 -350.105 351.226C-349.237 351.303 -347.736 350.235 -347.396 349.342C-344.42 341.527 -341.641 333.637 -338.803 325.77C-339.252 325.408 -339.701 325.046 -340.15 324.684C-341.359 325.886 -343.112 326.875 -343.681 328.327C-345.974 334.177 -347.901 340.17 -350.175 346.718C-353.121 339.13 -355.785 332.268 -359.27 325.307ZM-179.088 337.557C-179.748 338.164 -180.408 338.772 -181.809 340.062C-181.809 336.282 -181.807 333.522 -181.809 330.762C-181.813 325.682 -181.814 325.682 -185.422 325.732C-185.422 334.146 -185.422 342.562 -185.422 350.978C-185.011 351.244 -184.599 351.509 -184.188 351.775C-183.394 350.643 -182.316 349.61 -181.876 348.354C-181.301 346.716 -181.232 344.901 -180.929 343.06C-176.165 345.04 -176.529 352.272 -169.744 351.122C-172.386 347.247 -174.774 343.744 -178.012 338.996C-175.237 337.033 -172.545 335.129 -169.853 333.225C-170.366 332.636 -170.879 332.048 -171.392 331.46C-173.766 333.316 -176.14 335.172 -179.088 337.557ZM-324.346 342.334C-324.037 342.012 -323.486 341.71 -323.457 341.365C-323.058 336.623 -325.726 333.058 -330.104 332.383C-335.034 331.622 -339.367 334.706 -340.338 339.666C-341.355 344.86 -338.531 349.939 -333.962 351.134C-329.263 352.362 -325.353 350.097 -323.605 344.26C-326.572 345.813 -328.766 347.728 -331.164 348.033C-334.587 348.468 -336.539 346.261 -336.401 342.363C-332.573 342.363 -328.923 342.363 -324.346 342.334ZM-225.357 339.416C-225.681 346.497 -223.002 350.647 -217.671 351.32C-212.958 351.914 -208.556 348.904 -207.552 344.4C-206.416 339.309 -208.697 334.58 -213.101 332.893C-218 331.017 -222.24 333.05 -225.357 339.416ZM-279.483 351.25C-273.681 348.753 -271.739 345.775 -272.457 340.236C-273.013 335.955 -275.529 333.283 -279.707 332.444C-285.164 331.349 -289.98 335.18 -290.491 340.798C-291.066 347.129 -287.299 351.018 -279.483 351.25ZM386.474 345.005C386.71 344.954 386.946 344.869 387.18 344.876C387.241 344.877 387.313 345.16 387.349 345.32C388.226 349.313 390.898 351.048 394.661 350.087C396.246 349.683 397.415 347.652 398.608 346.517C395.438 346.682 393.077 346.804 390.715 346.927C390.701 344.908 389.887 342.344 390.822 340.973C393.679 336.784 395.538 342.172 398.553 341.781C397.329 339.954 395.403 337.327 394.098 337.606C391.292 338.205 388.805 340.302 386.864 341.402C384.759 340.233 382.259 338.095 379.473 337.612C378.078 337.37 375.331 339.836 374.658 341.627C373.413 344.939 374.161 348.46 378.013 349.9C382.037 351.404 384.719 349.498 386.474 345.005ZM-188.449 345.565C-189.742 345.646 -191.654 345.212 -192.219 345.895C-194.67 348.851 -197.205 349.061 -199.939 346.702C-202.248 344.709 -202.335 339.171 -200.06 337.098C-197.151 334.447 -194.496 334.786 -192.103 338.119C-191.484 338.982 -189.912 339.162 -188.146 339.931C-189.188 334.674 -191.899 332.654 -195.981 332.354C-200.486 332.022 -204.054 334.708 -205.194 339.107C-206.431 343.88 -204.426 348.622 -200.364 350.525C-195.782 352.673 -191.923 351.297 -188.449 345.565ZM-320.514 346.503C-318.417 350.292 -315.142 351.906 -310.944 351.233C-307.361 350.659 -304.931 348.617 -304.171 343.623C-306.053 344.68 -307.566 345.105 -308.428 346.095C-310.753 348.766 -313.218 348.988 -315.811 346.864C-318.3 344.825 -318.327 338.975 -315.861 336.88C-313.312 334.715 -310.827 334.823 -308.49 337.518C-307.624 338.518 -306.235 339.063 -304.283 340.341C-305.773 334.316 -307.931 332.425 -312.276 332.328C-319.109 332.175 -322.602 337.698 -320.514 346.503ZM-297.871 327.835C-298.198 327.869 -298.524 327.904 -298.851 327.938C-297.74 331.045 -306.99 332.622 -300.149 336.674C-299.757 336.906 -299.995 338.248 -299.988 339.074C-299.967 341.562 -299.931 344.051 -299.973 346.538C-300.041 350.6 -297.66 351.72 -294.164 351.286C-293.453 351.198 -292.838 350.335 -292.179 349.83C-292.648 349.292 -293.02 348.564 -293.61 348.264C-294.402 347.862 -295.363 347.79 -296.195 347.59C-296.195 343.447 -296.195 339.664 -296.195 336.385C-294.616 335.429 -293.381 334.68 -292.145 333.932C-293.311 333.143 -294.477 332.353 -296.159 331.213C-296.323 330.638 -296.711 329.275 -297.871 327.835ZM-228.539 351.34C-227.061 348.993 -227.061 348.993 -231.182 347.153C-231.182 343.345 -231.182 339.557 -231.182 336.54C-229.519 335.423 -228.331 334.624 -227.144 333.826C-228.374 333.085 -229.605 332.344 -230.836 331.602C-231.405 330.468 -232.062 329.157 -232.719 327.846C-233.457 328.311 -234.833 328.783 -234.827 329.238C-234.794 331.805 -240.861 334.247 -235.077 337.007C-234.739 337.168 -234.984 338.576 -234.981 339.405C-234.975 341.561 -234.903 343.72 -235 345.872C-235.18 349.89 -233.382 351.759 -228.539 351.34ZM573.922 339.256C574.961 338.014 575.871 335.924 577.071 335.743C578.596 335.513 580.354 336.829 582.911 337.83C579.148 332.316 573.89 331.921 571.768 336.409C570.638 338.799 570.419 341.891 570.653 344.592C571.003 348.63 574.382 350.938 577.975 350.287C581.397 349.668 583.615 346.377 582.692 342.802C581.588 338.528 578.766 337.352 573.922 339.256ZM362.208 338.139C365.189 338.871 365.336 336.878 363.677 335.824C361.544 334.471 358.621 333.735 356.104 333.881C354.86 333.953 352.49 337.241 352.85 337.955C353.795 339.829 355.935 341.116 357.656 342.57C358.003 342.862 358.736 342.715 359.055 343.019C360.089 344.005 361.013 345.106 361.98 346.163C360.229 346.597 358.415 347.52 356.749 347.304C355.505 347.142 354.451 345.509 353.312 344.532C352.575 348.669 354.859 350.555 357.97 350.165C360.324 349.87 363.56 348.373 364.453 346.488C365.992 343.233 363.212 341.468 360.1 340.773C359.127 340.556 358.023 340.573 357.213 340.09C356.482 339.654 355.467 338.441 355.644 337.998C356 337.107 357.12 335.883 357.859 335.925C359.151 336.001 360.394 336.929 362.208 338.139ZM487.076 344.557C489.474 345.456 491.872 346.355 494.549 347.359C494.824 348.062 495.325 349.345 496.073 351.258C497.557 348.517 498.519 346.737 499.482 344.958C499.076 345.046 498.669 345.133 498.263 345.221C497.854 341.257 497.446 337.292 497.031 333.262C496.12 333.404 495.412 333.301 495.195 333.58C492.556 336.977 489.989 340.431 487.076 344.557ZM504.19 349.258C508.051 351.36 511.311 350.75 513.41 346.782C515.634 342.576 514.249 336.079 510.976 334.134C507.749 332.217 503.735 333.405 502.325 337.007C500.747 341.042 500.682 345.094 504.19 349.258ZM298.744 348.424C303.652 351.571 306.289 350.974 307.842 346.361C301.375 348.409 301.375 348.409 300.039 344.276C302.916 344.276 305.685 344.276 308.469 344.276C308.166 339.414 306.78 337.454 303.502 337.344C300.008 337.227 297.754 338.997 297.461 342.503C297.318 344.213 297.996 345.991 298.744 348.424ZM284.493 340.861C285.356 343.185 286.093 345.569 287.141 347.807C287.614 348.815 288.669 350.143 289.534 350.201C290.339 350.254 291.647 348.973 292.034 348.001C293.904 343.31 295.538 338.525 297.256 333.774C296.803 333.531 296.35 333.288 295.898 333.045C291.798 336.223 292.612 342.278 289.666 346.236C286.425 342.47 287.58 336.257 283.288 333.181C282.873 333.38 282.458 333.579 282.044 333.777C282.794 335.879 283.545 337.981 284.493 340.861ZM-268.163 351.368C-263.689 350.704 -266.209 347.258 -265.906 345.147C-265.362 341.355 -266.727 336.872 -260.836 335.959C-260.147 335.852 -259.744 333.902 -259.394 333.188C-263.018 333.188 -266.146 333.188 -269.084 333.188C-269.084 338.814 -269.084 345.039 -268.163 351.368ZM479.347 348.061C481.152 345.863 483.446 343.89 484.597 341.39C485.401 339.645 485.448 336.029 484.398 335.291C482.585 334.018 479.568 333.805 477.232 334.197C476.002 334.403 475.143 336.83 474.117 338.254C474.585 338.562 475.052 338.871 475.52 339.179C476.22 338.359 476.793 337.051 477.649 336.826C479.182 336.425 480.885 336.677 482.517 336.656C482.398 338.131 482.725 339.869 482.049 341.015C481.158 342.524 479.435 343.524 478.149 344.82C476.679 346.302 475.295 347.869 473.49 349.812C478.494 349.812 482.255 349.812 486.017 349.812C486.023 349.248 486.029 348.684 486.035 348.12C484.046 348.12 482.057 348.12 479.347 348.061ZM403.427 346.162C404.512 346.65 405.69 347 406.658 347.659C407.946 348.538 409.07 349.657 410.265 350.673C410.528 350.35 410.791 350.028 411.054 349.706C409.53 347.387 408.005 345.069 406.508 342.792C408.085 340.997 409.482 339.406 410.88 337.815C410.631 337.5 410.382 337.185 410.132 336.869C408.087 338.41 406.042 339.951 403.903 341.562C403.405 338.601 402.948 335.881 402.491 333.16C402.038 333.289 401.585 333.417 401.132 333.546C401.132 339.137 401.132 344.728 401.132 350.32C401.623 350.393 402.114 350.465 402.606 350.538C402.866 349.361 403.126 348.183 403.427 346.162ZM331.191 343.841C331.422 347.934 333.375 350.494 337.672 350.297C341.478 350.123 343.714 347.345 343.148 344.025C342.737 341.613 340.527 338.357 338.393 337.64C334.579 336.359 331.815 338.752 331.191 343.841ZM440.05 349.653C443.911 347.002 444.662 343.217 441.896 339.9C440.568 338.308 436.807 337.547 434.618 338.141C430.973 339.129 430.639 342.821 431.54 346.02C432.624 349.874 435.6 350.954 440.05 349.653ZM310.467 341.654C310.465 343.137 309.851 345.163 310.586 345.991C312.171 347.775 314.298 349.746 316.483 350.159C319.126 350.657 321.324 348.913 321.428 346.063C318.737 346.486 316.357 346.86 313.977 347.235C313.728 345.385 312.721 343.201 313.363 341.744C315.884 336.015 318.655 342.696 321.778 341.547C320.418 339.81 318.675 337.491 317.124 337.614C314.891 337.79 312.799 339.742 310.467 341.654ZM423.314 348.024C420.407 346.434 419.903 343.97 421.433 341.331C424.34 336.315 426.622 342.595 429.77 342.234C428.655 338.217 426.301 336.653 422.748 337.515C419.069 338.408 417.981 341.27 418.336 344.793C418.717 348.558 420.921 350.532 424.608 350.294C427.324 350.119 429.578 348.936 429.218 345.16C427.281 346.296 425.664 347.245 423.314 348.024ZM330.154 338.866C328.803 337.29 327.453 335.714 325.938 333.946C324.719 335.656 323.707 337.075 322.695 338.494C323.111 338.489 323.526 338.484 323.941 338.479C324.195 341.121 324.476 343.762 324.696 346.407C325.036 350.484 326.369 351.157 330.137 349.109C326.612 346.842 326.267 341.709 330.154 338.866ZM370.456 346.372C370.706 343.428 369.041 339.846 373.621 338.344C372.433 339.327 371.244 340.31 370.055 341.294C369.492 339.253 368.929 337.213 368.306 334.955C367.829 335.602 366.733 337.089 365.637 338.576C367.095 341.045 367.485 343.534 367.667 346.037C367.976 350.311 368.728 350.831 373.594 349.38C372.421 348.543 371.485 347.875 370.456 346.372ZM470.779 339.189C471.495 337.009 472.21 334.83 472.925 332.651C472.276 332.446 471.626 332.242 470.977 332.037C468.487 339.367 465.997 346.697 463.507 354.026C464.138 354.28 464.768 354.534 465.399 354.788C467.12 349.849 468.842 344.91 470.779 339.189ZM344.876 337.644C344.057 347.28 344.29 348.853 347.393 350.556C347.31 345.696 346.166 340.55 351.402 337.805C349.494 337.654 347.586 337.504 344.876 337.644Z" fill="#020202"/>
<path d="M136.399 50.8788C140.16 50.9118 143.465 50.9118 146.743 50.9118C147.183 62.6334 138.342 73.2528 126.513 75.778C114.3 78.385 101.637 71.5136 97.0046 59.7664C92.9921 49.5906 95.857 37.791 104.073 30.6531C112.44 23.3843 124.011 22.3331 133.906 27.4216C136.635 28.8251 140.029 29.1 143.168 29.5031C148.095 30.1358 153.164 29.9973 157.976 31.0682C160.327 31.5915 162.236 34.1053 164.345 35.7181C162.537 37.704 161.105 40.5385 158.858 41.5336C146.99 46.7896 134.577 48.1761 121.797 45.4102C120.867 45.2088 119.914 45.1115 118.971 44.9658C118.829 45.5289 118.687 46.0919 118.546 46.655C124.345 48.052 130.144 49.4489 136.399 50.8788ZM117.529 43.9978C117.455 44.2274 117.381 44.457 117.307 44.6867C117.536 44.6079 117.766 44.5292 117.529 43.9978Z" fill="#040404"/>
<path d="M45.2986 164.341C61.643 143.096 77.7559 122.13 93.8887 101.179C98.0985 95.7116 102.901 94.5 107.61 97.6283C112.439 100.836 113.078 106.581 108.956 111.967C93.9972 131.514 78.9651 151.004 63.9629 170.517C62.2401 172.758 60.55 175.024 58.8094 177.251C54.7372 182.461 49.5259 183.583 44.9734 180.259C40.4192 176.933 40.0122 171.711 43.8844 166.226C44.2678 165.683 44.6772 165.159 45.2986 164.341Z" fill="#050505"/>
<path d="M54.5046 126.468C50.1658 131.753 46.0662 136.771 41.8214 141.967C40.614 141.042 39.6116 140.273 38.0977 139.113C42.8725 133.242 47.5489 127.493 52.3118 121.637C50.1218 119.712 48.1608 117.988 45.4485 115.604C51.3186 115.005 56.3219 114.494 61.7077 113.945C62.225 119.31 62.7072 124.31 63.1783 129.196C59.4837 129.721 59.0214 123.151 54.5046 126.468Z" fill="#0E0E0E"/>
<path d="M117.762 44.2241C117.766 44.5292 117.536 44.6079 117.307 44.6866C117.381 44.457 117.455 44.2274 117.762 44.2241Z" fill="#FEFEFE"/>
</g>
<defs>
<clipPath id="clip0_322_323">
<rect width="1000" height="1077" fill="white" transform="translate(-390 -697)"/>
</clipPath>
</defs>
</svg>
