<svg width="120" height="133" viewBox="0 0 120 133" fill="none" xmlns="http://www.w3.org/2000/svg">
<path d="M81.0577 89.1486C83.7287 100.257 86.6096 111.32 88.9746 122.493C90.0221 127.442 86.9634 131.307 82.4883 132.059C77.7911 132.849 74.1098 130.594 72.8496 125.601C70.4135 115.95 68.2492 106.231 65.9546 96.5437C65.6894 95.4244 65.3125 94.3316 64.9236 93.0095C54.5301 93.0095 44.2282 93.0095 33.4211 92.6431C31.9624 91.8564 31.0087 91.4361 30.055 91.0157C22.2126 78.3622 19.3879 64.4968 20.1541 49.7827C20.4767 43.5897 22.1356 37.968 27.7244 34.3874C33.2126 30.8713 38.7794 31.849 41.7867 37.3723C44.9301 43.1456 47.3911 49.2905 49.8651 55.7852C48.7083 57.5939 47.8366 58.8904 46.8331 60.3831C43.1078 54.0049 42.3394 46.7641 37.042 41.9624C40.1603 49.4552 43.2787 56.948 46.5695 64.8551C56.7376 61.1908 66.4922 57.6756 76.2467 54.1603C83.065 54.2877 85.0213 57.7298 80.9119 63.8039C75.4707 65.8313 70.6782 67.5651 65.5 69.4135C59.7517 71.397 54.3892 73.2658 48.6248 75.1382C45.4682 75.2298 42.7136 75.3178 39.7332 75.1165C36.2682 67.0132 32.985 59.2171 29.8039 51.3796C27.4358 45.5452 28.1206 43.9049 33.6504 41.4151C28.5779 40.4263 25.4107 44.5147 27.2738 49.9354C28.6205 53.8536 30.2556 57.6826 31.9404 61.4721C34.1402 66.4199 36.5162 71.2894 39.0166 76.5175C42.503 76.7385 45.7891 76.6344 49.5309 76.4397C58.7896 76.77 71.5 76 77.5 79.5C79.8022 80.843 79.5 84.5 80 85C80 85.5 80.5 85.5 80 84.5C79 76 73.3463 76.9136 71.5 77C68.493 77.1407 66.6004 73.8907 66.3742 70.9262C71.815 69.1617 76.9209 67.5469 82.0269 65.9321C84.3698 70.3289 86.8409 74.6633 89.0197 79.1399C91.2122 83.6448 89.481 88.8035 85.3205 90.5335C84.7528 90.7696 82.3011 89.985 81.5 89C81 87.5 80.7067 86.4622 80.5 85.5C80.8248 85.4751 80.1751 85.5249 80.5 85.5C80.5 86.5 80.7365 87.8126 81.0577 89.1486Z" fill="#050505"/>
<path d="M35.0449 93.7154C36.6147 93.7154 38.3843 93.7154 40 93.7154C42.5 93.7154 47 94 50.5 94C52.3785 94 54.6452 94 57.0619 94C58.7851 94 59.5842 95.9408 58.1368 96.876C52.7969 100.326 46.0326 100.65 41.0371 103.035C40.3892 103.344 40.0085 104.015 40.0085 104.733C40.0085 108.212 40.0085 111.8 40.0085 115.562C40.0085 116.434 40.5731 117.206 41.4056 117.465C45.9864 118.889 50.607 120.217 55.0881 121.913C56.7921 122.558 58.643 124.047 59.396 125.639C60.2095 127.357 60.0346 129.679 59.7406 131.657C59.6905 131.994 55.9351 132.539 55.526 131.916C54.5869 130.485 54.3547 128.59 53.7483 126.006C53.5909 125.335 53.0837 124.806 52.4263 124.6C49.901 123.809 46.6537 122.792 42.8128 121.59C41.3221 121.123 39.9504 122.454 40.355 123.962C40.5943 124.855 40.7744 125.669 40.8341 126.492C40.962 128.257 41.0304 130.362 40.1773 131.725C39.726 132.446 36.3978 132.516 35.8909 131.801C34.9776 130.513 34.9114 128.39 35.0449 126.658C35.1107 125.805 35.325 124.963 35.6119 124.035C36.0808 122.52 34.7182 121.136 33.2007 121.598C29.5413 122.715 26.2716 123.712 23.0009 124.709C22.0032 125.014 21.449 126.023 21.7725 127.015C22.0572 127.887 22.2717 128.706 21.9936 129.291C21.3279 130.692 19.3126 132.751 18.5013 132.5C17.0165 132.04 14.8028 129.87 15.0035 128.815C15.5433 125.977 16.2384 122.823 20.1202 121.938C24.3133 120.983 28.3088 119.154 32.5051 118.222C35.6511 117.524 36.4326 115.956 36.2185 113.024C36.0247 110.369 36.1229 107.693 36.157 104.752C36.1679 103.819 35.5216 103.009 34.6116 102.803C30.6767 101.909 26.8727 101.056 23.0775 100.165C18.8883 99.1821 16.2927 96.8467 14.8319 92.5113C11.6556 83.0844 7.94739 73.8345 4.36847 64.5462C1.73974 57.7238 -1.76422 46.558 1.99917 41.0948C2.75299 40.0004 4.29093 37.8824 8.1868 38.033C8.70926 38.0532 9.18309 38.3122 9.49964 38.7283C18.2199 50.1916 23.9209 78.8421 19.7533 81.2304C16.5 83.0948 14.4218 81.2304 13.1399 77.763C15.0013 82.7981 16.6159 87.1652 18.2917 91.6979C18.594 92.5158 19.3922 93.0392 20.2641 93.0255C25.3691 92.9454 29.3684 93.7154 35.0449 93.7154Z" fill="#0D0D0D"/>
<path d="M41.7054 0.205566C48.5521 1.40871 53.186 4.91318 54.8467 11.3147C56.3712 17.1914 54.8643 22.5112 50.1491 26.6443C45.8363 30.4248 38.9895 31.3005 33.8188 28.7806C28.5923 26.2335 25.0071 20.258 25.3264 14.6264C25.6732 8.5108 29.7553 2.91438 35.4425 1.11106C37.3064 0.520057 39.3422 0.471214 41.7054 0.205566Z" fill="#040404"/>
<path d="M51.1316 57.529C53.7731 54.5777 56.0605 51.1522 59.1714 48.8297C61.536 47.0643 65.014 45.7498 67.8768 45.9498C71.6429 46.213 74.0185 49.2272 73.6192 53.6042C65.4321 56.3918 57.9136 58.9046 50.1001 61.1554C49.595 60.7355 49.3848 60.5774 49.3232 60.1638C50.0251 59.1151 50.5783 58.322 51.1316 57.529Z" fill="#0A0A0A"/>
<path d="M117.159 53.4102C118.22 54.3351 118.867 55.2619 119.992 56.8758C114.05 56.8758 109.279 56.8758 104.109 56.8758C104.274 58.3077 104.406 59.4604 104.598 61.1332C100.038 59.2525 95.707 57.4661 90.3896 55.273C95.5187 53.0404 99.9214 51.1241 104.725 49.0332C104.418 50.5332 104.2 51.6003 103.83 53.412C108.315 53.412 112.53 53.412 117.159 53.4102Z" fill="#1B1B1B"/>
<path d="M50.3954 61.4176C57.9139 58.9049 65.4324 56.3922 73.3223 53.8996C74.2653 53.9287 74.8368 53.9376 75.8281 54.0534C66.4932 57.6756 56.7386 61.1908 46.5705 64.8551C43.2798 56.948 40.1613 49.4552 37.043 41.9624C42.3404 46.7641 43.1088 54.0049 46.8341 60.3831C47.8376 58.8904 48.7093 57.5939 49.9112 56.1674C50.5363 56.3208 50.8312 56.6041 51.129 57.2084C50.5786 58.3223 50.0254 59.1154 49.114 60.3549C48.6972 61.1631 48.6386 61.5248 48.58 61.8865C49.1852 61.7302 49.7903 61.5739 50.3954 61.4176Z" fill="#CACACA"/>
<path d="M65.8867 69.2989C70.6791 67.565 75.4716 65.8312 80.6403 64.0688C81.3313 64.4874 81.646 64.9346 81.9942 65.657C76.9219 67.5469 71.816 69.1617 66.3196 70.4834C65.9151 69.8932 65.9009 69.596 65.8867 69.2989Z" fill="#CACACA"/>
<path d="M38.8163 76.1926C36.5161 71.2894 34.1401 66.42 31.9403 61.4722C30.2555 57.6827 28.6204 53.8536 27.2737 49.9354C25.4106 44.5147 28.5778 40.4264 33.6503 41.4152C28.1205 43.905 27.4357 45.5453 29.8038 51.3796C32.9849 59.2172 36.2681 67.0132 39.4368 75.2976C39.1828 75.9095 38.9996 76.051 38.8163 76.1926Z" fill="#CACACA"/>
<path d="M48.6258 75.1382C49.0485 75.3667 49.0693 75.5989 49.0832 76.1807C45.7901 76.6344 42.504 76.7384 39.0177 76.5175C39.0007 76.0509 39.1839 75.9094 39.6636 75.5868C42.7146 75.3178 45.4692 75.2298 48.6258 75.1382Z" fill="#CACACA"/>
<path d="M50.1005 61.1558C49.7904 61.574 49.1852 61.7303 48.5801 61.8866C48.6387 61.5249 48.6973 61.1632 48.9655 60.6106C49.3852 60.5778 49.5954 60.7359 50.1005 61.1558Z" fill="#0A0A0A"/>
</svg>
