<svg width="148" height="173" viewBox="0 0 148 173" fill="none" xmlns="http://www.w3.org/2000/svg">
<path d="M29.1004 93.2741C28.5184 89.7164 29.2336 86.4245 30.579 83.0723C36.5904 68.0939 42.3997 53.0345 48.3372 38.0262C51.0106 31.2682 56.2564 28.2828 63.3912 29.7525C69.4496 31.0005 75.2654 33.1666 80.3671 36.7222C82.7012 38.3488 84.991 39.0302 87.7674 39.008C97.9227 38.9267 108.079 38.9646 118.235 39.003C125.28 39.0295 129.369 42.2062 129.432 47.6024C129.492 52.8232 125.21 56.3484 118.262 56.4345C108.44 56.5563 98.614 56.591 88.7946 56.4062C85.3115 56.3407 83.3633 57.3998 82.1013 60.8039C78.0533 71.7219 73.7648 82.5526 69.4227 93.3581C68.1878 96.4311 65.6592 101.331 63.6592 104.077C62.1592 106.136 57.617 112.139 59.1592 117.331C61.3548 120.748 59.6938 131.068 57.7591 134.782C52.1461 145.557 46.8441 156.494 41.3122 167.311C38.5331 172.746 33.6784 174.19 28.3213 171.427C22.9136 168.639 21.3015 164.123 24.0343 158.523C27.7565 150.895 31.4873 143.258 35.6157 135.849C37.7762 131.971 38.6451 126.872 36.0145 123.382C33.719 120.336 31.6034 117.078 29.9304 113.658C27.3784 108.442 45.3608 105.719 39.1592 104.331C33.6238 101.437 30.9982 99.443 29.1004 93.2741Z" fill="black"/>
<path d="M147.39 7.42929C147.388 59.5728 147.389 111.228 147.378 162.882C147.376 170.67 147.351 170.686 139.829 170.672C130.09 170.653 130.947 171.356 130.945 161.771C130.938 110.283 130.937 58.7947 130.938 7.30658C130.938 0.0164485 130.95 0.0163882 138.436 0.0018312C139.102 0.000549196 139.769 -0.00103733 140.435 0.000915669C147.261 0.0207217 147.261 0.0209346 147.39 7.42929Z" fill="black"/>
<path d="M31.1592 87.8315C33.264 94.158 36.6387 101.182 41.8003 103.994C42.4375 106.674 41.1179 108.723 40.2695 110.847C33.2458 128.434 26.1611 145.997 19.0832 163.563C16.4697 170.049 12.0119 172.223 6.22161 169.875C0.360406 167.498 -1.43543 162.907 1.15728 156.45C9.26678 136.254 17.4087 116.071 25.6437 95.9256C26.1451 94.6988 28.9245 87.5465 31.1592 87.8315Z" fill="black"/>
<path d="M80.7665 0.0563338C88.2855 1.57312 92.2152 6.22726 93.204 13.0964C94.0566 19.0191 91.5622 23.9491 86.5904 27.2508C81.4183 30.6854 75.9023 30.6996 70.5458 27.5514C64.935 24.2537 62.3559 17.1129 64.1944 10.5111C66.1011 3.66418 71.8929 -0.0981462 80.7665 0.0563338Z" fill="black"/>
<path d="M21.2092 29.3591C24.2685 27.996 27.4159 28.7388 30.4562 28.3569C31.1525 28.2694 31.8982 28.6153 32.578 28.2168C33.2281 27.0172 32.2041 25.5313 33.5268 24.3311C35.6434 25.5451 37.1217 27.4221 38.7876 29.0938C39.3044 29.6125 39.2767 30.2017 38.7382 30.7187C37.0904 32.3006 35.6078 34.0546 33.7075 35.3311C33.4343 35.1388 33.1696 35.0326 33.1766 34.9461C33.4229 31.8641 31.6956 31.1489 28.8367 31.4288C26.9366 31.6149 24.9987 31.46 23.0779 31.4437C21.7894 31.4328 20.9394 30.9818 21.2092 29.3591Z" fill="black"/>
<path d="M115.245 64.8085C112.148 66.0845 109.023 65.2531 105.973 65.5489C105.274 65.6166 104.539 65.2498 103.848 65.6289C103.164 66.8096 104.146 68.3239 102.79 69.4863C100.708 68.2129 99.2836 66.2948 97.6656 64.5766C97.1637 64.0436 97.208 63.4554 97.761 62.9538C99.4528 61.4191 100.984 59.7078 102.92 58.4855C103.188 58.6854 103.449 58.7991 103.44 58.8854C103.107 61.9591 104.813 62.723 107.679 62.5239C109.583 62.3916 111.516 62.6013 113.436 62.6719C114.723 62.7192 115.56 63.1941 115.245 64.8085Z" fill="black"/>
</svg>
